%TF.GenerationSoftware,KiCad,Pcbnew,8.0.9-8.0.9-0~ubuntu22.04.1*%
%TF.CreationDate,2025-03-09T15:02:26+09:00*%
%TF.ProjectId,M302N,4d333032-4e2e-46b6-9963-61645f706362,rev?*%
%TF.SameCoordinates,Original*%
%TF.FileFunction,Legend,Top*%
%TF.FilePolarity,Positive*%
%FSLAX46Y46*%
G04 Gerber Fmt 4.6, Leading zero omitted, Abs format (unit mm)*
G04 Created by KiCad (PCBNEW 8.0.9-8.0.9-0~ubuntu22.04.1) date 2025-03-09 15:02:26*
%MOMM*%
%LPD*%
G01*
G04 APERTURE LIST*
%ADD10C,0.500000*%
%ADD11C,0.120000*%
%ADD12C,0.150000*%
%ADD13C,0.300000*%
%ADD14C,0.187500*%
%ADD15C,0.125000*%
%ADD16C,0.100000*%
G04 APERTURE END LIST*
D10*
X107315000Y-73215500D02*
X107315000Y-74866500D01*
D11*
X76818661Y-69112760D02*
X77732947Y-69112760D01*
X77275804Y-69569902D02*
X77275804Y-68655617D01*
X78875803Y-68369902D02*
X78304375Y-68369902D01*
X78304375Y-68369902D02*
X78247232Y-68941331D01*
X78247232Y-68941331D02*
X78304375Y-68884188D01*
X78304375Y-68884188D02*
X78418661Y-68827045D01*
X78418661Y-68827045D02*
X78704375Y-68827045D01*
X78704375Y-68827045D02*
X78818661Y-68884188D01*
X78818661Y-68884188D02*
X78875803Y-68941331D01*
X78875803Y-68941331D02*
X78932946Y-69055617D01*
X78932946Y-69055617D02*
X78932946Y-69341331D01*
X78932946Y-69341331D02*
X78875803Y-69455617D01*
X78875803Y-69455617D02*
X78818661Y-69512760D01*
X78818661Y-69512760D02*
X78704375Y-69569902D01*
X78704375Y-69569902D02*
X78418661Y-69569902D01*
X78418661Y-69569902D02*
X78304375Y-69512760D01*
X78304375Y-69512760D02*
X78247232Y-69455617D01*
X79275803Y-68369902D02*
X79675803Y-69569902D01*
X79675803Y-69569902D02*
X80075803Y-68369902D01*
X76888518Y-72306760D02*
X77059947Y-72363902D01*
X77059947Y-72363902D02*
X77345661Y-72363902D01*
X77345661Y-72363902D02*
X77459947Y-72306760D01*
X77459947Y-72306760D02*
X77517089Y-72249617D01*
X77517089Y-72249617D02*
X77574232Y-72135331D01*
X77574232Y-72135331D02*
X77574232Y-72021045D01*
X77574232Y-72021045D02*
X77517089Y-71906760D01*
X77517089Y-71906760D02*
X77459947Y-71849617D01*
X77459947Y-71849617D02*
X77345661Y-71792474D01*
X77345661Y-71792474D02*
X77117089Y-71735331D01*
X77117089Y-71735331D02*
X77002804Y-71678188D01*
X77002804Y-71678188D02*
X76945661Y-71621045D01*
X76945661Y-71621045D02*
X76888518Y-71506760D01*
X76888518Y-71506760D02*
X76888518Y-71392474D01*
X76888518Y-71392474D02*
X76945661Y-71278188D01*
X76945661Y-71278188D02*
X77002804Y-71221045D01*
X77002804Y-71221045D02*
X77117089Y-71163902D01*
X77117089Y-71163902D02*
X77402804Y-71163902D01*
X77402804Y-71163902D02*
X77574232Y-71221045D01*
X78088518Y-72363902D02*
X78088518Y-71163902D01*
X78088518Y-71163902D02*
X78374232Y-71163902D01*
X78374232Y-71163902D02*
X78545661Y-71221045D01*
X78545661Y-71221045D02*
X78659946Y-71335331D01*
X78659946Y-71335331D02*
X78717089Y-71449617D01*
X78717089Y-71449617D02*
X78774232Y-71678188D01*
X78774232Y-71678188D02*
X78774232Y-71849617D01*
X78774232Y-71849617D02*
X78717089Y-72078188D01*
X78717089Y-72078188D02*
X78659946Y-72192474D01*
X78659946Y-72192474D02*
X78545661Y-72306760D01*
X78545661Y-72306760D02*
X78374232Y-72363902D01*
X78374232Y-72363902D02*
X78088518Y-72363902D01*
X79231375Y-72021045D02*
X79802804Y-72021045D01*
X79117089Y-72363902D02*
X79517089Y-71163902D01*
X79517089Y-71163902D02*
X79917089Y-72363902D01*
X105219042Y-96645379D02*
X105219042Y-95645379D01*
X105219042Y-95645379D02*
X105457137Y-95645379D01*
X105457137Y-95645379D02*
X105599994Y-95692998D01*
X105599994Y-95692998D02*
X105695232Y-95788236D01*
X105695232Y-95788236D02*
X105742851Y-95883474D01*
X105742851Y-95883474D02*
X105790470Y-96073950D01*
X105790470Y-96073950D02*
X105790470Y-96216807D01*
X105790470Y-96216807D02*
X105742851Y-96407283D01*
X105742851Y-96407283D02*
X105695232Y-96502521D01*
X105695232Y-96502521D02*
X105599994Y-96597760D01*
X105599994Y-96597760D02*
X105457137Y-96645379D01*
X105457137Y-96645379D02*
X105219042Y-96645379D01*
X106361899Y-96073950D02*
X106266661Y-96026331D01*
X106266661Y-96026331D02*
X106219042Y-95978712D01*
X106219042Y-95978712D02*
X106171423Y-95883474D01*
X106171423Y-95883474D02*
X106171423Y-95835855D01*
X106171423Y-95835855D02*
X106219042Y-95740617D01*
X106219042Y-95740617D02*
X106266661Y-95692998D01*
X106266661Y-95692998D02*
X106361899Y-95645379D01*
X106361899Y-95645379D02*
X106552375Y-95645379D01*
X106552375Y-95645379D02*
X106647613Y-95692998D01*
X106647613Y-95692998D02*
X106695232Y-95740617D01*
X106695232Y-95740617D02*
X106742851Y-95835855D01*
X106742851Y-95835855D02*
X106742851Y-95883474D01*
X106742851Y-95883474D02*
X106695232Y-95978712D01*
X106695232Y-95978712D02*
X106647613Y-96026331D01*
X106647613Y-96026331D02*
X106552375Y-96073950D01*
X106552375Y-96073950D02*
X106361899Y-96073950D01*
X106361899Y-96073950D02*
X106266661Y-96121569D01*
X106266661Y-96121569D02*
X106219042Y-96169188D01*
X106219042Y-96169188D02*
X106171423Y-96264426D01*
X106171423Y-96264426D02*
X106171423Y-96454902D01*
X106171423Y-96454902D02*
X106219042Y-96550140D01*
X106219042Y-96550140D02*
X106266661Y-96597760D01*
X106266661Y-96597760D02*
X106361899Y-96645379D01*
X106361899Y-96645379D02*
X106552375Y-96645379D01*
X106552375Y-96645379D02*
X106647613Y-96597760D01*
X106647613Y-96597760D02*
X106695232Y-96550140D01*
X106695232Y-96550140D02*
X106742851Y-96454902D01*
X106742851Y-96454902D02*
X106742851Y-96264426D01*
X106742851Y-96264426D02*
X106695232Y-96169188D01*
X106695232Y-96169188D02*
X106647613Y-96121569D01*
X106647613Y-96121569D02*
X106552375Y-96073950D01*
X102679042Y-96645379D02*
X102679042Y-95645379D01*
X102679042Y-95645379D02*
X102917137Y-95645379D01*
X102917137Y-95645379D02*
X103059994Y-95692998D01*
X103059994Y-95692998D02*
X103155232Y-95788236D01*
X103155232Y-95788236D02*
X103202851Y-95883474D01*
X103202851Y-95883474D02*
X103250470Y-96073950D01*
X103250470Y-96073950D02*
X103250470Y-96216807D01*
X103250470Y-96216807D02*
X103202851Y-96407283D01*
X103202851Y-96407283D02*
X103155232Y-96502521D01*
X103155232Y-96502521D02*
X103059994Y-96597760D01*
X103059994Y-96597760D02*
X102917137Y-96645379D01*
X102917137Y-96645379D02*
X102679042Y-96645379D01*
X103726661Y-96645379D02*
X103917137Y-96645379D01*
X103917137Y-96645379D02*
X104012375Y-96597760D01*
X104012375Y-96597760D02*
X104059994Y-96550140D01*
X104059994Y-96550140D02*
X104155232Y-96407283D01*
X104155232Y-96407283D02*
X104202851Y-96216807D01*
X104202851Y-96216807D02*
X104202851Y-95835855D01*
X104202851Y-95835855D02*
X104155232Y-95740617D01*
X104155232Y-95740617D02*
X104107613Y-95692998D01*
X104107613Y-95692998D02*
X104012375Y-95645379D01*
X104012375Y-95645379D02*
X103821899Y-95645379D01*
X103821899Y-95645379D02*
X103726661Y-95692998D01*
X103726661Y-95692998D02*
X103679042Y-95740617D01*
X103679042Y-95740617D02*
X103631423Y-95835855D01*
X103631423Y-95835855D02*
X103631423Y-96073950D01*
X103631423Y-96073950D02*
X103679042Y-96169188D01*
X103679042Y-96169188D02*
X103726661Y-96216807D01*
X103726661Y-96216807D02*
X103821899Y-96264426D01*
X103821899Y-96264426D02*
X104012375Y-96264426D01*
X104012375Y-96264426D02*
X104107613Y-96216807D01*
X104107613Y-96216807D02*
X104155232Y-96169188D01*
X104155232Y-96169188D02*
X104202851Y-96073950D01*
D12*
X72012398Y-103731342D02*
X72012398Y-102531342D01*
X72698112Y-103731342D02*
X72183826Y-103045628D01*
X72698112Y-102531342D02*
X72012398Y-103217057D01*
D11*
X110299042Y-96645379D02*
X110299042Y-95645379D01*
X110299042Y-95645379D02*
X110537137Y-95645379D01*
X110537137Y-95645379D02*
X110679994Y-95692998D01*
X110679994Y-95692998D02*
X110775232Y-95788236D01*
X110775232Y-95788236D02*
X110822851Y-95883474D01*
X110822851Y-95883474D02*
X110870470Y-96073950D01*
X110870470Y-96073950D02*
X110870470Y-96216807D01*
X110870470Y-96216807D02*
X110822851Y-96407283D01*
X110822851Y-96407283D02*
X110775232Y-96502521D01*
X110775232Y-96502521D02*
X110679994Y-96597760D01*
X110679994Y-96597760D02*
X110537137Y-96645379D01*
X110537137Y-96645379D02*
X110299042Y-96645379D01*
X111727613Y-95645379D02*
X111537137Y-95645379D01*
X111537137Y-95645379D02*
X111441899Y-95692998D01*
X111441899Y-95692998D02*
X111394280Y-95740617D01*
X111394280Y-95740617D02*
X111299042Y-95883474D01*
X111299042Y-95883474D02*
X111251423Y-96073950D01*
X111251423Y-96073950D02*
X111251423Y-96454902D01*
X111251423Y-96454902D02*
X111299042Y-96550140D01*
X111299042Y-96550140D02*
X111346661Y-96597760D01*
X111346661Y-96597760D02*
X111441899Y-96645379D01*
X111441899Y-96645379D02*
X111632375Y-96645379D01*
X111632375Y-96645379D02*
X111727613Y-96597760D01*
X111727613Y-96597760D02*
X111775232Y-96550140D01*
X111775232Y-96550140D02*
X111822851Y-96454902D01*
X111822851Y-96454902D02*
X111822851Y-96216807D01*
X111822851Y-96216807D02*
X111775232Y-96121569D01*
X111775232Y-96121569D02*
X111727613Y-96073950D01*
X111727613Y-96073950D02*
X111632375Y-96026331D01*
X111632375Y-96026331D02*
X111441899Y-96026331D01*
X111441899Y-96026331D02*
X111346661Y-96073950D01*
X111346661Y-96073950D02*
X111299042Y-96121569D01*
X111299042Y-96121569D02*
X111251423Y-96216807D01*
X115633042Y-96645379D02*
X115633042Y-95645379D01*
X115633042Y-95645379D02*
X115871137Y-95645379D01*
X115871137Y-95645379D02*
X116013994Y-95692998D01*
X116013994Y-95692998D02*
X116109232Y-95788236D01*
X116109232Y-95788236D02*
X116156851Y-95883474D01*
X116156851Y-95883474D02*
X116204470Y-96073950D01*
X116204470Y-96073950D02*
X116204470Y-96216807D01*
X116204470Y-96216807D02*
X116156851Y-96407283D01*
X116156851Y-96407283D02*
X116109232Y-96502521D01*
X116109232Y-96502521D02*
X116013994Y-96597760D01*
X116013994Y-96597760D02*
X115871137Y-96645379D01*
X115871137Y-96645379D02*
X115633042Y-96645379D01*
X117061613Y-95978712D02*
X117061613Y-96645379D01*
X116823518Y-95597760D02*
X116585423Y-96312045D01*
X116585423Y-96312045D02*
X117204470Y-96312045D01*
X76888518Y-74719760D02*
X77059947Y-74776902D01*
X77059947Y-74776902D02*
X77345661Y-74776902D01*
X77345661Y-74776902D02*
X77459947Y-74719760D01*
X77459947Y-74719760D02*
X77517089Y-74662617D01*
X77517089Y-74662617D02*
X77574232Y-74548331D01*
X77574232Y-74548331D02*
X77574232Y-74434045D01*
X77574232Y-74434045D02*
X77517089Y-74319760D01*
X77517089Y-74319760D02*
X77459947Y-74262617D01*
X77459947Y-74262617D02*
X77345661Y-74205474D01*
X77345661Y-74205474D02*
X77117089Y-74148331D01*
X77117089Y-74148331D02*
X77002804Y-74091188D01*
X77002804Y-74091188D02*
X76945661Y-74034045D01*
X76945661Y-74034045D02*
X76888518Y-73919760D01*
X76888518Y-73919760D02*
X76888518Y-73805474D01*
X76888518Y-73805474D02*
X76945661Y-73691188D01*
X76945661Y-73691188D02*
X77002804Y-73634045D01*
X77002804Y-73634045D02*
X77117089Y-73576902D01*
X77117089Y-73576902D02*
X77402804Y-73576902D01*
X77402804Y-73576902D02*
X77574232Y-73634045D01*
X78774232Y-74662617D02*
X78717089Y-74719760D01*
X78717089Y-74719760D02*
X78545661Y-74776902D01*
X78545661Y-74776902D02*
X78431375Y-74776902D01*
X78431375Y-74776902D02*
X78259946Y-74719760D01*
X78259946Y-74719760D02*
X78145661Y-74605474D01*
X78145661Y-74605474D02*
X78088518Y-74491188D01*
X78088518Y-74491188D02*
X78031375Y-74262617D01*
X78031375Y-74262617D02*
X78031375Y-74091188D01*
X78031375Y-74091188D02*
X78088518Y-73862617D01*
X78088518Y-73862617D02*
X78145661Y-73748331D01*
X78145661Y-73748331D02*
X78259946Y-73634045D01*
X78259946Y-73634045D02*
X78431375Y-73576902D01*
X78431375Y-73576902D02*
X78545661Y-73576902D01*
X78545661Y-73576902D02*
X78717089Y-73634045D01*
X78717089Y-73634045D02*
X78774232Y-73691188D01*
X79859946Y-74776902D02*
X79288518Y-74776902D01*
X79288518Y-74776902D02*
X79288518Y-73576902D01*
D13*
X152954510Y-71960828D02*
X152954510Y-73175114D01*
X152954510Y-73175114D02*
X153025939Y-73317971D01*
X153025939Y-73317971D02*
X153097368Y-73389400D01*
X153097368Y-73389400D02*
X153240225Y-73460828D01*
X153240225Y-73460828D02*
X153525939Y-73460828D01*
X153525939Y-73460828D02*
X153668796Y-73389400D01*
X153668796Y-73389400D02*
X153740225Y-73317971D01*
X153740225Y-73317971D02*
X153811653Y-73175114D01*
X153811653Y-73175114D02*
X153811653Y-71960828D01*
X154525939Y-72675114D02*
X155025939Y-72675114D01*
X155240225Y-73460828D02*
X154525939Y-73460828D01*
X154525939Y-73460828D02*
X154525939Y-71960828D01*
X154525939Y-71960828D02*
X155240225Y-71960828D01*
X156740225Y-73317971D02*
X156668797Y-73389400D01*
X156668797Y-73389400D02*
X156454511Y-73460828D01*
X156454511Y-73460828D02*
X156311654Y-73460828D01*
X156311654Y-73460828D02*
X156097368Y-73389400D01*
X156097368Y-73389400D02*
X155954511Y-73246542D01*
X155954511Y-73246542D02*
X155883082Y-73103685D01*
X155883082Y-73103685D02*
X155811654Y-72817971D01*
X155811654Y-72817971D02*
X155811654Y-72603685D01*
X155811654Y-72603685D02*
X155883082Y-72317971D01*
X155883082Y-72317971D02*
X155954511Y-72175114D01*
X155954511Y-72175114D02*
X156097368Y-72032257D01*
X156097368Y-72032257D02*
X156311654Y-71960828D01*
X156311654Y-71960828D02*
X156454511Y-71960828D01*
X156454511Y-71960828D02*
X156668797Y-72032257D01*
X156668797Y-72032257D02*
X156740225Y-72103685D01*
X157311654Y-73389400D02*
X157525940Y-73460828D01*
X157525940Y-73460828D02*
X157883082Y-73460828D01*
X157883082Y-73460828D02*
X158025940Y-73389400D01*
X158025940Y-73389400D02*
X158097368Y-73317971D01*
X158097368Y-73317971D02*
X158168797Y-73175114D01*
X158168797Y-73175114D02*
X158168797Y-73032257D01*
X158168797Y-73032257D02*
X158097368Y-72889400D01*
X158097368Y-72889400D02*
X158025940Y-72817971D01*
X158025940Y-72817971D02*
X157883082Y-72746542D01*
X157883082Y-72746542D02*
X157597368Y-72675114D01*
X157597368Y-72675114D02*
X157454511Y-72603685D01*
X157454511Y-72603685D02*
X157383082Y-72532257D01*
X157383082Y-72532257D02*
X157311654Y-72389400D01*
X157311654Y-72389400D02*
X157311654Y-72246542D01*
X157311654Y-72246542D02*
X157383082Y-72103685D01*
X157383082Y-72103685D02*
X157454511Y-72032257D01*
X157454511Y-72032257D02*
X157597368Y-71960828D01*
X157597368Y-71960828D02*
X157954511Y-71960828D01*
X157954511Y-71960828D02*
X158168797Y-72032257D01*
X158740225Y-72032257D02*
X159454511Y-72032257D01*
X159668796Y-72175114D02*
X160383082Y-72175114D01*
X158597368Y-72246542D02*
X159525939Y-72246542D01*
X159668796Y-72532257D02*
X160383082Y-72532257D01*
X158740225Y-72603685D02*
X159454511Y-72603685D01*
X158811653Y-72817971D02*
X159454511Y-72817971D01*
X159668796Y-72889400D02*
X160383082Y-72889400D01*
X158811653Y-73032257D02*
X159454511Y-73032257D01*
X158811653Y-73317971D02*
X159525939Y-73317971D01*
X160097368Y-73460828D02*
X160454511Y-73460828D01*
X158811653Y-72460828D02*
X158811653Y-73389400D01*
X159168796Y-72460828D02*
X159168796Y-73317971D01*
X159668796Y-71817971D02*
X159668796Y-72817971D01*
X160168796Y-72889400D02*
X160168796Y-73460828D01*
X159668796Y-71817971D02*
X160383082Y-71817971D01*
X160383082Y-71817971D02*
X160383082Y-72817971D01*
X160454511Y-73175114D02*
X160454511Y-73460828D01*
X158811653Y-71746542D02*
X158668796Y-72175114D01*
X159025939Y-72032257D02*
X158668796Y-72603685D01*
X159811653Y-72889400D02*
X159740225Y-73175114D01*
X159740225Y-73175114D02*
X159525939Y-73460828D01*
X161383082Y-72246542D02*
X161954511Y-72246542D01*
X161383082Y-72603685D02*
X161954511Y-72603685D01*
X161383082Y-72960828D02*
X161954511Y-72960828D01*
X162311654Y-73460828D02*
X162668797Y-73460828D01*
X161383082Y-71889400D02*
X161383082Y-72960828D01*
X161383082Y-71889400D02*
X161954511Y-71889400D01*
X161954511Y-71889400D02*
X161954511Y-72960828D01*
X162240225Y-71960828D02*
X162240225Y-73032257D01*
X162668797Y-71746542D02*
X162668797Y-73460828D01*
X161811654Y-73103685D02*
X162097368Y-73389400D01*
X161525939Y-73103685D02*
X161240225Y-73460828D01*
X160954511Y-71817971D02*
X161240225Y-71960828D01*
X160811654Y-72317971D02*
X161168797Y-72460828D01*
X161168797Y-72817971D02*
X160883082Y-73389400D01*
X163954511Y-71960828D02*
X163883083Y-72389400D01*
X163883083Y-72389400D02*
X163811654Y-72746542D01*
X163811654Y-72746542D02*
X163597368Y-73032257D01*
X163597368Y-73032257D02*
X163311654Y-73317971D01*
X164668797Y-72675114D02*
X165811654Y-72675114D01*
X167097369Y-72317971D02*
X167240226Y-72460828D01*
X167311655Y-72246542D02*
X167454512Y-72389400D01*
X166811655Y-71817971D02*
X166811655Y-73389400D01*
X166811655Y-72460828D02*
X167240226Y-72817971D01*
X152954510Y-66090996D02*
X152954510Y-64590996D01*
X152954510Y-64590996D02*
X153454510Y-65662425D01*
X153454510Y-65662425D02*
X153954510Y-64590996D01*
X153954510Y-64590996D02*
X153954510Y-66090996D01*
X154525939Y-64590996D02*
X155454511Y-64590996D01*
X155454511Y-64590996D02*
X154954511Y-65162425D01*
X154954511Y-65162425D02*
X155168796Y-65162425D01*
X155168796Y-65162425D02*
X155311654Y-65233853D01*
X155311654Y-65233853D02*
X155383082Y-65305282D01*
X155383082Y-65305282D02*
X155454511Y-65448139D01*
X155454511Y-65448139D02*
X155454511Y-65805282D01*
X155454511Y-65805282D02*
X155383082Y-65948139D01*
X155383082Y-65948139D02*
X155311654Y-66019568D01*
X155311654Y-66019568D02*
X155168796Y-66090996D01*
X155168796Y-66090996D02*
X154740225Y-66090996D01*
X154740225Y-66090996D02*
X154597368Y-66019568D01*
X154597368Y-66019568D02*
X154525939Y-65948139D01*
X156383082Y-64590996D02*
X156525939Y-64590996D01*
X156525939Y-64590996D02*
X156668796Y-64662425D01*
X156668796Y-64662425D02*
X156740225Y-64733853D01*
X156740225Y-64733853D02*
X156811653Y-64876710D01*
X156811653Y-64876710D02*
X156883082Y-65162425D01*
X156883082Y-65162425D02*
X156883082Y-65519568D01*
X156883082Y-65519568D02*
X156811653Y-65805282D01*
X156811653Y-65805282D02*
X156740225Y-65948139D01*
X156740225Y-65948139D02*
X156668796Y-66019568D01*
X156668796Y-66019568D02*
X156525939Y-66090996D01*
X156525939Y-66090996D02*
X156383082Y-66090996D01*
X156383082Y-66090996D02*
X156240225Y-66019568D01*
X156240225Y-66019568D02*
X156168796Y-65948139D01*
X156168796Y-65948139D02*
X156097367Y-65805282D01*
X156097367Y-65805282D02*
X156025939Y-65519568D01*
X156025939Y-65519568D02*
X156025939Y-65162425D01*
X156025939Y-65162425D02*
X156097367Y-64876710D01*
X156097367Y-64876710D02*
X156168796Y-64733853D01*
X156168796Y-64733853D02*
X156240225Y-64662425D01*
X156240225Y-64662425D02*
X156383082Y-64590996D01*
X157454510Y-64733853D02*
X157525938Y-64662425D01*
X157525938Y-64662425D02*
X157668796Y-64590996D01*
X157668796Y-64590996D02*
X158025938Y-64590996D01*
X158025938Y-64590996D02*
X158168796Y-64662425D01*
X158168796Y-64662425D02*
X158240224Y-64733853D01*
X158240224Y-64733853D02*
X158311653Y-64876710D01*
X158311653Y-64876710D02*
X158311653Y-65019568D01*
X158311653Y-65019568D02*
X158240224Y-65233853D01*
X158240224Y-65233853D02*
X157383081Y-66090996D01*
X157383081Y-66090996D02*
X158311653Y-66090996D01*
X158954509Y-66090996D02*
X158954509Y-64590996D01*
X158954509Y-64590996D02*
X159811652Y-66090996D01*
X159811652Y-66090996D02*
X159811652Y-64590996D01*
X152740225Y-67005912D02*
X153240225Y-68505912D01*
X153240225Y-68505912D02*
X153740225Y-67005912D01*
X154811653Y-68434484D02*
X154668796Y-68505912D01*
X154668796Y-68505912D02*
X154383082Y-68505912D01*
X154383082Y-68505912D02*
X154240224Y-68434484D01*
X154240224Y-68434484D02*
X154168796Y-68291626D01*
X154168796Y-68291626D02*
X154168796Y-67720198D01*
X154168796Y-67720198D02*
X154240224Y-67577341D01*
X154240224Y-67577341D02*
X154383082Y-67505912D01*
X154383082Y-67505912D02*
X154668796Y-67505912D01*
X154668796Y-67505912D02*
X154811653Y-67577341D01*
X154811653Y-67577341D02*
X154883082Y-67720198D01*
X154883082Y-67720198D02*
X154883082Y-67863055D01*
X154883082Y-67863055D02*
X154168796Y-68005912D01*
X155525938Y-68505912D02*
X155525938Y-67505912D01*
X155525938Y-67791626D02*
X155597367Y-67648769D01*
X155597367Y-67648769D02*
X155668796Y-67577341D01*
X155668796Y-67577341D02*
X155811653Y-67505912D01*
X155811653Y-67505912D02*
X155954510Y-67505912D01*
X156454509Y-68363055D02*
X156525938Y-68434484D01*
X156525938Y-68434484D02*
X156454509Y-68505912D01*
X156454509Y-68505912D02*
X156383081Y-68434484D01*
X156383081Y-68434484D02*
X156454509Y-68363055D01*
X156454509Y-68363055D02*
X156454509Y-68505912D01*
X159097367Y-68505912D02*
X158240224Y-68505912D01*
X158668795Y-68505912D02*
X158668795Y-67005912D01*
X158668795Y-67005912D02*
X158525938Y-67220198D01*
X158525938Y-67220198D02*
X158383081Y-67363055D01*
X158383081Y-67363055D02*
X158240224Y-67434484D01*
X159740223Y-68363055D02*
X159811652Y-68434484D01*
X159811652Y-68434484D02*
X159740223Y-68505912D01*
X159740223Y-68505912D02*
X159668795Y-68434484D01*
X159668795Y-68434484D02*
X159740223Y-68363055D01*
X159740223Y-68363055D02*
X159740223Y-68505912D01*
X160740224Y-67005912D02*
X160883081Y-67005912D01*
X160883081Y-67005912D02*
X161025938Y-67077341D01*
X161025938Y-67077341D02*
X161097367Y-67148769D01*
X161097367Y-67148769D02*
X161168795Y-67291626D01*
X161168795Y-67291626D02*
X161240224Y-67577341D01*
X161240224Y-67577341D02*
X161240224Y-67934484D01*
X161240224Y-67934484D02*
X161168795Y-68220198D01*
X161168795Y-68220198D02*
X161097367Y-68363055D01*
X161097367Y-68363055D02*
X161025938Y-68434484D01*
X161025938Y-68434484D02*
X160883081Y-68505912D01*
X160883081Y-68505912D02*
X160740224Y-68505912D01*
X160740224Y-68505912D02*
X160597367Y-68434484D01*
X160597367Y-68434484D02*
X160525938Y-68363055D01*
X160525938Y-68363055D02*
X160454509Y-68220198D01*
X160454509Y-68220198D02*
X160383081Y-67934484D01*
X160383081Y-67934484D02*
X160383081Y-67577341D01*
X160383081Y-67577341D02*
X160454509Y-67291626D01*
X160454509Y-67291626D02*
X160525938Y-67148769D01*
X160525938Y-67148769D02*
X160597367Y-67077341D01*
X160597367Y-67077341D02*
X160740224Y-67005912D01*
X162168795Y-67005912D02*
X162311652Y-67005912D01*
X162311652Y-67005912D02*
X162454509Y-67077341D01*
X162454509Y-67077341D02*
X162525938Y-67148769D01*
X162525938Y-67148769D02*
X162597366Y-67291626D01*
X162597366Y-67291626D02*
X162668795Y-67577341D01*
X162668795Y-67577341D02*
X162668795Y-67934484D01*
X162668795Y-67934484D02*
X162597366Y-68220198D01*
X162597366Y-68220198D02*
X162525938Y-68363055D01*
X162525938Y-68363055D02*
X162454509Y-68434484D01*
X162454509Y-68434484D02*
X162311652Y-68505912D01*
X162311652Y-68505912D02*
X162168795Y-68505912D01*
X162168795Y-68505912D02*
X162025938Y-68434484D01*
X162025938Y-68434484D02*
X161954509Y-68363055D01*
X161954509Y-68363055D02*
X161883080Y-68220198D01*
X161883080Y-68220198D02*
X161811652Y-67934484D01*
X161811652Y-67934484D02*
X161811652Y-67577341D01*
X161811652Y-67577341D02*
X161883080Y-67291626D01*
X161883080Y-67291626D02*
X161954509Y-67148769D01*
X161954509Y-67148769D02*
X162025938Y-67077341D01*
X162025938Y-67077341D02*
X162168795Y-67005912D01*
X152883082Y-69563685D02*
X152954510Y-69492257D01*
X152954510Y-69492257D02*
X153097368Y-69420828D01*
X153097368Y-69420828D02*
X153454510Y-69420828D01*
X153454510Y-69420828D02*
X153597368Y-69492257D01*
X153597368Y-69492257D02*
X153668796Y-69563685D01*
X153668796Y-69563685D02*
X153740225Y-69706542D01*
X153740225Y-69706542D02*
X153740225Y-69849400D01*
X153740225Y-69849400D02*
X153668796Y-70063685D01*
X153668796Y-70063685D02*
X152811653Y-70920828D01*
X152811653Y-70920828D02*
X153740225Y-70920828D01*
X154668796Y-69420828D02*
X154811653Y-69420828D01*
X154811653Y-69420828D02*
X154954510Y-69492257D01*
X154954510Y-69492257D02*
X155025939Y-69563685D01*
X155025939Y-69563685D02*
X155097367Y-69706542D01*
X155097367Y-69706542D02*
X155168796Y-69992257D01*
X155168796Y-69992257D02*
X155168796Y-70349400D01*
X155168796Y-70349400D02*
X155097367Y-70635114D01*
X155097367Y-70635114D02*
X155025939Y-70777971D01*
X155025939Y-70777971D02*
X154954510Y-70849400D01*
X154954510Y-70849400D02*
X154811653Y-70920828D01*
X154811653Y-70920828D02*
X154668796Y-70920828D01*
X154668796Y-70920828D02*
X154525939Y-70849400D01*
X154525939Y-70849400D02*
X154454510Y-70777971D01*
X154454510Y-70777971D02*
X154383081Y-70635114D01*
X154383081Y-70635114D02*
X154311653Y-70349400D01*
X154311653Y-70349400D02*
X154311653Y-69992257D01*
X154311653Y-69992257D02*
X154383081Y-69706542D01*
X154383081Y-69706542D02*
X154454510Y-69563685D01*
X154454510Y-69563685D02*
X154525939Y-69492257D01*
X154525939Y-69492257D02*
X154668796Y-69420828D01*
X155740224Y-69563685D02*
X155811652Y-69492257D01*
X155811652Y-69492257D02*
X155954510Y-69420828D01*
X155954510Y-69420828D02*
X156311652Y-69420828D01*
X156311652Y-69420828D02*
X156454510Y-69492257D01*
X156454510Y-69492257D02*
X156525938Y-69563685D01*
X156525938Y-69563685D02*
X156597367Y-69706542D01*
X156597367Y-69706542D02*
X156597367Y-69849400D01*
X156597367Y-69849400D02*
X156525938Y-70063685D01*
X156525938Y-70063685D02*
X155668795Y-70920828D01*
X155668795Y-70920828D02*
X156597367Y-70920828D01*
X157954509Y-69420828D02*
X157240223Y-69420828D01*
X157240223Y-69420828D02*
X157168795Y-70135114D01*
X157168795Y-70135114D02*
X157240223Y-70063685D01*
X157240223Y-70063685D02*
X157383081Y-69992257D01*
X157383081Y-69992257D02*
X157740223Y-69992257D01*
X157740223Y-69992257D02*
X157883081Y-70063685D01*
X157883081Y-70063685D02*
X157954509Y-70135114D01*
X157954509Y-70135114D02*
X158025938Y-70277971D01*
X158025938Y-70277971D02*
X158025938Y-70635114D01*
X158025938Y-70635114D02*
X157954509Y-70777971D01*
X157954509Y-70777971D02*
X157883081Y-70849400D01*
X157883081Y-70849400D02*
X157740223Y-70920828D01*
X157740223Y-70920828D02*
X157383081Y-70920828D01*
X157383081Y-70920828D02*
X157240223Y-70849400D01*
X157240223Y-70849400D02*
X157168795Y-70777971D01*
X159811651Y-70920828D02*
X159811651Y-69420828D01*
X159811651Y-69420828D02*
X160311651Y-70492257D01*
X160311651Y-70492257D02*
X160811651Y-69420828D01*
X160811651Y-69420828D02*
X160811651Y-70920828D01*
X162168795Y-70920828D02*
X162168795Y-70135114D01*
X162168795Y-70135114D02*
X162097366Y-69992257D01*
X162097366Y-69992257D02*
X161954509Y-69920828D01*
X161954509Y-69920828D02*
X161668795Y-69920828D01*
X161668795Y-69920828D02*
X161525937Y-69992257D01*
X162168795Y-70849400D02*
X162025937Y-70920828D01*
X162025937Y-70920828D02*
X161668795Y-70920828D01*
X161668795Y-70920828D02*
X161525937Y-70849400D01*
X161525937Y-70849400D02*
X161454509Y-70706542D01*
X161454509Y-70706542D02*
X161454509Y-70563685D01*
X161454509Y-70563685D02*
X161525937Y-70420828D01*
X161525937Y-70420828D02*
X161668795Y-70349400D01*
X161668795Y-70349400D02*
X162025937Y-70349400D01*
X162025937Y-70349400D02*
X162168795Y-70277971D01*
X162883080Y-70920828D02*
X162883080Y-69920828D01*
X162883080Y-70206542D02*
X162954509Y-70063685D01*
X162954509Y-70063685D02*
X163025938Y-69992257D01*
X163025938Y-69992257D02*
X163168795Y-69920828D01*
X163168795Y-69920828D02*
X163311652Y-69920828D01*
X163811651Y-70777971D02*
X163883080Y-70849400D01*
X163883080Y-70849400D02*
X163811651Y-70920828D01*
X163811651Y-70920828D02*
X163740223Y-70849400D01*
X163740223Y-70849400D02*
X163811651Y-70777971D01*
X163811651Y-70777971D02*
X163811651Y-70920828D01*
D12*
X99133255Y-108468485D02*
X99704684Y-108468485D01*
X99018969Y-108811342D02*
X99418969Y-107611342D01*
X99418969Y-107611342D02*
X99818969Y-108811342D01*
X100447540Y-107611342D02*
X100561826Y-107611342D01*
X100561826Y-107611342D02*
X100676112Y-107668485D01*
X100676112Y-107668485D02*
X100733255Y-107725628D01*
X100733255Y-107725628D02*
X100790397Y-107839914D01*
X100790397Y-107839914D02*
X100847540Y-108068485D01*
X100847540Y-108068485D02*
X100847540Y-108354200D01*
X100847540Y-108354200D02*
X100790397Y-108582771D01*
X100790397Y-108582771D02*
X100733255Y-108697057D01*
X100733255Y-108697057D02*
X100676112Y-108754200D01*
X100676112Y-108754200D02*
X100561826Y-108811342D01*
X100561826Y-108811342D02*
X100447540Y-108811342D01*
X100447540Y-108811342D02*
X100333255Y-108754200D01*
X100333255Y-108754200D02*
X100276112Y-108697057D01*
X100276112Y-108697057D02*
X100218969Y-108582771D01*
X100218969Y-108582771D02*
X100161826Y-108354200D01*
X100161826Y-108354200D02*
X100161826Y-108068485D01*
X100161826Y-108068485D02*
X100218969Y-107839914D01*
X100218969Y-107839914D02*
X100276112Y-107725628D01*
X100276112Y-107725628D02*
X100333255Y-107668485D01*
X100333255Y-107668485D02*
X100447540Y-107611342D01*
X91640255Y-108468485D02*
X92211684Y-108468485D01*
X91525969Y-108811342D02*
X91925969Y-107611342D01*
X91925969Y-107611342D02*
X92325969Y-108811342D01*
X93354540Y-108811342D02*
X92668826Y-108811342D01*
X93011683Y-108811342D02*
X93011683Y-107611342D01*
X93011683Y-107611342D02*
X92897397Y-107782771D01*
X92897397Y-107782771D02*
X92783112Y-107897057D01*
X92783112Y-107897057D02*
X92668826Y-107954200D01*
X76790779Y-85975866D02*
X77552684Y-85975866D01*
X77171731Y-86356819D02*
X77171731Y-85594914D01*
X78505064Y-85356819D02*
X78028874Y-85356819D01*
X78028874Y-85356819D02*
X77981255Y-85833009D01*
X77981255Y-85833009D02*
X78028874Y-85785390D01*
X78028874Y-85785390D02*
X78124112Y-85737771D01*
X78124112Y-85737771D02*
X78362207Y-85737771D01*
X78362207Y-85737771D02*
X78457445Y-85785390D01*
X78457445Y-85785390D02*
X78505064Y-85833009D01*
X78505064Y-85833009D02*
X78552683Y-85928247D01*
X78552683Y-85928247D02*
X78552683Y-86166342D01*
X78552683Y-86166342D02*
X78505064Y-86261580D01*
X78505064Y-86261580D02*
X78457445Y-86309200D01*
X78457445Y-86309200D02*
X78362207Y-86356819D01*
X78362207Y-86356819D02*
X78124112Y-86356819D01*
X78124112Y-86356819D02*
X78028874Y-86309200D01*
X78028874Y-86309200D02*
X77981255Y-86261580D01*
X78838398Y-85356819D02*
X79171731Y-86356819D01*
X79171731Y-86356819D02*
X79505064Y-85356819D01*
D11*
X107759042Y-96645379D02*
X107759042Y-95645379D01*
X107759042Y-95645379D02*
X107997137Y-95645379D01*
X107997137Y-95645379D02*
X108139994Y-95692998D01*
X108139994Y-95692998D02*
X108235232Y-95788236D01*
X108235232Y-95788236D02*
X108282851Y-95883474D01*
X108282851Y-95883474D02*
X108330470Y-96073950D01*
X108330470Y-96073950D02*
X108330470Y-96216807D01*
X108330470Y-96216807D02*
X108282851Y-96407283D01*
X108282851Y-96407283D02*
X108235232Y-96502521D01*
X108235232Y-96502521D02*
X108139994Y-96597760D01*
X108139994Y-96597760D02*
X107997137Y-96645379D01*
X107997137Y-96645379D02*
X107759042Y-96645379D01*
X108663804Y-95645379D02*
X109330470Y-95645379D01*
X109330470Y-95645379D02*
X108901899Y-96645379D01*
D14*
X104620497Y-66545250D02*
X105763355Y-66545250D01*
X105191926Y-67116678D02*
X105191926Y-65973821D01*
D12*
X84147255Y-111135485D02*
X84718684Y-111135485D01*
X84032969Y-111478342D02*
X84432969Y-110278342D01*
X84432969Y-110278342D02*
X84832969Y-111478342D01*
X85175826Y-110392628D02*
X85232969Y-110335485D01*
X85232969Y-110335485D02*
X85347255Y-110278342D01*
X85347255Y-110278342D02*
X85632969Y-110278342D01*
X85632969Y-110278342D02*
X85747255Y-110335485D01*
X85747255Y-110335485D02*
X85804397Y-110392628D01*
X85804397Y-110392628D02*
X85861540Y-110506914D01*
X85861540Y-110506914D02*
X85861540Y-110621200D01*
X85861540Y-110621200D02*
X85804397Y-110792628D01*
X85804397Y-110792628D02*
X85118683Y-111478342D01*
X85118683Y-111478342D02*
X85861540Y-111478342D01*
D15*
X153795166Y-79054668D02*
X153795166Y-78292764D01*
X154176119Y-78673716D02*
X153414214Y-78673716D01*
X154176119Y-77292764D02*
X154176119Y-77864192D01*
X154176119Y-77578478D02*
X153176119Y-77578478D01*
X153176119Y-77578478D02*
X153318976Y-77673716D01*
X153318976Y-77673716D02*
X153414214Y-77768954D01*
X153414214Y-77768954D02*
X153461833Y-77864192D01*
X153271357Y-76911811D02*
X153223738Y-76864192D01*
X153223738Y-76864192D02*
X153176119Y-76768954D01*
X153176119Y-76768954D02*
X153176119Y-76530859D01*
X153176119Y-76530859D02*
X153223738Y-76435621D01*
X153223738Y-76435621D02*
X153271357Y-76388002D01*
X153271357Y-76388002D02*
X153366595Y-76340383D01*
X153366595Y-76340383D02*
X153461833Y-76340383D01*
X153461833Y-76340383D02*
X153604690Y-76388002D01*
X153604690Y-76388002D02*
X154176119Y-76959430D01*
X154176119Y-76959430D02*
X154176119Y-76340383D01*
X153176119Y-76054668D02*
X154176119Y-75721335D01*
X154176119Y-75721335D02*
X153176119Y-75388002D01*
D12*
X76743160Y-83769200D02*
X76886017Y-83816819D01*
X76886017Y-83816819D02*
X77124112Y-83816819D01*
X77124112Y-83816819D02*
X77219350Y-83769200D01*
X77219350Y-83769200D02*
X77266969Y-83721580D01*
X77266969Y-83721580D02*
X77314588Y-83626342D01*
X77314588Y-83626342D02*
X77314588Y-83531104D01*
X77314588Y-83531104D02*
X77266969Y-83435866D01*
X77266969Y-83435866D02*
X77219350Y-83388247D01*
X77219350Y-83388247D02*
X77124112Y-83340628D01*
X77124112Y-83340628D02*
X76933636Y-83293009D01*
X76933636Y-83293009D02*
X76838398Y-83245390D01*
X76838398Y-83245390D02*
X76790779Y-83197771D01*
X76790779Y-83197771D02*
X76743160Y-83102533D01*
X76743160Y-83102533D02*
X76743160Y-83007295D01*
X76743160Y-83007295D02*
X76790779Y-82912057D01*
X76790779Y-82912057D02*
X76838398Y-82864438D01*
X76838398Y-82864438D02*
X76933636Y-82816819D01*
X76933636Y-82816819D02*
X77171731Y-82816819D01*
X77171731Y-82816819D02*
X77314588Y-82864438D01*
X77743160Y-83816819D02*
X77743160Y-82816819D01*
X78743159Y-82864438D02*
X78647921Y-82816819D01*
X78647921Y-82816819D02*
X78505064Y-82816819D01*
X78505064Y-82816819D02*
X78362207Y-82864438D01*
X78362207Y-82864438D02*
X78266969Y-82959676D01*
X78266969Y-82959676D02*
X78219350Y-83054914D01*
X78219350Y-83054914D02*
X78171731Y-83245390D01*
X78171731Y-83245390D02*
X78171731Y-83388247D01*
X78171731Y-83388247D02*
X78219350Y-83578723D01*
X78219350Y-83578723D02*
X78266969Y-83673961D01*
X78266969Y-83673961D02*
X78362207Y-83769200D01*
X78362207Y-83769200D02*
X78505064Y-83816819D01*
X78505064Y-83816819D02*
X78600302Y-83816819D01*
X78600302Y-83816819D02*
X78743159Y-83769200D01*
X78743159Y-83769200D02*
X78790778Y-83721580D01*
X78790778Y-83721580D02*
X78790778Y-83388247D01*
X78790778Y-83388247D02*
X78600302Y-83388247D01*
X72082255Y-100721485D02*
X72653684Y-100721485D01*
X71967969Y-101064342D02*
X72367969Y-99864342D01*
X72367969Y-99864342D02*
X72767969Y-101064342D01*
D11*
X112839042Y-96645379D02*
X112839042Y-95645379D01*
X112839042Y-95645379D02*
X113077137Y-95645379D01*
X113077137Y-95645379D02*
X113219994Y-95692998D01*
X113219994Y-95692998D02*
X113315232Y-95788236D01*
X113315232Y-95788236D02*
X113362851Y-95883474D01*
X113362851Y-95883474D02*
X113410470Y-96073950D01*
X113410470Y-96073950D02*
X113410470Y-96216807D01*
X113410470Y-96216807D02*
X113362851Y-96407283D01*
X113362851Y-96407283D02*
X113315232Y-96502521D01*
X113315232Y-96502521D02*
X113219994Y-96597760D01*
X113219994Y-96597760D02*
X113077137Y-96645379D01*
X113077137Y-96645379D02*
X112839042Y-96645379D01*
X114315232Y-95645379D02*
X113839042Y-95645379D01*
X113839042Y-95645379D02*
X113791423Y-96121569D01*
X113791423Y-96121569D02*
X113839042Y-96073950D01*
X113839042Y-96073950D02*
X113934280Y-96026331D01*
X113934280Y-96026331D02*
X114172375Y-96026331D01*
X114172375Y-96026331D02*
X114267613Y-96073950D01*
X114267613Y-96073950D02*
X114315232Y-96121569D01*
X114315232Y-96121569D02*
X114362851Y-96216807D01*
X114362851Y-96216807D02*
X114362851Y-96454902D01*
X114362851Y-96454902D02*
X114315232Y-96550140D01*
X114315232Y-96550140D02*
X114267613Y-96597760D01*
X114267613Y-96597760D02*
X114172375Y-96645379D01*
X114172375Y-96645379D02*
X113934280Y-96645379D01*
X113934280Y-96645379D02*
X113839042Y-96597760D01*
X113839042Y-96597760D02*
X113791423Y-96550140D01*
D13*
X153240225Y-61951542D02*
X153240225Y-62665828D01*
X152740225Y-61165828D02*
X153240225Y-61951542D01*
X153240225Y-61951542D02*
X153740225Y-61165828D01*
X154168796Y-62594400D02*
X154383082Y-62665828D01*
X154383082Y-62665828D02*
X154740224Y-62665828D01*
X154740224Y-62665828D02*
X154883082Y-62594400D01*
X154883082Y-62594400D02*
X154954510Y-62522971D01*
X154954510Y-62522971D02*
X155025939Y-62380114D01*
X155025939Y-62380114D02*
X155025939Y-62237257D01*
X155025939Y-62237257D02*
X154954510Y-62094400D01*
X154954510Y-62094400D02*
X154883082Y-62022971D01*
X154883082Y-62022971D02*
X154740224Y-61951542D01*
X154740224Y-61951542D02*
X154454510Y-61880114D01*
X154454510Y-61880114D02*
X154311653Y-61808685D01*
X154311653Y-61808685D02*
X154240224Y-61737257D01*
X154240224Y-61737257D02*
X154168796Y-61594400D01*
X154168796Y-61594400D02*
X154168796Y-61451542D01*
X154168796Y-61451542D02*
X154240224Y-61308685D01*
X154240224Y-61308685D02*
X154311653Y-61237257D01*
X154311653Y-61237257D02*
X154454510Y-61165828D01*
X154454510Y-61165828D02*
X154811653Y-61165828D01*
X154811653Y-61165828D02*
X155025939Y-61237257D01*
X157525938Y-62665828D02*
X156811652Y-62665828D01*
X156811652Y-62665828D02*
X156811652Y-61165828D01*
X158668796Y-62665828D02*
X158668796Y-61880114D01*
X158668796Y-61880114D02*
X158597367Y-61737257D01*
X158597367Y-61737257D02*
X158454510Y-61665828D01*
X158454510Y-61665828D02*
X158168796Y-61665828D01*
X158168796Y-61665828D02*
X158025938Y-61737257D01*
X158668796Y-62594400D02*
X158525938Y-62665828D01*
X158525938Y-62665828D02*
X158168796Y-62665828D01*
X158168796Y-62665828D02*
X158025938Y-62594400D01*
X158025938Y-62594400D02*
X157954510Y-62451542D01*
X157954510Y-62451542D02*
X157954510Y-62308685D01*
X157954510Y-62308685D02*
X158025938Y-62165828D01*
X158025938Y-62165828D02*
X158168796Y-62094400D01*
X158168796Y-62094400D02*
X158525938Y-62094400D01*
X158525938Y-62094400D02*
X158668796Y-62022971D01*
X159383081Y-62665828D02*
X159383081Y-61165828D01*
X159383081Y-61737257D02*
X159525939Y-61665828D01*
X159525939Y-61665828D02*
X159811653Y-61665828D01*
X159811653Y-61665828D02*
X159954510Y-61737257D01*
X159954510Y-61737257D02*
X160025939Y-61808685D01*
X160025939Y-61808685D02*
X160097367Y-61951542D01*
X160097367Y-61951542D02*
X160097367Y-62380114D01*
X160097367Y-62380114D02*
X160025939Y-62522971D01*
X160025939Y-62522971D02*
X159954510Y-62594400D01*
X159954510Y-62594400D02*
X159811653Y-62665828D01*
X159811653Y-62665828D02*
X159525939Y-62665828D01*
X159525939Y-62665828D02*
X159383081Y-62594400D01*
D11*
X78082232Y-66268045D02*
X77967947Y-66210902D01*
X77967947Y-66210902D02*
X77796518Y-66210902D01*
X77796518Y-66210902D02*
X77625089Y-66268045D01*
X77625089Y-66268045D02*
X77510804Y-66382331D01*
X77510804Y-66382331D02*
X77453661Y-66496617D01*
X77453661Y-66496617D02*
X77396518Y-66725188D01*
X77396518Y-66725188D02*
X77396518Y-66896617D01*
X77396518Y-66896617D02*
X77453661Y-67125188D01*
X77453661Y-67125188D02*
X77510804Y-67239474D01*
X77510804Y-67239474D02*
X77625089Y-67353760D01*
X77625089Y-67353760D02*
X77796518Y-67410902D01*
X77796518Y-67410902D02*
X77910804Y-67410902D01*
X77910804Y-67410902D02*
X78082232Y-67353760D01*
X78082232Y-67353760D02*
X78139375Y-67296617D01*
X78139375Y-67296617D02*
X78139375Y-66896617D01*
X78139375Y-66896617D02*
X77910804Y-66896617D01*
X78653661Y-67410902D02*
X78653661Y-66210902D01*
X78653661Y-66210902D02*
X79339375Y-67410902D01*
X79339375Y-67410902D02*
X79339375Y-66210902D01*
X79910804Y-67410902D02*
X79910804Y-66210902D01*
X79910804Y-66210902D02*
X80196518Y-66210902D01*
X80196518Y-66210902D02*
X80367947Y-66268045D01*
X80367947Y-66268045D02*
X80482232Y-66382331D01*
X80482232Y-66382331D02*
X80539375Y-66496617D01*
X80539375Y-66496617D02*
X80596518Y-66725188D01*
X80596518Y-66725188D02*
X80596518Y-66896617D01*
X80596518Y-66896617D02*
X80539375Y-67125188D01*
X80539375Y-67125188D02*
X80482232Y-67239474D01*
X80482232Y-67239474D02*
X80367947Y-67353760D01*
X80367947Y-67353760D02*
X80196518Y-67410902D01*
X80196518Y-67410902D02*
X79910804Y-67410902D01*
D12*
X77822588Y-80451438D02*
X77727350Y-80403819D01*
X77727350Y-80403819D02*
X77584493Y-80403819D01*
X77584493Y-80403819D02*
X77441636Y-80451438D01*
X77441636Y-80451438D02*
X77346398Y-80546676D01*
X77346398Y-80546676D02*
X77298779Y-80641914D01*
X77298779Y-80641914D02*
X77251160Y-80832390D01*
X77251160Y-80832390D02*
X77251160Y-80975247D01*
X77251160Y-80975247D02*
X77298779Y-81165723D01*
X77298779Y-81165723D02*
X77346398Y-81260961D01*
X77346398Y-81260961D02*
X77441636Y-81356200D01*
X77441636Y-81356200D02*
X77584493Y-81403819D01*
X77584493Y-81403819D02*
X77679731Y-81403819D01*
X77679731Y-81403819D02*
X77822588Y-81356200D01*
X77822588Y-81356200D02*
X77870207Y-81308580D01*
X77870207Y-81308580D02*
X77870207Y-80975247D01*
X77870207Y-80975247D02*
X77679731Y-80975247D01*
X78298779Y-81403819D02*
X78298779Y-80403819D01*
X78298779Y-80403819D02*
X78870207Y-81403819D01*
X78870207Y-81403819D02*
X78870207Y-80403819D01*
X79346398Y-81403819D02*
X79346398Y-80403819D01*
X79346398Y-80403819D02*
X79584493Y-80403819D01*
X79584493Y-80403819D02*
X79727350Y-80451438D01*
X79727350Y-80451438D02*
X79822588Y-80546676D01*
X79822588Y-80546676D02*
X79870207Y-80641914D01*
X79870207Y-80641914D02*
X79917826Y-80832390D01*
X79917826Y-80832390D02*
X79917826Y-80975247D01*
X79917826Y-80975247D02*
X79870207Y-81165723D01*
X79870207Y-81165723D02*
X79822588Y-81260961D01*
X79822588Y-81260961D02*
X79727350Y-81356200D01*
X79727350Y-81356200D02*
X79584493Y-81403819D01*
X79584493Y-81403819D02*
X79346398Y-81403819D01*
D14*
X103191640Y-111555178D02*
X102691640Y-110840892D01*
X102334497Y-111555178D02*
X102334497Y-110055178D01*
X102334497Y-110055178D02*
X102905926Y-110055178D01*
X102905926Y-110055178D02*
X103048783Y-110126607D01*
X103048783Y-110126607D02*
X103120212Y-110198035D01*
X103120212Y-110198035D02*
X103191640Y-110340892D01*
X103191640Y-110340892D02*
X103191640Y-110555178D01*
X103191640Y-110555178D02*
X103120212Y-110698035D01*
X103120212Y-110698035D02*
X103048783Y-110769464D01*
X103048783Y-110769464D02*
X102905926Y-110840892D01*
X102905926Y-110840892D02*
X102334497Y-110840892D01*
X103834497Y-110769464D02*
X104334497Y-110769464D01*
X104548783Y-111555178D02*
X103834497Y-111555178D01*
X103834497Y-111555178D02*
X103834497Y-110055178D01*
X103834497Y-110055178D02*
X104548783Y-110055178D01*
X105120212Y-111483750D02*
X105334498Y-111555178D01*
X105334498Y-111555178D02*
X105691640Y-111555178D01*
X105691640Y-111555178D02*
X105834498Y-111483750D01*
X105834498Y-111483750D02*
X105905926Y-111412321D01*
X105905926Y-111412321D02*
X105977355Y-111269464D01*
X105977355Y-111269464D02*
X105977355Y-111126607D01*
X105977355Y-111126607D02*
X105905926Y-110983750D01*
X105905926Y-110983750D02*
X105834498Y-110912321D01*
X105834498Y-110912321D02*
X105691640Y-110840892D01*
X105691640Y-110840892D02*
X105405926Y-110769464D01*
X105405926Y-110769464D02*
X105263069Y-110698035D01*
X105263069Y-110698035D02*
X105191640Y-110626607D01*
X105191640Y-110626607D02*
X105120212Y-110483750D01*
X105120212Y-110483750D02*
X105120212Y-110340892D01*
X105120212Y-110340892D02*
X105191640Y-110198035D01*
X105191640Y-110198035D02*
X105263069Y-110126607D01*
X105263069Y-110126607D02*
X105405926Y-110055178D01*
X105405926Y-110055178D02*
X105763069Y-110055178D01*
X105763069Y-110055178D02*
X105977355Y-110126607D01*
X106620211Y-110769464D02*
X107120211Y-110769464D01*
X107334497Y-111555178D02*
X106620211Y-111555178D01*
X106620211Y-111555178D02*
X106620211Y-110055178D01*
X106620211Y-110055178D02*
X107334497Y-110055178D01*
X107763069Y-110055178D02*
X108620212Y-110055178D01*
X108191640Y-111555178D02*
X108191640Y-110055178D01*
D12*
X76028779Y-94738866D02*
X76790684Y-94738866D01*
X76409731Y-95119819D02*
X76409731Y-94357914D01*
X77790683Y-95119819D02*
X77219255Y-95119819D01*
X77504969Y-95119819D02*
X77504969Y-94119819D01*
X77504969Y-94119819D02*
X77409731Y-94262676D01*
X77409731Y-94262676D02*
X77314493Y-94357914D01*
X77314493Y-94357914D02*
X77219255Y-94405533D01*
X78171636Y-94215057D02*
X78219255Y-94167438D01*
X78219255Y-94167438D02*
X78314493Y-94119819D01*
X78314493Y-94119819D02*
X78552588Y-94119819D01*
X78552588Y-94119819D02*
X78647826Y-94167438D01*
X78647826Y-94167438D02*
X78695445Y-94215057D01*
X78695445Y-94215057D02*
X78743064Y-94310295D01*
X78743064Y-94310295D02*
X78743064Y-94405533D01*
X78743064Y-94405533D02*
X78695445Y-94548390D01*
X78695445Y-94548390D02*
X78124017Y-95119819D01*
X78124017Y-95119819D02*
X78743064Y-95119819D01*
X79028779Y-94119819D02*
X79362112Y-95119819D01*
X79362112Y-95119819D02*
X79695445Y-94119819D01*
X134826476Y-83454019D02*
X134826476Y-84168304D01*
X134826476Y-84168304D02*
X134778857Y-84311161D01*
X134778857Y-84311161D02*
X134683619Y-84406400D01*
X134683619Y-84406400D02*
X134540762Y-84454019D01*
X134540762Y-84454019D02*
X134445524Y-84454019D01*
X135826476Y-84454019D02*
X135255048Y-84454019D01*
X135540762Y-84454019D02*
X135540762Y-83454019D01*
X135540762Y-83454019D02*
X135445524Y-83596876D01*
X135445524Y-83596876D02*
X135350286Y-83692114D01*
X135350286Y-83692114D02*
X135255048Y-83739733D01*
X136397905Y-83882590D02*
X136302667Y-83834971D01*
X136302667Y-83834971D02*
X136255048Y-83787352D01*
X136255048Y-83787352D02*
X136207429Y-83692114D01*
X136207429Y-83692114D02*
X136207429Y-83644495D01*
X136207429Y-83644495D02*
X136255048Y-83549257D01*
X136255048Y-83549257D02*
X136302667Y-83501638D01*
X136302667Y-83501638D02*
X136397905Y-83454019D01*
X136397905Y-83454019D02*
X136588381Y-83454019D01*
X136588381Y-83454019D02*
X136683619Y-83501638D01*
X136683619Y-83501638D02*
X136731238Y-83549257D01*
X136731238Y-83549257D02*
X136778857Y-83644495D01*
X136778857Y-83644495D02*
X136778857Y-83692114D01*
X136778857Y-83692114D02*
X136731238Y-83787352D01*
X136731238Y-83787352D02*
X136683619Y-83834971D01*
X136683619Y-83834971D02*
X136588381Y-83882590D01*
X136588381Y-83882590D02*
X136397905Y-83882590D01*
X136397905Y-83882590D02*
X136302667Y-83930209D01*
X136302667Y-83930209D02*
X136255048Y-83977828D01*
X136255048Y-83977828D02*
X136207429Y-84073066D01*
X136207429Y-84073066D02*
X136207429Y-84263542D01*
X136207429Y-84263542D02*
X136255048Y-84358780D01*
X136255048Y-84358780D02*
X136302667Y-84406400D01*
X136302667Y-84406400D02*
X136397905Y-84454019D01*
X136397905Y-84454019D02*
X136588381Y-84454019D01*
X136588381Y-84454019D02*
X136683619Y-84406400D01*
X136683619Y-84406400D02*
X136731238Y-84358780D01*
X136731238Y-84358780D02*
X136778857Y-84263542D01*
X136778857Y-84263542D02*
X136778857Y-84073066D01*
X136778857Y-84073066D02*
X136731238Y-83977828D01*
X136731238Y-83977828D02*
X136683619Y-83930209D01*
X136683619Y-83930209D02*
X136588381Y-83882590D01*
X100028476Y-76416819D02*
X100028476Y-77131104D01*
X100028476Y-77131104D02*
X99980857Y-77273961D01*
X99980857Y-77273961D02*
X99885619Y-77369200D01*
X99885619Y-77369200D02*
X99742762Y-77416819D01*
X99742762Y-77416819D02*
X99647524Y-77416819D01*
X101028476Y-77416819D02*
X100457048Y-77416819D01*
X100742762Y-77416819D02*
X100742762Y-76416819D01*
X100742762Y-76416819D02*
X100647524Y-76559676D01*
X100647524Y-76559676D02*
X100552286Y-76654914D01*
X100552286Y-76654914D02*
X100457048Y-76702533D01*
X101361810Y-76416819D02*
X101980857Y-76416819D01*
X101980857Y-76416819D02*
X101647524Y-76797771D01*
X101647524Y-76797771D02*
X101790381Y-76797771D01*
X101790381Y-76797771D02*
X101885619Y-76845390D01*
X101885619Y-76845390D02*
X101933238Y-76893009D01*
X101933238Y-76893009D02*
X101980857Y-76988247D01*
X101980857Y-76988247D02*
X101980857Y-77226342D01*
X101980857Y-77226342D02*
X101933238Y-77321580D01*
X101933238Y-77321580D02*
X101885619Y-77369200D01*
X101885619Y-77369200D02*
X101790381Y-77416819D01*
X101790381Y-77416819D02*
X101504667Y-77416819D01*
X101504667Y-77416819D02*
X101409429Y-77369200D01*
X101409429Y-77369200D02*
X101361810Y-77321580D01*
X110958819Y-86861523D02*
X111673104Y-86861523D01*
X111673104Y-86861523D02*
X111815961Y-86909142D01*
X111815961Y-86909142D02*
X111911200Y-87004380D01*
X111911200Y-87004380D02*
X111958819Y-87147237D01*
X111958819Y-87147237D02*
X111958819Y-87242475D01*
X111958819Y-85861523D02*
X111958819Y-86432951D01*
X111958819Y-86147237D02*
X110958819Y-86147237D01*
X110958819Y-86147237D02*
X111101676Y-86242475D01*
X111101676Y-86242475D02*
X111196914Y-86337713D01*
X111196914Y-86337713D02*
X111244533Y-86432951D01*
X111958819Y-84909142D02*
X111958819Y-85480570D01*
X111958819Y-85194856D02*
X110958819Y-85194856D01*
X110958819Y-85194856D02*
X111101676Y-85290094D01*
X111101676Y-85290094D02*
X111196914Y-85385332D01*
X111196914Y-85385332D02*
X111244533Y-85480570D01*
X84629666Y-107277819D02*
X84629666Y-107992104D01*
X84629666Y-107992104D02*
X84582047Y-108134961D01*
X84582047Y-108134961D02*
X84486809Y-108230200D01*
X84486809Y-108230200D02*
X84343952Y-108277819D01*
X84343952Y-108277819D02*
X84248714Y-108277819D01*
X85248714Y-107706390D02*
X85153476Y-107658771D01*
X85153476Y-107658771D02*
X85105857Y-107611152D01*
X85105857Y-107611152D02*
X85058238Y-107515914D01*
X85058238Y-107515914D02*
X85058238Y-107468295D01*
X85058238Y-107468295D02*
X85105857Y-107373057D01*
X85105857Y-107373057D02*
X85153476Y-107325438D01*
X85153476Y-107325438D02*
X85248714Y-107277819D01*
X85248714Y-107277819D02*
X85439190Y-107277819D01*
X85439190Y-107277819D02*
X85534428Y-107325438D01*
X85534428Y-107325438D02*
X85582047Y-107373057D01*
X85582047Y-107373057D02*
X85629666Y-107468295D01*
X85629666Y-107468295D02*
X85629666Y-107515914D01*
X85629666Y-107515914D02*
X85582047Y-107611152D01*
X85582047Y-107611152D02*
X85534428Y-107658771D01*
X85534428Y-107658771D02*
X85439190Y-107706390D01*
X85439190Y-107706390D02*
X85248714Y-107706390D01*
X85248714Y-107706390D02*
X85153476Y-107754009D01*
X85153476Y-107754009D02*
X85105857Y-107801628D01*
X85105857Y-107801628D02*
X85058238Y-107896866D01*
X85058238Y-107896866D02*
X85058238Y-108087342D01*
X85058238Y-108087342D02*
X85105857Y-108182580D01*
X85105857Y-108182580D02*
X85153476Y-108230200D01*
X85153476Y-108230200D02*
X85248714Y-108277819D01*
X85248714Y-108277819D02*
X85439190Y-108277819D01*
X85439190Y-108277819D02*
X85534428Y-108230200D01*
X85534428Y-108230200D02*
X85582047Y-108182580D01*
X85582047Y-108182580D02*
X85629666Y-108087342D01*
X85629666Y-108087342D02*
X85629666Y-107896866D01*
X85629666Y-107896866D02*
X85582047Y-107801628D01*
X85582047Y-107801628D02*
X85534428Y-107754009D01*
X85534428Y-107754009D02*
X85439190Y-107706390D01*
X82455048Y-109389104D02*
X82931238Y-109389104D01*
X82359810Y-109674819D02*
X82693143Y-108674819D01*
X82693143Y-108674819D02*
X83026476Y-109674819D01*
X83359810Y-109674819D02*
X83359810Y-108674819D01*
X83359810Y-108674819D02*
X83597905Y-108674819D01*
X83597905Y-108674819D02*
X83740762Y-108722438D01*
X83740762Y-108722438D02*
X83836000Y-108817676D01*
X83836000Y-108817676D02*
X83883619Y-108912914D01*
X83883619Y-108912914D02*
X83931238Y-109103390D01*
X83931238Y-109103390D02*
X83931238Y-109246247D01*
X83931238Y-109246247D02*
X83883619Y-109436723D01*
X83883619Y-109436723D02*
X83836000Y-109531961D01*
X83836000Y-109531961D02*
X83740762Y-109627200D01*
X83740762Y-109627200D02*
X83597905Y-109674819D01*
X83597905Y-109674819D02*
X83359810Y-109674819D01*
X84931238Y-109579580D02*
X84883619Y-109627200D01*
X84883619Y-109627200D02*
X84740762Y-109674819D01*
X84740762Y-109674819D02*
X84645524Y-109674819D01*
X84645524Y-109674819D02*
X84502667Y-109627200D01*
X84502667Y-109627200D02*
X84407429Y-109531961D01*
X84407429Y-109531961D02*
X84359810Y-109436723D01*
X84359810Y-109436723D02*
X84312191Y-109246247D01*
X84312191Y-109246247D02*
X84312191Y-109103390D01*
X84312191Y-109103390D02*
X84359810Y-108912914D01*
X84359810Y-108912914D02*
X84407429Y-108817676D01*
X84407429Y-108817676D02*
X84502667Y-108722438D01*
X84502667Y-108722438D02*
X84645524Y-108674819D01*
X84645524Y-108674819D02*
X84740762Y-108674819D01*
X84740762Y-108674819D02*
X84883619Y-108722438D01*
X84883619Y-108722438D02*
X84931238Y-108770057D01*
X85121715Y-109770057D02*
X85883619Y-109770057D01*
X86121715Y-109674819D02*
X86121715Y-108674819D01*
X86597905Y-109674819D02*
X86597905Y-108674819D01*
X86597905Y-108674819D02*
X87169333Y-109674819D01*
X87169333Y-109674819D02*
X87169333Y-108674819D01*
X98504476Y-93688819D02*
X98504476Y-94403104D01*
X98504476Y-94403104D02*
X98456857Y-94545961D01*
X98456857Y-94545961D02*
X98361619Y-94641200D01*
X98361619Y-94641200D02*
X98218762Y-94688819D01*
X98218762Y-94688819D02*
X98123524Y-94688819D01*
X99504476Y-94688819D02*
X98933048Y-94688819D01*
X99218762Y-94688819D02*
X99218762Y-93688819D01*
X99218762Y-93688819D02*
X99123524Y-93831676D01*
X99123524Y-93831676D02*
X99028286Y-93926914D01*
X99028286Y-93926914D02*
X98933048Y-93974533D01*
X100123524Y-93688819D02*
X100218762Y-93688819D01*
X100218762Y-93688819D02*
X100314000Y-93736438D01*
X100314000Y-93736438D02*
X100361619Y-93784057D01*
X100361619Y-93784057D02*
X100409238Y-93879295D01*
X100409238Y-93879295D02*
X100456857Y-94069771D01*
X100456857Y-94069771D02*
X100456857Y-94307866D01*
X100456857Y-94307866D02*
X100409238Y-94498342D01*
X100409238Y-94498342D02*
X100361619Y-94593580D01*
X100361619Y-94593580D02*
X100314000Y-94641200D01*
X100314000Y-94641200D02*
X100218762Y-94688819D01*
X100218762Y-94688819D02*
X100123524Y-94688819D01*
X100123524Y-94688819D02*
X100028286Y-94641200D01*
X100028286Y-94641200D02*
X99980667Y-94593580D01*
X99980667Y-94593580D02*
X99933048Y-94498342D01*
X99933048Y-94498342D02*
X99885429Y-94307866D01*
X99885429Y-94307866D02*
X99885429Y-94069771D01*
X99885429Y-94069771D02*
X99933048Y-93879295D01*
X99933048Y-93879295D02*
X99980667Y-93784057D01*
X99980667Y-93784057D02*
X100028286Y-93736438D01*
X100028286Y-93736438D02*
X100123524Y-93688819D01*
X97060048Y-95800104D02*
X97536238Y-95800104D01*
X96964810Y-96085819D02*
X97298143Y-95085819D01*
X97298143Y-95085819D02*
X97631476Y-96085819D01*
X97964810Y-96085819D02*
X97964810Y-95085819D01*
X97964810Y-95085819D02*
X98202905Y-95085819D01*
X98202905Y-95085819D02*
X98345762Y-95133438D01*
X98345762Y-95133438D02*
X98441000Y-95228676D01*
X98441000Y-95228676D02*
X98488619Y-95323914D01*
X98488619Y-95323914D02*
X98536238Y-95514390D01*
X98536238Y-95514390D02*
X98536238Y-95657247D01*
X98536238Y-95657247D02*
X98488619Y-95847723D01*
X98488619Y-95847723D02*
X98441000Y-95942961D01*
X98441000Y-95942961D02*
X98345762Y-96038200D01*
X98345762Y-96038200D02*
X98202905Y-96085819D01*
X98202905Y-96085819D02*
X97964810Y-96085819D01*
X99536238Y-95990580D02*
X99488619Y-96038200D01*
X99488619Y-96038200D02*
X99345762Y-96085819D01*
X99345762Y-96085819D02*
X99250524Y-96085819D01*
X99250524Y-96085819D02*
X99107667Y-96038200D01*
X99107667Y-96038200D02*
X99012429Y-95942961D01*
X99012429Y-95942961D02*
X98964810Y-95847723D01*
X98964810Y-95847723D02*
X98917191Y-95657247D01*
X98917191Y-95657247D02*
X98917191Y-95514390D01*
X98917191Y-95514390D02*
X98964810Y-95323914D01*
X98964810Y-95323914D02*
X99012429Y-95228676D01*
X99012429Y-95228676D02*
X99107667Y-95133438D01*
X99107667Y-95133438D02*
X99250524Y-95085819D01*
X99250524Y-95085819D02*
X99345762Y-95085819D01*
X99345762Y-95085819D02*
X99488619Y-95133438D01*
X99488619Y-95133438D02*
X99536238Y-95181057D01*
X99726715Y-96181057D02*
X100488619Y-96181057D01*
X100726715Y-96085819D02*
X100726715Y-95085819D01*
X101202905Y-96085819D02*
X101202905Y-95085819D01*
X101202905Y-95085819D02*
X101774333Y-96085819D01*
X101774333Y-96085819D02*
X101774333Y-95085819D01*
X113498333Y-61319580D02*
X113450714Y-61367200D01*
X113450714Y-61367200D02*
X113307857Y-61414819D01*
X113307857Y-61414819D02*
X113212619Y-61414819D01*
X113212619Y-61414819D02*
X113069762Y-61367200D01*
X113069762Y-61367200D02*
X112974524Y-61271961D01*
X112974524Y-61271961D02*
X112926905Y-61176723D01*
X112926905Y-61176723D02*
X112879286Y-60986247D01*
X112879286Y-60986247D02*
X112879286Y-60843390D01*
X112879286Y-60843390D02*
X112926905Y-60652914D01*
X112926905Y-60652914D02*
X112974524Y-60557676D01*
X112974524Y-60557676D02*
X113069762Y-60462438D01*
X113069762Y-60462438D02*
X113212619Y-60414819D01*
X113212619Y-60414819D02*
X113307857Y-60414819D01*
X113307857Y-60414819D02*
X113450714Y-60462438D01*
X113450714Y-60462438D02*
X113498333Y-60510057D01*
X113879286Y-60510057D02*
X113926905Y-60462438D01*
X113926905Y-60462438D02*
X114022143Y-60414819D01*
X114022143Y-60414819D02*
X114260238Y-60414819D01*
X114260238Y-60414819D02*
X114355476Y-60462438D01*
X114355476Y-60462438D02*
X114403095Y-60510057D01*
X114403095Y-60510057D02*
X114450714Y-60605295D01*
X114450714Y-60605295D02*
X114450714Y-60700533D01*
X114450714Y-60700533D02*
X114403095Y-60843390D01*
X114403095Y-60843390D02*
X113831667Y-61414819D01*
X113831667Y-61414819D02*
X114450714Y-61414819D01*
X115832143Y-60414819D02*
X115927381Y-60414819D01*
X115927381Y-60414819D02*
X116022619Y-60462438D01*
X116022619Y-60462438D02*
X116070238Y-60510057D01*
X116070238Y-60510057D02*
X116117857Y-60605295D01*
X116117857Y-60605295D02*
X116165476Y-60795771D01*
X116165476Y-60795771D02*
X116165476Y-61033866D01*
X116165476Y-61033866D02*
X116117857Y-61224342D01*
X116117857Y-61224342D02*
X116070238Y-61319580D01*
X116070238Y-61319580D02*
X116022619Y-61367200D01*
X116022619Y-61367200D02*
X115927381Y-61414819D01*
X115927381Y-61414819D02*
X115832143Y-61414819D01*
X115832143Y-61414819D02*
X115736905Y-61367200D01*
X115736905Y-61367200D02*
X115689286Y-61319580D01*
X115689286Y-61319580D02*
X115641667Y-61224342D01*
X115641667Y-61224342D02*
X115594048Y-61033866D01*
X115594048Y-61033866D02*
X115594048Y-60795771D01*
X115594048Y-60795771D02*
X115641667Y-60605295D01*
X115641667Y-60605295D02*
X115689286Y-60510057D01*
X115689286Y-60510057D02*
X115736905Y-60462438D01*
X115736905Y-60462438D02*
X115832143Y-60414819D01*
X116594048Y-61319580D02*
X116641667Y-61367200D01*
X116641667Y-61367200D02*
X116594048Y-61414819D01*
X116594048Y-61414819D02*
X116546429Y-61367200D01*
X116546429Y-61367200D02*
X116594048Y-61319580D01*
X116594048Y-61319580D02*
X116594048Y-61414819D01*
X117594047Y-61414819D02*
X117022619Y-61414819D01*
X117308333Y-61414819D02*
X117308333Y-60414819D01*
X117308333Y-60414819D02*
X117213095Y-60557676D01*
X117213095Y-60557676D02*
X117117857Y-60652914D01*
X117117857Y-60652914D02*
X117022619Y-60700533D01*
X118451190Y-60748152D02*
X118451190Y-61414819D01*
X118022619Y-60748152D02*
X118022619Y-61271961D01*
X118022619Y-61271961D02*
X118070238Y-61367200D01*
X118070238Y-61367200D02*
X118165476Y-61414819D01*
X118165476Y-61414819D02*
X118308333Y-61414819D01*
X118308333Y-61414819D02*
X118403571Y-61367200D01*
X118403571Y-61367200D02*
X118451190Y-61319580D01*
X119260714Y-60891009D02*
X118927381Y-60891009D01*
X118927381Y-61414819D02*
X118927381Y-60414819D01*
X118927381Y-60414819D02*
X119403571Y-60414819D01*
X95678666Y-70289009D02*
X95345333Y-70289009D01*
X95345333Y-70812819D02*
X95345333Y-69812819D01*
X95345333Y-69812819D02*
X95821523Y-69812819D01*
X96726285Y-70812819D02*
X96154857Y-70812819D01*
X96440571Y-70812819D02*
X96440571Y-69812819D01*
X96440571Y-69812819D02*
X96345333Y-69955676D01*
X96345333Y-69955676D02*
X96250095Y-70050914D01*
X96250095Y-70050914D02*
X96154857Y-70098533D01*
X99298380Y-70812819D02*
X98822190Y-70812819D01*
X98822190Y-70812819D02*
X98822190Y-69812819D01*
X99488857Y-69812819D02*
X99822190Y-70812819D01*
X99822190Y-70812819D02*
X100155523Y-69812819D01*
X101060285Y-70812819D02*
X100726952Y-70336628D01*
X100488857Y-70812819D02*
X100488857Y-69812819D01*
X100488857Y-69812819D02*
X100869809Y-69812819D01*
X100869809Y-69812819D02*
X100965047Y-69860438D01*
X100965047Y-69860438D02*
X101012666Y-69908057D01*
X101012666Y-69908057D02*
X101060285Y-70003295D01*
X101060285Y-70003295D02*
X101060285Y-70146152D01*
X101060285Y-70146152D02*
X101012666Y-70241390D01*
X101012666Y-70241390D02*
X100965047Y-70289009D01*
X100965047Y-70289009D02*
X100869809Y-70336628D01*
X100869809Y-70336628D02*
X100488857Y-70336628D01*
X101679333Y-69812819D02*
X101774571Y-69812819D01*
X101774571Y-69812819D02*
X101869809Y-69860438D01*
X101869809Y-69860438D02*
X101917428Y-69908057D01*
X101917428Y-69908057D02*
X101965047Y-70003295D01*
X101965047Y-70003295D02*
X102012666Y-70193771D01*
X102012666Y-70193771D02*
X102012666Y-70431866D01*
X102012666Y-70431866D02*
X101965047Y-70622342D01*
X101965047Y-70622342D02*
X101917428Y-70717580D01*
X101917428Y-70717580D02*
X101869809Y-70765200D01*
X101869809Y-70765200D02*
X101774571Y-70812819D01*
X101774571Y-70812819D02*
X101679333Y-70812819D01*
X101679333Y-70812819D02*
X101584095Y-70765200D01*
X101584095Y-70765200D02*
X101536476Y-70717580D01*
X101536476Y-70717580D02*
X101488857Y-70622342D01*
X101488857Y-70622342D02*
X101441238Y-70431866D01*
X101441238Y-70431866D02*
X101441238Y-70193771D01*
X101441238Y-70193771D02*
X101488857Y-70003295D01*
X101488857Y-70003295D02*
X101536476Y-69908057D01*
X101536476Y-69908057D02*
X101584095Y-69860438D01*
X101584095Y-69860438D02*
X101679333Y-69812819D01*
X102869809Y-70146152D02*
X102869809Y-70812819D01*
X102631714Y-69765200D02*
X102393619Y-70479485D01*
X102393619Y-70479485D02*
X103012666Y-70479485D01*
X103584095Y-69812819D02*
X103679333Y-69812819D01*
X103679333Y-69812819D02*
X103774571Y-69860438D01*
X103774571Y-69860438D02*
X103822190Y-69908057D01*
X103822190Y-69908057D02*
X103869809Y-70003295D01*
X103869809Y-70003295D02*
X103917428Y-70193771D01*
X103917428Y-70193771D02*
X103917428Y-70431866D01*
X103917428Y-70431866D02*
X103869809Y-70622342D01*
X103869809Y-70622342D02*
X103822190Y-70717580D01*
X103822190Y-70717580D02*
X103774571Y-70765200D01*
X103774571Y-70765200D02*
X103679333Y-70812819D01*
X103679333Y-70812819D02*
X103584095Y-70812819D01*
X103584095Y-70812819D02*
X103488857Y-70765200D01*
X103488857Y-70765200D02*
X103441238Y-70717580D01*
X103441238Y-70717580D02*
X103393619Y-70622342D01*
X103393619Y-70622342D02*
X103346000Y-70431866D01*
X103346000Y-70431866D02*
X103346000Y-70193771D01*
X103346000Y-70193771D02*
X103393619Y-70003295D01*
X103393619Y-70003295D02*
X103441238Y-69908057D01*
X103441238Y-69908057D02*
X103488857Y-69860438D01*
X103488857Y-69860438D02*
X103584095Y-69812819D01*
X78729819Y-102782666D02*
X78253628Y-103115999D01*
X78729819Y-103354094D02*
X77729819Y-103354094D01*
X77729819Y-103354094D02*
X77729819Y-102973142D01*
X77729819Y-102973142D02*
X77777438Y-102877904D01*
X77777438Y-102877904D02*
X77825057Y-102830285D01*
X77825057Y-102830285D02*
X77920295Y-102782666D01*
X77920295Y-102782666D02*
X78063152Y-102782666D01*
X78063152Y-102782666D02*
X78158390Y-102830285D01*
X78158390Y-102830285D02*
X78206009Y-102877904D01*
X78206009Y-102877904D02*
X78253628Y-102973142D01*
X78253628Y-102973142D02*
X78253628Y-103354094D01*
X78729819Y-101830285D02*
X78729819Y-102401713D01*
X78729819Y-102115999D02*
X77729819Y-102115999D01*
X77729819Y-102115999D02*
X77872676Y-102211237D01*
X77872676Y-102211237D02*
X77967914Y-102306475D01*
X77967914Y-102306475D02*
X78015533Y-102401713D01*
X77813819Y-100155285D02*
X77813819Y-100631475D01*
X77813819Y-100631475D02*
X78290009Y-100679094D01*
X78290009Y-100679094D02*
X78242390Y-100631475D01*
X78242390Y-100631475D02*
X78194771Y-100536237D01*
X78194771Y-100536237D02*
X78194771Y-100298142D01*
X78194771Y-100298142D02*
X78242390Y-100202904D01*
X78242390Y-100202904D02*
X78290009Y-100155285D01*
X78290009Y-100155285D02*
X78385247Y-100107666D01*
X78385247Y-100107666D02*
X78623342Y-100107666D01*
X78623342Y-100107666D02*
X78718580Y-100155285D01*
X78718580Y-100155285D02*
X78766200Y-100202904D01*
X78766200Y-100202904D02*
X78813819Y-100298142D01*
X78813819Y-100298142D02*
X78813819Y-100536237D01*
X78813819Y-100536237D02*
X78766200Y-100631475D01*
X78766200Y-100631475D02*
X78718580Y-100679094D01*
X78813819Y-99155285D02*
X78813819Y-99726713D01*
X78813819Y-99440999D02*
X77813819Y-99440999D01*
X77813819Y-99440999D02*
X77956676Y-99536237D01*
X77956676Y-99536237D02*
X78051914Y-99631475D01*
X78051914Y-99631475D02*
X78099533Y-99726713D01*
X77813819Y-98536237D02*
X77813819Y-98440999D01*
X77813819Y-98440999D02*
X77861438Y-98345761D01*
X77861438Y-98345761D02*
X77909057Y-98298142D01*
X77909057Y-98298142D02*
X78004295Y-98250523D01*
X78004295Y-98250523D02*
X78194771Y-98202904D01*
X78194771Y-98202904D02*
X78432866Y-98202904D01*
X78432866Y-98202904D02*
X78623342Y-98250523D01*
X78623342Y-98250523D02*
X78718580Y-98298142D01*
X78718580Y-98298142D02*
X78766200Y-98345761D01*
X78766200Y-98345761D02*
X78813819Y-98440999D01*
X78813819Y-98440999D02*
X78813819Y-98536237D01*
X78813819Y-98536237D02*
X78766200Y-98631475D01*
X78766200Y-98631475D02*
X78718580Y-98679094D01*
X78718580Y-98679094D02*
X78623342Y-98726713D01*
X78623342Y-98726713D02*
X78432866Y-98774332D01*
X78432866Y-98774332D02*
X78194771Y-98774332D01*
X78194771Y-98774332D02*
X78004295Y-98726713D01*
X78004295Y-98726713D02*
X77909057Y-98679094D01*
X77909057Y-98679094D02*
X77861438Y-98631475D01*
X77861438Y-98631475D02*
X77813819Y-98536237D01*
X96456667Y-111278200D02*
X96599524Y-111325819D01*
X96599524Y-111325819D02*
X96837619Y-111325819D01*
X96837619Y-111325819D02*
X96932857Y-111278200D01*
X96932857Y-111278200D02*
X96980476Y-111230580D01*
X96980476Y-111230580D02*
X97028095Y-111135342D01*
X97028095Y-111135342D02*
X97028095Y-111040104D01*
X97028095Y-111040104D02*
X96980476Y-110944866D01*
X96980476Y-110944866D02*
X96932857Y-110897247D01*
X96932857Y-110897247D02*
X96837619Y-110849628D01*
X96837619Y-110849628D02*
X96647143Y-110802009D01*
X96647143Y-110802009D02*
X96551905Y-110754390D01*
X96551905Y-110754390D02*
X96504286Y-110706771D01*
X96504286Y-110706771D02*
X96456667Y-110611533D01*
X96456667Y-110611533D02*
X96456667Y-110516295D01*
X96456667Y-110516295D02*
X96504286Y-110421057D01*
X96504286Y-110421057D02*
X96551905Y-110373438D01*
X96551905Y-110373438D02*
X96647143Y-110325819D01*
X96647143Y-110325819D02*
X96885238Y-110325819D01*
X96885238Y-110325819D02*
X97028095Y-110373438D01*
X97361429Y-110325819D02*
X97599524Y-111325819D01*
X97599524Y-111325819D02*
X97790000Y-110611533D01*
X97790000Y-110611533D02*
X97980476Y-111325819D01*
X97980476Y-111325819D02*
X98218572Y-110325819D01*
X99123333Y-111325819D02*
X98551905Y-111325819D01*
X98837619Y-111325819D02*
X98837619Y-110325819D01*
X98837619Y-110325819D02*
X98742381Y-110468676D01*
X98742381Y-110468676D02*
X98647143Y-110563914D01*
X98647143Y-110563914D02*
X98551905Y-110611533D01*
X99822381Y-112929200D02*
X99965238Y-112976819D01*
X99965238Y-112976819D02*
X100203333Y-112976819D01*
X100203333Y-112976819D02*
X100298571Y-112929200D01*
X100298571Y-112929200D02*
X100346190Y-112881580D01*
X100346190Y-112881580D02*
X100393809Y-112786342D01*
X100393809Y-112786342D02*
X100393809Y-112691104D01*
X100393809Y-112691104D02*
X100346190Y-112595866D01*
X100346190Y-112595866D02*
X100298571Y-112548247D01*
X100298571Y-112548247D02*
X100203333Y-112500628D01*
X100203333Y-112500628D02*
X100012857Y-112453009D01*
X100012857Y-112453009D02*
X99917619Y-112405390D01*
X99917619Y-112405390D02*
X99870000Y-112357771D01*
X99870000Y-112357771D02*
X99822381Y-112262533D01*
X99822381Y-112262533D02*
X99822381Y-112167295D01*
X99822381Y-112167295D02*
X99870000Y-112072057D01*
X99870000Y-112072057D02*
X99917619Y-112024438D01*
X99917619Y-112024438D02*
X100012857Y-111976819D01*
X100012857Y-111976819D02*
X100250952Y-111976819D01*
X100250952Y-111976819D02*
X100393809Y-112024438D01*
X100727143Y-111976819D02*
X100965238Y-112976819D01*
X100965238Y-112976819D02*
X101155714Y-112262533D01*
X101155714Y-112262533D02*
X101346190Y-112976819D01*
X101346190Y-112976819D02*
X101584286Y-111976819D01*
X101727143Y-113072057D02*
X102489047Y-113072057D01*
X103298571Y-112976819D02*
X102965238Y-112500628D01*
X102727143Y-112976819D02*
X102727143Y-111976819D01*
X102727143Y-111976819D02*
X103108095Y-111976819D01*
X103108095Y-111976819D02*
X103203333Y-112024438D01*
X103203333Y-112024438D02*
X103250952Y-112072057D01*
X103250952Y-112072057D02*
X103298571Y-112167295D01*
X103298571Y-112167295D02*
X103298571Y-112310152D01*
X103298571Y-112310152D02*
X103250952Y-112405390D01*
X103250952Y-112405390D02*
X103203333Y-112453009D01*
X103203333Y-112453009D02*
X103108095Y-112500628D01*
X103108095Y-112500628D02*
X102727143Y-112500628D01*
X104108095Y-112929200D02*
X104012857Y-112976819D01*
X104012857Y-112976819D02*
X103822381Y-112976819D01*
X103822381Y-112976819D02*
X103727143Y-112929200D01*
X103727143Y-112929200D02*
X103679524Y-112833961D01*
X103679524Y-112833961D02*
X103679524Y-112453009D01*
X103679524Y-112453009D02*
X103727143Y-112357771D01*
X103727143Y-112357771D02*
X103822381Y-112310152D01*
X103822381Y-112310152D02*
X104012857Y-112310152D01*
X104012857Y-112310152D02*
X104108095Y-112357771D01*
X104108095Y-112357771D02*
X104155714Y-112453009D01*
X104155714Y-112453009D02*
X104155714Y-112548247D01*
X104155714Y-112548247D02*
X103679524Y-112643485D01*
X104965238Y-112929200D02*
X104870000Y-112976819D01*
X104870000Y-112976819D02*
X104679524Y-112976819D01*
X104679524Y-112976819D02*
X104584286Y-112929200D01*
X104584286Y-112929200D02*
X104536667Y-112833961D01*
X104536667Y-112833961D02*
X104536667Y-112453009D01*
X104536667Y-112453009D02*
X104584286Y-112357771D01*
X104584286Y-112357771D02*
X104679524Y-112310152D01*
X104679524Y-112310152D02*
X104870000Y-112310152D01*
X104870000Y-112310152D02*
X104965238Y-112357771D01*
X104965238Y-112357771D02*
X105012857Y-112453009D01*
X105012857Y-112453009D02*
X105012857Y-112548247D01*
X105012857Y-112548247D02*
X104536667Y-112643485D01*
X105870000Y-112976819D02*
X105870000Y-111976819D01*
X105870000Y-112929200D02*
X105774762Y-112976819D01*
X105774762Y-112976819D02*
X105584286Y-112976819D01*
X105584286Y-112976819D02*
X105489048Y-112929200D01*
X105489048Y-112929200D02*
X105441429Y-112881580D01*
X105441429Y-112881580D02*
X105393810Y-112786342D01*
X105393810Y-112786342D02*
X105393810Y-112500628D01*
X105393810Y-112500628D02*
X105441429Y-112405390D01*
X105441429Y-112405390D02*
X105489048Y-112357771D01*
X105489048Y-112357771D02*
X105584286Y-112310152D01*
X105584286Y-112310152D02*
X105774762Y-112310152D01*
X105774762Y-112310152D02*
X105870000Y-112357771D01*
X140899000Y-82752128D02*
X141256143Y-84252128D01*
X141256143Y-84252128D02*
X141541857Y-83180700D01*
X141541857Y-83180700D02*
X141827572Y-84252128D01*
X141827572Y-84252128D02*
X142184715Y-82752128D01*
X143470429Y-82752128D02*
X142756143Y-82752128D01*
X142756143Y-82752128D02*
X142684715Y-83466414D01*
X142684715Y-83466414D02*
X142756143Y-83394985D01*
X142756143Y-83394985D02*
X142899001Y-83323557D01*
X142899001Y-83323557D02*
X143256143Y-83323557D01*
X143256143Y-83323557D02*
X143399001Y-83394985D01*
X143399001Y-83394985D02*
X143470429Y-83466414D01*
X143470429Y-83466414D02*
X143541858Y-83609271D01*
X143541858Y-83609271D02*
X143541858Y-83966414D01*
X143541858Y-83966414D02*
X143470429Y-84109271D01*
X143470429Y-84109271D02*
X143399001Y-84180700D01*
X143399001Y-84180700D02*
X143256143Y-84252128D01*
X143256143Y-84252128D02*
X142899001Y-84252128D01*
X142899001Y-84252128D02*
X142756143Y-84180700D01*
X142756143Y-84180700D02*
X142684715Y-84109271D01*
X144899000Y-82752128D02*
X144184714Y-82752128D01*
X144184714Y-82752128D02*
X144113286Y-83466414D01*
X144113286Y-83466414D02*
X144184714Y-83394985D01*
X144184714Y-83394985D02*
X144327572Y-83323557D01*
X144327572Y-83323557D02*
X144684714Y-83323557D01*
X144684714Y-83323557D02*
X144827572Y-83394985D01*
X144827572Y-83394985D02*
X144899000Y-83466414D01*
X144899000Y-83466414D02*
X144970429Y-83609271D01*
X144970429Y-83609271D02*
X144970429Y-83966414D01*
X144970429Y-83966414D02*
X144899000Y-84109271D01*
X144899000Y-84109271D02*
X144827572Y-84180700D01*
X144827572Y-84180700D02*
X144684714Y-84252128D01*
X144684714Y-84252128D02*
X144327572Y-84252128D01*
X144327572Y-84252128D02*
X144184714Y-84180700D01*
X144184714Y-84180700D02*
X144113286Y-84109271D01*
X145899000Y-82752128D02*
X146041857Y-82752128D01*
X146041857Y-82752128D02*
X146184714Y-82823557D01*
X146184714Y-82823557D02*
X146256143Y-82894985D01*
X146256143Y-82894985D02*
X146327571Y-83037842D01*
X146327571Y-83037842D02*
X146399000Y-83323557D01*
X146399000Y-83323557D02*
X146399000Y-83680700D01*
X146399000Y-83680700D02*
X146327571Y-83966414D01*
X146327571Y-83966414D02*
X146256143Y-84109271D01*
X146256143Y-84109271D02*
X146184714Y-84180700D01*
X146184714Y-84180700D02*
X146041857Y-84252128D01*
X146041857Y-84252128D02*
X145899000Y-84252128D01*
X145899000Y-84252128D02*
X145756143Y-84180700D01*
X145756143Y-84180700D02*
X145684714Y-84109271D01*
X145684714Y-84109271D02*
X145613285Y-83966414D01*
X145613285Y-83966414D02*
X145541857Y-83680700D01*
X145541857Y-83680700D02*
X145541857Y-83323557D01*
X145541857Y-83323557D02*
X145613285Y-83037842D01*
X145613285Y-83037842D02*
X145684714Y-82894985D01*
X145684714Y-82894985D02*
X145756143Y-82823557D01*
X145756143Y-82823557D02*
X145899000Y-82752128D01*
X147327571Y-82752128D02*
X147470428Y-82752128D01*
X147470428Y-82752128D02*
X147613285Y-82823557D01*
X147613285Y-82823557D02*
X147684714Y-82894985D01*
X147684714Y-82894985D02*
X147756142Y-83037842D01*
X147756142Y-83037842D02*
X147827571Y-83323557D01*
X147827571Y-83323557D02*
X147827571Y-83680700D01*
X147827571Y-83680700D02*
X147756142Y-83966414D01*
X147756142Y-83966414D02*
X147684714Y-84109271D01*
X147684714Y-84109271D02*
X147613285Y-84180700D01*
X147613285Y-84180700D02*
X147470428Y-84252128D01*
X147470428Y-84252128D02*
X147327571Y-84252128D01*
X147327571Y-84252128D02*
X147184714Y-84180700D01*
X147184714Y-84180700D02*
X147113285Y-84109271D01*
X147113285Y-84109271D02*
X147041856Y-83966414D01*
X147041856Y-83966414D02*
X146970428Y-83680700D01*
X146970428Y-83680700D02*
X146970428Y-83323557D01*
X146970428Y-83323557D02*
X147041856Y-83037842D01*
X147041856Y-83037842D02*
X147113285Y-82894985D01*
X147113285Y-82894985D02*
X147184714Y-82823557D01*
X147184714Y-82823557D02*
X147327571Y-82752128D01*
D16*
X98276455Y-83932333D02*
X98276455Y-83232333D01*
X98276455Y-83232333D02*
X98509789Y-83732333D01*
X98509789Y-83732333D02*
X98743122Y-83232333D01*
X98743122Y-83232333D02*
X98743122Y-83932333D01*
X99209789Y-83232333D02*
X99343122Y-83232333D01*
X99343122Y-83232333D02*
X99409789Y-83265666D01*
X99409789Y-83265666D02*
X99476455Y-83332333D01*
X99476455Y-83332333D02*
X99509789Y-83465666D01*
X99509789Y-83465666D02*
X99509789Y-83699000D01*
X99509789Y-83699000D02*
X99476455Y-83832333D01*
X99476455Y-83832333D02*
X99409789Y-83899000D01*
X99409789Y-83899000D02*
X99343122Y-83932333D01*
X99343122Y-83932333D02*
X99209789Y-83932333D01*
X99209789Y-83932333D02*
X99143122Y-83899000D01*
X99143122Y-83899000D02*
X99076455Y-83832333D01*
X99076455Y-83832333D02*
X99043122Y-83699000D01*
X99043122Y-83699000D02*
X99043122Y-83465666D01*
X99043122Y-83465666D02*
X99076455Y-83332333D01*
X99076455Y-83332333D02*
X99143122Y-83265666D01*
X99143122Y-83265666D02*
X99209789Y-83232333D01*
X99776455Y-83899000D02*
X99876455Y-83932333D01*
X99876455Y-83932333D02*
X100043122Y-83932333D01*
X100043122Y-83932333D02*
X100109788Y-83899000D01*
X100109788Y-83899000D02*
X100143122Y-83865666D01*
X100143122Y-83865666D02*
X100176455Y-83799000D01*
X100176455Y-83799000D02*
X100176455Y-83732333D01*
X100176455Y-83732333D02*
X100143122Y-83665666D01*
X100143122Y-83665666D02*
X100109788Y-83632333D01*
X100109788Y-83632333D02*
X100043122Y-83599000D01*
X100043122Y-83599000D02*
X99909788Y-83565666D01*
X99909788Y-83565666D02*
X99843122Y-83532333D01*
X99843122Y-83532333D02*
X99809788Y-83499000D01*
X99809788Y-83499000D02*
X99776455Y-83432333D01*
X99776455Y-83432333D02*
X99776455Y-83365666D01*
X99776455Y-83365666D02*
X99809788Y-83299000D01*
X99809788Y-83299000D02*
X99843122Y-83265666D01*
X99843122Y-83265666D02*
X99909788Y-83232333D01*
X99909788Y-83232333D02*
X100076455Y-83232333D01*
X100076455Y-83232333D02*
X100176455Y-83265666D01*
X100476455Y-83932333D02*
X100476455Y-83232333D01*
X98209789Y-88312333D02*
X98643122Y-88312333D01*
X98643122Y-88312333D02*
X98409789Y-88579000D01*
X98409789Y-88579000D02*
X98509789Y-88579000D01*
X98509789Y-88579000D02*
X98576455Y-88612333D01*
X98576455Y-88612333D02*
X98609789Y-88645666D01*
X98609789Y-88645666D02*
X98643122Y-88712333D01*
X98643122Y-88712333D02*
X98643122Y-88879000D01*
X98643122Y-88879000D02*
X98609789Y-88945666D01*
X98609789Y-88945666D02*
X98576455Y-88979000D01*
X98576455Y-88979000D02*
X98509789Y-89012333D01*
X98509789Y-89012333D02*
X98309789Y-89012333D01*
X98309789Y-89012333D02*
X98243122Y-88979000D01*
X98243122Y-88979000D02*
X98209789Y-88945666D01*
X98943122Y-88945666D02*
X98976456Y-88979000D01*
X98976456Y-88979000D02*
X98943122Y-89012333D01*
X98943122Y-89012333D02*
X98909789Y-88979000D01*
X98909789Y-88979000D02*
X98943122Y-88945666D01*
X98943122Y-88945666D02*
X98943122Y-89012333D01*
X99209789Y-88312333D02*
X99643122Y-88312333D01*
X99643122Y-88312333D02*
X99409789Y-88579000D01*
X99409789Y-88579000D02*
X99509789Y-88579000D01*
X99509789Y-88579000D02*
X99576455Y-88612333D01*
X99576455Y-88612333D02*
X99609789Y-88645666D01*
X99609789Y-88645666D02*
X99643122Y-88712333D01*
X99643122Y-88712333D02*
X99643122Y-88879000D01*
X99643122Y-88879000D02*
X99609789Y-88945666D01*
X99609789Y-88945666D02*
X99576455Y-88979000D01*
X99576455Y-88979000D02*
X99509789Y-89012333D01*
X99509789Y-89012333D02*
X99309789Y-89012333D01*
X99309789Y-89012333D02*
X99243122Y-88979000D01*
X99243122Y-88979000D02*
X99209789Y-88945666D01*
X99843122Y-88312333D02*
X100076456Y-89012333D01*
X100076456Y-89012333D02*
X100309789Y-88312333D01*
D12*
X94764388Y-78432019D02*
X94192960Y-78432019D01*
X94478674Y-78432019D02*
X94478674Y-77432019D01*
X94478674Y-77432019D02*
X94383436Y-77574876D01*
X94383436Y-77574876D02*
X94288198Y-77670114D01*
X94288198Y-77670114D02*
X94192960Y-77717733D01*
X95383436Y-77432019D02*
X95478674Y-77432019D01*
X95478674Y-77432019D02*
X95573912Y-77479638D01*
X95573912Y-77479638D02*
X95621531Y-77527257D01*
X95621531Y-77527257D02*
X95669150Y-77622495D01*
X95669150Y-77622495D02*
X95716769Y-77812971D01*
X95716769Y-77812971D02*
X95716769Y-78051066D01*
X95716769Y-78051066D02*
X95669150Y-78241542D01*
X95669150Y-78241542D02*
X95621531Y-78336780D01*
X95621531Y-78336780D02*
X95573912Y-78384400D01*
X95573912Y-78384400D02*
X95478674Y-78432019D01*
X95478674Y-78432019D02*
X95383436Y-78432019D01*
X95383436Y-78432019D02*
X95288198Y-78384400D01*
X95288198Y-78384400D02*
X95240579Y-78336780D01*
X95240579Y-78336780D02*
X95192960Y-78241542D01*
X95192960Y-78241542D02*
X95145341Y-78051066D01*
X95145341Y-78051066D02*
X95145341Y-77812971D01*
X95145341Y-77812971D02*
X95192960Y-77622495D01*
X95192960Y-77622495D02*
X95240579Y-77527257D01*
X95240579Y-77527257D02*
X95288198Y-77479638D01*
X95288198Y-77479638D02*
X95383436Y-77432019D01*
X100936588Y-90751019D02*
X100365160Y-90751019D01*
X100650874Y-90751019D02*
X100650874Y-89751019D01*
X100650874Y-89751019D02*
X100555636Y-89893876D01*
X100555636Y-89893876D02*
X100460398Y-89989114D01*
X100460398Y-89989114D02*
X100365160Y-90036733D01*
D16*
X95990455Y-81392333D02*
X95990455Y-80692333D01*
X96323788Y-81392333D02*
X96323788Y-80692333D01*
X96323788Y-80692333D02*
X96723788Y-81392333D01*
X96723788Y-81392333D02*
X96723788Y-80692333D01*
X96957121Y-80692333D02*
X97357121Y-80692333D01*
X97157121Y-81392333D02*
X97157121Y-80692333D01*
D12*
X94269160Y-89846257D02*
X94316779Y-89798638D01*
X94316779Y-89798638D02*
X94412017Y-89751019D01*
X94412017Y-89751019D02*
X94650112Y-89751019D01*
X94650112Y-89751019D02*
X94745350Y-89798638D01*
X94745350Y-89798638D02*
X94792969Y-89846257D01*
X94792969Y-89846257D02*
X94840588Y-89941495D01*
X94840588Y-89941495D02*
X94840588Y-90036733D01*
X94840588Y-90036733D02*
X94792969Y-90179590D01*
X94792969Y-90179590D02*
X94221541Y-90751019D01*
X94221541Y-90751019D02*
X94840588Y-90751019D01*
D16*
X98276455Y-86472333D02*
X98276455Y-85772333D01*
X98276455Y-85772333D02*
X98509789Y-86272333D01*
X98509789Y-86272333D02*
X98743122Y-85772333D01*
X98743122Y-85772333D02*
X98743122Y-86472333D01*
X99076455Y-86472333D02*
X99076455Y-85772333D01*
X99376455Y-86439000D02*
X99476455Y-86472333D01*
X99476455Y-86472333D02*
X99643122Y-86472333D01*
X99643122Y-86472333D02*
X99709788Y-86439000D01*
X99709788Y-86439000D02*
X99743122Y-86405666D01*
X99743122Y-86405666D02*
X99776455Y-86339000D01*
X99776455Y-86339000D02*
X99776455Y-86272333D01*
X99776455Y-86272333D02*
X99743122Y-86205666D01*
X99743122Y-86205666D02*
X99709788Y-86172333D01*
X99709788Y-86172333D02*
X99643122Y-86139000D01*
X99643122Y-86139000D02*
X99509788Y-86105666D01*
X99509788Y-86105666D02*
X99443122Y-86072333D01*
X99443122Y-86072333D02*
X99409788Y-86039000D01*
X99409788Y-86039000D02*
X99376455Y-85972333D01*
X99376455Y-85972333D02*
X99376455Y-85905666D01*
X99376455Y-85905666D02*
X99409788Y-85839000D01*
X99409788Y-85839000D02*
X99443122Y-85805666D01*
X99443122Y-85805666D02*
X99509788Y-85772333D01*
X99509788Y-85772333D02*
X99676455Y-85772333D01*
X99676455Y-85772333D02*
X99776455Y-85805666D01*
X100209789Y-85772333D02*
X100343122Y-85772333D01*
X100343122Y-85772333D02*
X100409789Y-85805666D01*
X100409789Y-85805666D02*
X100476455Y-85872333D01*
X100476455Y-85872333D02*
X100509789Y-86005666D01*
X100509789Y-86005666D02*
X100509789Y-86239000D01*
X100509789Y-86239000D02*
X100476455Y-86372333D01*
X100476455Y-86372333D02*
X100409789Y-86439000D01*
X100409789Y-86439000D02*
X100343122Y-86472333D01*
X100343122Y-86472333D02*
X100209789Y-86472333D01*
X100209789Y-86472333D02*
X100143122Y-86439000D01*
X100143122Y-86439000D02*
X100076455Y-86372333D01*
X100076455Y-86372333D02*
X100043122Y-86239000D01*
X100043122Y-86239000D02*
X100043122Y-86005666D01*
X100043122Y-86005666D02*
X100076455Y-85872333D01*
X100076455Y-85872333D02*
X100143122Y-85805666D01*
X100143122Y-85805666D02*
X100209789Y-85772333D01*
X96390455Y-83932333D02*
X96157122Y-83599000D01*
X95990455Y-83932333D02*
X95990455Y-83232333D01*
X95990455Y-83232333D02*
X96257122Y-83232333D01*
X96257122Y-83232333D02*
X96323789Y-83265666D01*
X96323789Y-83265666D02*
X96357122Y-83299000D01*
X96357122Y-83299000D02*
X96390455Y-83365666D01*
X96390455Y-83365666D02*
X96390455Y-83465666D01*
X96390455Y-83465666D02*
X96357122Y-83532333D01*
X96357122Y-83532333D02*
X96323789Y-83565666D01*
X96323789Y-83565666D02*
X96257122Y-83599000D01*
X96257122Y-83599000D02*
X95990455Y-83599000D01*
X96657122Y-83899000D02*
X96757122Y-83932333D01*
X96757122Y-83932333D02*
X96923789Y-83932333D01*
X96923789Y-83932333D02*
X96990455Y-83899000D01*
X96990455Y-83899000D02*
X97023789Y-83865666D01*
X97023789Y-83865666D02*
X97057122Y-83799000D01*
X97057122Y-83799000D02*
X97057122Y-83732333D01*
X97057122Y-83732333D02*
X97023789Y-83665666D01*
X97023789Y-83665666D02*
X96990455Y-83632333D01*
X96990455Y-83632333D02*
X96923789Y-83599000D01*
X96923789Y-83599000D02*
X96790455Y-83565666D01*
X96790455Y-83565666D02*
X96723789Y-83532333D01*
X96723789Y-83532333D02*
X96690455Y-83499000D01*
X96690455Y-83499000D02*
X96657122Y-83432333D01*
X96657122Y-83432333D02*
X96657122Y-83365666D01*
X96657122Y-83365666D02*
X96690455Y-83299000D01*
X96690455Y-83299000D02*
X96723789Y-83265666D01*
X96723789Y-83265666D02*
X96790455Y-83232333D01*
X96790455Y-83232333D02*
X96957122Y-83232333D01*
X96957122Y-83232333D02*
X97057122Y-83265666D01*
X97257122Y-83232333D02*
X97657122Y-83232333D01*
X97457122Y-83932333D02*
X97457122Y-83232333D01*
D12*
X99444398Y-78432019D02*
X99634874Y-78432019D01*
X99634874Y-78432019D02*
X99730112Y-78384400D01*
X99730112Y-78384400D02*
X99777731Y-78336780D01*
X99777731Y-78336780D02*
X99872969Y-78193923D01*
X99872969Y-78193923D02*
X99920588Y-78003447D01*
X99920588Y-78003447D02*
X99920588Y-77622495D01*
X99920588Y-77622495D02*
X99872969Y-77527257D01*
X99872969Y-77527257D02*
X99825350Y-77479638D01*
X99825350Y-77479638D02*
X99730112Y-77432019D01*
X99730112Y-77432019D02*
X99539636Y-77432019D01*
X99539636Y-77432019D02*
X99444398Y-77479638D01*
X99444398Y-77479638D02*
X99396779Y-77527257D01*
X99396779Y-77527257D02*
X99349160Y-77622495D01*
X99349160Y-77622495D02*
X99349160Y-77860590D01*
X99349160Y-77860590D02*
X99396779Y-77955828D01*
X99396779Y-77955828D02*
X99444398Y-78003447D01*
X99444398Y-78003447D02*
X99539636Y-78051066D01*
X99539636Y-78051066D02*
X99730112Y-78051066D01*
X99730112Y-78051066D02*
X99825350Y-78003447D01*
X99825350Y-78003447D02*
X99872969Y-77955828D01*
X99872969Y-77955828D02*
X99920588Y-77860590D01*
D16*
X98243122Y-78819000D02*
X98343122Y-78852333D01*
X98343122Y-78852333D02*
X98509789Y-78852333D01*
X98509789Y-78852333D02*
X98576455Y-78819000D01*
X98576455Y-78819000D02*
X98609789Y-78785666D01*
X98609789Y-78785666D02*
X98643122Y-78719000D01*
X98643122Y-78719000D02*
X98643122Y-78652333D01*
X98643122Y-78652333D02*
X98609789Y-78585666D01*
X98609789Y-78585666D02*
X98576455Y-78552333D01*
X98576455Y-78552333D02*
X98509789Y-78519000D01*
X98509789Y-78519000D02*
X98376455Y-78485666D01*
X98376455Y-78485666D02*
X98309789Y-78452333D01*
X98309789Y-78452333D02*
X98276455Y-78419000D01*
X98276455Y-78419000D02*
X98243122Y-78352333D01*
X98243122Y-78352333D02*
X98243122Y-78285666D01*
X98243122Y-78285666D02*
X98276455Y-78219000D01*
X98276455Y-78219000D02*
X98309789Y-78185666D01*
X98309789Y-78185666D02*
X98376455Y-78152333D01*
X98376455Y-78152333D02*
X98543122Y-78152333D01*
X98543122Y-78152333D02*
X98643122Y-78185666D01*
X99343122Y-78785666D02*
X99309789Y-78819000D01*
X99309789Y-78819000D02*
X99209789Y-78852333D01*
X99209789Y-78852333D02*
X99143122Y-78852333D01*
X99143122Y-78852333D02*
X99043122Y-78819000D01*
X99043122Y-78819000D02*
X98976456Y-78752333D01*
X98976456Y-78752333D02*
X98943122Y-78685666D01*
X98943122Y-78685666D02*
X98909789Y-78552333D01*
X98909789Y-78552333D02*
X98909789Y-78452333D01*
X98909789Y-78452333D02*
X98943122Y-78319000D01*
X98943122Y-78319000D02*
X98976456Y-78252333D01*
X98976456Y-78252333D02*
X99043122Y-78185666D01*
X99043122Y-78185666D02*
X99143122Y-78152333D01*
X99143122Y-78152333D02*
X99209789Y-78152333D01*
X99209789Y-78152333D02*
X99309789Y-78185666D01*
X99309789Y-78185666D02*
X99343122Y-78219000D01*
X99976456Y-78852333D02*
X99643122Y-78852333D01*
X99643122Y-78852333D02*
X99643122Y-78152333D01*
X100209789Y-78852333D02*
X100209789Y-78152333D01*
X100609789Y-78852333D02*
X100309789Y-78452333D01*
X100609789Y-78152333D02*
X100209789Y-78552333D01*
X98243122Y-81359000D02*
X98343122Y-81392333D01*
X98343122Y-81392333D02*
X98509789Y-81392333D01*
X98509789Y-81392333D02*
X98576455Y-81359000D01*
X98576455Y-81359000D02*
X98609789Y-81325666D01*
X98609789Y-81325666D02*
X98643122Y-81259000D01*
X98643122Y-81259000D02*
X98643122Y-81192333D01*
X98643122Y-81192333D02*
X98609789Y-81125666D01*
X98609789Y-81125666D02*
X98576455Y-81092333D01*
X98576455Y-81092333D02*
X98509789Y-81059000D01*
X98509789Y-81059000D02*
X98376455Y-81025666D01*
X98376455Y-81025666D02*
X98309789Y-80992333D01*
X98309789Y-80992333D02*
X98276455Y-80959000D01*
X98276455Y-80959000D02*
X98243122Y-80892333D01*
X98243122Y-80892333D02*
X98243122Y-80825666D01*
X98243122Y-80825666D02*
X98276455Y-80759000D01*
X98276455Y-80759000D02*
X98309789Y-80725666D01*
X98309789Y-80725666D02*
X98376455Y-80692333D01*
X98376455Y-80692333D02*
X98543122Y-80692333D01*
X98543122Y-80692333D02*
X98643122Y-80725666D01*
X99343122Y-81325666D02*
X99309789Y-81359000D01*
X99309789Y-81359000D02*
X99209789Y-81392333D01*
X99209789Y-81392333D02*
X99143122Y-81392333D01*
X99143122Y-81392333D02*
X99043122Y-81359000D01*
X99043122Y-81359000D02*
X98976456Y-81292333D01*
X98976456Y-81292333D02*
X98943122Y-81225666D01*
X98943122Y-81225666D02*
X98909789Y-81092333D01*
X98909789Y-81092333D02*
X98909789Y-80992333D01*
X98909789Y-80992333D02*
X98943122Y-80859000D01*
X98943122Y-80859000D02*
X98976456Y-80792333D01*
X98976456Y-80792333D02*
X99043122Y-80725666D01*
X99043122Y-80725666D02*
X99143122Y-80692333D01*
X99143122Y-80692333D02*
X99209789Y-80692333D01*
X99209789Y-80692333D02*
X99309789Y-80725666D01*
X99309789Y-80725666D02*
X99343122Y-80759000D01*
X99609789Y-81359000D02*
X99709789Y-81392333D01*
X99709789Y-81392333D02*
X99876456Y-81392333D01*
X99876456Y-81392333D02*
X99943122Y-81359000D01*
X99943122Y-81359000D02*
X99976456Y-81325666D01*
X99976456Y-81325666D02*
X100009789Y-81259000D01*
X100009789Y-81259000D02*
X100009789Y-81192333D01*
X100009789Y-81192333D02*
X99976456Y-81125666D01*
X99976456Y-81125666D02*
X99943122Y-81092333D01*
X99943122Y-81092333D02*
X99876456Y-81059000D01*
X99876456Y-81059000D02*
X99743122Y-81025666D01*
X99743122Y-81025666D02*
X99676456Y-80992333D01*
X99676456Y-80992333D02*
X99643122Y-80959000D01*
X99643122Y-80959000D02*
X99609789Y-80892333D01*
X99609789Y-80892333D02*
X99609789Y-80825666D01*
X99609789Y-80825666D02*
X99643122Y-80759000D01*
X99643122Y-80759000D02*
X99676456Y-80725666D01*
X99676456Y-80725666D02*
X99743122Y-80692333D01*
X99743122Y-80692333D02*
X99909789Y-80692333D01*
X99909789Y-80692333D02*
X100009789Y-80725666D01*
X96069789Y-88312333D02*
X95736455Y-88312333D01*
X95736455Y-88312333D02*
X95703122Y-88645666D01*
X95703122Y-88645666D02*
X95736455Y-88612333D01*
X95736455Y-88612333D02*
X95803122Y-88579000D01*
X95803122Y-88579000D02*
X95969789Y-88579000D01*
X95969789Y-88579000D02*
X96036455Y-88612333D01*
X96036455Y-88612333D02*
X96069789Y-88645666D01*
X96069789Y-88645666D02*
X96103122Y-88712333D01*
X96103122Y-88712333D02*
X96103122Y-88879000D01*
X96103122Y-88879000D02*
X96069789Y-88945666D01*
X96069789Y-88945666D02*
X96036455Y-88979000D01*
X96036455Y-88979000D02*
X95969789Y-89012333D01*
X95969789Y-89012333D02*
X95803122Y-89012333D01*
X95803122Y-89012333D02*
X95736455Y-88979000D01*
X95736455Y-88979000D02*
X95703122Y-88945666D01*
X96303122Y-88312333D02*
X96536456Y-89012333D01*
X96536456Y-89012333D02*
X96769789Y-88312333D01*
X96103122Y-78185666D02*
X96036455Y-78152333D01*
X96036455Y-78152333D02*
X95936455Y-78152333D01*
X95936455Y-78152333D02*
X95836455Y-78185666D01*
X95836455Y-78185666D02*
X95769789Y-78252333D01*
X95769789Y-78252333D02*
X95736455Y-78319000D01*
X95736455Y-78319000D02*
X95703122Y-78452333D01*
X95703122Y-78452333D02*
X95703122Y-78552333D01*
X95703122Y-78552333D02*
X95736455Y-78685666D01*
X95736455Y-78685666D02*
X95769789Y-78752333D01*
X95769789Y-78752333D02*
X95836455Y-78819000D01*
X95836455Y-78819000D02*
X95936455Y-78852333D01*
X95936455Y-78852333D02*
X96003122Y-78852333D01*
X96003122Y-78852333D02*
X96103122Y-78819000D01*
X96103122Y-78819000D02*
X96136455Y-78785666D01*
X96136455Y-78785666D02*
X96136455Y-78552333D01*
X96136455Y-78552333D02*
X96003122Y-78552333D01*
X96436455Y-78852333D02*
X96436455Y-78152333D01*
X96436455Y-78152333D02*
X96836455Y-78852333D01*
X96836455Y-78852333D02*
X96836455Y-78152333D01*
X97169788Y-78852333D02*
X97169788Y-78152333D01*
X97169788Y-78152333D02*
X97336455Y-78152333D01*
X97336455Y-78152333D02*
X97436455Y-78185666D01*
X97436455Y-78185666D02*
X97503122Y-78252333D01*
X97503122Y-78252333D02*
X97536455Y-78319000D01*
X97536455Y-78319000D02*
X97569788Y-78452333D01*
X97569788Y-78452333D02*
X97569788Y-78552333D01*
X97569788Y-78552333D02*
X97536455Y-78685666D01*
X97536455Y-78685666D02*
X97503122Y-78752333D01*
X97503122Y-78752333D02*
X97436455Y-78819000D01*
X97436455Y-78819000D02*
X97336455Y-78852333D01*
X97336455Y-78852333D02*
X97169788Y-78852333D01*
D12*
X132032476Y-82107819D02*
X132032476Y-82822104D01*
X132032476Y-82822104D02*
X131984857Y-82964961D01*
X131984857Y-82964961D02*
X131889619Y-83060200D01*
X131889619Y-83060200D02*
X131746762Y-83107819D01*
X131746762Y-83107819D02*
X131651524Y-83107819D01*
X133032476Y-83107819D02*
X132461048Y-83107819D01*
X132746762Y-83107819D02*
X132746762Y-82107819D01*
X132746762Y-82107819D02*
X132651524Y-82250676D01*
X132651524Y-82250676D02*
X132556286Y-82345914D01*
X132556286Y-82345914D02*
X132461048Y-82393533D01*
X133508667Y-83107819D02*
X133699143Y-83107819D01*
X133699143Y-83107819D02*
X133794381Y-83060200D01*
X133794381Y-83060200D02*
X133842000Y-83012580D01*
X133842000Y-83012580D02*
X133937238Y-82869723D01*
X133937238Y-82869723D02*
X133984857Y-82679247D01*
X133984857Y-82679247D02*
X133984857Y-82298295D01*
X133984857Y-82298295D02*
X133937238Y-82203057D01*
X133937238Y-82203057D02*
X133889619Y-82155438D01*
X133889619Y-82155438D02*
X133794381Y-82107819D01*
X133794381Y-82107819D02*
X133603905Y-82107819D01*
X133603905Y-82107819D02*
X133508667Y-82155438D01*
X133508667Y-82155438D02*
X133461048Y-82203057D01*
X133461048Y-82203057D02*
X133413429Y-82298295D01*
X133413429Y-82298295D02*
X133413429Y-82536390D01*
X133413429Y-82536390D02*
X133461048Y-82631628D01*
X133461048Y-82631628D02*
X133508667Y-82679247D01*
X133508667Y-82679247D02*
X133603905Y-82726866D01*
X133603905Y-82726866D02*
X133794381Y-82726866D01*
X133794381Y-82726866D02*
X133889619Y-82679247D01*
X133889619Y-82679247D02*
X133937238Y-82631628D01*
X133937238Y-82631628D02*
X133984857Y-82536390D01*
X76787476Y-92799819D02*
X76787476Y-93514104D01*
X76787476Y-93514104D02*
X76739857Y-93656961D01*
X76739857Y-93656961D02*
X76644619Y-93752200D01*
X76644619Y-93752200D02*
X76501762Y-93799819D01*
X76501762Y-93799819D02*
X76406524Y-93799819D01*
X77787476Y-93799819D02*
X77216048Y-93799819D01*
X77501762Y-93799819D02*
X77501762Y-92799819D01*
X77501762Y-92799819D02*
X77406524Y-92942676D01*
X77406524Y-92942676D02*
X77311286Y-93037914D01*
X77311286Y-93037914D02*
X77216048Y-93085533D01*
X78168429Y-92895057D02*
X78216048Y-92847438D01*
X78216048Y-92847438D02*
X78311286Y-92799819D01*
X78311286Y-92799819D02*
X78549381Y-92799819D01*
X78549381Y-92799819D02*
X78644619Y-92847438D01*
X78644619Y-92847438D02*
X78692238Y-92895057D01*
X78692238Y-92895057D02*
X78739857Y-92990295D01*
X78739857Y-92990295D02*
X78739857Y-93085533D01*
X78739857Y-93085533D02*
X78692238Y-93228390D01*
X78692238Y-93228390D02*
X78120810Y-93799819D01*
X78120810Y-93799819D02*
X78739857Y-93799819D01*
X137969714Y-96435104D02*
X138445904Y-96435104D01*
X137874476Y-96720819D02*
X138207809Y-95720819D01*
X138207809Y-95720819D02*
X138541142Y-96720819D01*
X139398285Y-96720819D02*
X138826857Y-96720819D01*
X139112571Y-96720819D02*
X139112571Y-95720819D01*
X139112571Y-95720819D02*
X139017333Y-95863676D01*
X139017333Y-95863676D02*
X138922095Y-95958914D01*
X138922095Y-95958914D02*
X138826857Y-96006533D01*
X138041904Y-97959104D02*
X138518094Y-97959104D01*
X137946666Y-98244819D02*
X138279999Y-97244819D01*
X138279999Y-97244819D02*
X138613332Y-98244819D01*
X138946666Y-98244819D02*
X138946666Y-97578152D01*
X138946666Y-97768628D02*
X138994285Y-97673390D01*
X138994285Y-97673390D02*
X139041904Y-97625771D01*
X139041904Y-97625771D02*
X139137142Y-97578152D01*
X139137142Y-97578152D02*
X139232380Y-97578152D01*
X139994285Y-98244819D02*
X139994285Y-97244819D01*
X139994285Y-98197200D02*
X139899047Y-98244819D01*
X139899047Y-98244819D02*
X139708571Y-98244819D01*
X139708571Y-98244819D02*
X139613333Y-98197200D01*
X139613333Y-98197200D02*
X139565714Y-98149580D01*
X139565714Y-98149580D02*
X139518095Y-98054342D01*
X139518095Y-98054342D02*
X139518095Y-97768628D01*
X139518095Y-97768628D02*
X139565714Y-97673390D01*
X139565714Y-97673390D02*
X139613333Y-97625771D01*
X139613333Y-97625771D02*
X139708571Y-97578152D01*
X139708571Y-97578152D02*
X139899047Y-97578152D01*
X139899047Y-97578152D02*
X139994285Y-97625771D01*
X140899047Y-97578152D02*
X140899047Y-98244819D01*
X140470476Y-97578152D02*
X140470476Y-98101961D01*
X140470476Y-98101961D02*
X140518095Y-98197200D01*
X140518095Y-98197200D02*
X140613333Y-98244819D01*
X140613333Y-98244819D02*
X140756190Y-98244819D01*
X140756190Y-98244819D02*
X140851428Y-98197200D01*
X140851428Y-98197200D02*
X140899047Y-98149580D01*
X141375238Y-98244819D02*
X141375238Y-97578152D01*
X141375238Y-97244819D02*
X141327619Y-97292438D01*
X141327619Y-97292438D02*
X141375238Y-97340057D01*
X141375238Y-97340057D02*
X141422857Y-97292438D01*
X141422857Y-97292438D02*
X141375238Y-97244819D01*
X141375238Y-97244819D02*
X141375238Y-97340057D01*
X141851428Y-97578152D02*
X141851428Y-98244819D01*
X141851428Y-97673390D02*
X141899047Y-97625771D01*
X141899047Y-97625771D02*
X141994285Y-97578152D01*
X141994285Y-97578152D02*
X142137142Y-97578152D01*
X142137142Y-97578152D02*
X142232380Y-97625771D01*
X142232380Y-97625771D02*
X142279999Y-97721009D01*
X142279999Y-97721009D02*
X142279999Y-98244819D01*
X142899047Y-98244819D02*
X142803809Y-98197200D01*
X142803809Y-98197200D02*
X142756190Y-98149580D01*
X142756190Y-98149580D02*
X142708571Y-98054342D01*
X142708571Y-98054342D02*
X142708571Y-97768628D01*
X142708571Y-97768628D02*
X142756190Y-97673390D01*
X142756190Y-97673390D02*
X142803809Y-97625771D01*
X142803809Y-97625771D02*
X142899047Y-97578152D01*
X142899047Y-97578152D02*
X143041904Y-97578152D01*
X143041904Y-97578152D02*
X143137142Y-97625771D01*
X143137142Y-97625771D02*
X143184761Y-97673390D01*
X143184761Y-97673390D02*
X143232380Y-97768628D01*
X143232380Y-97768628D02*
X143232380Y-98054342D01*
X143232380Y-98054342D02*
X143184761Y-98149580D01*
X143184761Y-98149580D02*
X143137142Y-98197200D01*
X143137142Y-98197200D02*
X143041904Y-98244819D01*
X143041904Y-98244819D02*
X142899047Y-98244819D01*
X143422857Y-98340057D02*
X144184761Y-98340057D01*
X144422857Y-98244819D02*
X144422857Y-97244819D01*
X144422857Y-97244819D02*
X144994285Y-98244819D01*
X144994285Y-98244819D02*
X144994285Y-97244819D01*
X145899047Y-98244819D02*
X145899047Y-97721009D01*
X145899047Y-97721009D02*
X145851428Y-97625771D01*
X145851428Y-97625771D02*
X145756190Y-97578152D01*
X145756190Y-97578152D02*
X145565714Y-97578152D01*
X145565714Y-97578152D02*
X145470476Y-97625771D01*
X145899047Y-98197200D02*
X145803809Y-98244819D01*
X145803809Y-98244819D02*
X145565714Y-98244819D01*
X145565714Y-98244819D02*
X145470476Y-98197200D01*
X145470476Y-98197200D02*
X145422857Y-98101961D01*
X145422857Y-98101961D02*
X145422857Y-98006723D01*
X145422857Y-98006723D02*
X145470476Y-97911485D01*
X145470476Y-97911485D02*
X145565714Y-97863866D01*
X145565714Y-97863866D02*
X145803809Y-97863866D01*
X145803809Y-97863866D02*
X145899047Y-97816247D01*
X146375238Y-97578152D02*
X146375238Y-98244819D01*
X146375238Y-97673390D02*
X146422857Y-97625771D01*
X146422857Y-97625771D02*
X146518095Y-97578152D01*
X146518095Y-97578152D02*
X146660952Y-97578152D01*
X146660952Y-97578152D02*
X146756190Y-97625771D01*
X146756190Y-97625771D02*
X146803809Y-97721009D01*
X146803809Y-97721009D02*
X146803809Y-98244819D01*
X147422857Y-98244819D02*
X147327619Y-98197200D01*
X147327619Y-98197200D02*
X147280000Y-98149580D01*
X147280000Y-98149580D02*
X147232381Y-98054342D01*
X147232381Y-98054342D02*
X147232381Y-97768628D01*
X147232381Y-97768628D02*
X147280000Y-97673390D01*
X147280000Y-97673390D02*
X147327619Y-97625771D01*
X147327619Y-97625771D02*
X147422857Y-97578152D01*
X147422857Y-97578152D02*
X147565714Y-97578152D01*
X147565714Y-97578152D02*
X147660952Y-97625771D01*
X147660952Y-97625771D02*
X147708571Y-97673390D01*
X147708571Y-97673390D02*
X147756190Y-97768628D01*
X147756190Y-97768628D02*
X147756190Y-98054342D01*
X147756190Y-98054342D02*
X147708571Y-98149580D01*
X147708571Y-98149580D02*
X147660952Y-98197200D01*
X147660952Y-98197200D02*
X147565714Y-98244819D01*
X147565714Y-98244819D02*
X147422857Y-98244819D01*
X147946667Y-98340057D02*
X148708571Y-98340057D01*
X148851429Y-97578152D02*
X149089524Y-98244819D01*
X149089524Y-98244819D02*
X149327619Y-97578152D01*
X149613334Y-97244819D02*
X150232381Y-97244819D01*
X150232381Y-97244819D02*
X149899048Y-97625771D01*
X149899048Y-97625771D02*
X150041905Y-97625771D01*
X150041905Y-97625771D02*
X150137143Y-97673390D01*
X150137143Y-97673390D02*
X150184762Y-97721009D01*
X150184762Y-97721009D02*
X150232381Y-97816247D01*
X150232381Y-97816247D02*
X150232381Y-98054342D01*
X150232381Y-98054342D02*
X150184762Y-98149580D01*
X150184762Y-98149580D02*
X150137143Y-98197200D01*
X150137143Y-98197200D02*
X150041905Y-98244819D01*
X150041905Y-98244819D02*
X149756191Y-98244819D01*
X149756191Y-98244819D02*
X149660953Y-98197200D01*
X149660953Y-98197200D02*
X149613334Y-98149580D01*
X150660953Y-98149580D02*
X150708572Y-98197200D01*
X150708572Y-98197200D02*
X150660953Y-98244819D01*
X150660953Y-98244819D02*
X150613334Y-98197200D01*
X150613334Y-98197200D02*
X150660953Y-98149580D01*
X150660953Y-98149580D02*
X150660953Y-98244819D01*
X151041905Y-98244819D02*
X151565714Y-97578152D01*
X151041905Y-97578152D02*
X151565714Y-98244819D01*
X160744819Y-100321904D02*
X161554342Y-100321904D01*
X161554342Y-100321904D02*
X161649580Y-100274285D01*
X161649580Y-100274285D02*
X161697200Y-100226666D01*
X161697200Y-100226666D02*
X161744819Y-100131428D01*
X161744819Y-100131428D02*
X161744819Y-99940952D01*
X161744819Y-99940952D02*
X161697200Y-99845714D01*
X161697200Y-99845714D02*
X161649580Y-99798095D01*
X161649580Y-99798095D02*
X161554342Y-99750476D01*
X161554342Y-99750476D02*
X160744819Y-99750476D01*
X161697200Y-99321904D02*
X161744819Y-99179047D01*
X161744819Y-99179047D02*
X161744819Y-98940952D01*
X161744819Y-98940952D02*
X161697200Y-98845714D01*
X161697200Y-98845714D02*
X161649580Y-98798095D01*
X161649580Y-98798095D02*
X161554342Y-98750476D01*
X161554342Y-98750476D02*
X161459104Y-98750476D01*
X161459104Y-98750476D02*
X161363866Y-98798095D01*
X161363866Y-98798095D02*
X161316247Y-98845714D01*
X161316247Y-98845714D02*
X161268628Y-98940952D01*
X161268628Y-98940952D02*
X161221009Y-99131428D01*
X161221009Y-99131428D02*
X161173390Y-99226666D01*
X161173390Y-99226666D02*
X161125771Y-99274285D01*
X161125771Y-99274285D02*
X161030533Y-99321904D01*
X161030533Y-99321904D02*
X160935295Y-99321904D01*
X160935295Y-99321904D02*
X160840057Y-99274285D01*
X160840057Y-99274285D02*
X160792438Y-99226666D01*
X160792438Y-99226666D02*
X160744819Y-99131428D01*
X160744819Y-99131428D02*
X160744819Y-98893333D01*
X160744819Y-98893333D02*
X160792438Y-98750476D01*
X161221009Y-97988571D02*
X161268628Y-97845714D01*
X161268628Y-97845714D02*
X161316247Y-97798095D01*
X161316247Y-97798095D02*
X161411485Y-97750476D01*
X161411485Y-97750476D02*
X161554342Y-97750476D01*
X161554342Y-97750476D02*
X161649580Y-97798095D01*
X161649580Y-97798095D02*
X161697200Y-97845714D01*
X161697200Y-97845714D02*
X161744819Y-97940952D01*
X161744819Y-97940952D02*
X161744819Y-98321904D01*
X161744819Y-98321904D02*
X160744819Y-98321904D01*
X160744819Y-98321904D02*
X160744819Y-97988571D01*
X160744819Y-97988571D02*
X160792438Y-97893333D01*
X160792438Y-97893333D02*
X160840057Y-97845714D01*
X160840057Y-97845714D02*
X160935295Y-97798095D01*
X160935295Y-97798095D02*
X161030533Y-97798095D01*
X161030533Y-97798095D02*
X161125771Y-97845714D01*
X161125771Y-97845714D02*
X161173390Y-97893333D01*
X161173390Y-97893333D02*
X161221009Y-97988571D01*
X161221009Y-97988571D02*
X161221009Y-98321904D01*
X82909580Y-94400666D02*
X82957200Y-94448285D01*
X82957200Y-94448285D02*
X83004819Y-94591142D01*
X83004819Y-94591142D02*
X83004819Y-94686380D01*
X83004819Y-94686380D02*
X82957200Y-94829237D01*
X82957200Y-94829237D02*
X82861961Y-94924475D01*
X82861961Y-94924475D02*
X82766723Y-94972094D01*
X82766723Y-94972094D02*
X82576247Y-95019713D01*
X82576247Y-95019713D02*
X82433390Y-95019713D01*
X82433390Y-95019713D02*
X82242914Y-94972094D01*
X82242914Y-94972094D02*
X82147676Y-94924475D01*
X82147676Y-94924475D02*
X82052438Y-94829237D01*
X82052438Y-94829237D02*
X82004819Y-94686380D01*
X82004819Y-94686380D02*
X82004819Y-94591142D01*
X82004819Y-94591142D02*
X82052438Y-94448285D01*
X82052438Y-94448285D02*
X82100057Y-94400666D01*
X82338152Y-93543523D02*
X83004819Y-93543523D01*
X81957200Y-93781618D02*
X82671485Y-94019713D01*
X82671485Y-94019713D02*
X82671485Y-93400666D01*
X82004819Y-91558856D02*
X82004819Y-91463618D01*
X82004819Y-91463618D02*
X82052438Y-91368380D01*
X82052438Y-91368380D02*
X82100057Y-91320761D01*
X82100057Y-91320761D02*
X82195295Y-91273142D01*
X82195295Y-91273142D02*
X82385771Y-91225523D01*
X82385771Y-91225523D02*
X82623866Y-91225523D01*
X82623866Y-91225523D02*
X82814342Y-91273142D01*
X82814342Y-91273142D02*
X82909580Y-91320761D01*
X82909580Y-91320761D02*
X82957200Y-91368380D01*
X82957200Y-91368380D02*
X83004819Y-91463618D01*
X83004819Y-91463618D02*
X83004819Y-91558856D01*
X83004819Y-91558856D02*
X82957200Y-91654094D01*
X82957200Y-91654094D02*
X82909580Y-91701713D01*
X82909580Y-91701713D02*
X82814342Y-91749332D01*
X82814342Y-91749332D02*
X82623866Y-91796951D01*
X82623866Y-91796951D02*
X82385771Y-91796951D01*
X82385771Y-91796951D02*
X82195295Y-91749332D01*
X82195295Y-91749332D02*
X82100057Y-91701713D01*
X82100057Y-91701713D02*
X82052438Y-91654094D01*
X82052438Y-91654094D02*
X82004819Y-91558856D01*
X82909580Y-90796951D02*
X82957200Y-90749332D01*
X82957200Y-90749332D02*
X83004819Y-90796951D01*
X83004819Y-90796951D02*
X82957200Y-90844570D01*
X82957200Y-90844570D02*
X82909580Y-90796951D01*
X82909580Y-90796951D02*
X83004819Y-90796951D01*
X83004819Y-89796952D02*
X83004819Y-90368380D01*
X83004819Y-90082666D02*
X82004819Y-90082666D01*
X82004819Y-90082666D02*
X82147676Y-90177904D01*
X82147676Y-90177904D02*
X82242914Y-90273142D01*
X82242914Y-90273142D02*
X82290533Y-90368380D01*
X82338152Y-88939809D02*
X83004819Y-88939809D01*
X82338152Y-89368380D02*
X82861961Y-89368380D01*
X82861961Y-89368380D02*
X82957200Y-89320761D01*
X82957200Y-89320761D02*
X83004819Y-89225523D01*
X83004819Y-89225523D02*
X83004819Y-89082666D01*
X83004819Y-89082666D02*
X82957200Y-88987428D01*
X82957200Y-88987428D02*
X82909580Y-88939809D01*
X82481009Y-88130285D02*
X82481009Y-88463618D01*
X83004819Y-88463618D02*
X82004819Y-88463618D01*
X82004819Y-88463618D02*
X82004819Y-87987428D01*
X102536666Y-88862819D02*
X102536666Y-89577104D01*
X102536666Y-89577104D02*
X102489047Y-89719961D01*
X102489047Y-89719961D02*
X102393809Y-89815200D01*
X102393809Y-89815200D02*
X102250952Y-89862819D01*
X102250952Y-89862819D02*
X102155714Y-89862819D01*
X102917619Y-88862819D02*
X103536666Y-88862819D01*
X103536666Y-88862819D02*
X103203333Y-89243771D01*
X103203333Y-89243771D02*
X103346190Y-89243771D01*
X103346190Y-89243771D02*
X103441428Y-89291390D01*
X103441428Y-89291390D02*
X103489047Y-89339009D01*
X103489047Y-89339009D02*
X103536666Y-89434247D01*
X103536666Y-89434247D02*
X103536666Y-89672342D01*
X103536666Y-89672342D02*
X103489047Y-89767580D01*
X103489047Y-89767580D02*
X103441428Y-89815200D01*
X103441428Y-89815200D02*
X103346190Y-89862819D01*
X103346190Y-89862819D02*
X103060476Y-89862819D01*
X103060476Y-89862819D02*
X102965238Y-89815200D01*
X102965238Y-89815200D02*
X102917619Y-89767580D01*
X104957999Y-89561200D02*
X104862761Y-89608819D01*
X104862761Y-89608819D02*
X104672285Y-89608819D01*
X104672285Y-89608819D02*
X104577047Y-89561200D01*
X104577047Y-89561200D02*
X104529428Y-89465961D01*
X104529428Y-89465961D02*
X104529428Y-89085009D01*
X104529428Y-89085009D02*
X104577047Y-88989771D01*
X104577047Y-88989771D02*
X104672285Y-88942152D01*
X104672285Y-88942152D02*
X104862761Y-88942152D01*
X104862761Y-88942152D02*
X104957999Y-88989771D01*
X104957999Y-88989771D02*
X105005618Y-89085009D01*
X105005618Y-89085009D02*
X105005618Y-89180247D01*
X105005618Y-89180247D02*
X104529428Y-89275485D01*
X105338952Y-89608819D02*
X105862761Y-88942152D01*
X105338952Y-88942152D02*
X105862761Y-89608819D01*
X106100857Y-88942152D02*
X106481809Y-88942152D01*
X106243714Y-88608819D02*
X106243714Y-89465961D01*
X106243714Y-89465961D02*
X106291333Y-89561200D01*
X106291333Y-89561200D02*
X106386571Y-89608819D01*
X106386571Y-89608819D02*
X106481809Y-89608819D01*
X107196095Y-89561200D02*
X107100857Y-89608819D01*
X107100857Y-89608819D02*
X106910381Y-89608819D01*
X106910381Y-89608819D02*
X106815143Y-89561200D01*
X106815143Y-89561200D02*
X106767524Y-89465961D01*
X106767524Y-89465961D02*
X106767524Y-89085009D01*
X106767524Y-89085009D02*
X106815143Y-88989771D01*
X106815143Y-88989771D02*
X106910381Y-88942152D01*
X106910381Y-88942152D02*
X107100857Y-88942152D01*
X107100857Y-88942152D02*
X107196095Y-88989771D01*
X107196095Y-88989771D02*
X107243714Y-89085009D01*
X107243714Y-89085009D02*
X107243714Y-89180247D01*
X107243714Y-89180247D02*
X106767524Y-89275485D01*
X107672286Y-88942152D02*
X107672286Y-89608819D01*
X107672286Y-89037390D02*
X107719905Y-88989771D01*
X107719905Y-88989771D02*
X107815143Y-88942152D01*
X107815143Y-88942152D02*
X107958000Y-88942152D01*
X107958000Y-88942152D02*
X108053238Y-88989771D01*
X108053238Y-88989771D02*
X108100857Y-89085009D01*
X108100857Y-89085009D02*
X108100857Y-89608819D01*
X109005619Y-89608819D02*
X109005619Y-88608819D01*
X109005619Y-89561200D02*
X108910381Y-89608819D01*
X108910381Y-89608819D02*
X108719905Y-89608819D01*
X108719905Y-89608819D02*
X108624667Y-89561200D01*
X108624667Y-89561200D02*
X108577048Y-89513580D01*
X108577048Y-89513580D02*
X108529429Y-89418342D01*
X108529429Y-89418342D02*
X108529429Y-89132628D01*
X108529429Y-89132628D02*
X108577048Y-89037390D01*
X108577048Y-89037390D02*
X108624667Y-88989771D01*
X108624667Y-88989771D02*
X108719905Y-88942152D01*
X108719905Y-88942152D02*
X108910381Y-88942152D01*
X108910381Y-88942152D02*
X109005619Y-88989771D01*
X110243715Y-89608819D02*
X110243715Y-88608819D01*
X111434190Y-88561200D02*
X110577048Y-89846914D01*
X111958000Y-88608819D02*
X112148476Y-88608819D01*
X112148476Y-88608819D02*
X112243714Y-88656438D01*
X112243714Y-88656438D02*
X112338952Y-88751676D01*
X112338952Y-88751676D02*
X112386571Y-88942152D01*
X112386571Y-88942152D02*
X112386571Y-89275485D01*
X112386571Y-89275485D02*
X112338952Y-89465961D01*
X112338952Y-89465961D02*
X112243714Y-89561200D01*
X112243714Y-89561200D02*
X112148476Y-89608819D01*
X112148476Y-89608819D02*
X111958000Y-89608819D01*
X111958000Y-89608819D02*
X111862762Y-89561200D01*
X111862762Y-89561200D02*
X111767524Y-89465961D01*
X111767524Y-89465961D02*
X111719905Y-89275485D01*
X111719905Y-89275485D02*
X111719905Y-88942152D01*
X111719905Y-88942152D02*
X111767524Y-88751676D01*
X111767524Y-88751676D02*
X111862762Y-88656438D01*
X111862762Y-88656438D02*
X111958000Y-88608819D01*
X92122666Y-93815819D02*
X92122666Y-94530104D01*
X92122666Y-94530104D02*
X92075047Y-94672961D01*
X92075047Y-94672961D02*
X91979809Y-94768200D01*
X91979809Y-94768200D02*
X91836952Y-94815819D01*
X91836952Y-94815819D02*
X91741714Y-94815819D01*
X92646476Y-94815819D02*
X92836952Y-94815819D01*
X92836952Y-94815819D02*
X92932190Y-94768200D01*
X92932190Y-94768200D02*
X92979809Y-94720580D01*
X92979809Y-94720580D02*
X93075047Y-94577723D01*
X93075047Y-94577723D02*
X93122666Y-94387247D01*
X93122666Y-94387247D02*
X93122666Y-94006295D01*
X93122666Y-94006295D02*
X93075047Y-93911057D01*
X93075047Y-93911057D02*
X93027428Y-93863438D01*
X93027428Y-93863438D02*
X92932190Y-93815819D01*
X92932190Y-93815819D02*
X92741714Y-93815819D01*
X92741714Y-93815819D02*
X92646476Y-93863438D01*
X92646476Y-93863438D02*
X92598857Y-93911057D01*
X92598857Y-93911057D02*
X92551238Y-94006295D01*
X92551238Y-94006295D02*
X92551238Y-94244390D01*
X92551238Y-94244390D02*
X92598857Y-94339628D01*
X92598857Y-94339628D02*
X92646476Y-94387247D01*
X92646476Y-94387247D02*
X92741714Y-94434866D01*
X92741714Y-94434866D02*
X92932190Y-94434866D01*
X92932190Y-94434866D02*
X93027428Y-94387247D01*
X93027428Y-94387247D02*
X93075047Y-94339628D01*
X93075047Y-94339628D02*
X93122666Y-94244390D01*
X90202048Y-95927104D02*
X90678238Y-95927104D01*
X90106810Y-96212819D02*
X90440143Y-95212819D01*
X90440143Y-95212819D02*
X90773476Y-96212819D01*
X91106810Y-96212819D02*
X91106810Y-95212819D01*
X91106810Y-95212819D02*
X91344905Y-95212819D01*
X91344905Y-95212819D02*
X91487762Y-95260438D01*
X91487762Y-95260438D02*
X91583000Y-95355676D01*
X91583000Y-95355676D02*
X91630619Y-95450914D01*
X91630619Y-95450914D02*
X91678238Y-95641390D01*
X91678238Y-95641390D02*
X91678238Y-95784247D01*
X91678238Y-95784247D02*
X91630619Y-95974723D01*
X91630619Y-95974723D02*
X91583000Y-96069961D01*
X91583000Y-96069961D02*
X91487762Y-96165200D01*
X91487762Y-96165200D02*
X91344905Y-96212819D01*
X91344905Y-96212819D02*
X91106810Y-96212819D01*
X92678238Y-96117580D02*
X92630619Y-96165200D01*
X92630619Y-96165200D02*
X92487762Y-96212819D01*
X92487762Y-96212819D02*
X92392524Y-96212819D01*
X92392524Y-96212819D02*
X92249667Y-96165200D01*
X92249667Y-96165200D02*
X92154429Y-96069961D01*
X92154429Y-96069961D02*
X92106810Y-95974723D01*
X92106810Y-95974723D02*
X92059191Y-95784247D01*
X92059191Y-95784247D02*
X92059191Y-95641390D01*
X92059191Y-95641390D02*
X92106810Y-95450914D01*
X92106810Y-95450914D02*
X92154429Y-95355676D01*
X92154429Y-95355676D02*
X92249667Y-95260438D01*
X92249667Y-95260438D02*
X92392524Y-95212819D01*
X92392524Y-95212819D02*
X92487762Y-95212819D01*
X92487762Y-95212819D02*
X92630619Y-95260438D01*
X92630619Y-95260438D02*
X92678238Y-95308057D01*
X92868715Y-96308057D02*
X93630619Y-96308057D01*
X93868715Y-96212819D02*
X93868715Y-95212819D01*
X94344905Y-96212819D02*
X94344905Y-95212819D01*
X94344905Y-95212819D02*
X94916333Y-96212819D01*
X94916333Y-96212819D02*
X94916333Y-95212819D01*
X74342666Y-62827819D02*
X74342666Y-63542104D01*
X74342666Y-63542104D02*
X74295047Y-63684961D01*
X74295047Y-63684961D02*
X74199809Y-63780200D01*
X74199809Y-63780200D02*
X74056952Y-63827819D01*
X74056952Y-63827819D02*
X73961714Y-63827819D01*
X75247428Y-63161152D02*
X75247428Y-63827819D01*
X75009333Y-62780200D02*
X74771238Y-63494485D01*
X74771238Y-63494485D02*
X75390285Y-63494485D01*
X130048095Y-59779819D02*
X130048095Y-60589342D01*
X130048095Y-60589342D02*
X130095714Y-60684580D01*
X130095714Y-60684580D02*
X130143333Y-60732200D01*
X130143333Y-60732200D02*
X130238571Y-60779819D01*
X130238571Y-60779819D02*
X130429047Y-60779819D01*
X130429047Y-60779819D02*
X130524285Y-60732200D01*
X130524285Y-60732200D02*
X130571904Y-60684580D01*
X130571904Y-60684580D02*
X130619523Y-60589342D01*
X130619523Y-60589342D02*
X130619523Y-59779819D01*
X131048095Y-59875057D02*
X131095714Y-59827438D01*
X131095714Y-59827438D02*
X131190952Y-59779819D01*
X131190952Y-59779819D02*
X131429047Y-59779819D01*
X131429047Y-59779819D02*
X131524285Y-59827438D01*
X131524285Y-59827438D02*
X131571904Y-59875057D01*
X131571904Y-59875057D02*
X131619523Y-59970295D01*
X131619523Y-59970295D02*
X131619523Y-60065533D01*
X131619523Y-60065533D02*
X131571904Y-60208390D01*
X131571904Y-60208390D02*
X131000476Y-60779819D01*
X131000476Y-60779819D02*
X131619523Y-60779819D01*
X125349762Y-68834819D02*
X125349762Y-67834819D01*
X125349762Y-67834819D02*
X125921190Y-68834819D01*
X125921190Y-68834819D02*
X125921190Y-67834819D01*
X126683095Y-67834819D02*
X126683095Y-68549104D01*
X126683095Y-68549104D02*
X126635476Y-68691961D01*
X126635476Y-68691961D02*
X126540238Y-68787200D01*
X126540238Y-68787200D02*
X126397381Y-68834819D01*
X126397381Y-68834819D02*
X126302143Y-68834819D01*
X127159286Y-68834819D02*
X127159286Y-67834819D01*
X127159286Y-67834819D02*
X127492619Y-68549104D01*
X127492619Y-68549104D02*
X127825952Y-67834819D01*
X127825952Y-67834819D02*
X127825952Y-68834819D01*
X128254524Y-67930057D02*
X128302143Y-67882438D01*
X128302143Y-67882438D02*
X128397381Y-67834819D01*
X128397381Y-67834819D02*
X128635476Y-67834819D01*
X128635476Y-67834819D02*
X128730714Y-67882438D01*
X128730714Y-67882438D02*
X128778333Y-67930057D01*
X128778333Y-67930057D02*
X128825952Y-68025295D01*
X128825952Y-68025295D02*
X128825952Y-68120533D01*
X128825952Y-68120533D02*
X128778333Y-68263390D01*
X128778333Y-68263390D02*
X128206905Y-68834819D01*
X128206905Y-68834819D02*
X128825952Y-68834819D01*
X129397381Y-68263390D02*
X129302143Y-68215771D01*
X129302143Y-68215771D02*
X129254524Y-68168152D01*
X129254524Y-68168152D02*
X129206905Y-68072914D01*
X129206905Y-68072914D02*
X129206905Y-68025295D01*
X129206905Y-68025295D02*
X129254524Y-67930057D01*
X129254524Y-67930057D02*
X129302143Y-67882438D01*
X129302143Y-67882438D02*
X129397381Y-67834819D01*
X129397381Y-67834819D02*
X129587857Y-67834819D01*
X129587857Y-67834819D02*
X129683095Y-67882438D01*
X129683095Y-67882438D02*
X129730714Y-67930057D01*
X129730714Y-67930057D02*
X129778333Y-68025295D01*
X129778333Y-68025295D02*
X129778333Y-68072914D01*
X129778333Y-68072914D02*
X129730714Y-68168152D01*
X129730714Y-68168152D02*
X129683095Y-68215771D01*
X129683095Y-68215771D02*
X129587857Y-68263390D01*
X129587857Y-68263390D02*
X129397381Y-68263390D01*
X129397381Y-68263390D02*
X129302143Y-68311009D01*
X129302143Y-68311009D02*
X129254524Y-68358628D01*
X129254524Y-68358628D02*
X129206905Y-68453866D01*
X129206905Y-68453866D02*
X129206905Y-68644342D01*
X129206905Y-68644342D02*
X129254524Y-68739580D01*
X129254524Y-68739580D02*
X129302143Y-68787200D01*
X129302143Y-68787200D02*
X129397381Y-68834819D01*
X129397381Y-68834819D02*
X129587857Y-68834819D01*
X129587857Y-68834819D02*
X129683095Y-68787200D01*
X129683095Y-68787200D02*
X129730714Y-68739580D01*
X129730714Y-68739580D02*
X129778333Y-68644342D01*
X129778333Y-68644342D02*
X129778333Y-68453866D01*
X129778333Y-68453866D02*
X129730714Y-68358628D01*
X129730714Y-68358628D02*
X129683095Y-68311009D01*
X129683095Y-68311009D02*
X129587857Y-68263390D01*
X130635476Y-68168152D02*
X130635476Y-68834819D01*
X130397381Y-67787200D02*
X130159286Y-68501485D01*
X130159286Y-68501485D02*
X130778333Y-68501485D01*
X131635476Y-67834819D02*
X131159286Y-67834819D01*
X131159286Y-67834819D02*
X131111667Y-68311009D01*
X131111667Y-68311009D02*
X131159286Y-68263390D01*
X131159286Y-68263390D02*
X131254524Y-68215771D01*
X131254524Y-68215771D02*
X131492619Y-68215771D01*
X131492619Y-68215771D02*
X131587857Y-68263390D01*
X131587857Y-68263390D02*
X131635476Y-68311009D01*
X131635476Y-68311009D02*
X131683095Y-68406247D01*
X131683095Y-68406247D02*
X131683095Y-68644342D01*
X131683095Y-68644342D02*
X131635476Y-68739580D01*
X131635476Y-68739580D02*
X131587857Y-68787200D01*
X131587857Y-68787200D02*
X131492619Y-68834819D01*
X131492619Y-68834819D02*
X131254524Y-68834819D01*
X131254524Y-68834819D02*
X131159286Y-68787200D01*
X131159286Y-68787200D02*
X131111667Y-68739580D01*
X132111667Y-68834819D02*
X132111667Y-67834819D01*
X132111667Y-67834819D02*
X132349762Y-67834819D01*
X132349762Y-67834819D02*
X132492619Y-67882438D01*
X132492619Y-67882438D02*
X132587857Y-67977676D01*
X132587857Y-67977676D02*
X132635476Y-68072914D01*
X132635476Y-68072914D02*
X132683095Y-68263390D01*
X132683095Y-68263390D02*
X132683095Y-68406247D01*
X132683095Y-68406247D02*
X132635476Y-68596723D01*
X132635476Y-68596723D02*
X132587857Y-68691961D01*
X132587857Y-68691961D02*
X132492619Y-68787200D01*
X132492619Y-68787200D02*
X132349762Y-68834819D01*
X132349762Y-68834819D02*
X132111667Y-68834819D01*
X133587857Y-68834819D02*
X133111667Y-68834819D01*
X133111667Y-68834819D02*
X133111667Y-67834819D01*
X134445000Y-68834819D02*
X133873572Y-68834819D01*
X134159286Y-68834819D02*
X134159286Y-67834819D01*
X134159286Y-67834819D02*
X134064048Y-67977676D01*
X134064048Y-67977676D02*
X133968810Y-68072914D01*
X133968810Y-68072914D02*
X133873572Y-68120533D01*
X134873572Y-68453866D02*
X135635477Y-68453866D01*
X136302143Y-67834819D02*
X136397381Y-67834819D01*
X136397381Y-67834819D02*
X136492619Y-67882438D01*
X136492619Y-67882438D02*
X136540238Y-67930057D01*
X136540238Y-67930057D02*
X136587857Y-68025295D01*
X136587857Y-68025295D02*
X136635476Y-68215771D01*
X136635476Y-68215771D02*
X136635476Y-68453866D01*
X136635476Y-68453866D02*
X136587857Y-68644342D01*
X136587857Y-68644342D02*
X136540238Y-68739580D01*
X136540238Y-68739580D02*
X136492619Y-68787200D01*
X136492619Y-68787200D02*
X136397381Y-68834819D01*
X136397381Y-68834819D02*
X136302143Y-68834819D01*
X136302143Y-68834819D02*
X136206905Y-68787200D01*
X136206905Y-68787200D02*
X136159286Y-68739580D01*
X136159286Y-68739580D02*
X136111667Y-68644342D01*
X136111667Y-68644342D02*
X136064048Y-68453866D01*
X136064048Y-68453866D02*
X136064048Y-68215771D01*
X136064048Y-68215771D02*
X136111667Y-68025295D01*
X136111667Y-68025295D02*
X136159286Y-67930057D01*
X136159286Y-67930057D02*
X136206905Y-67882438D01*
X136206905Y-67882438D02*
X136302143Y-67834819D01*
X137540238Y-67834819D02*
X137064048Y-67834819D01*
X137064048Y-67834819D02*
X137016429Y-68311009D01*
X137016429Y-68311009D02*
X137064048Y-68263390D01*
X137064048Y-68263390D02*
X137159286Y-68215771D01*
X137159286Y-68215771D02*
X137397381Y-68215771D01*
X137397381Y-68215771D02*
X137492619Y-68263390D01*
X137492619Y-68263390D02*
X137540238Y-68311009D01*
X137540238Y-68311009D02*
X137587857Y-68406247D01*
X137587857Y-68406247D02*
X137587857Y-68644342D01*
X137587857Y-68644342D02*
X137540238Y-68739580D01*
X137540238Y-68739580D02*
X137492619Y-68787200D01*
X137492619Y-68787200D02*
X137397381Y-68834819D01*
X137397381Y-68834819D02*
X137159286Y-68834819D01*
X137159286Y-68834819D02*
X137064048Y-68787200D01*
X137064048Y-68787200D02*
X137016429Y-68739580D01*
X136358333Y-62589580D02*
X136310714Y-62637200D01*
X136310714Y-62637200D02*
X136167857Y-62684819D01*
X136167857Y-62684819D02*
X136072619Y-62684819D01*
X136072619Y-62684819D02*
X135929762Y-62637200D01*
X135929762Y-62637200D02*
X135834524Y-62541961D01*
X135834524Y-62541961D02*
X135786905Y-62446723D01*
X135786905Y-62446723D02*
X135739286Y-62256247D01*
X135739286Y-62256247D02*
X135739286Y-62113390D01*
X135739286Y-62113390D02*
X135786905Y-61922914D01*
X135786905Y-61922914D02*
X135834524Y-61827676D01*
X135834524Y-61827676D02*
X135929762Y-61732438D01*
X135929762Y-61732438D02*
X136072619Y-61684819D01*
X136072619Y-61684819D02*
X136167857Y-61684819D01*
X136167857Y-61684819D02*
X136310714Y-61732438D01*
X136310714Y-61732438D02*
X136358333Y-61780057D01*
X137263095Y-61684819D02*
X136786905Y-61684819D01*
X136786905Y-61684819D02*
X136739286Y-62161009D01*
X136739286Y-62161009D02*
X136786905Y-62113390D01*
X136786905Y-62113390D02*
X136882143Y-62065771D01*
X136882143Y-62065771D02*
X137120238Y-62065771D01*
X137120238Y-62065771D02*
X137215476Y-62113390D01*
X137215476Y-62113390D02*
X137263095Y-62161009D01*
X137263095Y-62161009D02*
X137310714Y-62256247D01*
X137310714Y-62256247D02*
X137310714Y-62494342D01*
X137310714Y-62494342D02*
X137263095Y-62589580D01*
X137263095Y-62589580D02*
X137215476Y-62637200D01*
X137215476Y-62637200D02*
X137120238Y-62684819D01*
X137120238Y-62684819D02*
X136882143Y-62684819D01*
X136882143Y-62684819D02*
X136786905Y-62637200D01*
X136786905Y-62637200D02*
X136739286Y-62589580D01*
X136152143Y-63629819D02*
X136247381Y-63629819D01*
X136247381Y-63629819D02*
X136342619Y-63677438D01*
X136342619Y-63677438D02*
X136390238Y-63725057D01*
X136390238Y-63725057D02*
X136437857Y-63820295D01*
X136437857Y-63820295D02*
X136485476Y-64010771D01*
X136485476Y-64010771D02*
X136485476Y-64248866D01*
X136485476Y-64248866D02*
X136437857Y-64439342D01*
X136437857Y-64439342D02*
X136390238Y-64534580D01*
X136390238Y-64534580D02*
X136342619Y-64582200D01*
X136342619Y-64582200D02*
X136247381Y-64629819D01*
X136247381Y-64629819D02*
X136152143Y-64629819D01*
X136152143Y-64629819D02*
X136056905Y-64582200D01*
X136056905Y-64582200D02*
X136009286Y-64534580D01*
X136009286Y-64534580D02*
X135961667Y-64439342D01*
X135961667Y-64439342D02*
X135914048Y-64248866D01*
X135914048Y-64248866D02*
X135914048Y-64010771D01*
X135914048Y-64010771D02*
X135961667Y-63820295D01*
X135961667Y-63820295D02*
X136009286Y-63725057D01*
X136009286Y-63725057D02*
X136056905Y-63677438D01*
X136056905Y-63677438D02*
X136152143Y-63629819D01*
X136914048Y-64534580D02*
X136961667Y-64582200D01*
X136961667Y-64582200D02*
X136914048Y-64629819D01*
X136914048Y-64629819D02*
X136866429Y-64582200D01*
X136866429Y-64582200D02*
X136914048Y-64534580D01*
X136914048Y-64534580D02*
X136914048Y-64629819D01*
X137914047Y-64629819D02*
X137342619Y-64629819D01*
X137628333Y-64629819D02*
X137628333Y-63629819D01*
X137628333Y-63629819D02*
X137533095Y-63772676D01*
X137533095Y-63772676D02*
X137437857Y-63867914D01*
X137437857Y-63867914D02*
X137342619Y-63915533D01*
X138771190Y-63963152D02*
X138771190Y-64629819D01*
X138342619Y-63963152D02*
X138342619Y-64486961D01*
X138342619Y-64486961D02*
X138390238Y-64582200D01*
X138390238Y-64582200D02*
X138485476Y-64629819D01*
X138485476Y-64629819D02*
X138628333Y-64629819D01*
X138628333Y-64629819D02*
X138723571Y-64582200D01*
X138723571Y-64582200D02*
X138771190Y-64534580D01*
X139580714Y-64106009D02*
X139247381Y-64106009D01*
X139247381Y-64629819D02*
X139247381Y-63629819D01*
X139247381Y-63629819D02*
X139723571Y-63629819D01*
X109039819Y-107100666D02*
X108563628Y-107433999D01*
X109039819Y-107672094D02*
X108039819Y-107672094D01*
X108039819Y-107672094D02*
X108039819Y-107291142D01*
X108039819Y-107291142D02*
X108087438Y-107195904D01*
X108087438Y-107195904D02*
X108135057Y-107148285D01*
X108135057Y-107148285D02*
X108230295Y-107100666D01*
X108230295Y-107100666D02*
X108373152Y-107100666D01*
X108373152Y-107100666D02*
X108468390Y-107148285D01*
X108468390Y-107148285D02*
X108516009Y-107195904D01*
X108516009Y-107195904D02*
X108563628Y-107291142D01*
X108563628Y-107291142D02*
X108563628Y-107672094D01*
X108135057Y-106719713D02*
X108087438Y-106672094D01*
X108087438Y-106672094D02*
X108039819Y-106576856D01*
X108039819Y-106576856D02*
X108039819Y-106338761D01*
X108039819Y-106338761D02*
X108087438Y-106243523D01*
X108087438Y-106243523D02*
X108135057Y-106195904D01*
X108135057Y-106195904D02*
X108230295Y-106148285D01*
X108230295Y-106148285D02*
X108325533Y-106148285D01*
X108325533Y-106148285D02*
X108468390Y-106195904D01*
X108468390Y-106195904D02*
X109039819Y-106767332D01*
X109039819Y-106767332D02*
X109039819Y-106148285D01*
X109039819Y-104608238D02*
X109039819Y-105179666D01*
X109039819Y-104893952D02*
X108039819Y-104893952D01*
X108039819Y-104893952D02*
X108182676Y-104989190D01*
X108182676Y-104989190D02*
X108277914Y-105084428D01*
X108277914Y-105084428D02*
X108325533Y-105179666D01*
X108039819Y-103989190D02*
X108039819Y-103893952D01*
X108039819Y-103893952D02*
X108087438Y-103798714D01*
X108087438Y-103798714D02*
X108135057Y-103751095D01*
X108135057Y-103751095D02*
X108230295Y-103703476D01*
X108230295Y-103703476D02*
X108420771Y-103655857D01*
X108420771Y-103655857D02*
X108658866Y-103655857D01*
X108658866Y-103655857D02*
X108849342Y-103703476D01*
X108849342Y-103703476D02*
X108944580Y-103751095D01*
X108944580Y-103751095D02*
X108992200Y-103798714D01*
X108992200Y-103798714D02*
X109039819Y-103893952D01*
X109039819Y-103893952D02*
X109039819Y-103989190D01*
X109039819Y-103989190D02*
X108992200Y-104084428D01*
X108992200Y-104084428D02*
X108944580Y-104132047D01*
X108944580Y-104132047D02*
X108849342Y-104179666D01*
X108849342Y-104179666D02*
X108658866Y-104227285D01*
X108658866Y-104227285D02*
X108420771Y-104227285D01*
X108420771Y-104227285D02*
X108230295Y-104179666D01*
X108230295Y-104179666D02*
X108135057Y-104132047D01*
X108135057Y-104132047D02*
X108087438Y-104084428D01*
X108087438Y-104084428D02*
X108039819Y-103989190D01*
X109039819Y-103227285D02*
X108039819Y-103227285D01*
X108658866Y-103132047D02*
X109039819Y-102846333D01*
X108373152Y-102846333D02*
X108754104Y-103227285D01*
X88719819Y-93448094D02*
X87719819Y-93448094D01*
X87719819Y-93448094D02*
X87719819Y-93209999D01*
X87719819Y-93209999D02*
X87767438Y-93067142D01*
X87767438Y-93067142D02*
X87862676Y-92971904D01*
X87862676Y-92971904D02*
X87957914Y-92924285D01*
X87957914Y-92924285D02*
X88148390Y-92876666D01*
X88148390Y-92876666D02*
X88291247Y-92876666D01*
X88291247Y-92876666D02*
X88481723Y-92924285D01*
X88481723Y-92924285D02*
X88576961Y-92971904D01*
X88576961Y-92971904D02*
X88672200Y-93067142D01*
X88672200Y-93067142D02*
X88719819Y-93209999D01*
X88719819Y-93209999D02*
X88719819Y-93448094D01*
X87719819Y-92543332D02*
X87719819Y-91924285D01*
X87719819Y-91924285D02*
X88100771Y-92257618D01*
X88100771Y-92257618D02*
X88100771Y-92114761D01*
X88100771Y-92114761D02*
X88148390Y-92019523D01*
X88148390Y-92019523D02*
X88196009Y-91971904D01*
X88196009Y-91971904D02*
X88291247Y-91924285D01*
X88291247Y-91924285D02*
X88529342Y-91924285D01*
X88529342Y-91924285D02*
X88624580Y-91971904D01*
X88624580Y-91971904D02*
X88672200Y-92019523D01*
X88672200Y-92019523D02*
X88719819Y-92114761D01*
X88719819Y-92114761D02*
X88719819Y-92400475D01*
X88719819Y-92400475D02*
X88672200Y-92495713D01*
X88672200Y-92495713D02*
X88624580Y-92543332D01*
X88719819Y-90153857D02*
X88719819Y-90725285D01*
X88719819Y-90439571D02*
X87719819Y-90439571D01*
X87719819Y-90439571D02*
X87862676Y-90534809D01*
X87862676Y-90534809D02*
X87957914Y-90630047D01*
X87957914Y-90630047D02*
X88005533Y-90725285D01*
X88719819Y-89725285D02*
X87719819Y-89725285D01*
X87719819Y-89725285D02*
X88719819Y-89153857D01*
X88719819Y-89153857D02*
X87719819Y-89153857D01*
X88053152Y-88249095D02*
X88719819Y-88249095D01*
X87672200Y-88487190D02*
X88386485Y-88725285D01*
X88386485Y-88725285D02*
X88386485Y-88106238D01*
X87719819Y-87534809D02*
X87719819Y-87439571D01*
X87719819Y-87439571D02*
X87767438Y-87344333D01*
X87767438Y-87344333D02*
X87815057Y-87296714D01*
X87815057Y-87296714D02*
X87910295Y-87249095D01*
X87910295Y-87249095D02*
X88100771Y-87201476D01*
X88100771Y-87201476D02*
X88338866Y-87201476D01*
X88338866Y-87201476D02*
X88529342Y-87249095D01*
X88529342Y-87249095D02*
X88624580Y-87296714D01*
X88624580Y-87296714D02*
X88672200Y-87344333D01*
X88672200Y-87344333D02*
X88719819Y-87439571D01*
X88719819Y-87439571D02*
X88719819Y-87534809D01*
X88719819Y-87534809D02*
X88672200Y-87630047D01*
X88672200Y-87630047D02*
X88624580Y-87677666D01*
X88624580Y-87677666D02*
X88529342Y-87725285D01*
X88529342Y-87725285D02*
X88338866Y-87772904D01*
X88338866Y-87772904D02*
X88100771Y-87772904D01*
X88100771Y-87772904D02*
X87910295Y-87725285D01*
X87910295Y-87725285D02*
X87815057Y-87677666D01*
X87815057Y-87677666D02*
X87767438Y-87630047D01*
X87767438Y-87630047D02*
X87719819Y-87534809D01*
X87719819Y-86582428D02*
X87719819Y-86487190D01*
X87719819Y-86487190D02*
X87767438Y-86391952D01*
X87767438Y-86391952D02*
X87815057Y-86344333D01*
X87815057Y-86344333D02*
X87910295Y-86296714D01*
X87910295Y-86296714D02*
X88100771Y-86249095D01*
X88100771Y-86249095D02*
X88338866Y-86249095D01*
X88338866Y-86249095D02*
X88529342Y-86296714D01*
X88529342Y-86296714D02*
X88624580Y-86344333D01*
X88624580Y-86344333D02*
X88672200Y-86391952D01*
X88672200Y-86391952D02*
X88719819Y-86487190D01*
X88719819Y-86487190D02*
X88719819Y-86582428D01*
X88719819Y-86582428D02*
X88672200Y-86677666D01*
X88672200Y-86677666D02*
X88624580Y-86725285D01*
X88624580Y-86725285D02*
X88529342Y-86772904D01*
X88529342Y-86772904D02*
X88338866Y-86820523D01*
X88338866Y-86820523D02*
X88100771Y-86820523D01*
X88100771Y-86820523D02*
X87910295Y-86772904D01*
X87910295Y-86772904D02*
X87815057Y-86725285D01*
X87815057Y-86725285D02*
X87767438Y-86677666D01*
X87767438Y-86677666D02*
X87719819Y-86582428D01*
X88719819Y-85296714D02*
X88719819Y-85868142D01*
X88719819Y-85582428D02*
X87719819Y-85582428D01*
X87719819Y-85582428D02*
X87862676Y-85677666D01*
X87862676Y-85677666D02*
X87957914Y-85772904D01*
X87957914Y-85772904D02*
X88005533Y-85868142D01*
X87749095Y-84528819D02*
X87749095Y-83528819D01*
X88320523Y-84528819D02*
X87891952Y-83957390D01*
X88320523Y-83528819D02*
X87749095Y-84100247D01*
X109082333Y-82242819D02*
X108749000Y-81766628D01*
X108510905Y-82242819D02*
X108510905Y-81242819D01*
X108510905Y-81242819D02*
X108891857Y-81242819D01*
X108891857Y-81242819D02*
X108987095Y-81290438D01*
X108987095Y-81290438D02*
X109034714Y-81338057D01*
X109034714Y-81338057D02*
X109082333Y-81433295D01*
X109082333Y-81433295D02*
X109082333Y-81576152D01*
X109082333Y-81576152D02*
X109034714Y-81671390D01*
X109034714Y-81671390D02*
X108987095Y-81719009D01*
X108987095Y-81719009D02*
X108891857Y-81766628D01*
X108891857Y-81766628D02*
X108510905Y-81766628D01*
X109415667Y-81242819D02*
X110034714Y-81242819D01*
X110034714Y-81242819D02*
X109701381Y-81623771D01*
X109701381Y-81623771D02*
X109844238Y-81623771D01*
X109844238Y-81623771D02*
X109939476Y-81671390D01*
X109939476Y-81671390D02*
X109987095Y-81719009D01*
X109987095Y-81719009D02*
X110034714Y-81814247D01*
X110034714Y-81814247D02*
X110034714Y-82052342D01*
X110034714Y-82052342D02*
X109987095Y-82147580D01*
X109987095Y-82147580D02*
X109939476Y-82195200D01*
X109939476Y-82195200D02*
X109844238Y-82242819D01*
X109844238Y-82242819D02*
X109558524Y-82242819D01*
X109558524Y-82242819D02*
X109463286Y-82195200D01*
X109463286Y-82195200D02*
X109415667Y-82147580D01*
X102803819Y-86407047D02*
X102803819Y-85835619D01*
X103803819Y-86121333D02*
X102803819Y-86121333D01*
X103803819Y-85502285D02*
X102803819Y-85502285D01*
X102803819Y-85502285D02*
X103803819Y-84930857D01*
X103803819Y-84930857D02*
X102803819Y-84930857D01*
X103803819Y-83883238D02*
X103327628Y-84216571D01*
X103803819Y-84454666D02*
X102803819Y-84454666D01*
X102803819Y-84454666D02*
X102803819Y-84073714D01*
X102803819Y-84073714D02*
X102851438Y-83978476D01*
X102851438Y-83978476D02*
X102899057Y-83930857D01*
X102899057Y-83930857D02*
X102994295Y-83883238D01*
X102994295Y-83883238D02*
X103137152Y-83883238D01*
X103137152Y-83883238D02*
X103232390Y-83930857D01*
X103232390Y-83930857D02*
X103280009Y-83978476D01*
X103280009Y-83978476D02*
X103327628Y-84073714D01*
X103327628Y-84073714D02*
X103327628Y-84454666D01*
X103803819Y-82930857D02*
X103803819Y-83502285D01*
X103803819Y-83216571D02*
X102803819Y-83216571D01*
X102803819Y-83216571D02*
X102946676Y-83311809D01*
X102946676Y-83311809D02*
X103041914Y-83407047D01*
X103041914Y-83407047D02*
X103089533Y-83502285D01*
X102803819Y-82311809D02*
X102803819Y-82216571D01*
X102803819Y-82216571D02*
X102851438Y-82121333D01*
X102851438Y-82121333D02*
X102899057Y-82073714D01*
X102899057Y-82073714D02*
X102994295Y-82026095D01*
X102994295Y-82026095D02*
X103184771Y-81978476D01*
X103184771Y-81978476D02*
X103422866Y-81978476D01*
X103422866Y-81978476D02*
X103613342Y-82026095D01*
X103613342Y-82026095D02*
X103708580Y-82073714D01*
X103708580Y-82073714D02*
X103756200Y-82121333D01*
X103756200Y-82121333D02*
X103803819Y-82216571D01*
X103803819Y-82216571D02*
X103803819Y-82311809D01*
X103803819Y-82311809D02*
X103756200Y-82407047D01*
X103756200Y-82407047D02*
X103708580Y-82454666D01*
X103708580Y-82454666D02*
X103613342Y-82502285D01*
X103613342Y-82502285D02*
X103422866Y-82549904D01*
X103422866Y-82549904D02*
X103184771Y-82549904D01*
X103184771Y-82549904D02*
X102994295Y-82502285D01*
X102994295Y-82502285D02*
X102899057Y-82454666D01*
X102899057Y-82454666D02*
X102851438Y-82407047D01*
X102851438Y-82407047D02*
X102803819Y-82311809D01*
X102803819Y-81692761D02*
X103803819Y-81359428D01*
X103803819Y-81359428D02*
X102803819Y-81026095D01*
X103137152Y-80264190D02*
X103803819Y-80264190D01*
X102756200Y-80502285D02*
X103470485Y-80740380D01*
X103470485Y-80740380D02*
X103470485Y-80121333D01*
X102803819Y-79835618D02*
X102803819Y-79168952D01*
X102803819Y-79168952D02*
X103803819Y-79597523D01*
X103803819Y-78264190D02*
X103803819Y-78835618D01*
X103803819Y-78549904D02*
X102803819Y-78549904D01*
X102803819Y-78549904D02*
X102946676Y-78645142D01*
X102946676Y-78645142D02*
X103041914Y-78740380D01*
X103041914Y-78740380D02*
X103089533Y-78835618D01*
X103803819Y-77835618D02*
X102803819Y-77835618D01*
X103803819Y-77264190D02*
X103232390Y-77692761D01*
X102803819Y-77264190D02*
X103375247Y-77835618D01*
X84605904Y-73845009D02*
X84272571Y-73845009D01*
X84272571Y-74368819D02*
X84272571Y-73368819D01*
X84272571Y-73368819D02*
X84748761Y-73368819D01*
X85605904Y-74368819D02*
X85129714Y-74368819D01*
X85129714Y-74368819D02*
X85129714Y-73368819D01*
X86463047Y-74368819D02*
X85891619Y-74368819D01*
X86177333Y-74368819D02*
X86177333Y-73368819D01*
X86177333Y-73368819D02*
X86082095Y-73511676D01*
X86082095Y-73511676D02*
X85986857Y-73606914D01*
X85986857Y-73606914D02*
X85891619Y-73654533D01*
X81367809Y-68288819D02*
X81463047Y-68288819D01*
X81463047Y-68288819D02*
X81558285Y-68336438D01*
X81558285Y-68336438D02*
X81605904Y-68384057D01*
X81605904Y-68384057D02*
X81653523Y-68479295D01*
X81653523Y-68479295D02*
X81701142Y-68669771D01*
X81701142Y-68669771D02*
X81701142Y-68907866D01*
X81701142Y-68907866D02*
X81653523Y-69098342D01*
X81653523Y-69098342D02*
X81605904Y-69193580D01*
X81605904Y-69193580D02*
X81558285Y-69241200D01*
X81558285Y-69241200D02*
X81463047Y-69288819D01*
X81463047Y-69288819D02*
X81367809Y-69288819D01*
X81367809Y-69288819D02*
X81272571Y-69241200D01*
X81272571Y-69241200D02*
X81224952Y-69193580D01*
X81224952Y-69193580D02*
X81177333Y-69098342D01*
X81177333Y-69098342D02*
X81129714Y-68907866D01*
X81129714Y-68907866D02*
X81129714Y-68669771D01*
X81129714Y-68669771D02*
X81177333Y-68479295D01*
X81177333Y-68479295D02*
X81224952Y-68384057D01*
X81224952Y-68384057D02*
X81272571Y-68336438D01*
X81272571Y-68336438D02*
X81367809Y-68288819D01*
X82129714Y-69193580D02*
X82177333Y-69241200D01*
X82177333Y-69241200D02*
X82129714Y-69288819D01*
X82129714Y-69288819D02*
X82082095Y-69241200D01*
X82082095Y-69241200D02*
X82129714Y-69193580D01*
X82129714Y-69193580D02*
X82129714Y-69288819D01*
X83129713Y-69288819D02*
X82558285Y-69288819D01*
X82843999Y-69288819D02*
X82843999Y-68288819D01*
X82843999Y-68288819D02*
X82748761Y-68431676D01*
X82748761Y-68431676D02*
X82653523Y-68526914D01*
X82653523Y-68526914D02*
X82558285Y-68574533D01*
X83986856Y-68622152D02*
X83986856Y-69288819D01*
X83558285Y-68622152D02*
X83558285Y-69145961D01*
X83558285Y-69145961D02*
X83605904Y-69241200D01*
X83605904Y-69241200D02*
X83701142Y-69288819D01*
X83701142Y-69288819D02*
X83843999Y-69288819D01*
X83843999Y-69288819D02*
X83939237Y-69241200D01*
X83939237Y-69241200D02*
X83986856Y-69193580D01*
X84796380Y-68765009D02*
X84463047Y-68765009D01*
X84463047Y-69288819D02*
X84463047Y-68288819D01*
X84463047Y-68288819D02*
X84939237Y-68288819D01*
X86082095Y-69288819D02*
X86082095Y-68288819D01*
X86082095Y-68288819D02*
X86320190Y-68288819D01*
X86320190Y-68288819D02*
X86463047Y-68336438D01*
X86463047Y-68336438D02*
X86558285Y-68431676D01*
X86558285Y-68431676D02*
X86605904Y-68526914D01*
X86605904Y-68526914D02*
X86653523Y-68717390D01*
X86653523Y-68717390D02*
X86653523Y-68860247D01*
X86653523Y-68860247D02*
X86605904Y-69050723D01*
X86605904Y-69050723D02*
X86558285Y-69145961D01*
X86558285Y-69145961D02*
X86463047Y-69241200D01*
X86463047Y-69241200D02*
X86320190Y-69288819D01*
X86320190Y-69288819D02*
X86082095Y-69288819D01*
X87082095Y-69288819D02*
X87082095Y-68288819D01*
X87082095Y-68288819D02*
X87320190Y-68288819D01*
X87320190Y-68288819D02*
X87463047Y-68336438D01*
X87463047Y-68336438D02*
X87558285Y-68431676D01*
X87558285Y-68431676D02*
X87605904Y-68526914D01*
X87605904Y-68526914D02*
X87653523Y-68717390D01*
X87653523Y-68717390D02*
X87653523Y-68860247D01*
X87653523Y-68860247D02*
X87605904Y-69050723D01*
X87605904Y-69050723D02*
X87558285Y-69145961D01*
X87558285Y-69145961D02*
X87463047Y-69241200D01*
X87463047Y-69241200D02*
X87320190Y-69288819D01*
X87320190Y-69288819D02*
X87082095Y-69288819D01*
X88034476Y-69241200D02*
X88177333Y-69288819D01*
X88177333Y-69288819D02*
X88415428Y-69288819D01*
X88415428Y-69288819D02*
X88510666Y-69241200D01*
X88510666Y-69241200D02*
X88558285Y-69193580D01*
X88558285Y-69193580D02*
X88605904Y-69098342D01*
X88605904Y-69098342D02*
X88605904Y-69003104D01*
X88605904Y-69003104D02*
X88558285Y-68907866D01*
X88558285Y-68907866D02*
X88510666Y-68860247D01*
X88510666Y-68860247D02*
X88415428Y-68812628D01*
X88415428Y-68812628D02*
X88224952Y-68765009D01*
X88224952Y-68765009D02*
X88129714Y-68717390D01*
X88129714Y-68717390D02*
X88082095Y-68669771D01*
X88082095Y-68669771D02*
X88034476Y-68574533D01*
X88034476Y-68574533D02*
X88034476Y-68479295D01*
X88034476Y-68479295D02*
X88082095Y-68384057D01*
X88082095Y-68384057D02*
X88129714Y-68336438D01*
X88129714Y-68336438D02*
X88224952Y-68288819D01*
X88224952Y-68288819D02*
X88463047Y-68288819D01*
X88463047Y-68288819D02*
X88605904Y-68336438D01*
X89558285Y-69288819D02*
X88986857Y-69288819D01*
X89272571Y-69288819D02*
X89272571Y-68288819D01*
X89272571Y-68288819D02*
X89177333Y-68431676D01*
X89177333Y-68431676D02*
X89082095Y-68526914D01*
X89082095Y-68526914D02*
X88986857Y-68574533D01*
X113498333Y-68304580D02*
X113450714Y-68352200D01*
X113450714Y-68352200D02*
X113307857Y-68399819D01*
X113307857Y-68399819D02*
X113212619Y-68399819D01*
X113212619Y-68399819D02*
X113069762Y-68352200D01*
X113069762Y-68352200D02*
X112974524Y-68256961D01*
X112974524Y-68256961D02*
X112926905Y-68161723D01*
X112926905Y-68161723D02*
X112879286Y-67971247D01*
X112879286Y-67971247D02*
X112879286Y-67828390D01*
X112879286Y-67828390D02*
X112926905Y-67637914D01*
X112926905Y-67637914D02*
X112974524Y-67542676D01*
X112974524Y-67542676D02*
X113069762Y-67447438D01*
X113069762Y-67447438D02*
X113212619Y-67399819D01*
X113212619Y-67399819D02*
X113307857Y-67399819D01*
X113307857Y-67399819D02*
X113450714Y-67447438D01*
X113450714Y-67447438D02*
X113498333Y-67495057D01*
X113831667Y-67399819D02*
X114450714Y-67399819D01*
X114450714Y-67399819D02*
X114117381Y-67780771D01*
X114117381Y-67780771D02*
X114260238Y-67780771D01*
X114260238Y-67780771D02*
X114355476Y-67828390D01*
X114355476Y-67828390D02*
X114403095Y-67876009D01*
X114403095Y-67876009D02*
X114450714Y-67971247D01*
X114450714Y-67971247D02*
X114450714Y-68209342D01*
X114450714Y-68209342D02*
X114403095Y-68304580D01*
X114403095Y-68304580D02*
X114355476Y-68352200D01*
X114355476Y-68352200D02*
X114260238Y-68399819D01*
X114260238Y-68399819D02*
X113974524Y-68399819D01*
X113974524Y-68399819D02*
X113879286Y-68352200D01*
X113879286Y-68352200D02*
X113831667Y-68304580D01*
X115832143Y-67399819D02*
X115927381Y-67399819D01*
X115927381Y-67399819D02*
X116022619Y-67447438D01*
X116022619Y-67447438D02*
X116070238Y-67495057D01*
X116070238Y-67495057D02*
X116117857Y-67590295D01*
X116117857Y-67590295D02*
X116165476Y-67780771D01*
X116165476Y-67780771D02*
X116165476Y-68018866D01*
X116165476Y-68018866D02*
X116117857Y-68209342D01*
X116117857Y-68209342D02*
X116070238Y-68304580D01*
X116070238Y-68304580D02*
X116022619Y-68352200D01*
X116022619Y-68352200D02*
X115927381Y-68399819D01*
X115927381Y-68399819D02*
X115832143Y-68399819D01*
X115832143Y-68399819D02*
X115736905Y-68352200D01*
X115736905Y-68352200D02*
X115689286Y-68304580D01*
X115689286Y-68304580D02*
X115641667Y-68209342D01*
X115641667Y-68209342D02*
X115594048Y-68018866D01*
X115594048Y-68018866D02*
X115594048Y-67780771D01*
X115594048Y-67780771D02*
X115641667Y-67590295D01*
X115641667Y-67590295D02*
X115689286Y-67495057D01*
X115689286Y-67495057D02*
X115736905Y-67447438D01*
X115736905Y-67447438D02*
X115832143Y-67399819D01*
X116594048Y-68304580D02*
X116641667Y-68352200D01*
X116641667Y-68352200D02*
X116594048Y-68399819D01*
X116594048Y-68399819D02*
X116546429Y-68352200D01*
X116546429Y-68352200D02*
X116594048Y-68304580D01*
X116594048Y-68304580D02*
X116594048Y-68399819D01*
X117594047Y-68399819D02*
X117022619Y-68399819D01*
X117308333Y-68399819D02*
X117308333Y-67399819D01*
X117308333Y-67399819D02*
X117213095Y-67542676D01*
X117213095Y-67542676D02*
X117117857Y-67637914D01*
X117117857Y-67637914D02*
X117022619Y-67685533D01*
X118451190Y-67733152D02*
X118451190Y-68399819D01*
X118022619Y-67733152D02*
X118022619Y-68256961D01*
X118022619Y-68256961D02*
X118070238Y-68352200D01*
X118070238Y-68352200D02*
X118165476Y-68399819D01*
X118165476Y-68399819D02*
X118308333Y-68399819D01*
X118308333Y-68399819D02*
X118403571Y-68352200D01*
X118403571Y-68352200D02*
X118451190Y-68304580D01*
X119260714Y-67876009D02*
X118927381Y-67876009D01*
X118927381Y-68399819D02*
X118927381Y-67399819D01*
X118927381Y-67399819D02*
X119403571Y-67399819D01*
X74191905Y-99006819D02*
X74191905Y-98006819D01*
X74191905Y-98006819D02*
X74430000Y-98006819D01*
X74430000Y-98006819D02*
X74572857Y-98054438D01*
X74572857Y-98054438D02*
X74668095Y-98149676D01*
X74668095Y-98149676D02*
X74715714Y-98244914D01*
X74715714Y-98244914D02*
X74763333Y-98435390D01*
X74763333Y-98435390D02*
X74763333Y-98578247D01*
X74763333Y-98578247D02*
X74715714Y-98768723D01*
X74715714Y-98768723D02*
X74668095Y-98863961D01*
X74668095Y-98863961D02*
X74572857Y-98959200D01*
X74572857Y-98959200D02*
X74430000Y-99006819D01*
X74430000Y-99006819D02*
X74191905Y-99006819D01*
X75144286Y-98102057D02*
X75191905Y-98054438D01*
X75191905Y-98054438D02*
X75287143Y-98006819D01*
X75287143Y-98006819D02*
X75525238Y-98006819D01*
X75525238Y-98006819D02*
X75620476Y-98054438D01*
X75620476Y-98054438D02*
X75668095Y-98102057D01*
X75668095Y-98102057D02*
X75715714Y-98197295D01*
X75715714Y-98197295D02*
X75715714Y-98292533D01*
X75715714Y-98292533D02*
X75668095Y-98435390D01*
X75668095Y-98435390D02*
X75096667Y-99006819D01*
X75096667Y-99006819D02*
X75715714Y-99006819D01*
X106830905Y-72590819D02*
X106830905Y-71590819D01*
X106830905Y-71590819D02*
X107069000Y-71590819D01*
X107069000Y-71590819D02*
X107211857Y-71638438D01*
X107211857Y-71638438D02*
X107307095Y-71733676D01*
X107307095Y-71733676D02*
X107354714Y-71828914D01*
X107354714Y-71828914D02*
X107402333Y-72019390D01*
X107402333Y-72019390D02*
X107402333Y-72162247D01*
X107402333Y-72162247D02*
X107354714Y-72352723D01*
X107354714Y-72352723D02*
X107307095Y-72447961D01*
X107307095Y-72447961D02*
X107211857Y-72543200D01*
X107211857Y-72543200D02*
X107069000Y-72590819D01*
X107069000Y-72590819D02*
X106830905Y-72590819D01*
X108354714Y-72590819D02*
X107783286Y-72590819D01*
X108069000Y-72590819D02*
X108069000Y-71590819D01*
X108069000Y-71590819D02*
X107973762Y-71733676D01*
X107973762Y-71733676D02*
X107878524Y-71828914D01*
X107878524Y-71828914D02*
X107783286Y-71876533D01*
X109950333Y-72590819D02*
X109378905Y-72590819D01*
X109664619Y-72590819D02*
X109664619Y-71590819D01*
X109664619Y-71590819D02*
X109569381Y-71733676D01*
X109569381Y-71733676D02*
X109474143Y-71828914D01*
X109474143Y-71828914D02*
X109378905Y-71876533D01*
X110331286Y-72543200D02*
X110474143Y-72590819D01*
X110474143Y-72590819D02*
X110712238Y-72590819D01*
X110712238Y-72590819D02*
X110807476Y-72543200D01*
X110807476Y-72543200D02*
X110855095Y-72495580D01*
X110855095Y-72495580D02*
X110902714Y-72400342D01*
X110902714Y-72400342D02*
X110902714Y-72305104D01*
X110902714Y-72305104D02*
X110855095Y-72209866D01*
X110855095Y-72209866D02*
X110807476Y-72162247D01*
X110807476Y-72162247D02*
X110712238Y-72114628D01*
X110712238Y-72114628D02*
X110521762Y-72067009D01*
X110521762Y-72067009D02*
X110426524Y-72019390D01*
X110426524Y-72019390D02*
X110378905Y-71971771D01*
X110378905Y-71971771D02*
X110331286Y-71876533D01*
X110331286Y-71876533D02*
X110331286Y-71781295D01*
X110331286Y-71781295D02*
X110378905Y-71686057D01*
X110378905Y-71686057D02*
X110426524Y-71638438D01*
X110426524Y-71638438D02*
X110521762Y-71590819D01*
X110521762Y-71590819D02*
X110759857Y-71590819D01*
X110759857Y-71590819D02*
X110902714Y-71638438D01*
X111759857Y-71924152D02*
X111759857Y-72590819D01*
X111521762Y-71543200D02*
X111283667Y-72257485D01*
X111283667Y-72257485D02*
X111902714Y-72257485D01*
X92916476Y-76416819D02*
X92916476Y-77131104D01*
X92916476Y-77131104D02*
X92868857Y-77273961D01*
X92868857Y-77273961D02*
X92773619Y-77369200D01*
X92773619Y-77369200D02*
X92630762Y-77416819D01*
X92630762Y-77416819D02*
X92535524Y-77416819D01*
X93916476Y-77416819D02*
X93345048Y-77416819D01*
X93630762Y-77416819D02*
X93630762Y-76416819D01*
X93630762Y-76416819D02*
X93535524Y-76559676D01*
X93535524Y-76559676D02*
X93440286Y-76654914D01*
X93440286Y-76654914D02*
X93345048Y-76702533D01*
X94773619Y-76750152D02*
X94773619Y-77416819D01*
X94535524Y-76369200D02*
X94297429Y-77083485D01*
X94297429Y-77083485D02*
X94916476Y-77083485D01*
X78533666Y-78448819D02*
X78533666Y-79163104D01*
X78533666Y-79163104D02*
X78486047Y-79305961D01*
X78486047Y-79305961D02*
X78390809Y-79401200D01*
X78390809Y-79401200D02*
X78247952Y-79448819D01*
X78247952Y-79448819D02*
X78152714Y-79448819D01*
X79486047Y-78448819D02*
X79009857Y-78448819D01*
X79009857Y-78448819D02*
X78962238Y-78925009D01*
X78962238Y-78925009D02*
X79009857Y-78877390D01*
X79009857Y-78877390D02*
X79105095Y-78829771D01*
X79105095Y-78829771D02*
X79343190Y-78829771D01*
X79343190Y-78829771D02*
X79438428Y-78877390D01*
X79438428Y-78877390D02*
X79486047Y-78925009D01*
X79486047Y-78925009D02*
X79533666Y-79020247D01*
X79533666Y-79020247D02*
X79533666Y-79258342D01*
X79533666Y-79258342D02*
X79486047Y-79353580D01*
X79486047Y-79353580D02*
X79438428Y-79401200D01*
X79438428Y-79401200D02*
X79343190Y-79448819D01*
X79343190Y-79448819D02*
X79105095Y-79448819D01*
X79105095Y-79448819D02*
X79009857Y-79401200D01*
X79009857Y-79401200D02*
X78962238Y-79353580D01*
X87924333Y-62970580D02*
X87876714Y-63018200D01*
X87876714Y-63018200D02*
X87733857Y-63065819D01*
X87733857Y-63065819D02*
X87638619Y-63065819D01*
X87638619Y-63065819D02*
X87495762Y-63018200D01*
X87495762Y-63018200D02*
X87400524Y-62922961D01*
X87400524Y-62922961D02*
X87352905Y-62827723D01*
X87352905Y-62827723D02*
X87305286Y-62637247D01*
X87305286Y-62637247D02*
X87305286Y-62494390D01*
X87305286Y-62494390D02*
X87352905Y-62303914D01*
X87352905Y-62303914D02*
X87400524Y-62208676D01*
X87400524Y-62208676D02*
X87495762Y-62113438D01*
X87495762Y-62113438D02*
X87638619Y-62065819D01*
X87638619Y-62065819D02*
X87733857Y-62065819D01*
X87733857Y-62065819D02*
X87876714Y-62113438D01*
X87876714Y-62113438D02*
X87924333Y-62161057D01*
X88781476Y-62065819D02*
X88591000Y-62065819D01*
X88591000Y-62065819D02*
X88495762Y-62113438D01*
X88495762Y-62113438D02*
X88448143Y-62161057D01*
X88448143Y-62161057D02*
X88352905Y-62303914D01*
X88352905Y-62303914D02*
X88305286Y-62494390D01*
X88305286Y-62494390D02*
X88305286Y-62875342D01*
X88305286Y-62875342D02*
X88352905Y-62970580D01*
X88352905Y-62970580D02*
X88400524Y-63018200D01*
X88400524Y-63018200D02*
X88495762Y-63065819D01*
X88495762Y-63065819D02*
X88686238Y-63065819D01*
X88686238Y-63065819D02*
X88781476Y-63018200D01*
X88781476Y-63018200D02*
X88829095Y-62970580D01*
X88829095Y-62970580D02*
X88876714Y-62875342D01*
X88876714Y-62875342D02*
X88876714Y-62637247D01*
X88876714Y-62637247D02*
X88829095Y-62542009D01*
X88829095Y-62542009D02*
X88781476Y-62494390D01*
X88781476Y-62494390D02*
X88686238Y-62446771D01*
X88686238Y-62446771D02*
X88495762Y-62446771D01*
X88495762Y-62446771D02*
X88400524Y-62494390D01*
X88400524Y-62494390D02*
X88352905Y-62542009D01*
X88352905Y-62542009D02*
X88305286Y-62637247D01*
X90512143Y-62065819D02*
X90607381Y-62065819D01*
X90607381Y-62065819D02*
X90702619Y-62113438D01*
X90702619Y-62113438D02*
X90750238Y-62161057D01*
X90750238Y-62161057D02*
X90797857Y-62256295D01*
X90797857Y-62256295D02*
X90845476Y-62446771D01*
X90845476Y-62446771D02*
X90845476Y-62684866D01*
X90845476Y-62684866D02*
X90797857Y-62875342D01*
X90797857Y-62875342D02*
X90750238Y-62970580D01*
X90750238Y-62970580D02*
X90702619Y-63018200D01*
X90702619Y-63018200D02*
X90607381Y-63065819D01*
X90607381Y-63065819D02*
X90512143Y-63065819D01*
X90512143Y-63065819D02*
X90416905Y-63018200D01*
X90416905Y-63018200D02*
X90369286Y-62970580D01*
X90369286Y-62970580D02*
X90321667Y-62875342D01*
X90321667Y-62875342D02*
X90274048Y-62684866D01*
X90274048Y-62684866D02*
X90274048Y-62446771D01*
X90274048Y-62446771D02*
X90321667Y-62256295D01*
X90321667Y-62256295D02*
X90369286Y-62161057D01*
X90369286Y-62161057D02*
X90416905Y-62113438D01*
X90416905Y-62113438D02*
X90512143Y-62065819D01*
X91274048Y-62970580D02*
X91321667Y-63018200D01*
X91321667Y-63018200D02*
X91274048Y-63065819D01*
X91274048Y-63065819D02*
X91226429Y-63018200D01*
X91226429Y-63018200D02*
X91274048Y-62970580D01*
X91274048Y-62970580D02*
X91274048Y-63065819D01*
X92274047Y-63065819D02*
X91702619Y-63065819D01*
X91988333Y-63065819D02*
X91988333Y-62065819D01*
X91988333Y-62065819D02*
X91893095Y-62208676D01*
X91893095Y-62208676D02*
X91797857Y-62303914D01*
X91797857Y-62303914D02*
X91702619Y-62351533D01*
X93131190Y-62399152D02*
X93131190Y-63065819D01*
X92702619Y-62399152D02*
X92702619Y-62922961D01*
X92702619Y-62922961D02*
X92750238Y-63018200D01*
X92750238Y-63018200D02*
X92845476Y-63065819D01*
X92845476Y-63065819D02*
X92988333Y-63065819D01*
X92988333Y-63065819D02*
X93083571Y-63018200D01*
X93083571Y-63018200D02*
X93131190Y-62970580D01*
X93940714Y-62542009D02*
X93607381Y-62542009D01*
X93607381Y-63065819D02*
X93607381Y-62065819D01*
X93607381Y-62065819D02*
X94083571Y-62065819D01*
X108418333Y-61954580D02*
X108370714Y-62002200D01*
X108370714Y-62002200D02*
X108227857Y-62049819D01*
X108227857Y-62049819D02*
X108132619Y-62049819D01*
X108132619Y-62049819D02*
X107989762Y-62002200D01*
X107989762Y-62002200D02*
X107894524Y-61906961D01*
X107894524Y-61906961D02*
X107846905Y-61811723D01*
X107846905Y-61811723D02*
X107799286Y-61621247D01*
X107799286Y-61621247D02*
X107799286Y-61478390D01*
X107799286Y-61478390D02*
X107846905Y-61287914D01*
X107846905Y-61287914D02*
X107894524Y-61192676D01*
X107894524Y-61192676D02*
X107989762Y-61097438D01*
X107989762Y-61097438D02*
X108132619Y-61049819D01*
X108132619Y-61049819D02*
X108227857Y-61049819D01*
X108227857Y-61049819D02*
X108370714Y-61097438D01*
X108370714Y-61097438D02*
X108418333Y-61145057D01*
X109370714Y-62049819D02*
X108799286Y-62049819D01*
X109085000Y-62049819D02*
X109085000Y-61049819D01*
X109085000Y-61049819D02*
X108989762Y-61192676D01*
X108989762Y-61192676D02*
X108894524Y-61287914D01*
X108894524Y-61287914D02*
X108799286Y-61335533D01*
X103227618Y-69034819D02*
X102656190Y-69034819D01*
X102941904Y-69034819D02*
X102941904Y-68034819D01*
X102941904Y-68034819D02*
X102846666Y-68177676D01*
X102846666Y-68177676D02*
X102751428Y-68272914D01*
X102751428Y-68272914D02*
X102656190Y-68320533D01*
X103846666Y-68034819D02*
X103941904Y-68034819D01*
X103941904Y-68034819D02*
X104037142Y-68082438D01*
X104037142Y-68082438D02*
X104084761Y-68130057D01*
X104084761Y-68130057D02*
X104132380Y-68225295D01*
X104132380Y-68225295D02*
X104179999Y-68415771D01*
X104179999Y-68415771D02*
X104179999Y-68653866D01*
X104179999Y-68653866D02*
X104132380Y-68844342D01*
X104132380Y-68844342D02*
X104084761Y-68939580D01*
X104084761Y-68939580D02*
X104037142Y-68987200D01*
X104037142Y-68987200D02*
X103941904Y-69034819D01*
X103941904Y-69034819D02*
X103846666Y-69034819D01*
X103846666Y-69034819D02*
X103751428Y-68987200D01*
X103751428Y-68987200D02*
X103703809Y-68939580D01*
X103703809Y-68939580D02*
X103656190Y-68844342D01*
X103656190Y-68844342D02*
X103608571Y-68653866D01*
X103608571Y-68653866D02*
X103608571Y-68415771D01*
X103608571Y-68415771D02*
X103656190Y-68225295D01*
X103656190Y-68225295D02*
X103703809Y-68130057D01*
X103703809Y-68130057D02*
X103751428Y-68082438D01*
X103751428Y-68082438D02*
X103846666Y-68034819D01*
X104799047Y-68034819D02*
X104894285Y-68034819D01*
X104894285Y-68034819D02*
X104989523Y-68082438D01*
X104989523Y-68082438D02*
X105037142Y-68130057D01*
X105037142Y-68130057D02*
X105084761Y-68225295D01*
X105084761Y-68225295D02*
X105132380Y-68415771D01*
X105132380Y-68415771D02*
X105132380Y-68653866D01*
X105132380Y-68653866D02*
X105084761Y-68844342D01*
X105084761Y-68844342D02*
X105037142Y-68939580D01*
X105037142Y-68939580D02*
X104989523Y-68987200D01*
X104989523Y-68987200D02*
X104894285Y-69034819D01*
X104894285Y-69034819D02*
X104799047Y-69034819D01*
X104799047Y-69034819D02*
X104703809Y-68987200D01*
X104703809Y-68987200D02*
X104656190Y-68939580D01*
X104656190Y-68939580D02*
X104608571Y-68844342D01*
X104608571Y-68844342D02*
X104560952Y-68653866D01*
X104560952Y-68653866D02*
X104560952Y-68415771D01*
X104560952Y-68415771D02*
X104608571Y-68225295D01*
X104608571Y-68225295D02*
X104656190Y-68130057D01*
X104656190Y-68130057D02*
X104703809Y-68082438D01*
X104703809Y-68082438D02*
X104799047Y-68034819D01*
X105989523Y-68368152D02*
X105989523Y-69034819D01*
X105560952Y-68368152D02*
X105560952Y-68891961D01*
X105560952Y-68891961D02*
X105608571Y-68987200D01*
X105608571Y-68987200D02*
X105703809Y-69034819D01*
X105703809Y-69034819D02*
X105846666Y-69034819D01*
X105846666Y-69034819D02*
X105941904Y-68987200D01*
X105941904Y-68987200D02*
X105989523Y-68939580D01*
X106799047Y-68511009D02*
X106465714Y-68511009D01*
X106465714Y-69034819D02*
X106465714Y-68034819D01*
X106465714Y-68034819D02*
X106941904Y-68034819D01*
X108037142Y-67987200D02*
X107180000Y-69272914D01*
X108322857Y-68130057D02*
X108370476Y-68082438D01*
X108370476Y-68082438D02*
X108465714Y-68034819D01*
X108465714Y-68034819D02*
X108703809Y-68034819D01*
X108703809Y-68034819D02*
X108799047Y-68082438D01*
X108799047Y-68082438D02*
X108846666Y-68130057D01*
X108846666Y-68130057D02*
X108894285Y-68225295D01*
X108894285Y-68225295D02*
X108894285Y-68320533D01*
X108894285Y-68320533D02*
X108846666Y-68463390D01*
X108846666Y-68463390D02*
X108275238Y-69034819D01*
X108275238Y-69034819D02*
X108894285Y-69034819D01*
X109799047Y-68034819D02*
X109322857Y-68034819D01*
X109322857Y-68034819D02*
X109275238Y-68511009D01*
X109275238Y-68511009D02*
X109322857Y-68463390D01*
X109322857Y-68463390D02*
X109418095Y-68415771D01*
X109418095Y-68415771D02*
X109656190Y-68415771D01*
X109656190Y-68415771D02*
X109751428Y-68463390D01*
X109751428Y-68463390D02*
X109799047Y-68511009D01*
X109799047Y-68511009D02*
X109846666Y-68606247D01*
X109846666Y-68606247D02*
X109846666Y-68844342D01*
X109846666Y-68844342D02*
X109799047Y-68939580D01*
X109799047Y-68939580D02*
X109751428Y-68987200D01*
X109751428Y-68987200D02*
X109656190Y-69034819D01*
X109656190Y-69034819D02*
X109418095Y-69034819D01*
X109418095Y-69034819D02*
X109322857Y-68987200D01*
X109322857Y-68987200D02*
X109275238Y-68939580D01*
X110132381Y-68034819D02*
X110465714Y-69034819D01*
X110465714Y-69034819D02*
X110799047Y-68034819D01*
D11*
%TO.C,J18*%
X134306000Y-79959200D02*
X134306000Y-72279200D01*
X134306000Y-82559200D02*
X134306000Y-81229200D01*
X135636000Y-82559200D02*
X134306000Y-82559200D01*
X136966000Y-72279200D02*
X134306000Y-72279200D01*
X136966000Y-79959200D02*
X134306000Y-79959200D01*
X136966000Y-79959200D02*
X136966000Y-72279200D01*
%TO.C,J13*%
X97730000Y-88392000D02*
X97730000Y-78172000D01*
X97730000Y-90992000D02*
X97730000Y-89662000D01*
X99060000Y-90992000D02*
X97730000Y-90992000D01*
X100390000Y-78172000D02*
X97730000Y-78172000D01*
X100390000Y-88392000D02*
X97730000Y-88392000D01*
X100390000Y-88392000D02*
X100390000Y-78172000D01*
%TO.C,J11*%
X112804000Y-70102000D02*
X127404000Y-70102000D01*
X112804000Y-86802000D02*
X112804000Y-70102000D01*
D13*
X120904000Y-74852000D02*
X127104000Y-74852000D01*
X120904000Y-75772000D02*
X127104000Y-75772000D01*
X120904000Y-76792000D02*
X127104000Y-76792000D01*
X120904000Y-77812000D02*
X127104000Y-77812000D01*
X120904000Y-78832000D02*
X127104000Y-78832000D01*
X120904000Y-79852000D02*
X127104000Y-79852000D01*
X120904000Y-80872000D02*
X127104000Y-80872000D01*
X120904000Y-81892000D02*
X127104000Y-81892000D01*
D11*
X125304000Y-86802000D02*
X125304000Y-70102000D01*
X127404000Y-70102000D02*
X127404000Y-86802000D01*
X127404000Y-86802000D02*
X112804000Y-86802000D01*
%TO.C,J8*%
X82086000Y-105994000D02*
X82086000Y-107244000D01*
X82086000Y-107244000D02*
X83336000Y-107244000D01*
X82376000Y-96834000D02*
X82376000Y-106954000D01*
X82376000Y-106954000D02*
X88346000Y-106954000D01*
X82386000Y-96844000D02*
X82386000Y-98644000D01*
X82386000Y-98644000D02*
X83136000Y-98644000D01*
X82386000Y-100144000D02*
X82386000Y-103644000D01*
X82386000Y-103644000D02*
X83136000Y-103644000D01*
X82386000Y-105144000D02*
X82386000Y-106944000D01*
X82386000Y-106944000D02*
X83136000Y-106944000D01*
X83136000Y-96844000D02*
X82386000Y-96844000D01*
X83136000Y-98644000D02*
X83136000Y-96844000D01*
X83136000Y-100144000D02*
X82386000Y-100144000D01*
X83136000Y-103644000D02*
X83136000Y-100144000D01*
X83136000Y-105144000D02*
X82386000Y-105144000D01*
X83136000Y-106944000D02*
X83136000Y-105144000D01*
X84636000Y-96844000D02*
X84636000Y-97594000D01*
X84636000Y-97594000D02*
X87586000Y-97594000D01*
X84636000Y-106194000D02*
X87586000Y-106194000D01*
X84636000Y-106944000D02*
X84636000Y-106194000D01*
X87586000Y-97594000D02*
X87586000Y-101894000D01*
X87586000Y-106194000D02*
X87586000Y-101894000D01*
X88346000Y-96834000D02*
X82376000Y-96834000D01*
X88346000Y-106954000D02*
X88346000Y-96834000D01*
%TO.C,J10*%
X97072000Y-105994000D02*
X97072000Y-107244000D01*
X97072000Y-107244000D02*
X98322000Y-107244000D01*
X97362000Y-96834000D02*
X97362000Y-106954000D01*
X97362000Y-106954000D02*
X103332000Y-106954000D01*
X97372000Y-96844000D02*
X97372000Y-98644000D01*
X97372000Y-98644000D02*
X98122000Y-98644000D01*
X97372000Y-100144000D02*
X97372000Y-103644000D01*
X97372000Y-103644000D02*
X98122000Y-103644000D01*
X97372000Y-105144000D02*
X97372000Y-106944000D01*
X97372000Y-106944000D02*
X98122000Y-106944000D01*
X98122000Y-96844000D02*
X97372000Y-96844000D01*
X98122000Y-98644000D02*
X98122000Y-96844000D01*
X98122000Y-100144000D02*
X97372000Y-100144000D01*
X98122000Y-103644000D02*
X98122000Y-100144000D01*
X98122000Y-105144000D02*
X97372000Y-105144000D01*
X98122000Y-106944000D02*
X98122000Y-105144000D01*
X99622000Y-96844000D02*
X99622000Y-97594000D01*
X99622000Y-97594000D02*
X102572000Y-97594000D01*
X99622000Y-106194000D02*
X102572000Y-106194000D01*
X99622000Y-106944000D02*
X99622000Y-106194000D01*
X102572000Y-97594000D02*
X102572000Y-101894000D01*
X102572000Y-106194000D02*
X102572000Y-101894000D01*
X103332000Y-96834000D02*
X97362000Y-96834000D01*
X103332000Y-106954000D02*
X103332000Y-96834000D01*
%TO.C,C2*%
X113695600Y-61860800D02*
X113695600Y-61845800D01*
X113695600Y-63985800D02*
X113695600Y-63970800D01*
X118235600Y-61845800D02*
X113695600Y-61845800D01*
X118235600Y-61860800D02*
X118235600Y-61845800D01*
X118235600Y-63985800D02*
X113695600Y-63985800D01*
X118235600Y-63985800D02*
X118235600Y-63970800D01*
%TO.C,F1*%
X92819000Y-71102000D02*
X92819000Y-75202000D01*
X92819000Y-71102000D02*
X104519000Y-71102000D01*
X92819000Y-75202000D02*
X104519000Y-75202000D01*
X104519000Y-71102000D02*
X104519000Y-75202000D01*
%TO.C,R1*%
X79275000Y-98330000D02*
X79605000Y-98330000D01*
X79275000Y-104870000D02*
X79275000Y-98330000D01*
X79605000Y-104870000D02*
X79275000Y-104870000D01*
X81685000Y-104870000D02*
X82015000Y-104870000D01*
X82015000Y-98330000D02*
X81685000Y-98330000D01*
X82015000Y-104870000D02*
X82015000Y-98330000D01*
%TO.C,SW1*%
X109982000Y-113792000D02*
X95758000Y-113792000D01*
X95758000Y-111760000D01*
X109982000Y-111760000D01*
X109982000Y-113792000D01*
%TO.C,U1*%
X93980000Y-63081200D02*
X149330000Y-63081200D01*
X149330000Y-90881200D01*
X93980000Y-90881200D01*
X93980000Y-63081200D01*
X97282000Y-79451200D02*
G75*
G02*
X95758000Y-79451200I-762000J0D01*
G01*
X95758000Y-79451200D02*
G75*
G02*
X97282000Y-79451200I762000J0D01*
G01*
X97282000Y-81991200D02*
G75*
G02*
X95758000Y-81991200I-762000J0D01*
G01*
X95758000Y-81991200D02*
G75*
G02*
X97282000Y-81991200I762000J0D01*
G01*
X97282000Y-84531200D02*
G75*
G02*
X95758000Y-84531200I-762000J0D01*
G01*
X95758000Y-84531200D02*
G75*
G02*
X97282000Y-84531200I762000J0D01*
G01*
X97282000Y-87071200D02*
G75*
G02*
X95758000Y-87071200I-762000J0D01*
G01*
X95758000Y-87071200D02*
G75*
G02*
X97282000Y-87071200I762000J0D01*
G01*
X97282000Y-89611200D02*
G75*
G02*
X95758000Y-89611200I-762000J0D01*
G01*
X95758000Y-89611200D02*
G75*
G02*
X97282000Y-89611200I762000J0D01*
G01*
X99822000Y-79451200D02*
G75*
G02*
X98298000Y-79451200I-762000J0D01*
G01*
X98298000Y-79451200D02*
G75*
G02*
X99822000Y-79451200I762000J0D01*
G01*
X99822000Y-81991200D02*
G75*
G02*
X98298000Y-81991200I-762000J0D01*
G01*
X98298000Y-81991200D02*
G75*
G02*
X99822000Y-81991200I762000J0D01*
G01*
X99822000Y-84531200D02*
G75*
G02*
X98298000Y-84531200I-762000J0D01*
G01*
X98298000Y-84531200D02*
G75*
G02*
X99822000Y-84531200I762000J0D01*
G01*
X99822000Y-87071200D02*
G75*
G02*
X98298000Y-87071200I-762000J0D01*
G01*
X98298000Y-87071200D02*
G75*
G02*
X99822000Y-87071200I762000J0D01*
G01*
X99822000Y-89611200D02*
G75*
G02*
X98298000Y-89611200I-762000J0D01*
G01*
X98298000Y-89611200D02*
G75*
G02*
X99822000Y-89611200I762000J0D01*
G01*
X133902000Y-72311200D02*
G75*
G02*
X132378000Y-72311200I-762000J0D01*
G01*
X132378000Y-72311200D02*
G75*
G02*
X133902000Y-72311200I762000J0D01*
G01*
X133902000Y-74851200D02*
G75*
G02*
X132378000Y-74851200I-762000J0D01*
G01*
X132378000Y-74851200D02*
G75*
G02*
X133902000Y-74851200I762000J0D01*
G01*
X133902000Y-77391200D02*
G75*
G02*
X132378000Y-77391200I-762000J0D01*
G01*
X132378000Y-77391200D02*
G75*
G02*
X133902000Y-77391200I762000J0D01*
G01*
X133902000Y-79931200D02*
G75*
G02*
X132378000Y-79931200I-762000J0D01*
G01*
X132378000Y-79931200D02*
G75*
G02*
X133902000Y-79931200I762000J0D01*
G01*
X136442000Y-73581200D02*
G75*
G02*
X134918000Y-73581200I-762000J0D01*
G01*
X134918000Y-73581200D02*
G75*
G02*
X136442000Y-73581200I762000J0D01*
G01*
X136442000Y-76121200D02*
G75*
G02*
X134918000Y-76121200I-762000J0D01*
G01*
X134918000Y-76121200D02*
G75*
G02*
X136442000Y-76121200I762000J0D01*
G01*
X136442000Y-78661200D02*
G75*
G02*
X134918000Y-78661200I-762000J0D01*
G01*
X134918000Y-78661200D02*
G75*
G02*
X136442000Y-78661200I762000J0D01*
G01*
X136442000Y-81201200D02*
G75*
G02*
X134918000Y-81201200I-762000J0D01*
G01*
X134918000Y-81201200D02*
G75*
G02*
X136442000Y-81201200I762000J0D01*
G01*
%TO.C,J19*%
X131512000Y-78613000D02*
X131512000Y-70933000D01*
X131512000Y-81213000D02*
X131512000Y-79883000D01*
X132842000Y-81213000D02*
X131512000Y-81213000D01*
X134172000Y-70933000D02*
X131512000Y-70933000D01*
X134172000Y-78613000D02*
X131512000Y-78613000D01*
X134172000Y-78613000D02*
X134172000Y-70933000D01*
%TO.C,J12*%
X65472000Y-89709000D02*
X77192000Y-89709000D01*
X65472000Y-93519000D02*
X65472000Y-89709000D01*
X65472000Y-93519000D02*
X65472000Y-97329000D01*
X65472000Y-97329000D02*
X77192000Y-97329000D01*
X66082000Y-92019000D02*
X66082000Y-92519000D01*
X66082000Y-92519000D02*
X71582000Y-92519000D01*
X66082000Y-94519000D02*
X66082000Y-95019000D01*
X66082000Y-95019000D02*
X71582000Y-95019000D01*
X71582000Y-92019000D02*
X66082000Y-92019000D01*
X71582000Y-92519000D02*
X71582000Y-92019000D01*
X71582000Y-94519000D02*
X66082000Y-94519000D01*
X71582000Y-95019000D02*
X71582000Y-94519000D01*
X72692000Y-91129000D02*
X72692000Y-93519000D01*
X72692000Y-95909000D02*
X72692000Y-93519000D01*
X76282000Y-92269000D02*
X76882000Y-91969000D01*
X76882000Y-91969000D02*
X76882000Y-92569000D01*
X76882000Y-92569000D02*
X76282000Y-92269000D01*
X77192000Y-89709000D02*
X77192000Y-91129000D01*
X77192000Y-91129000D02*
X72692000Y-91129000D01*
X77192000Y-95909000D02*
X72692000Y-95909000D01*
X77192000Y-97329000D02*
X77192000Y-95909000D01*
%TO.C,A1*%
X121790000Y-90040000D02*
X121790000Y-108080000D01*
X121790000Y-108080000D02*
X124460000Y-108080000D01*
X124460000Y-92710000D02*
X124460000Y-90040000D01*
X124460000Y-92710000D02*
X162560000Y-92710000D01*
X124460000Y-105410000D02*
X124460000Y-108080000D01*
X127000000Y-105410000D02*
X124460000Y-105410000D01*
X127000000Y-105410000D02*
X127000000Y-108080000D01*
X127000000Y-105410000D02*
X162560000Y-105410000D01*
X127000000Y-108080000D02*
X165230000Y-108080000D01*
X157350000Y-95120000D02*
X167770000Y-95120000D01*
X157350000Y-103000000D02*
X157350000Y-95120000D01*
X162560000Y-92710000D02*
X162560000Y-90040000D01*
X162560000Y-105410000D02*
X162560000Y-108080000D01*
X165230000Y-90040000D02*
X121790000Y-90040000D01*
X165230000Y-90040000D02*
X165230000Y-95120000D01*
X165230000Y-108080000D02*
X165230000Y-103000000D01*
X167770000Y-95120000D02*
X167770000Y-103000000D01*
X167770000Y-103000000D02*
X157350000Y-103000000D01*
%TO.C,C4*%
X79448000Y-90012000D02*
X79463000Y-90012000D01*
X79448000Y-94552000D02*
X79448000Y-90012000D01*
X79448000Y-94552000D02*
X79463000Y-94552000D01*
X81573000Y-90012000D02*
X81588000Y-90012000D01*
X81573000Y-94552000D02*
X81588000Y-94552000D01*
X81588000Y-94552000D02*
X81588000Y-90012000D01*
%TO.C,J3*%
X102149600Y-90160800D02*
X117509600Y-90160800D01*
X102149600Y-92760800D02*
X102149600Y-90160800D01*
X102149600Y-95360800D02*
X102149600Y-94030800D01*
X103479600Y-95360800D02*
X102149600Y-95360800D01*
X104749600Y-92760800D02*
X102149600Y-92760800D01*
X104749600Y-95360800D02*
X104749600Y-92760800D01*
X104749600Y-95360800D02*
X117509600Y-95360800D01*
X117509600Y-95360800D02*
X117509600Y-90160800D01*
%TO.C,J9*%
X89706000Y-105994000D02*
X89706000Y-107244000D01*
X89706000Y-107244000D02*
X90956000Y-107244000D01*
X89996000Y-96834000D02*
X89996000Y-106954000D01*
X89996000Y-106954000D02*
X95966000Y-106954000D01*
X90006000Y-96844000D02*
X90006000Y-98644000D01*
X90006000Y-98644000D02*
X90756000Y-98644000D01*
X90006000Y-100144000D02*
X90006000Y-103644000D01*
X90006000Y-103644000D02*
X90756000Y-103644000D01*
X90006000Y-105144000D02*
X90006000Y-106944000D01*
X90006000Y-106944000D02*
X90756000Y-106944000D01*
X90756000Y-96844000D02*
X90006000Y-96844000D01*
X90756000Y-98644000D02*
X90756000Y-96844000D01*
X90756000Y-100144000D02*
X90006000Y-100144000D01*
X90756000Y-103644000D02*
X90756000Y-100144000D01*
X90756000Y-105144000D02*
X90006000Y-105144000D01*
X90756000Y-106944000D02*
X90756000Y-105144000D01*
X92256000Y-96844000D02*
X92256000Y-97594000D01*
X92256000Y-97594000D02*
X95206000Y-97594000D01*
X92256000Y-106194000D02*
X95206000Y-106194000D01*
X92256000Y-106944000D02*
X92256000Y-106194000D01*
X95206000Y-97594000D02*
X95206000Y-101894000D01*
X95206000Y-106194000D02*
X95206000Y-101894000D01*
X95966000Y-96834000D02*
X89996000Y-96834000D01*
X95966000Y-106954000D02*
X95966000Y-96834000D01*
%TO.C,J4*%
X65620000Y-64242000D02*
X77340000Y-64242000D01*
X65620000Y-70552000D02*
X65620000Y-64242000D01*
X65620000Y-70552000D02*
X65620000Y-76862000D01*
X65620000Y-76862000D02*
X77340000Y-76862000D01*
X66230000Y-66552000D02*
X66230000Y-67052000D01*
X66230000Y-67052000D02*
X71730000Y-67052000D01*
X66230000Y-69052000D02*
X66230000Y-69552000D01*
X66230000Y-69552000D02*
X71730000Y-69552000D01*
X66230000Y-71552000D02*
X66230000Y-72052000D01*
X66230000Y-72052000D02*
X71730000Y-72052000D01*
X66230000Y-74052000D02*
X66230000Y-74552000D01*
X66230000Y-74552000D02*
X71730000Y-74552000D01*
X71730000Y-66552000D02*
X66230000Y-66552000D01*
X71730000Y-67052000D02*
X71730000Y-66552000D01*
X71730000Y-69052000D02*
X66230000Y-69052000D01*
X71730000Y-69552000D02*
X71730000Y-69052000D01*
X71730000Y-71552000D02*
X66230000Y-71552000D01*
X71730000Y-72052000D02*
X71730000Y-71552000D01*
X71730000Y-74052000D02*
X66230000Y-74052000D01*
X71730000Y-74552000D02*
X71730000Y-74052000D01*
X72840000Y-65662000D02*
X72840000Y-70552000D01*
X72840000Y-75442000D02*
X72840000Y-70552000D01*
X76430000Y-66802000D02*
X77030000Y-66502000D01*
X77030000Y-66502000D02*
X77030000Y-67102000D01*
X77030000Y-67102000D02*
X76430000Y-66802000D01*
X77340000Y-64242000D02*
X77340000Y-65662000D01*
X77340000Y-65662000D02*
X72840000Y-65662000D01*
X77340000Y-75442000D02*
X72840000Y-75442000D01*
X77340000Y-76862000D02*
X77340000Y-75442000D01*
%TO.C,U2*%
X123422000Y-60430000D02*
X123422000Y-60700000D01*
X123422000Y-67330000D02*
X123422000Y-67060000D01*
X129842000Y-60430000D02*
X123422000Y-60430000D01*
X129842000Y-67330000D02*
X123422000Y-67330000D01*
X121692000Y-60740000D02*
X121352000Y-60270000D01*
X122032000Y-60270000D01*
X121692000Y-60740000D01*
G36*
X121692000Y-60740000D02*
G01*
X121352000Y-60270000D01*
X122032000Y-60270000D01*
X121692000Y-60740000D01*
G37*
%TO.C,C5*%
X133169000Y-61905000D02*
X133169000Y-66445000D01*
X133184000Y-61905000D02*
X133169000Y-61905000D01*
X133184000Y-66445000D02*
X133169000Y-66445000D01*
X135309000Y-61905000D02*
X135294000Y-61905000D01*
X135309000Y-61905000D02*
X135309000Y-66445000D01*
X135309000Y-66445000D02*
X135294000Y-66445000D01*
%TO.C,R2*%
X104700400Y-101378000D02*
X104700400Y-107918000D01*
X104700400Y-107918000D02*
X105030400Y-107918000D01*
X105030400Y-101378000D02*
X104700400Y-101378000D01*
X107110400Y-101378000D02*
X107440400Y-101378000D01*
X107440400Y-101378000D02*
X107440400Y-107918000D01*
X107440400Y-107918000D02*
X107110400Y-107918000D01*
%TO.C,D3*%
X84382000Y-86434000D02*
X84382000Y-91874000D01*
X84382000Y-91874000D02*
X87322000Y-91874000D01*
X85852000Y-85414000D02*
X85852000Y-86434000D01*
X85852000Y-92894000D02*
X85852000Y-91874000D01*
X87322000Y-86434000D02*
X84382000Y-86434000D01*
X87322000Y-87214000D02*
X84382000Y-87214000D01*
X87322000Y-87334000D02*
X84382000Y-87334000D01*
X87322000Y-87454000D02*
X84382000Y-87454000D01*
X87322000Y-91874000D02*
X87322000Y-86434000D01*
D12*
%TO.C,R3*%
X104349000Y-75788000D02*
X108249000Y-75788000D01*
X104349000Y-87788000D02*
X104349000Y-75788000D01*
X104349000Y-87788000D02*
X108249000Y-87788000D01*
X108249000Y-87788000D02*
X108249000Y-75788000D01*
D11*
%TO.C,FL1*%
X81280000Y-69850000D02*
X81280000Y-72898000D01*
X81280000Y-72898000D02*
X89662000Y-72898000D01*
X89662000Y-69850000D02*
X81280000Y-69850000D01*
X89662000Y-72898000D02*
X89662000Y-69850000D01*
%TO.C,C3*%
X113721000Y-65061200D02*
X113721000Y-65046200D01*
X113721000Y-67186200D02*
X113721000Y-67171200D01*
X118261000Y-65046200D02*
X113721000Y-65046200D01*
X118261000Y-65061200D02*
X118261000Y-65046200D01*
X118261000Y-67186200D02*
X113721000Y-67186200D01*
X118261000Y-67186200D02*
X118261000Y-67171200D01*
%TO.C,D2*%
X73694000Y-103414000D02*
X73850000Y-103414000D01*
X76010000Y-103414000D02*
X76166000Y-103414000D01*
X73694484Y-103414000D02*
G75*
G02*
X73849939Y-100182603I1235516J1560000D01*
G01*
X73850000Y-102894961D02*
G75*
G02*
X73849951Y-100813090I1080000J1040961D01*
G01*
X76010049Y-100813090D02*
G75*
G02*
X76010000Y-102894961I-1080049J-1040910D01*
G01*
X76010061Y-100182603D02*
G75*
G02*
X76165516Y-103414000I-1080061J-1671397D01*
G01*
%TO.C,D1*%
X106284000Y-73121000D02*
X110124000Y-73121000D01*
X106284000Y-74961000D02*
X110124000Y-74961000D01*
%TO.C,J14*%
X95190000Y-88392000D02*
X95190000Y-78172000D01*
X95190000Y-90992000D02*
X95190000Y-89662000D01*
X96520000Y-90992000D02*
X95190000Y-90992000D01*
X97850000Y-78172000D02*
X95190000Y-78172000D01*
X97850000Y-88392000D02*
X95190000Y-88392000D01*
X97850000Y-88392000D02*
X97850000Y-78172000D01*
%TO.C,J5*%
X65599000Y-78319000D02*
X77319000Y-78319000D01*
X65599000Y-83379000D02*
X65599000Y-78319000D01*
X65599000Y-83379000D02*
X65599000Y-88439000D01*
X65599000Y-88439000D02*
X77319000Y-88439000D01*
X66209000Y-80629000D02*
X66209000Y-81129000D01*
X66209000Y-81129000D02*
X71709000Y-81129000D01*
X66209000Y-83129000D02*
X66209000Y-83629000D01*
X66209000Y-83629000D02*
X71709000Y-83629000D01*
X66209000Y-85629000D02*
X66209000Y-86129000D01*
X66209000Y-86129000D02*
X71709000Y-86129000D01*
X71709000Y-80629000D02*
X66209000Y-80629000D01*
X71709000Y-81129000D02*
X71709000Y-80629000D01*
X71709000Y-83129000D02*
X66209000Y-83129000D01*
X71709000Y-83629000D02*
X71709000Y-83129000D01*
X71709000Y-85629000D02*
X66209000Y-85629000D01*
X71709000Y-86129000D02*
X71709000Y-85629000D01*
X72819000Y-79739000D02*
X72819000Y-83379000D01*
X72819000Y-87019000D02*
X72819000Y-83379000D01*
X76409000Y-80879000D02*
X77009000Y-80579000D01*
X77009000Y-80579000D02*
X77009000Y-81179000D01*
X77009000Y-81179000D02*
X76409000Y-80879000D01*
X77319000Y-78319000D02*
X77319000Y-79739000D01*
X77319000Y-79739000D02*
X72819000Y-79739000D01*
X77319000Y-87019000D02*
X72819000Y-87019000D01*
X77319000Y-88439000D02*
X77319000Y-87019000D01*
%TO.C,C6*%
X88281000Y-63700000D02*
X88281000Y-63715000D01*
X88281000Y-63700000D02*
X92821000Y-63700000D01*
X88281000Y-65825000D02*
X88281000Y-65840000D01*
X88281000Y-65840000D02*
X92821000Y-65840000D01*
X92821000Y-63700000D02*
X92821000Y-63715000D01*
X92821000Y-65825000D02*
X92821000Y-65840000D01*
%TO.C,C1*%
X110976400Y-65090800D02*
G75*
G02*
X105736400Y-65090800I-2620000J0D01*
G01*
X105736400Y-65090800D02*
G75*
G02*
X110976400Y-65090800I2620000J0D01*
G01*
%TD*%
M02*
