%TF.GenerationSoftware,KiCad,Pcbnew,8.0.9-8.0.9-0~ubuntu22.04.1*%
%TF.CreationDate,2025-03-09T15:02:26+09:00*%
%TF.ProjectId,M302N,4d333032-4e2e-46b6-9963-61645f706362,rev?*%
%TF.SameCoordinates,Original*%
%TF.FileFunction,Copper,L1,Top*%
%TF.FilePolarity,Positive*%
%FSLAX46Y46*%
G04 Gerber Fmt 4.6, Leading zero omitted, Abs format (unit mm)*
G04 Created by KiCad (PCBNEW 8.0.9-8.0.9-0~ubuntu22.04.1) date 2025-03-09 15:02:26*
%MOMM*%
%LPD*%
G01*
G04 APERTURE LIST*
G04 Aperture macros list*
%AMRoundRect*
0 Rectangle with rounded corners*
0 $1 Rounding radius*
0 $2 $3 $4 $5 $6 $7 $8 $9 X,Y pos of 4 corners*
0 Add a 4 corners polygon primitive as box body*
4,1,4,$2,$3,$4,$5,$6,$7,$8,$9,$2,$3,0*
0 Add four circle primitives for the rounded corners*
1,1,$1+$1,$2,$3*
1,1,$1+$1,$4,$5*
1,1,$1+$1,$6,$7*
1,1,$1+$1,$8,$9*
0 Add four rect primitives between the rounded corners*
20,1,$1+$1,$2,$3,$4,$5,0*
20,1,$1+$1,$4,$5,$6,$7,0*
20,1,$1+$1,$6,$7,$8,$9,0*
20,1,$1+$1,$8,$9,$2,$3,0*%
G04 Aperture macros list end*
%TA.AperFunction,ComponentPad*%
%ADD10R,1.700000X1.700000*%
%TD*%
%TA.AperFunction,ComponentPad*%
%ADD11O,1.700000X1.700000*%
%TD*%
%TA.AperFunction,ComponentPad*%
%ADD12O,2.000000X1.000000*%
%TD*%
%TA.AperFunction,ComponentPad*%
%ADD13R,1.600000X1.600000*%
%TD*%
%TA.AperFunction,ComponentPad*%
%ADD14C,1.600000*%
%TD*%
%TA.AperFunction,ComponentPad*%
%ADD15RoundRect,0.250000X0.725000X-0.600000X0.725000X0.600000X-0.725000X0.600000X-0.725000X-0.600000X0*%
%TD*%
%TA.AperFunction,ComponentPad*%
%ADD16O,1.950000X1.700000*%
%TD*%
%TA.AperFunction,ComponentPad*%
%ADD17C,1.400000*%
%TD*%
%TA.AperFunction,ComponentPad*%
%ADD18O,1.600000X1.600000*%
%TD*%
%TA.AperFunction,ComponentPad*%
%ADD19C,5.400000*%
%TD*%
%TA.AperFunction,ComponentPad*%
%ADD20C,1.524000*%
%TD*%
%TA.AperFunction,ComponentPad*%
%ADD21C,1.200000*%
%TD*%
%TA.AperFunction,ComponentPad*%
%ADD22RoundRect,0.250000X-0.750000X0.600000X-0.750000X-0.600000X0.750000X-0.600000X0.750000X0.600000X0*%
%TD*%
%TA.AperFunction,ComponentPad*%
%ADD23O,2.000000X1.700000*%
%TD*%
%TA.AperFunction,ComponentPad*%
%ADD24RoundRect,0.250000X-0.725000X0.600000X-0.725000X-0.600000X0.725000X-0.600000X0.725000X0.600000X0*%
%TD*%
%TA.AperFunction,SMDPad,CuDef*%
%ADD25RoundRect,0.250000X-0.850000X-0.350000X0.850000X-0.350000X0.850000X0.350000X-0.850000X0.350000X0*%
%TD*%
%TA.AperFunction,SMDPad,CuDef*%
%ADD26RoundRect,0.250000X-1.275000X-1.125000X1.275000X-1.125000X1.275000X1.125000X-1.275000X1.125000X0*%
%TD*%
%TA.AperFunction,SMDPad,CuDef*%
%ADD27RoundRect,0.249997X-2.950003X-2.650003X2.950003X-2.650003X2.950003X2.650003X-2.950003X2.650003X0*%
%TD*%
%TA.AperFunction,ComponentPad*%
%ADD28R,2.200000X2.200000*%
%TD*%
%TA.AperFunction,ComponentPad*%
%ADD29O,2.200000X2.200000*%
%TD*%
%TA.AperFunction,ComponentPad*%
%ADD30C,1.800000*%
%TD*%
%TA.AperFunction,ComponentPad*%
%ADD31R,1.800000X1.800000*%
%TD*%
%TA.AperFunction,ComponentPad*%
%ADD32O,1.400000X1.400000*%
%TD*%
%TA.AperFunction,ComponentPad*%
%ADD33R,2.000000X4.600000*%
%TD*%
%TA.AperFunction,ComponentPad*%
%ADD34O,2.000000X4.200000*%
%TD*%
%TA.AperFunction,ComponentPad*%
%ADD35O,4.200000X2.000000*%
%TD*%
%TA.AperFunction,ViaPad*%
%ADD36C,0.600000*%
%TD*%
%TA.AperFunction,ViaPad*%
%ADD37C,1.000000*%
%TD*%
%TA.AperFunction,Conductor*%
%ADD38C,0.250000*%
%TD*%
%TA.AperFunction,Conductor*%
%ADD39C,1.000000*%
%TD*%
%TA.AperFunction,Conductor*%
%ADD40C,2.000000*%
%TD*%
G04 APERTURE END LIST*
D10*
%TO.P,J18,1,Pin_1*%
%TO.N,Net-(J18-Pin_1)*%
X135680000Y-81229200D03*
D11*
%TO.P,J18,2,Pin_2*%
%TO.N,Net-(J18-Pin_2)*%
X135680000Y-78689200D03*
%TO.P,J18,3,Pin_3*%
%TO.N,unconnected-(J18-Pin_3-Pad3)*%
X135680000Y-76149200D03*
%TO.P,J18,4,Pin_4*%
%TO.N,unconnected-(J18-Pin_4-Pad4)*%
X135680000Y-73609200D03*
%TD*%
D10*
%TO.P,J13,1,Pin_1*%
%TO.N,unconnected-(J13-Pin_1-Pad1)*%
X99060000Y-89662000D03*
D11*
%TO.P,J13,2,Pin_2*%
%TO.N,/D12{slash}MISO*%
X99060000Y-87122000D03*
%TO.P,J13,3,Pin_3*%
%TO.N,/\u002AD11{slash}MOSI*%
X99060000Y-84582000D03*
%TO.P,J13,4,Pin_4*%
%TO.N,/\u002AD10{slash}SS*%
X99060000Y-82042000D03*
%TO.P,J13,5,Pin_5*%
%TO.N,Net-(A1-D13)*%
X99060000Y-79502000D03*
%TD*%
D12*
%TO.P,J11,*%
%TO.N,*%
X116064000Y-86577000D03*
X116064000Y-70327000D03*
D13*
%TO.P,J11,1*%
%TO.N,Net-(J18-Pin_1)*%
X116064000Y-74372000D03*
D14*
%TO.P,J11,2*%
%TO.N,Net-(J19-Pin_1)*%
X118604000Y-75392000D03*
%TO.P,J11,3*%
%TO.N,Net-(J18-Pin_2)*%
X116064000Y-76412000D03*
%TO.P,J11,4*%
%TO.N,Net-(D1-A)*%
X118604000Y-77432000D03*
%TO.P,J11,5*%
X116064000Y-78452000D03*
%TO.P,J11,6*%
%TO.N,Net-(J19-Pin_3)*%
X118604000Y-79472000D03*
%TO.P,J11,7*%
%TO.N,Net-(J1-Pad2)*%
X116064000Y-80492000D03*
%TO.P,J11,8*%
X118604000Y-81512000D03*
%TD*%
D15*
%TO.P,J8,1,Pin_1*%
%TO.N,GND*%
X84836000Y-104394000D03*
D16*
%TO.P,J8,2,Pin_2*%
%TO.N,Net-(A1-A2)*%
X84836000Y-101894000D03*
%TO.P,J8,3,Pin_3*%
%TO.N,+5V*%
X84836000Y-99394000D03*
%TD*%
D15*
%TO.P,J10,1,Pin_1*%
%TO.N,GND*%
X99822000Y-104394000D03*
D16*
%TO.P,J10,2,Pin_2*%
%TO.N,Net-(A1-A0)*%
X99822000Y-101894000D03*
%TO.P,J10,3,Pin_3*%
%TO.N,+5V*%
X99822000Y-99394000D03*
%TD*%
D14*
%TO.P,C2,1*%
%TO.N,Net-(U2-Vin)*%
X118465600Y-62915800D03*
%TO.P,C2,2*%
%TO.N,GND*%
X113465600Y-62915800D03*
%TD*%
D17*
%TO.P,F1,1*%
%TO.N,Net-(D3-K)*%
X96119000Y-72252000D03*
%TO.P,F1,2*%
%TO.N,/+12V*%
X101219000Y-74052000D03*
%TD*%
D14*
%TO.P,R1,1*%
%TO.N,Net-(D2-K)*%
X80645000Y-105410000D03*
D18*
%TO.P,R1,2*%
%TO.N,GND*%
X80645000Y-97790000D03*
%TD*%
D19*
%TO.P,REF\u002A\u002A,1*%
%TO.N,GND*%
X75565000Y-109855000D03*
%TD*%
D20*
%TO.P,SW1,1,1*%
%TO.N,GND*%
X93980000Y-112776000D03*
D21*
%TO.P,SW1,2,2*%
%TO.N,/~{RESET}*%
X111760000Y-112776000D03*
%TD*%
D10*
%TO.P,J19,1,Pin_1*%
%TO.N,Net-(J19-Pin_1)*%
X133140000Y-79883000D03*
D11*
%TO.P,J19,2,Pin_2*%
%TO.N,unconnected-(J19-Pin_2-Pad2)*%
X133140000Y-77343000D03*
%TO.P,J19,3,Pin_3*%
%TO.N,Net-(J19-Pin_3)*%
X133140000Y-74803000D03*
%TO.P,J19,4,Pin_4*%
%TO.N,unconnected-(J19-Pin_4-Pad4)*%
X133140000Y-72263000D03*
%TD*%
D22*
%TO.P,J12,1,Pin_1*%
%TO.N,GND*%
X74782000Y-92269000D03*
D23*
%TO.P,J12,2,Pin_2*%
%TO.N,Net-(D3-K)*%
X74782000Y-94769000D03*
%TD*%
D13*
%TO.P,A1,1,D1/TX*%
%TO.N,Net-(A1-D1{slash}TX)*%
X125730000Y-106680000D03*
D18*
%TO.P,A1,2,D0/RX*%
%TO.N,Net-(A1-D0{slash}RX)*%
X128270000Y-106680000D03*
%TO.P,A1,3,~{RESET}*%
%TO.N,/~{RESET}*%
X130810000Y-106680000D03*
%TO.P,A1,4,GND*%
%TO.N,GND*%
X133350000Y-106680000D03*
%TO.P,A1,5,D2*%
%TO.N,unconnected-(A1-D2-Pad5)*%
X135890000Y-106680000D03*
%TO.P,A1,6,D3*%
%TO.N,/\u002AD3*%
X138430000Y-106680000D03*
%TO.P,A1,7,D4*%
%TO.N,Net-(A1-D4)*%
X140970000Y-106680000D03*
%TO.P,A1,8,D5*%
%TO.N,Net-(A1-D5)*%
X143510000Y-106680000D03*
%TO.P,A1,9,D6*%
%TO.N,Net-(A1-D6)*%
X146050000Y-106680000D03*
%TO.P,A1,10,D7*%
%TO.N,Net-(A1-D7)*%
X148590000Y-106680000D03*
%TO.P,A1,11,D8*%
%TO.N,Net-(A1-D8)*%
X151130000Y-106680000D03*
%TO.P,A1,12,D9*%
%TO.N,Net-(A1-D9)*%
X153670000Y-106680000D03*
%TO.P,A1,13,D10*%
%TO.N,/\u002AD10{slash}SS*%
X156210000Y-106680000D03*
%TO.P,A1,14,D11*%
%TO.N,/\u002AD11{slash}MOSI*%
X158750000Y-106680000D03*
%TO.P,A1,15,D12*%
%TO.N,/D12{slash}MISO*%
X161290000Y-106680000D03*
%TO.P,A1,16,D13*%
%TO.N,Net-(A1-D13)*%
X161290000Y-91440000D03*
%TO.P,A1,17,3V3*%
%TO.N,unconnected-(A1-3V3-Pad17)*%
X158750000Y-91440000D03*
%TO.P,A1,18,AREF*%
%TO.N,unconnected-(A1-AREF-Pad18)*%
X156210000Y-91440000D03*
%TO.P,A1,19,A0*%
%TO.N,Net-(A1-A0)*%
X153670000Y-91440000D03*
%TO.P,A1,20,A1*%
%TO.N,Net-(A1-A1)*%
X151130000Y-91440000D03*
%TO.P,A1,21,A2*%
%TO.N,Net-(A1-A2)*%
X148590000Y-91440000D03*
%TO.P,A1,22,A3*%
%TO.N,Net-(A1-A3)*%
X146050000Y-91440000D03*
%TO.P,A1,23,A4*%
%TO.N,/A4{slash}SDA*%
X143510000Y-91440000D03*
%TO.P,A1,24,A5*%
%TO.N,/A5{slash}SCL*%
X140970000Y-91440000D03*
%TO.P,A1,25,A6*%
%TO.N,unconnected-(A1-A6-Pad25)*%
X138430000Y-91440000D03*
%TO.P,A1,26,A7*%
%TO.N,Net-(A1-A7)*%
X135890000Y-91440000D03*
%TO.P,A1,27,+5V*%
%TO.N,+5V*%
X133350000Y-91440000D03*
%TO.P,A1,28,~{RESET}*%
%TO.N,/~{RESET}*%
X130810000Y-91440000D03*
%TO.P,A1,29,GND*%
%TO.N,GND*%
X128270000Y-91440000D03*
%TO.P,A1,30,VIN*%
%TO.N,unconnected-(A1-VIN-Pad30)*%
X125730000Y-91440000D03*
%TD*%
D14*
%TO.P,C4,1*%
%TO.N,Net-(D3-K)*%
X80518000Y-94782000D03*
%TO.P,C4,2*%
%TO.N,GND*%
X80518000Y-89782000D03*
%TD*%
D19*
%TO.P,REF\u002A\u002A,1*%
%TO.N,GND*%
X81280000Y-62865000D03*
%TD*%
D10*
%TO.P,J3,1,Pin_1*%
%TO.N,Net-(A1-D9)*%
X103479600Y-94030800D03*
D11*
%TO.P,J3,2,Pin_2*%
%TO.N,GND*%
X103479600Y-91490800D03*
%TO.P,J3,3,Pin_3*%
%TO.N,Net-(A1-D8)*%
X106019600Y-94030800D03*
%TO.P,J3,4,Pin_4*%
%TO.N,GND*%
X106019600Y-91490800D03*
%TO.P,J3,5,Pin_5*%
%TO.N,Net-(A1-D7)*%
X108559600Y-94030800D03*
%TO.P,J3,6,Pin_6*%
%TO.N,GND*%
X108559600Y-91490800D03*
%TO.P,J3,7,Pin_7*%
%TO.N,Net-(A1-D6)*%
X111099600Y-94030800D03*
%TO.P,J3,8,Pin_8*%
%TO.N,GND*%
X111099600Y-91490800D03*
%TO.P,J3,9,Pin_9*%
%TO.N,Net-(A1-D5)*%
X113639600Y-94030800D03*
%TO.P,J3,10,Pin_10*%
%TO.N,GND*%
X113639600Y-91490800D03*
%TO.P,J3,11,Pin_11*%
%TO.N,Net-(A1-D4)*%
X116179600Y-94030800D03*
%TO.P,J3,12,Pin_12*%
%TO.N,GND*%
X116179600Y-91490800D03*
%TD*%
D15*
%TO.P,J9,1,Pin_1*%
%TO.N,GND*%
X92456000Y-104394000D03*
D16*
%TO.P,J9,2,Pin_2*%
%TO.N,Net-(A1-A1)*%
X92456000Y-101894000D03*
%TO.P,J9,3,Pin_3*%
%TO.N,+5V*%
X92456000Y-99394000D03*
%TD*%
D24*
%TO.P,J4,1,Pin_1*%
%TO.N,GND*%
X74930000Y-66802000D03*
D16*
%TO.P,J4,2,Pin_2*%
%TO.N,+5V*%
X74930000Y-69302000D03*
%TO.P,J4,3,Pin_3*%
%TO.N,/A4{slash}SDA*%
X74930000Y-71802000D03*
%TO.P,J4,4,Pin_4*%
%TO.N,/A5{slash}SCL*%
X74930000Y-74302000D03*
%TD*%
D25*
%TO.P,U2,1,Vin*%
%TO.N,Net-(U2-Vin)*%
X121692000Y-61600000D03*
%TO.P,U2,2,GND*%
%TO.N,GND*%
X121692000Y-63880000D03*
D26*
X126317000Y-62355000D03*
X126317000Y-65405000D03*
D27*
X127992000Y-63880000D03*
D26*
X129667000Y-62355000D03*
X129667000Y-65405000D03*
D25*
%TO.P,U2,3,Vout*%
%TO.N,+5V*%
X121692000Y-66160000D03*
%TD*%
D14*
%TO.P,C5,1*%
%TO.N,Net-(U2-Vin)*%
X134239000Y-61675000D03*
%TO.P,C5,2*%
%TO.N,GND*%
X134239000Y-66675000D03*
%TD*%
%TO.P,R2,1*%
%TO.N,+5V*%
X106070400Y-100838000D03*
D18*
%TO.P,R2,2*%
%TO.N,/~{RESET}*%
X106070400Y-108458000D03*
%TD*%
D28*
%TO.P,D3,1,K*%
%TO.N,Net-(D3-K)*%
X85852000Y-84074000D03*
D29*
%TO.P,D3,2,A*%
%TO.N,GND*%
X85852000Y-94234000D03*
%TD*%
D30*
%TO.P,R3,1*%
%TO.N,Net-(J1-Pad2)*%
X105599000Y-85538000D03*
%TO.P,R3,2*%
%TO.N,Net-(D1-A)*%
X107000000Y-78038000D03*
%TD*%
D20*
%TO.P,FL1,1,1*%
%TO.N,Net-(U2-Vin)*%
X87884000Y-71374000D03*
%TO.P,FL1,2,2*%
%TO.N,GND*%
X85344000Y-71374000D03*
%TO.P,FL1,3,3*%
%TO.N,Net-(D3-K)*%
X82804000Y-71374000D03*
%TD*%
D14*
%TO.P,C3,1*%
%TO.N,+5V*%
X118491000Y-66116200D03*
%TO.P,C3,2*%
%TO.N,GND*%
X113491000Y-66116200D03*
%TD*%
D19*
%TO.P,REF\u002A\u002A,1*%
%TO.N,GND*%
X167005000Y-62865000D03*
%TD*%
D31*
%TO.P,D2,1,K*%
%TO.N,Net-(D2-K)*%
X74930000Y-103124000D03*
D30*
%TO.P,D2,2,A*%
%TO.N,/\u002AD3*%
X74930000Y-100584000D03*
%TD*%
D17*
%TO.P,D1,1,K*%
%TO.N,/+12V*%
X105664000Y-74041000D03*
D32*
%TO.P,D1,2,A*%
%TO.N,Net-(D1-A)*%
X110744000Y-74041000D03*
%TD*%
D10*
%TO.P,J14,1,Pin_1*%
%TO.N,+5V*%
X96520000Y-89662000D03*
D11*
%TO.P,J14,2,Pin_2*%
%TO.N,GND*%
X96520000Y-87122000D03*
%TO.P,J14,3,Pin_3*%
%TO.N,/~{RESET}*%
X96520000Y-84582000D03*
%TO.P,J14,4,Pin_4*%
%TO.N,unconnected-(J14-Pin_4-Pad4)*%
X96520000Y-82042000D03*
%TO.P,J14,5,Pin_5*%
%TO.N,unconnected-(J14-Pin_5-Pad5)*%
X96520000Y-79502000D03*
%TD*%
D24*
%TO.P,J5,1,Pin_1*%
%TO.N,GND*%
X74909000Y-80879000D03*
D16*
%TO.P,J5,2,Pin_2*%
%TO.N,Net-(A1-A7)*%
X74909000Y-83379000D03*
%TO.P,J5,3,Pin_3*%
%TO.N,+5V*%
X74909000Y-85879000D03*
%TD*%
D14*
%TO.P,C6,1*%
%TO.N,Net-(U2-Vin)*%
X88051000Y-64770000D03*
%TO.P,C6,2*%
%TO.N,GND*%
X93051000Y-64770000D03*
%TD*%
%TO.P,C1,1*%
%TO.N,+5V*%
X108356400Y-66090800D03*
%TO.P,C1,2*%
%TO.N,GND*%
X108356400Y-64090800D03*
%TD*%
D19*
%TO.P,REF\u002A\u002A,1*%
%TO.N,GND*%
X167005000Y-109855000D03*
%TD*%
D33*
%TO.P,J1,1*%
%TO.N,/+12V*%
X156260000Y-77343600D03*
D34*
%TO.P,J1,2*%
%TO.N,Net-(J1-Pad2)*%
X162560000Y-77343600D03*
D35*
%TO.P,J1,3*%
%TO.N,GND*%
X159160000Y-82143600D03*
%TD*%
D10*
%TO.P,J2,1,Pin_1*%
%TO.N,GND*%
X159054800Y-95834200D03*
D11*
%TO.P,J2,2,Pin_2*%
%TO.N,Net-(A1-D0{slash}RX)*%
X159054800Y-98374200D03*
%TO.P,J2,3,Pin_3*%
%TO.N,Net-(A1-D1{slash}TX)*%
X159054800Y-100914200D03*
%TD*%
D36*
%TO.N,Net-(A1-A0)*%
X153670000Y-102210000D03*
%TO.N,Net-(A1-A2)*%
X118570000Y-106792000D03*
X88736000Y-106770000D03*
X88736000Y-101894000D03*
X148590000Y-100254200D03*
X118570000Y-100254200D03*
%TO.N,Net-(A1-D13)*%
X161290000Y-93980000D03*
X101000000Y-79502000D03*
X155702000Y-94970000D03*
X155702000Y-97614200D03*
X101000000Y-97003000D03*
%TO.N,/~{RESET}*%
X111760000Y-108458000D03*
X130810000Y-112776000D03*
X94843600Y-108458000D03*
%TO.N,Net-(A1-A1)*%
X96353000Y-106132000D03*
X151130000Y-101562100D03*
X119230000Y-106132000D03*
X96353000Y-101894000D03*
X119230000Y-101562100D03*
%TO.N,/A5{slash}SCL*%
X89662000Y-76962000D03*
X89662000Y-110820000D03*
X142240000Y-110820000D03*
%TO.N,Net-(A1-D9)*%
X119890000Y-109500000D03*
X119890000Y-98270000D03*
X153670000Y-109500000D03*
%TO.N,Net-(A1-D4)*%
X123190000Y-102870000D03*
X123190000Y-94030800D03*
X140970000Y-102870000D03*
%TO.N,Net-(A1-D6)*%
X121870000Y-96290000D03*
X146050000Y-104140000D03*
X121870000Y-104140000D03*
%TO.N,/D12{slash}MISO*%
X123850000Y-89408000D03*
X155727000Y-98934200D03*
X123850000Y-98934200D03*
D37*
%TO.N,+5V*%
X92786200Y-68224400D03*
X96520000Y-99394000D03*
X92760800Y-89662000D03*
D36*
%TO.N,Net-(A1-D0{slash}RX)*%
X128270000Y-98274300D03*
%TO.N,GND*%
X126317000Y-65405000D03*
X121920000Y-63880000D03*
X130810000Y-65405000D03*
X129842000Y-63880000D03*
X124460000Y-63880000D03*
X126300000Y-63875000D03*
D37*
X133350000Y-112903000D03*
D36*
X129667000Y-65405000D03*
X127992000Y-63880000D03*
%TO.N,/A4{slash}SDA*%
X144780000Y-110160000D03*
X90424000Y-76200000D03*
X90424000Y-110160000D03*
%TO.N,Net-(A1-D8)*%
X151130000Y-108840000D03*
X120550000Y-108840000D03*
X120550000Y-97610000D03*
%TO.N,Net-(A1-D5)*%
X143510000Y-103505000D03*
X122530000Y-95630000D03*
X122530000Y-103505000D03*
%TO.N,/\u002AD11{slash}MOSI*%
X118110000Y-85725000D03*
X118110000Y-93370800D03*
X155067000Y-94030800D03*
%TO.N,Net-(A1-D7)*%
X121210000Y-96950000D03*
X148590000Y-104902000D03*
X121210000Y-104902000D03*
%TO.N,Net-(A1-A7)*%
X135890000Y-99594200D03*
X89027000Y-97663000D03*
X89027000Y-81407000D03*
%TO.N,/\u002AD10{slash}SS*%
X119000000Y-84328000D03*
X119000000Y-94970000D03*
X154330000Y-94970000D03*
%TO.N,Net-(A1-D1{slash}TX)*%
X125730000Y-100965000D03*
%TO.N,/\u002AD3*%
X88773000Y-108331000D03*
X88773000Y-111480000D03*
X138430000Y-111480000D03*
%TO.N,Net-(U2-Vin)*%
X121692000Y-61600000D03*
X120922000Y-61600000D03*
X122400000Y-61600000D03*
D37*
X89454532Y-61250000D03*
%TO.N,/+12V*%
X101219000Y-59550000D03*
%TO.N,Net-(J1-Pad2)*%
X123700000Y-81512000D03*
X162560000Y-86360000D03*
X105599000Y-80492000D03*
X123700000Y-86320000D03*
D36*
%TO.N,Net-(J19-Pin_1)*%
X126136000Y-75392000D03*
X126136000Y-81512000D03*
%TO.N,Net-(J18-Pin_1)*%
X125476000Y-73660000D03*
X125476000Y-82296000D03*
%TO.N,Net-(J19-Pin_3)*%
X130100000Y-74879200D03*
X130100000Y-79472000D03*
D37*
%TO.N,Net-(D3-K)*%
X82804000Y-74075000D03*
%TD*%
D38*
%TO.N,Net-(A1-A0)*%
X153670000Y-91440000D02*
X153670000Y-102210000D01*
%TO.N,Net-(A1-A2)*%
X148590000Y-91440000D02*
X148590000Y-100254200D01*
X118570000Y-106792000D02*
X118570000Y-100254200D01*
X88736000Y-101894000D02*
X88736000Y-106770000D01*
%TO.N,Net-(A1-D13)*%
X101000000Y-79502000D02*
X101000000Y-97003000D01*
X155702000Y-97614200D02*
X155702000Y-94996000D01*
X161290000Y-93980000D02*
X161290000Y-91440000D01*
%TO.N,/~{RESET}*%
X111760000Y-108458000D02*
X111760000Y-112141000D01*
X130810000Y-91440000D02*
X130810000Y-106680000D01*
X94843600Y-86258400D02*
X94843600Y-108458000D01*
X111752529Y-112141000D02*
X111760000Y-112776000D01*
X96520000Y-84582000D02*
X94843600Y-86258400D01*
X130810000Y-112776000D02*
X130810000Y-106680000D01*
%TO.N,Net-(A1-A1)*%
X151130000Y-91440000D02*
X151130000Y-101562100D01*
X96353000Y-101894000D02*
X96353000Y-106132000D01*
X119230000Y-106132000D02*
X119230000Y-101562100D01*
%TO.N,/A5{slash}SCL*%
X89662000Y-76962000D02*
X89662000Y-110785000D01*
X140970000Y-91440000D02*
X140970000Y-100203000D01*
X140970000Y-100203000D02*
X142240000Y-101727000D01*
X142240000Y-101727000D02*
X142240000Y-110820000D01*
%TO.N,Net-(A1-D9)*%
X119890000Y-98270000D02*
X119890000Y-109500000D01*
X153670000Y-109500000D02*
X153670000Y-106680000D01*
%TO.N,Net-(A1-D4)*%
X140970000Y-102870000D02*
X140970000Y-106680000D01*
X123190000Y-94030800D02*
X123190000Y-102870000D01*
%TO.N,Net-(A1-D6)*%
X121870000Y-96290000D02*
X121870000Y-104140000D01*
X146050000Y-106680000D02*
X146050000Y-104140000D01*
%TO.N,/D12{slash}MISO*%
X156718000Y-103378000D02*
X160782000Y-103378000D01*
X160782000Y-103378000D02*
X161290000Y-103886000D01*
X161290000Y-103886000D02*
X161290000Y-106680000D01*
X155727000Y-102210000D02*
X156718000Y-103378000D01*
X123850000Y-89408000D02*
X123850000Y-98933000D01*
X123850000Y-98933000D02*
X123850000Y-98934200D01*
X155727000Y-98934200D02*
X155727000Y-102210000D01*
D39*
%TO.N,+5V*%
X72120000Y-85328000D02*
X72120000Y-70120000D01*
X72671000Y-85879000D02*
X72120000Y-85328000D01*
X96520000Y-99394000D02*
X96520000Y-89662000D01*
X83312000Y-97870000D02*
X84836000Y-99394000D01*
X72938000Y-69302000D02*
X74930000Y-69302000D01*
X72120000Y-70120000D02*
X72938000Y-69302000D01*
X92760800Y-68224400D02*
X92760800Y-89662000D01*
X83185000Y-87630000D02*
X83312000Y-97870000D01*
D40*
X121648200Y-66116200D02*
X121692000Y-66160000D01*
D39*
X74909000Y-85879000D02*
X72671000Y-85879000D01*
D40*
X127762000Y-72230000D02*
X127762000Y-82042000D01*
D39*
X78767000Y-85879000D02*
X83185000Y-87630000D01*
D40*
X127762000Y-82042000D02*
X133350000Y-87630000D01*
D39*
X74909000Y-85879000D02*
X78767000Y-85879000D01*
D40*
X121692000Y-66160000D02*
X127762000Y-72230000D01*
X133350000Y-87630000D02*
X133350000Y-91440000D01*
X118491000Y-66116200D02*
X121648200Y-66116200D01*
D38*
%TO.N,Net-(A1-D0{slash}RX)*%
X128270000Y-106680000D02*
X128270000Y-98298000D01*
D39*
%TO.N,GND*%
X133350000Y-106680000D02*
X133350000Y-112903000D01*
X121920000Y-63880000D02*
X124460000Y-63880000D01*
D40*
X130810000Y-65405000D02*
X132969000Y-65405000D01*
D39*
X124460000Y-63880000D02*
X124792000Y-63880000D01*
X124792000Y-63880000D02*
X126317000Y-65405000D01*
D40*
X132969000Y-65405000D02*
X134239000Y-66675000D01*
D39*
X121692000Y-63880000D02*
X121920000Y-63880000D01*
D40*
X129667000Y-65405000D02*
X130810000Y-65405000D01*
D38*
%TO.N,/A4{slash}SDA*%
X143510000Y-100203000D02*
X144780000Y-101473000D01*
X144780000Y-101473000D02*
X144780000Y-110160000D01*
X90424000Y-76200000D02*
X90424000Y-109932000D01*
X143510000Y-91440000D02*
X143510000Y-100203000D01*
%TO.N,Net-(A1-D8)*%
X151130000Y-106680000D02*
X151130000Y-108840000D01*
X120550000Y-97610000D02*
X120550000Y-108839000D01*
%TO.N,Net-(A1-D5)*%
X122530000Y-103505000D02*
X122530000Y-95656400D01*
X143510000Y-106680000D02*
X143510000Y-103505000D01*
%TO.N,/\u002AD11{slash}MOSI*%
X156591000Y-104267000D02*
X155067000Y-102870000D01*
X158750000Y-104902000D02*
X158115000Y-104267000D01*
X158115000Y-104267000D02*
X156591000Y-104267000D01*
X158750000Y-106680000D02*
X158750000Y-104902000D01*
X155067000Y-102870000D02*
X155067000Y-94030800D01*
X118110000Y-85725000D02*
X118110000Y-93370800D01*
%TO.N,Net-(A1-D7)*%
X148590000Y-106680000D02*
X148590000Y-104902000D01*
X121210000Y-96950000D02*
X121210000Y-104902000D01*
%TO.N,Net-(A1-A7)*%
X135890000Y-91440000D02*
X135890000Y-99594200D01*
X89027000Y-81407000D02*
X89027000Y-97663000D01*
%TO.N,/\u002AD10{slash}SS*%
X119000000Y-84328000D02*
X119000000Y-94970000D01*
X154330000Y-94970000D02*
X154330000Y-102870000D01*
X156210000Y-104902000D02*
X154330000Y-102870000D01*
X156210000Y-106680000D02*
X156210000Y-104902000D01*
%TO.N,Net-(A1-D1{slash}TX)*%
X125730000Y-101092000D02*
X125730000Y-100965000D01*
X125730000Y-106680000D02*
X125730000Y-101092000D01*
%TO.N,/\u002AD3*%
X88773000Y-108331000D02*
X88773000Y-111445000D01*
X138430000Y-106680000D02*
X138430000Y-111480000D01*
D39*
%TO.N,Net-(U2-Vin)*%
X88098000Y-62270000D02*
X88098000Y-66802000D01*
X88098000Y-66802000D02*
X88098000Y-71160000D01*
X89454532Y-61250000D02*
X88098000Y-62270000D01*
X88098000Y-71160000D02*
X87884000Y-71374000D01*
%TO.N,/+12V*%
X101219000Y-59550000D02*
X101219000Y-74052000D01*
%TO.N,Net-(D1-A)*%
X110744000Y-74041000D02*
X107000000Y-77973000D01*
D38*
%TO.N,Net-(D2-K)*%
X74930000Y-103124000D02*
X80645000Y-105410000D01*
D39*
%TO.N,Net-(J1-Pad2)*%
X162560000Y-86360000D02*
X162560000Y-77343600D01*
X123700000Y-81512000D02*
X123700000Y-86360000D01*
X105599000Y-80492000D02*
X105599000Y-85538000D01*
D38*
%TO.N,Net-(J19-Pin_1)*%
X126136000Y-75392000D02*
X126136000Y-81636000D01*
%TO.N,Net-(J18-Pin_1)*%
X125476000Y-73660000D02*
X125476000Y-82296000D01*
%TO.N,Net-(J19-Pin_3)*%
X130100000Y-74879200D02*
X130100000Y-79472000D01*
D39*
%TO.N,Net-(D3-K)*%
X74795000Y-94782000D02*
X74782000Y-94769000D01*
X80518000Y-94782000D02*
X74795000Y-94782000D01*
X82804000Y-81026000D02*
X85852000Y-84074000D01*
X82804000Y-74041000D02*
X82804000Y-74075000D01*
X82804000Y-74075000D02*
X82804000Y-81026000D01*
X82804000Y-71374000D02*
X82804000Y-74041000D01*
%TD*%
M02*
