%TF.GenerationSoftware,KiCad,Pcbnew,8.0.9-8.0.9-0~ubuntu22.04.1*%
%TF.CreationDate,2025-03-09T15:02:26+09:00*%
%TF.ProjectId,M302N,4d333032-4e2e-46b6-9963-61645f706362,rev?*%
%TF.SameCoordinates,Original*%
%TF.FileFunction,Soldermask,Bot*%
%TF.FilePolarity,Negative*%
%FSLAX46Y46*%
G04 Gerber Fmt 4.6, Leading zero omitted, Abs format (unit mm)*
G04 Created by KiCad (PCBNEW 8.0.9-8.0.9-0~ubuntu22.04.1) date 2025-03-09 15:02:26*
%MOMM*%
%LPD*%
G01*
G04 APERTURE LIST*
G04 Aperture macros list*
%AMRoundRect*
0 Rectangle with rounded corners*
0 $1 Rounding radius*
0 $2 $3 $4 $5 $6 $7 $8 $9 X,Y pos of 4 corners*
0 Add a 4 corners polygon primitive as box body*
4,1,4,$2,$3,$4,$5,$6,$7,$8,$9,$2,$3,0*
0 Add four circle primitives for the rounded corners*
1,1,$1+$1,$2,$3*
1,1,$1+$1,$4,$5*
1,1,$1+$1,$6,$7*
1,1,$1+$1,$8,$9*
0 Add four rect primitives between the rounded corners*
20,1,$1+$1,$2,$3,$4,$5,0*
20,1,$1+$1,$4,$5,$6,$7,0*
20,1,$1+$1,$6,$7,$8,$9,0*
20,1,$1+$1,$8,$9,$2,$3,0*%
G04 Aperture macros list end*
%ADD10R,1.700000X1.700000*%
%ADD11O,1.700000X1.700000*%
%ADD12O,2.000000X1.000000*%
%ADD13C,2.400000*%
%ADD14R,1.600000X1.600000*%
%ADD15C,1.600000*%
%ADD16RoundRect,0.250000X0.725000X-0.600000X0.725000X0.600000X-0.725000X0.600000X-0.725000X-0.600000X0*%
%ADD17O,1.950000X1.700000*%
%ADD18C,1.400000*%
%ADD19O,1.600000X1.600000*%
%ADD20C,5.400000*%
%ADD21C,1.524000*%
%ADD22C,1.200000*%
%ADD23RoundRect,0.250000X-0.750000X0.600000X-0.750000X-0.600000X0.750000X-0.600000X0.750000X0.600000X0*%
%ADD24O,2.000000X1.700000*%
%ADD25RoundRect,0.250000X-0.725000X0.600000X-0.725000X-0.600000X0.725000X-0.600000X0.725000X0.600000X0*%
%ADD26R,2.200000X2.200000*%
%ADD27O,2.200000X2.200000*%
%ADD28C,1.800000*%
%ADD29R,1.800000X1.800000*%
%ADD30O,1.400000X1.400000*%
%ADD31R,2.000000X4.600000*%
%ADD32O,2.000000X4.200000*%
%ADD33O,4.200000X2.000000*%
G04 APERTURE END LIST*
D10*
%TO.C,J18*%
X135680000Y-81229200D03*
D11*
X135680000Y-78689200D03*
X135680000Y-76149200D03*
X135680000Y-73609200D03*
%TD*%
D10*
%TO.C,J13*%
X99060000Y-89662000D03*
D11*
X99060000Y-87122000D03*
X99060000Y-84582000D03*
X99060000Y-82042000D03*
X99060000Y-79502000D03*
%TD*%
D12*
%TO.C,J11*%
X116064000Y-86577000D03*
D13*
X120904000Y-85852000D03*
X120904000Y-71052000D03*
D12*
X116064000Y-70327000D03*
D14*
X116064000Y-74372000D03*
D15*
X118604000Y-75392000D03*
X116064000Y-76412000D03*
X118604000Y-77432000D03*
X116064000Y-78452000D03*
X118604000Y-79472000D03*
X116064000Y-80492000D03*
X118604000Y-81512000D03*
%TD*%
D16*
%TO.C,J8*%
X84836000Y-104394000D03*
D17*
X84836000Y-101894000D03*
X84836000Y-99394000D03*
%TD*%
D16*
%TO.C,J10*%
X99822000Y-104394000D03*
D17*
X99822000Y-101894000D03*
X99822000Y-99394000D03*
%TD*%
D15*
%TO.C,C2*%
X118465600Y-62915800D03*
X113465600Y-62915800D03*
%TD*%
D18*
%TO.C,F1*%
X96119000Y-72252000D03*
X101219000Y-74052000D03*
%TD*%
D15*
%TO.C,R1*%
X80645000Y-105410000D03*
D19*
X80645000Y-97790000D03*
%TD*%
D20*
%TO.C,REF\u002A\u002A*%
X75565000Y-109855000D03*
%TD*%
D21*
%TO.C,SW1*%
X93980000Y-112776000D03*
D22*
X111760000Y-112776000D03*
%TD*%
D10*
%TO.C,J19*%
X133140000Y-79883000D03*
D11*
X133140000Y-77343000D03*
X133140000Y-74803000D03*
X133140000Y-72263000D03*
%TD*%
D23*
%TO.C,J12*%
X74782000Y-92269000D03*
D24*
X74782000Y-94769000D03*
%TD*%
D14*
%TO.C,A1*%
X125730000Y-106680000D03*
D19*
X128270000Y-106680000D03*
X130810000Y-106680000D03*
X133350000Y-106680000D03*
X135890000Y-106680000D03*
X138430000Y-106680000D03*
X140970000Y-106680000D03*
X143510000Y-106680000D03*
X146050000Y-106680000D03*
X148590000Y-106680000D03*
X151130000Y-106680000D03*
X153670000Y-106680000D03*
X156210000Y-106680000D03*
X158750000Y-106680000D03*
X161290000Y-106680000D03*
X161290000Y-91440000D03*
X158750000Y-91440000D03*
X156210000Y-91440000D03*
X153670000Y-91440000D03*
X151130000Y-91440000D03*
X148590000Y-91440000D03*
X146050000Y-91440000D03*
X143510000Y-91440000D03*
X140970000Y-91440000D03*
X138430000Y-91440000D03*
X135890000Y-91440000D03*
X133350000Y-91440000D03*
X130810000Y-91440000D03*
X128270000Y-91440000D03*
X125730000Y-91440000D03*
%TD*%
D15*
%TO.C,C4*%
X80518000Y-94782000D03*
X80518000Y-89782000D03*
%TD*%
D20*
%TO.C,REF\u002A\u002A*%
X81280000Y-62865000D03*
%TD*%
D10*
%TO.C,J3*%
X103479600Y-94030800D03*
D11*
X103479600Y-91490800D03*
X106019600Y-94030800D03*
X106019600Y-91490800D03*
X108559600Y-94030800D03*
X108559600Y-91490800D03*
X111099600Y-94030800D03*
X111099600Y-91490800D03*
X113639600Y-94030800D03*
X113639600Y-91490800D03*
X116179600Y-94030800D03*
X116179600Y-91490800D03*
%TD*%
D16*
%TO.C,J9*%
X92456000Y-104394000D03*
D17*
X92456000Y-101894000D03*
X92456000Y-99394000D03*
%TD*%
D25*
%TO.C,J4*%
X74930000Y-66802000D03*
D17*
X74930000Y-69302000D03*
X74930000Y-71802000D03*
X74930000Y-74302000D03*
%TD*%
D15*
%TO.C,C5*%
X134239000Y-61675000D03*
X134239000Y-66675000D03*
%TD*%
%TO.C,R2*%
X106070400Y-100838000D03*
D19*
X106070400Y-108458000D03*
%TD*%
D26*
%TO.C,D3*%
X85852000Y-84074000D03*
D27*
X85852000Y-94234000D03*
%TD*%
D28*
%TO.C,R3*%
X105599000Y-85538000D03*
X107000000Y-78038000D03*
%TD*%
D21*
%TO.C,FL1*%
X87884000Y-71374000D03*
X85344000Y-71374000D03*
X82804000Y-71374000D03*
%TD*%
D15*
%TO.C,C3*%
X118491000Y-66116200D03*
X113491000Y-66116200D03*
%TD*%
D20*
%TO.C,REF\u002A\u002A*%
X167005000Y-62865000D03*
%TD*%
D29*
%TO.C,D2*%
X74930000Y-103124000D03*
D28*
X74930000Y-100584000D03*
%TD*%
D18*
%TO.C,D1*%
X105664000Y-74041000D03*
D30*
X110744000Y-74041000D03*
%TD*%
D10*
%TO.C,J14*%
X96520000Y-89662000D03*
D11*
X96520000Y-87122000D03*
X96520000Y-84582000D03*
X96520000Y-82042000D03*
X96520000Y-79502000D03*
%TD*%
D25*
%TO.C,J5*%
X74909000Y-80879000D03*
D17*
X74909000Y-83379000D03*
X74909000Y-85879000D03*
%TD*%
D15*
%TO.C,C6*%
X88051000Y-64770000D03*
X93051000Y-64770000D03*
%TD*%
%TO.C,C1*%
X108356400Y-66090800D03*
X108356400Y-64090800D03*
%TD*%
D20*
%TO.C,REF\u002A\u002A*%
X167005000Y-109855000D03*
%TD*%
D31*
%TO.C,J1*%
X156260000Y-77343600D03*
D32*
X162560000Y-77343600D03*
D33*
X159160000Y-82143600D03*
%TD*%
D10*
%TO.C,J2*%
X159054800Y-95834200D03*
D11*
X159054800Y-98374200D03*
X159054800Y-100914200D03*
%TD*%
M02*
