%TF.GenerationSoftware,KiCad,Pcbnew,8.0.9-8.0.9-0~ubuntu22.04.1*%
%TF.CreationDate,2025-03-09T15:02:26+09:00*%
%TF.ProjectId,M302N,4d333032-4e2e-46b6-9963-61645f706362,rev?*%
%TF.SameCoordinates,Original*%
%TF.FileFunction,Legend,Bot*%
%TF.FilePolarity,Positive*%
%FSLAX46Y46*%
G04 Gerber Fmt 4.6, Leading zero omitted, Abs format (unit mm)*
G04 Created by KiCad (PCBNEW 8.0.9-8.0.9-0~ubuntu22.04.1) date 2025-03-09 15:02:26*
%MOMM*%
%LPD*%
G01*
G04 APERTURE LIST*
%ADD10C,0.120000*%
%ADD11C,0.150000*%
G04 APERTURE END LIST*
D10*
X166878529Y-98931379D02*
X167211862Y-98455188D01*
X167449957Y-98931379D02*
X167449957Y-97931379D01*
X167449957Y-97931379D02*
X167069005Y-97931379D01*
X167069005Y-97931379D02*
X166973767Y-97978998D01*
X166973767Y-97978998D02*
X166926148Y-98026617D01*
X166926148Y-98026617D02*
X166878529Y-98121855D01*
X166878529Y-98121855D02*
X166878529Y-98264712D01*
X166878529Y-98264712D02*
X166926148Y-98359950D01*
X166926148Y-98359950D02*
X166973767Y-98407569D01*
X166973767Y-98407569D02*
X167069005Y-98455188D01*
X167069005Y-98455188D02*
X167449957Y-98455188D01*
X166545195Y-97931379D02*
X165878529Y-98931379D01*
X165878529Y-97931379D02*
X166545195Y-98931379D01*
X167465814Y-100344379D02*
X166894386Y-100344379D01*
X167180100Y-101344379D02*
X167180100Y-100344379D01*
X166656290Y-100344379D02*
X165989624Y-101344379D01*
X165989624Y-100344379D02*
X166656290Y-101344379D01*
X167307148Y-95438998D02*
X167402386Y-95391379D01*
X167402386Y-95391379D02*
X167545243Y-95391379D01*
X167545243Y-95391379D02*
X167688100Y-95438998D01*
X167688100Y-95438998D02*
X167783338Y-95534236D01*
X167783338Y-95534236D02*
X167830957Y-95629474D01*
X167830957Y-95629474D02*
X167878576Y-95819950D01*
X167878576Y-95819950D02*
X167878576Y-95962807D01*
X167878576Y-95962807D02*
X167830957Y-96153283D01*
X167830957Y-96153283D02*
X167783338Y-96248521D01*
X167783338Y-96248521D02*
X167688100Y-96343760D01*
X167688100Y-96343760D02*
X167545243Y-96391379D01*
X167545243Y-96391379D02*
X167450005Y-96391379D01*
X167450005Y-96391379D02*
X167307148Y-96343760D01*
X167307148Y-96343760D02*
X167259529Y-96296140D01*
X167259529Y-96296140D02*
X167259529Y-95962807D01*
X167259529Y-95962807D02*
X167450005Y-95962807D01*
X166830957Y-96391379D02*
X166830957Y-95391379D01*
X166830957Y-95391379D02*
X166259529Y-96391379D01*
X166259529Y-96391379D02*
X166259529Y-95391379D01*
X165783338Y-96391379D02*
X165783338Y-95391379D01*
X165783338Y-95391379D02*
X165545243Y-95391379D01*
X165545243Y-95391379D02*
X165402386Y-95438998D01*
X165402386Y-95438998D02*
X165307148Y-95534236D01*
X165307148Y-95534236D02*
X165259529Y-95629474D01*
X165259529Y-95629474D02*
X165211910Y-95819950D01*
X165211910Y-95819950D02*
X165211910Y-95962807D01*
X165211910Y-95962807D02*
X165259529Y-96153283D01*
X165259529Y-96153283D02*
X165307148Y-96248521D01*
X165307148Y-96248521D02*
X165402386Y-96343760D01*
X165402386Y-96343760D02*
X165545243Y-96391379D01*
X165545243Y-96391379D02*
X165783338Y-96391379D01*
D11*
X72971819Y-89821238D02*
X71971819Y-89821238D01*
X71971819Y-89821238D02*
X71971819Y-90059333D01*
X71971819Y-90059333D02*
X72019438Y-90202190D01*
X72019438Y-90202190D02*
X72114676Y-90297428D01*
X72114676Y-90297428D02*
X72209914Y-90345047D01*
X72209914Y-90345047D02*
X72400390Y-90392666D01*
X72400390Y-90392666D02*
X72543247Y-90392666D01*
X72543247Y-90392666D02*
X72733723Y-90345047D01*
X72733723Y-90345047D02*
X72828961Y-90297428D01*
X72828961Y-90297428D02*
X72924200Y-90202190D01*
X72924200Y-90202190D02*
X72971819Y-90059333D01*
X72971819Y-90059333D02*
X72971819Y-89821238D01*
X72876580Y-91392666D02*
X72924200Y-91345047D01*
X72924200Y-91345047D02*
X72971819Y-91202190D01*
X72971819Y-91202190D02*
X72971819Y-91106952D01*
X72971819Y-91106952D02*
X72924200Y-90964095D01*
X72924200Y-90964095D02*
X72828961Y-90868857D01*
X72828961Y-90868857D02*
X72733723Y-90821238D01*
X72733723Y-90821238D02*
X72543247Y-90773619D01*
X72543247Y-90773619D02*
X72400390Y-90773619D01*
X72400390Y-90773619D02*
X72209914Y-90821238D01*
X72209914Y-90821238D02*
X72114676Y-90868857D01*
X72114676Y-90868857D02*
X72019438Y-90964095D01*
X72019438Y-90964095D02*
X71971819Y-91106952D01*
X71971819Y-91106952D02*
X71971819Y-91202190D01*
X71971819Y-91202190D02*
X72019438Y-91345047D01*
X72019438Y-91345047D02*
X72067057Y-91392666D01*
X72971819Y-92345047D02*
X72971819Y-91773619D01*
X72971819Y-92059333D02*
X71971819Y-92059333D01*
X71971819Y-92059333D02*
X72114676Y-91964095D01*
X72114676Y-91964095D02*
X72209914Y-91868857D01*
X72209914Y-91868857D02*
X72257533Y-91773619D01*
X72067057Y-92726000D02*
X72019438Y-92773619D01*
X72019438Y-92773619D02*
X71971819Y-92868857D01*
X71971819Y-92868857D02*
X71971819Y-93106952D01*
X71971819Y-93106952D02*
X72019438Y-93202190D01*
X72019438Y-93202190D02*
X72067057Y-93249809D01*
X72067057Y-93249809D02*
X72162295Y-93297428D01*
X72162295Y-93297428D02*
X72257533Y-93297428D01*
X72257533Y-93297428D02*
X72400390Y-93249809D01*
X72400390Y-93249809D02*
X72971819Y-92678381D01*
X72971819Y-92678381D02*
X72971819Y-93297428D01*
X71971819Y-93583143D02*
X72971819Y-93916476D01*
X72971819Y-93916476D02*
X71971819Y-94249809D01*
X72448009Y-95678381D02*
X72448009Y-95345048D01*
X72971819Y-95345048D02*
X71971819Y-95345048D01*
X71971819Y-95345048D02*
X71971819Y-95821238D01*
X72686104Y-96154572D02*
X72686104Y-96630762D01*
X72971819Y-96059334D02*
X71971819Y-96392667D01*
X71971819Y-96392667D02*
X72971819Y-96726000D01*
X72971819Y-97059334D02*
X71971819Y-97059334D01*
X71971819Y-97059334D02*
X72971819Y-97630762D01*
X72971819Y-97630762D02*
X71971819Y-97630762D01*
X73098819Y-68413572D02*
X72098819Y-68413572D01*
X72194057Y-68842143D02*
X72146438Y-68889762D01*
X72146438Y-68889762D02*
X72098819Y-68985000D01*
X72098819Y-68985000D02*
X72098819Y-69223095D01*
X72098819Y-69223095D02*
X72146438Y-69318333D01*
X72146438Y-69318333D02*
X72194057Y-69365952D01*
X72194057Y-69365952D02*
X72289295Y-69413571D01*
X72289295Y-69413571D02*
X72384533Y-69413571D01*
X72384533Y-69413571D02*
X72527390Y-69365952D01*
X72527390Y-69365952D02*
X73098819Y-68794524D01*
X73098819Y-68794524D02*
X73098819Y-69413571D01*
X73003580Y-70413571D02*
X73051200Y-70365952D01*
X73051200Y-70365952D02*
X73098819Y-70223095D01*
X73098819Y-70223095D02*
X73098819Y-70127857D01*
X73098819Y-70127857D02*
X73051200Y-69985000D01*
X73051200Y-69985000D02*
X72955961Y-69889762D01*
X72955961Y-69889762D02*
X72860723Y-69842143D01*
X72860723Y-69842143D02*
X72670247Y-69794524D01*
X72670247Y-69794524D02*
X72527390Y-69794524D01*
X72527390Y-69794524D02*
X72336914Y-69842143D01*
X72336914Y-69842143D02*
X72241676Y-69889762D01*
X72241676Y-69889762D02*
X72146438Y-69985000D01*
X72146438Y-69985000D02*
X72098819Y-70127857D01*
X72098819Y-70127857D02*
X72098819Y-70223095D01*
X72098819Y-70223095D02*
X72146438Y-70365952D01*
X72146438Y-70365952D02*
X72194057Y-70413571D01*
X72717866Y-70842143D02*
X72717866Y-71604048D01*
X73098819Y-72604047D02*
X73098819Y-72032619D01*
X73098819Y-72318333D02*
X72098819Y-72318333D01*
X72098819Y-72318333D02*
X72241676Y-72223095D01*
X72241676Y-72223095D02*
X72336914Y-72127857D01*
X72336914Y-72127857D02*
X72384533Y-72032619D01*
X72813104Y-81185048D02*
X72813104Y-81661238D01*
X73098819Y-81089810D02*
X72098819Y-81423143D01*
X72098819Y-81423143D02*
X73098819Y-81756476D01*
X73098819Y-82089810D02*
X72098819Y-82089810D01*
X72098819Y-82089810D02*
X72098819Y-82327905D01*
X72098819Y-82327905D02*
X72146438Y-82470762D01*
X72146438Y-82470762D02*
X72241676Y-82566000D01*
X72241676Y-82566000D02*
X72336914Y-82613619D01*
X72336914Y-82613619D02*
X72527390Y-82661238D01*
X72527390Y-82661238D02*
X72670247Y-82661238D01*
X72670247Y-82661238D02*
X72860723Y-82613619D01*
X72860723Y-82613619D02*
X72955961Y-82566000D01*
X72955961Y-82566000D02*
X73051200Y-82470762D01*
X73051200Y-82470762D02*
X73098819Y-82327905D01*
X73098819Y-82327905D02*
X73098819Y-82089810D01*
X73003580Y-83661238D02*
X73051200Y-83613619D01*
X73051200Y-83613619D02*
X73098819Y-83470762D01*
X73098819Y-83470762D02*
X73098819Y-83375524D01*
X73098819Y-83375524D02*
X73051200Y-83232667D01*
X73051200Y-83232667D02*
X72955961Y-83137429D01*
X72955961Y-83137429D02*
X72860723Y-83089810D01*
X72860723Y-83089810D02*
X72670247Y-83042191D01*
X72670247Y-83042191D02*
X72527390Y-83042191D01*
X72527390Y-83042191D02*
X72336914Y-83089810D01*
X72336914Y-83089810D02*
X72241676Y-83137429D01*
X72241676Y-83137429D02*
X72146438Y-83232667D01*
X72146438Y-83232667D02*
X72098819Y-83375524D01*
X72098819Y-83375524D02*
X72098819Y-83470762D01*
X72098819Y-83470762D02*
X72146438Y-83613619D01*
X72146438Y-83613619D02*
X72194057Y-83661238D01*
X73194057Y-83851715D02*
X73194057Y-84613619D01*
X73098819Y-84851715D02*
X72098819Y-84851715D01*
X73098819Y-85327905D02*
X72098819Y-85327905D01*
X72098819Y-85327905D02*
X73098819Y-85899333D01*
X73098819Y-85899333D02*
X72098819Y-85899333D01*
X168354333Y-83147819D02*
X168354333Y-83862104D01*
X168354333Y-83862104D02*
X168401952Y-84004961D01*
X168401952Y-84004961D02*
X168497190Y-84100200D01*
X168497190Y-84100200D02*
X168640047Y-84147819D01*
X168640047Y-84147819D02*
X168735285Y-84147819D01*
X167354333Y-84147819D02*
X167925761Y-84147819D01*
X167640047Y-84147819D02*
X167640047Y-83147819D01*
X167640047Y-83147819D02*
X167735285Y-83290676D01*
X167735285Y-83290676D02*
X167830523Y-83385914D01*
X167830523Y-83385914D02*
X167925761Y-83433533D01*
X166226856Y-84147819D02*
X166226856Y-83147819D01*
X166226856Y-83147819D02*
X165988761Y-83147819D01*
X165988761Y-83147819D02*
X165845904Y-83195438D01*
X165845904Y-83195438D02*
X165750666Y-83290676D01*
X165750666Y-83290676D02*
X165703047Y-83385914D01*
X165703047Y-83385914D02*
X165655428Y-83576390D01*
X165655428Y-83576390D02*
X165655428Y-83719247D01*
X165655428Y-83719247D02*
X165703047Y-83909723D01*
X165703047Y-83909723D02*
X165750666Y-84004961D01*
X165750666Y-84004961D02*
X165845904Y-84100200D01*
X165845904Y-84100200D02*
X165988761Y-84147819D01*
X165988761Y-84147819D02*
X166226856Y-84147819D01*
X164655428Y-84052580D02*
X164703047Y-84100200D01*
X164703047Y-84100200D02*
X164845904Y-84147819D01*
X164845904Y-84147819D02*
X164941142Y-84147819D01*
X164941142Y-84147819D02*
X165083999Y-84100200D01*
X165083999Y-84100200D02*
X165179237Y-84004961D01*
X165179237Y-84004961D02*
X165226856Y-83909723D01*
X165226856Y-83909723D02*
X165274475Y-83719247D01*
X165274475Y-83719247D02*
X165274475Y-83576390D01*
X165274475Y-83576390D02*
X165226856Y-83385914D01*
X165226856Y-83385914D02*
X165179237Y-83290676D01*
X165179237Y-83290676D02*
X165083999Y-83195438D01*
X165083999Y-83195438D02*
X164941142Y-83147819D01*
X164941142Y-83147819D02*
X164845904Y-83147819D01*
X164845904Y-83147819D02*
X164703047Y-83195438D01*
X164703047Y-83195438D02*
X164655428Y-83243057D01*
X163703047Y-84147819D02*
X164274475Y-84147819D01*
X163988761Y-84147819D02*
X163988761Y-83147819D01*
X163988761Y-83147819D02*
X164083999Y-83290676D01*
X164083999Y-83290676D02*
X164179237Y-83385914D01*
X164179237Y-83385914D02*
X164274475Y-83433533D01*
X163322094Y-83243057D02*
X163274475Y-83195438D01*
X163274475Y-83195438D02*
X163179237Y-83147819D01*
X163179237Y-83147819D02*
X162941142Y-83147819D01*
X162941142Y-83147819D02*
X162845904Y-83195438D01*
X162845904Y-83195438D02*
X162798285Y-83243057D01*
X162798285Y-83243057D02*
X162750666Y-83338295D01*
X162750666Y-83338295D02*
X162750666Y-83433533D01*
X162750666Y-83433533D02*
X162798285Y-83576390D01*
X162798285Y-83576390D02*
X163369713Y-84147819D01*
X163369713Y-84147819D02*
X162750666Y-84147819D01*
X162464951Y-83147819D02*
X162131618Y-84147819D01*
X162131618Y-84147819D02*
X161798285Y-83147819D01*
X162766333Y-102705819D02*
X162766333Y-103420104D01*
X162766333Y-103420104D02*
X162813952Y-103562961D01*
X162813952Y-103562961D02*
X162909190Y-103658200D01*
X162909190Y-103658200D02*
X163052047Y-103705819D01*
X163052047Y-103705819D02*
X163147285Y-103705819D01*
X162337761Y-102801057D02*
X162290142Y-102753438D01*
X162290142Y-102753438D02*
X162194904Y-102705819D01*
X162194904Y-102705819D02*
X161956809Y-102705819D01*
X161956809Y-102705819D02*
X161861571Y-102753438D01*
X161861571Y-102753438D02*
X161813952Y-102801057D01*
X161813952Y-102801057D02*
X161766333Y-102896295D01*
X161766333Y-102896295D02*
X161766333Y-102991533D01*
X161766333Y-102991533D02*
X161813952Y-103134390D01*
X161813952Y-103134390D02*
X162385380Y-103705819D01*
X162385380Y-103705819D02*
X161766333Y-103705819D01*
X160650037Y-102699019D02*
X160650037Y-103508542D01*
X160650037Y-103508542D02*
X160602418Y-103603780D01*
X160602418Y-103603780D02*
X160554799Y-103651400D01*
X160554799Y-103651400D02*
X160459561Y-103699019D01*
X160459561Y-103699019D02*
X160269085Y-103699019D01*
X160269085Y-103699019D02*
X160173847Y-103651400D01*
X160173847Y-103651400D02*
X160126228Y-103603780D01*
X160126228Y-103603780D02*
X160078609Y-103508542D01*
X160078609Y-103508542D02*
X160078609Y-102699019D01*
X159650037Y-103413304D02*
X159173847Y-103413304D01*
X159745275Y-103699019D02*
X159411942Y-102699019D01*
X159411942Y-102699019D02*
X159078609Y-103699019D01*
X158173847Y-103699019D02*
X158507180Y-103222828D01*
X158745275Y-103699019D02*
X158745275Y-102699019D01*
X158745275Y-102699019D02*
X158364323Y-102699019D01*
X158364323Y-102699019D02*
X158269085Y-102746638D01*
X158269085Y-102746638D02*
X158221466Y-102794257D01*
X158221466Y-102794257D02*
X158173847Y-102889495D01*
X158173847Y-102889495D02*
X158173847Y-103032352D01*
X158173847Y-103032352D02*
X158221466Y-103127590D01*
X158221466Y-103127590D02*
X158269085Y-103175209D01*
X158269085Y-103175209D02*
X158364323Y-103222828D01*
X158364323Y-103222828D02*
X158745275Y-103222828D01*
X157888132Y-102699019D02*
X157316704Y-102699019D01*
X157602418Y-103699019D02*
X157602418Y-102699019D01*
D10*
%TO.C,U1*%
X97282000Y-79451200D02*
G75*
G02*
X95758000Y-79451200I-762000J0D01*
G01*
X95758000Y-79451200D02*
G75*
G02*
X97282000Y-79451200I762000J0D01*
G01*
X97282000Y-81991200D02*
G75*
G02*
X95758000Y-81991200I-762000J0D01*
G01*
X95758000Y-81991200D02*
G75*
G02*
X97282000Y-81991200I762000J0D01*
G01*
X97282000Y-84531200D02*
G75*
G02*
X95758000Y-84531200I-762000J0D01*
G01*
X95758000Y-84531200D02*
G75*
G02*
X97282000Y-84531200I762000J0D01*
G01*
X97282000Y-87071200D02*
G75*
G02*
X95758000Y-87071200I-762000J0D01*
G01*
X95758000Y-87071200D02*
G75*
G02*
X97282000Y-87071200I762000J0D01*
G01*
X97282000Y-89611200D02*
G75*
G02*
X95758000Y-89611200I-762000J0D01*
G01*
X95758000Y-89611200D02*
G75*
G02*
X97282000Y-89611200I762000J0D01*
G01*
X99822000Y-79451200D02*
G75*
G02*
X98298000Y-79451200I-762000J0D01*
G01*
X98298000Y-79451200D02*
G75*
G02*
X99822000Y-79451200I762000J0D01*
G01*
X99822000Y-81991200D02*
G75*
G02*
X98298000Y-81991200I-762000J0D01*
G01*
X98298000Y-81991200D02*
G75*
G02*
X99822000Y-81991200I762000J0D01*
G01*
X99822000Y-84531200D02*
G75*
G02*
X98298000Y-84531200I-762000J0D01*
G01*
X98298000Y-84531200D02*
G75*
G02*
X99822000Y-84531200I762000J0D01*
G01*
X99822000Y-87071200D02*
G75*
G02*
X98298000Y-87071200I-762000J0D01*
G01*
X98298000Y-87071200D02*
G75*
G02*
X99822000Y-87071200I762000J0D01*
G01*
X99822000Y-89611200D02*
G75*
G02*
X98298000Y-89611200I-762000J0D01*
G01*
X98298000Y-89611200D02*
G75*
G02*
X99822000Y-89611200I762000J0D01*
G01*
%TO.C,J1*%
X155260000Y-72443600D02*
X155260000Y-74143600D01*
X155560000Y-72743600D02*
X170060000Y-72743600D01*
X155560000Y-74743600D02*
X155560000Y-72743600D01*
X155560000Y-81943600D02*
X155560000Y-79943600D01*
X156560000Y-72443600D02*
X155260000Y-72443600D01*
X156860000Y-81943600D02*
X155560000Y-81943600D01*
X170060000Y-72743600D02*
X170060000Y-81943600D01*
X170060000Y-81943600D02*
X161460000Y-81943600D01*
%TO.C,J2*%
X157724800Y-97104200D02*
X160384800Y-97104200D01*
X157724800Y-102244200D02*
X157724800Y-97104200D01*
X157724800Y-102244200D02*
X160384800Y-102244200D01*
X159054800Y-94504200D02*
X160384800Y-94504200D01*
X160384800Y-94504200D02*
X160384800Y-95834200D01*
X160384800Y-102244200D02*
X160384800Y-97104200D01*
%TD*%
M02*
