%TF.GenerationSoftware,KiCad,Pcbnew,8.0.9-8.0.9-0~ubuntu22.04.1*%
%TF.CreationDate,2025-06-27T15:10:22+09:00*%
%TF.ProjectId,M302N,4d333032-4e2e-46b6-9963-61645f706362,2.00*%
%TF.SameCoordinates,Original*%
%TF.FileFunction,Legend,Bot*%
%TF.FilePolarity,Positive*%
%FSLAX46Y46*%
G04 Gerber Fmt 4.6, Leading zero omitted, Abs format (unit mm)*
G04 Created by KiCad (PCBNEW 8.0.9-8.0.9-0~ubuntu22.04.1) date 2025-06-27 15:10:22*
%MOMM*%
%LPD*%
G01*
G04 APERTURE LIST*
%ADD10C,0.120000*%
%ADD11C,0.150000*%
G04 APERTURE END LIST*
D10*
X166878529Y-98931379D02*
X167211862Y-98455188D01*
X167449957Y-98931379D02*
X167449957Y-97931379D01*
X167449957Y-97931379D02*
X167069005Y-97931379D01*
X167069005Y-97931379D02*
X166973767Y-97978998D01*
X166973767Y-97978998D02*
X166926148Y-98026617D01*
X166926148Y-98026617D02*
X166878529Y-98121855D01*
X166878529Y-98121855D02*
X166878529Y-98264712D01*
X166878529Y-98264712D02*
X166926148Y-98359950D01*
X166926148Y-98359950D02*
X166973767Y-98407569D01*
X166973767Y-98407569D02*
X167069005Y-98455188D01*
X167069005Y-98455188D02*
X167449957Y-98455188D01*
X166545195Y-97931379D02*
X165878529Y-98931379D01*
X165878529Y-97931379D02*
X166545195Y-98931379D01*
X167465814Y-100344379D02*
X166894386Y-100344379D01*
X167180100Y-101344379D02*
X167180100Y-100344379D01*
X166656290Y-100344379D02*
X165989624Y-101344379D01*
X165989624Y-100344379D02*
X166656290Y-101344379D01*
X167307148Y-95438998D02*
X167402386Y-95391379D01*
X167402386Y-95391379D02*
X167545243Y-95391379D01*
X167545243Y-95391379D02*
X167688100Y-95438998D01*
X167688100Y-95438998D02*
X167783338Y-95534236D01*
X167783338Y-95534236D02*
X167830957Y-95629474D01*
X167830957Y-95629474D02*
X167878576Y-95819950D01*
X167878576Y-95819950D02*
X167878576Y-95962807D01*
X167878576Y-95962807D02*
X167830957Y-96153283D01*
X167830957Y-96153283D02*
X167783338Y-96248521D01*
X167783338Y-96248521D02*
X167688100Y-96343760D01*
X167688100Y-96343760D02*
X167545243Y-96391379D01*
X167545243Y-96391379D02*
X167450005Y-96391379D01*
X167450005Y-96391379D02*
X167307148Y-96343760D01*
X167307148Y-96343760D02*
X167259529Y-96296140D01*
X167259529Y-96296140D02*
X167259529Y-95962807D01*
X167259529Y-95962807D02*
X167450005Y-95962807D01*
X166830957Y-96391379D02*
X166830957Y-95391379D01*
X166830957Y-95391379D02*
X166259529Y-96391379D01*
X166259529Y-96391379D02*
X166259529Y-95391379D01*
X165783338Y-96391379D02*
X165783338Y-95391379D01*
X165783338Y-95391379D02*
X165545243Y-95391379D01*
X165545243Y-95391379D02*
X165402386Y-95438998D01*
X165402386Y-95438998D02*
X165307148Y-95534236D01*
X165307148Y-95534236D02*
X165259529Y-95629474D01*
X165259529Y-95629474D02*
X165211910Y-95819950D01*
X165211910Y-95819950D02*
X165211910Y-95962807D01*
X165211910Y-95962807D02*
X165259529Y-96153283D01*
X165259529Y-96153283D02*
X165307148Y-96248521D01*
X165307148Y-96248521D02*
X165402386Y-96343760D01*
X165402386Y-96343760D02*
X165545243Y-96391379D01*
X165545243Y-96391379D02*
X165783338Y-96391379D01*
D11*
X72971819Y-89821238D02*
X71971819Y-89821238D01*
X71971819Y-89821238D02*
X71971819Y-90059333D01*
X71971819Y-90059333D02*
X72019438Y-90202190D01*
X72019438Y-90202190D02*
X72114676Y-90297428D01*
X72114676Y-90297428D02*
X72209914Y-90345047D01*
X72209914Y-90345047D02*
X72400390Y-90392666D01*
X72400390Y-90392666D02*
X72543247Y-90392666D01*
X72543247Y-90392666D02*
X72733723Y-90345047D01*
X72733723Y-90345047D02*
X72828961Y-90297428D01*
X72828961Y-90297428D02*
X72924200Y-90202190D01*
X72924200Y-90202190D02*
X72971819Y-90059333D01*
X72971819Y-90059333D02*
X72971819Y-89821238D01*
X72876580Y-91392666D02*
X72924200Y-91345047D01*
X72924200Y-91345047D02*
X72971819Y-91202190D01*
X72971819Y-91202190D02*
X72971819Y-91106952D01*
X72971819Y-91106952D02*
X72924200Y-90964095D01*
X72924200Y-90964095D02*
X72828961Y-90868857D01*
X72828961Y-90868857D02*
X72733723Y-90821238D01*
X72733723Y-90821238D02*
X72543247Y-90773619D01*
X72543247Y-90773619D02*
X72400390Y-90773619D01*
X72400390Y-90773619D02*
X72209914Y-90821238D01*
X72209914Y-90821238D02*
X72114676Y-90868857D01*
X72114676Y-90868857D02*
X72019438Y-90964095D01*
X72019438Y-90964095D02*
X71971819Y-91106952D01*
X71971819Y-91106952D02*
X71971819Y-91202190D01*
X71971819Y-91202190D02*
X72019438Y-91345047D01*
X72019438Y-91345047D02*
X72067057Y-91392666D01*
X72971819Y-92345047D02*
X72971819Y-91773619D01*
X72971819Y-92059333D02*
X71971819Y-92059333D01*
X71971819Y-92059333D02*
X72114676Y-91964095D01*
X72114676Y-91964095D02*
X72209914Y-91868857D01*
X72209914Y-91868857D02*
X72257533Y-91773619D01*
X72067057Y-92726000D02*
X72019438Y-92773619D01*
X72019438Y-92773619D02*
X71971819Y-92868857D01*
X71971819Y-92868857D02*
X71971819Y-93106952D01*
X71971819Y-93106952D02*
X72019438Y-93202190D01*
X72019438Y-93202190D02*
X72067057Y-93249809D01*
X72067057Y-93249809D02*
X72162295Y-93297428D01*
X72162295Y-93297428D02*
X72257533Y-93297428D01*
X72257533Y-93297428D02*
X72400390Y-93249809D01*
X72400390Y-93249809D02*
X72971819Y-92678381D01*
X72971819Y-92678381D02*
X72971819Y-93297428D01*
X71971819Y-93583143D02*
X72971819Y-93916476D01*
X72971819Y-93916476D02*
X71971819Y-94249809D01*
X72448009Y-95678381D02*
X72448009Y-95345048D01*
X72971819Y-95345048D02*
X71971819Y-95345048D01*
X71971819Y-95345048D02*
X71971819Y-95821238D01*
X72686104Y-96154572D02*
X72686104Y-96630762D01*
X72971819Y-96059334D02*
X71971819Y-96392667D01*
X71971819Y-96392667D02*
X72971819Y-96726000D01*
X72971819Y-97059334D02*
X71971819Y-97059334D01*
X71971819Y-97059334D02*
X72971819Y-97630762D01*
X72971819Y-97630762D02*
X71971819Y-97630762D01*
X73098819Y-68413572D02*
X72098819Y-68413572D01*
X72194057Y-68842143D02*
X72146438Y-68889762D01*
X72146438Y-68889762D02*
X72098819Y-68985000D01*
X72098819Y-68985000D02*
X72098819Y-69223095D01*
X72098819Y-69223095D02*
X72146438Y-69318333D01*
X72146438Y-69318333D02*
X72194057Y-69365952D01*
X72194057Y-69365952D02*
X72289295Y-69413571D01*
X72289295Y-69413571D02*
X72384533Y-69413571D01*
X72384533Y-69413571D02*
X72527390Y-69365952D01*
X72527390Y-69365952D02*
X73098819Y-68794524D01*
X73098819Y-68794524D02*
X73098819Y-69413571D01*
X73003580Y-70413571D02*
X73051200Y-70365952D01*
X73051200Y-70365952D02*
X73098819Y-70223095D01*
X73098819Y-70223095D02*
X73098819Y-70127857D01*
X73098819Y-70127857D02*
X73051200Y-69985000D01*
X73051200Y-69985000D02*
X72955961Y-69889762D01*
X72955961Y-69889762D02*
X72860723Y-69842143D01*
X72860723Y-69842143D02*
X72670247Y-69794524D01*
X72670247Y-69794524D02*
X72527390Y-69794524D01*
X72527390Y-69794524D02*
X72336914Y-69842143D01*
X72336914Y-69842143D02*
X72241676Y-69889762D01*
X72241676Y-69889762D02*
X72146438Y-69985000D01*
X72146438Y-69985000D02*
X72098819Y-70127857D01*
X72098819Y-70127857D02*
X72098819Y-70223095D01*
X72098819Y-70223095D02*
X72146438Y-70365952D01*
X72146438Y-70365952D02*
X72194057Y-70413571D01*
X72717866Y-70842143D02*
X72717866Y-71604048D01*
X73098819Y-72604047D02*
X73098819Y-72032619D01*
X73098819Y-72318333D02*
X72098819Y-72318333D01*
X72098819Y-72318333D02*
X72241676Y-72223095D01*
X72241676Y-72223095D02*
X72336914Y-72127857D01*
X72336914Y-72127857D02*
X72384533Y-72032619D01*
X153214819Y-77010266D02*
X153929104Y-77010266D01*
X153929104Y-77010266D02*
X154071961Y-76962647D01*
X154071961Y-76962647D02*
X154167200Y-76867409D01*
X154167200Y-76867409D02*
X154214819Y-76724552D01*
X154214819Y-76724552D02*
X154214819Y-76629314D01*
X154214819Y-78010266D02*
X154214819Y-77438838D01*
X154214819Y-77724552D02*
X153214819Y-77724552D01*
X153214819Y-77724552D02*
X153357676Y-77629314D01*
X153357676Y-77629314D02*
X153452914Y-77534076D01*
X153452914Y-77534076D02*
X153500533Y-77438838D01*
X155009619Y-98726666D02*
X155723904Y-98726666D01*
X155723904Y-98726666D02*
X155866761Y-98679047D01*
X155866761Y-98679047D02*
X155962000Y-98583809D01*
X155962000Y-98583809D02*
X156009619Y-98440952D01*
X156009619Y-98440952D02*
X156009619Y-98345714D01*
X155104857Y-99155238D02*
X155057238Y-99202857D01*
X155057238Y-99202857D02*
X155009619Y-99298095D01*
X155009619Y-99298095D02*
X155009619Y-99536190D01*
X155009619Y-99536190D02*
X155057238Y-99631428D01*
X155057238Y-99631428D02*
X155104857Y-99679047D01*
X155104857Y-99679047D02*
X155200095Y-99726666D01*
X155200095Y-99726666D02*
X155295333Y-99726666D01*
X155295333Y-99726666D02*
X155438190Y-99679047D01*
X155438190Y-99679047D02*
X156009619Y-99107619D01*
X156009619Y-99107619D02*
X156009619Y-99726666D01*
D10*
%TO.C,U1*%
X97282000Y-79451200D02*
G75*
G02*
X95758000Y-79451200I-762000J0D01*
G01*
X95758000Y-79451200D02*
G75*
G02*
X97282000Y-79451200I762000J0D01*
G01*
X97282000Y-81991200D02*
G75*
G02*
X95758000Y-81991200I-762000J0D01*
G01*
X95758000Y-81991200D02*
G75*
G02*
X97282000Y-81991200I762000J0D01*
G01*
X97282000Y-84531200D02*
G75*
G02*
X95758000Y-84531200I-762000J0D01*
G01*
X95758000Y-84531200D02*
G75*
G02*
X97282000Y-84531200I762000J0D01*
G01*
X97282000Y-87071200D02*
G75*
G02*
X95758000Y-87071200I-762000J0D01*
G01*
X95758000Y-87071200D02*
G75*
G02*
X97282000Y-87071200I762000J0D01*
G01*
X97282000Y-89611200D02*
G75*
G02*
X95758000Y-89611200I-762000J0D01*
G01*
X95758000Y-89611200D02*
G75*
G02*
X97282000Y-89611200I762000J0D01*
G01*
X99822000Y-79451200D02*
G75*
G02*
X98298000Y-79451200I-762000J0D01*
G01*
X98298000Y-79451200D02*
G75*
G02*
X99822000Y-79451200I762000J0D01*
G01*
X99822000Y-81991200D02*
G75*
G02*
X98298000Y-81991200I-762000J0D01*
G01*
X98298000Y-81991200D02*
G75*
G02*
X99822000Y-81991200I762000J0D01*
G01*
X99822000Y-84531200D02*
G75*
G02*
X98298000Y-84531200I-762000J0D01*
G01*
X98298000Y-84531200D02*
G75*
G02*
X99822000Y-84531200I762000J0D01*
G01*
X99822000Y-87071200D02*
G75*
G02*
X98298000Y-87071200I-762000J0D01*
G01*
X98298000Y-87071200D02*
G75*
G02*
X99822000Y-87071200I762000J0D01*
G01*
X99822000Y-89611200D02*
G75*
G02*
X98298000Y-89611200I-762000J0D01*
G01*
X98298000Y-89611200D02*
G75*
G02*
X99822000Y-89611200I762000J0D01*
G01*
%TO.C,J1*%
X155260000Y-72443600D02*
X155260000Y-74143600D01*
X155560000Y-72743600D02*
X170060000Y-72743600D01*
X155560000Y-74743600D02*
X155560000Y-72743600D01*
X155560000Y-81943600D02*
X155560000Y-79943600D01*
X156560000Y-72443600D02*
X155260000Y-72443600D01*
X156860000Y-81943600D02*
X155560000Y-81943600D01*
X170060000Y-72743600D02*
X170060000Y-81943600D01*
X170060000Y-81943600D02*
X161460000Y-81943600D01*
%TO.C,J2*%
X156644800Y-92750000D02*
X168364800Y-92750000D01*
X156644800Y-94170000D02*
X156644800Y-92750000D01*
X156644800Y-103950000D02*
X156644800Y-105370000D01*
X156644800Y-105370000D02*
X168364800Y-105370000D01*
X156954800Y-95010000D02*
X157554800Y-95310000D01*
X156954800Y-95610000D02*
X156954800Y-95010000D01*
X157554800Y-95310000D02*
X156954800Y-95610000D01*
X161144800Y-94170000D02*
X156644800Y-94170000D01*
X161144800Y-99060000D02*
X161144800Y-94170000D01*
X161144800Y-99060000D02*
X161144800Y-103950000D01*
X161144800Y-103950000D02*
X156644800Y-103950000D01*
X162254800Y-95060000D02*
X162254800Y-95560000D01*
X162254800Y-95560000D02*
X167754800Y-95560000D01*
X162254800Y-97560000D02*
X162254800Y-98060000D01*
X162254800Y-98060000D02*
X167754800Y-98060000D01*
X162254800Y-100060000D02*
X162254800Y-100560000D01*
X162254800Y-100560000D02*
X167754800Y-100560000D01*
X162254800Y-102560000D02*
X162254800Y-103060000D01*
X162254800Y-103060000D02*
X167754800Y-103060000D01*
X167754800Y-95060000D02*
X162254800Y-95060000D01*
X167754800Y-95560000D02*
X167754800Y-95060000D01*
X167754800Y-97560000D02*
X162254800Y-97560000D01*
X167754800Y-98060000D02*
X167754800Y-97560000D01*
X167754800Y-100060000D02*
X162254800Y-100060000D01*
X167754800Y-100560000D02*
X167754800Y-100060000D01*
X167754800Y-102560000D02*
X162254800Y-102560000D01*
X167754800Y-103060000D02*
X167754800Y-102560000D01*
X168364800Y-92750000D02*
X168364800Y-99060000D01*
X168364800Y-105370000D02*
X168364800Y-99060000D01*
%TD*%
M02*
