M48
; DRILL file {KiCad 8.0.9-8.0.9-0~ubuntu22.04.1} date 2025-06-27T15:11:05+0900
; FORMAT={-:-/ absolute / inch / decimal}
; #@! TF.CreationDate,2025-06-27T15:11:05+09:00
; #@! TF.GenerationSoftware,Kicad,Pcbnew,8.0.9-8.0.9-0~ubuntu22.04.1
; #@! TF.FileFunction,MixedPlating,1,2
FMAT,2
INCH
; #@! TA.AperFunction,Plated,PTH,ViaDrill
T1C0.0157
; #@! TA.AperFunction,Plated,PTH,ComponentDrill
T2C0.0197
; #@! TA.AperFunction,Plated,PTH,ComponentDrill
T3C0.0240
; #@! TA.AperFunction,Plated,PTH,ComponentDrill
T4C0.0261
; #@! TA.AperFunction,Plated,PTH,ComponentDrill
T5C0.0276
; #@! TA.AperFunction,Plated,PTH,ViaDrill
T6C0.0315
; #@! TA.AperFunction,Plated,PTH,ComponentDrill
T7C0.0315
; #@! TA.AperFunction,Plated,PTH,ComponentDrill
T8C0.0335
; #@! TA.AperFunction,Plated,PTH,ComponentDrill
T9C0.0354
; #@! TA.AperFunction,Plated,PTH,ComponentDrill
T10C0.0374
; #@! TA.AperFunction,Plated,PTH,ComponentDrill
T11C0.0394
; #@! TA.AperFunction,Plated,PTH,ComponentDrill
T12C0.0433
; #@! TA.AperFunction,Plated,PTH,ComponentDrill
T13C0.1063
; #@! TA.AperFunction,NonPlated,NPTH,ComponentDrill
T14C0.0984
%
G90
G05
T1
X3.478Y-3.205
X3.53Y-3.03
X3.56Y-3.0
X3.6301Y-3.845
X3.6301Y-3.96
X3.6301Y-4.3103
X3.656Y-4.363
X3.682Y-4.337
X3.734Y-4.2124
X3.9764Y-3.13
X3.9764Y-3.819
X4.074Y-4.389
X4.2736Y-3.998
X4.374Y-3.765
X4.4163Y-3.998
X4.4163Y-4.389
X4.474Y-3.7904
X4.5738Y-3.8169
X4.62Y-4.024
X4.62Y-4.311
X4.65Y-3.375
X4.65Y-3.676
X4.685Y-3.32
X4.685Y-3.739
X4.7201Y-3.8689
X4.7201Y-4.311
X4.7461Y-3.8429
X4.7461Y-4.285
X4.772Y-3.8169
X4.772Y-4.13
X4.798Y-3.7909
X4.798Y-4.1
X4.824Y-3.765
X4.824Y-4.075
X4.876Y-3.52
X4.876Y-3.895
X4.94Y-2.9
X4.94Y-3.24
X4.966Y-2.9682
X4.966Y-3.2091
X5.122Y-2.948
X5.122Y-3.1288
X5.15Y-3.995
X5.35Y-3.921
X5.35Y-4.311
X5.45Y-4.285
X5.55Y-4.05
X5.6Y-4.363
X5.65Y-4.075
X5.7Y-4.337
X5.75Y-3.947
X5.75Y-4.1
X5.85Y-4.13
X5.8996Y-3.895
X5.9Y-4.13
X5.95Y-3.895
X6.0Y-4.024
X6.05Y-3.9492
X6.076Y-3.739
X6.105Y-3.702
X6.13Y-3.665
X6.13Y-3.8431
X6.35Y-3.665
X6.35Y-4.13
T3
X3.9419Y-2.8248
X4.0419Y-2.8248
X4.1419Y-2.8248
T4
X3.248Y-2.9193
X3.348Y-2.9193
X3.448Y-2.9193
T5
X3.7957Y-2.9823
X3.9957Y-2.9823
X4.4683Y-2.6391
X4.6717Y-2.6391
T6
X3.2756Y-3.3811
X3.2756Y-3.9124
X3.2756Y-4.4509
X3.38Y-3.5433
X3.448Y-2.475
X4.1574Y-3.169
X4.8701Y-3.2091
X4.8701Y-3.326
X5.05Y-3.795
X5.25Y-3.4252
X5.25Y-3.795
X6.152Y-2.6391
X6.3996Y-3.326
X6.405Y-4.4509
X6.4567Y-3.4252
X6.4567Y-4.0476
T7
X3.1772Y-3.76
X3.1772Y-4.06
X3.248Y-3.1201
X3.4449Y-3.1201
X3.58Y-2.7284
X3.58Y-2.8072
X3.745Y-2.5226
X3.9419Y-2.5226
X4.04Y-2.5226
X4.074Y-3.9124
X4.074Y-4.2124
X4.1574Y-3.3676
X4.2126Y-3.0724
X4.2369Y-2.5226
T8
X3.5699Y-3.31
X3.6407Y-3.1092
T9
X2.95Y-3.96
X2.95Y-4.06
T10
X2.9492Y-3.1842
X2.9492Y-3.2826
X2.9492Y-3.3811
X2.95Y-2.63
X2.95Y-2.7284
X2.95Y-2.8269
X2.95Y-2.9253
X3.8012Y-3.9124
X3.8012Y-4.0108
X3.8012Y-4.1093
X6.262Y-3.7524
X6.262Y-3.8508
X6.262Y-3.9492
X6.262Y-4.0476
T11
X2.9442Y-3.6326
X2.9442Y-3.7311
X3.8Y-3.13
X3.8Y-3.23
X3.8Y-3.33
X3.8Y-3.43
X3.8Y-3.53
X3.9Y-3.13
X3.9Y-3.23
X3.9Y-3.33
X3.9Y-3.43
X3.9Y-3.53
X4.074Y-3.602
X4.074Y-3.702
X4.174Y-3.602
X4.174Y-3.702
X4.274Y-3.602
X4.274Y-3.702
X4.3179Y-4.125
X4.374Y-3.602
X4.374Y-3.702
X4.4163Y-4.125
X4.474Y-3.602
X4.474Y-3.702
X4.5694Y-2.928
X4.5694Y-3.0083
X4.5694Y-3.0887
X4.5694Y-3.169
X4.574Y-3.602
X4.574Y-3.702
X4.6694Y-2.9682
X4.6694Y-3.0485
X4.6694Y-3.1288
X4.6694Y-3.2091
X4.95Y-3.6
X4.95Y-4.2
X5.05Y-3.6
X5.05Y-4.2
X5.15Y-3.6
X5.15Y-4.2
X5.2417Y-2.845
X5.2417Y-2.945
X5.2417Y-3.045
X5.2417Y-3.145
X5.25Y-3.6
X5.25Y-4.2
X5.3417Y-2.898
X5.3417Y-2.998
X5.3417Y-3.098
X5.3417Y-3.198
X5.35Y-3.6
X5.35Y-4.2
X5.45Y-3.6
X5.45Y-4.2
X5.55Y-3.6
X5.55Y-4.2
X5.65Y-3.6
X5.65Y-4.2
X5.75Y-3.6
X5.75Y-4.2
X5.85Y-3.6
X5.85Y-4.2
X5.95Y-3.6
X5.95Y-4.2
X6.05Y-3.6
X6.05Y-4.2
X6.15Y-3.6
X6.15Y-4.2
X6.25Y-3.6
X6.25Y-4.2
X6.35Y-3.6
X6.35Y-4.2
T12
X3.38Y-3.31
X3.38Y-3.71
T13
X2.975Y-4.325
X3.2Y-2.475
X6.575Y-2.475
X6.575Y-4.325
T14
X4.76Y-2.7973
X4.76Y-3.38
T2
G00X4.5498Y-2.7688
M15
G01X4.5891Y-2.7688
M16
G05
G00X4.5498Y-3.4085
M15
G01X4.5891Y-3.4085
M16
G05
T11
G00X6.152Y-2.9938
M15
G01X6.152Y-3.0962
M16
G05
G00X6.3094Y-3.234
M15
G01X6.2228Y-3.234
M16
G05
G00X6.4Y-3.0017
M15
G01X6.4Y-3.0883
M16
G05
M30
