%TF.GenerationSoftware,KiCad,Pcbnew,8.0.9-8.0.9-0~ubuntu22.04.1*%
%TF.CreationDate,2025-06-27T15:10:22+09:00*%
%TF.ProjectId,M302N,4d333032-4e2e-46b6-9963-61645f706362,2.00*%
%TF.SameCoordinates,Original*%
%TF.FileFunction,Legend,Top*%
%TF.FilePolarity,Positive*%
%FSLAX46Y46*%
G04 Gerber Fmt 4.6, Leading zero omitted, Abs format (unit mm)*
G04 Created by KiCad (PCBNEW 8.0.9-8.0.9-0~ubuntu22.04.1) date 2025-06-27 15:10:22*
%MOMM*%
%LPD*%
G01*
G04 APERTURE LIST*
%ADD10C,0.120000*%
%ADD11C,0.500000*%
%ADD12C,0.150000*%
%ADD13C,0.300000*%
%ADD14C,0.187500*%
%ADD15C,0.125000*%
%ADD16C,0.100000*%
%ADD17C,0.152400*%
G04 APERTURE END LIST*
D10*
X114235000Y-66145000D02*
X114235000Y-67920000D01*
D11*
X114935000Y-66170000D02*
X114935000Y-67945000D01*
X107315000Y-73215500D02*
X107315000Y-74866500D01*
D10*
X117835000Y-66145000D02*
X117835000Y-67920000D01*
X76818661Y-69112760D02*
X77732947Y-69112760D01*
X77275804Y-69569902D02*
X77275804Y-68655617D01*
X78875803Y-68369902D02*
X78304375Y-68369902D01*
X78304375Y-68369902D02*
X78247232Y-68941331D01*
X78247232Y-68941331D02*
X78304375Y-68884188D01*
X78304375Y-68884188D02*
X78418661Y-68827045D01*
X78418661Y-68827045D02*
X78704375Y-68827045D01*
X78704375Y-68827045D02*
X78818661Y-68884188D01*
X78818661Y-68884188D02*
X78875803Y-68941331D01*
X78875803Y-68941331D02*
X78932946Y-69055617D01*
X78932946Y-69055617D02*
X78932946Y-69341331D01*
X78932946Y-69341331D02*
X78875803Y-69455617D01*
X78875803Y-69455617D02*
X78818661Y-69512760D01*
X78818661Y-69512760D02*
X78704375Y-69569902D01*
X78704375Y-69569902D02*
X78418661Y-69569902D01*
X78418661Y-69569902D02*
X78304375Y-69512760D01*
X78304375Y-69512760D02*
X78247232Y-69455617D01*
X79275803Y-68369902D02*
X79675803Y-69569902D01*
X79675803Y-69569902D02*
X80075803Y-68369902D01*
X76888518Y-72306760D02*
X77059947Y-72363902D01*
X77059947Y-72363902D02*
X77345661Y-72363902D01*
X77345661Y-72363902D02*
X77459947Y-72306760D01*
X77459947Y-72306760D02*
X77517089Y-72249617D01*
X77517089Y-72249617D02*
X77574232Y-72135331D01*
X77574232Y-72135331D02*
X77574232Y-72021045D01*
X77574232Y-72021045D02*
X77517089Y-71906760D01*
X77517089Y-71906760D02*
X77459947Y-71849617D01*
X77459947Y-71849617D02*
X77345661Y-71792474D01*
X77345661Y-71792474D02*
X77117089Y-71735331D01*
X77117089Y-71735331D02*
X77002804Y-71678188D01*
X77002804Y-71678188D02*
X76945661Y-71621045D01*
X76945661Y-71621045D02*
X76888518Y-71506760D01*
X76888518Y-71506760D02*
X76888518Y-71392474D01*
X76888518Y-71392474D02*
X76945661Y-71278188D01*
X76945661Y-71278188D02*
X77002804Y-71221045D01*
X77002804Y-71221045D02*
X77117089Y-71163902D01*
X77117089Y-71163902D02*
X77402804Y-71163902D01*
X77402804Y-71163902D02*
X77574232Y-71221045D01*
X78088518Y-72363902D02*
X78088518Y-71163902D01*
X78088518Y-71163902D02*
X78374232Y-71163902D01*
X78374232Y-71163902D02*
X78545661Y-71221045D01*
X78545661Y-71221045D02*
X78659946Y-71335331D01*
X78659946Y-71335331D02*
X78717089Y-71449617D01*
X78717089Y-71449617D02*
X78774232Y-71678188D01*
X78774232Y-71678188D02*
X78774232Y-71849617D01*
X78774232Y-71849617D02*
X78717089Y-72078188D01*
X78717089Y-72078188D02*
X78659946Y-72192474D01*
X78659946Y-72192474D02*
X78545661Y-72306760D01*
X78545661Y-72306760D02*
X78374232Y-72363902D01*
X78374232Y-72363902D02*
X78088518Y-72363902D01*
X79231375Y-72021045D02*
X79802804Y-72021045D01*
X79117089Y-72363902D02*
X79517089Y-71163902D01*
X79517089Y-71163902D02*
X79917089Y-72363902D01*
X105219042Y-96645379D02*
X105219042Y-95645379D01*
X105219042Y-95645379D02*
X105457137Y-95645379D01*
X105457137Y-95645379D02*
X105599994Y-95692998D01*
X105599994Y-95692998D02*
X105695232Y-95788236D01*
X105695232Y-95788236D02*
X105742851Y-95883474D01*
X105742851Y-95883474D02*
X105790470Y-96073950D01*
X105790470Y-96073950D02*
X105790470Y-96216807D01*
X105790470Y-96216807D02*
X105742851Y-96407283D01*
X105742851Y-96407283D02*
X105695232Y-96502521D01*
X105695232Y-96502521D02*
X105599994Y-96597760D01*
X105599994Y-96597760D02*
X105457137Y-96645379D01*
X105457137Y-96645379D02*
X105219042Y-96645379D01*
X106361899Y-96073950D02*
X106266661Y-96026331D01*
X106266661Y-96026331D02*
X106219042Y-95978712D01*
X106219042Y-95978712D02*
X106171423Y-95883474D01*
X106171423Y-95883474D02*
X106171423Y-95835855D01*
X106171423Y-95835855D02*
X106219042Y-95740617D01*
X106219042Y-95740617D02*
X106266661Y-95692998D01*
X106266661Y-95692998D02*
X106361899Y-95645379D01*
X106361899Y-95645379D02*
X106552375Y-95645379D01*
X106552375Y-95645379D02*
X106647613Y-95692998D01*
X106647613Y-95692998D02*
X106695232Y-95740617D01*
X106695232Y-95740617D02*
X106742851Y-95835855D01*
X106742851Y-95835855D02*
X106742851Y-95883474D01*
X106742851Y-95883474D02*
X106695232Y-95978712D01*
X106695232Y-95978712D02*
X106647613Y-96026331D01*
X106647613Y-96026331D02*
X106552375Y-96073950D01*
X106552375Y-96073950D02*
X106361899Y-96073950D01*
X106361899Y-96073950D02*
X106266661Y-96121569D01*
X106266661Y-96121569D02*
X106219042Y-96169188D01*
X106219042Y-96169188D02*
X106171423Y-96264426D01*
X106171423Y-96264426D02*
X106171423Y-96454902D01*
X106171423Y-96454902D02*
X106219042Y-96550140D01*
X106219042Y-96550140D02*
X106266661Y-96597760D01*
X106266661Y-96597760D02*
X106361899Y-96645379D01*
X106361899Y-96645379D02*
X106552375Y-96645379D01*
X106552375Y-96645379D02*
X106647613Y-96597760D01*
X106647613Y-96597760D02*
X106695232Y-96550140D01*
X106695232Y-96550140D02*
X106742851Y-96454902D01*
X106742851Y-96454902D02*
X106742851Y-96264426D01*
X106742851Y-96264426D02*
X106695232Y-96169188D01*
X106695232Y-96169188D02*
X106647613Y-96121569D01*
X106647613Y-96121569D02*
X106552375Y-96073950D01*
X102679042Y-96645379D02*
X102679042Y-95645379D01*
X102679042Y-95645379D02*
X102917137Y-95645379D01*
X102917137Y-95645379D02*
X103059994Y-95692998D01*
X103059994Y-95692998D02*
X103155232Y-95788236D01*
X103155232Y-95788236D02*
X103202851Y-95883474D01*
X103202851Y-95883474D02*
X103250470Y-96073950D01*
X103250470Y-96073950D02*
X103250470Y-96216807D01*
X103250470Y-96216807D02*
X103202851Y-96407283D01*
X103202851Y-96407283D02*
X103155232Y-96502521D01*
X103155232Y-96502521D02*
X103059994Y-96597760D01*
X103059994Y-96597760D02*
X102917137Y-96645379D01*
X102917137Y-96645379D02*
X102679042Y-96645379D01*
X103726661Y-96645379D02*
X103917137Y-96645379D01*
X103917137Y-96645379D02*
X104012375Y-96597760D01*
X104012375Y-96597760D02*
X104059994Y-96550140D01*
X104059994Y-96550140D02*
X104155232Y-96407283D01*
X104155232Y-96407283D02*
X104202851Y-96216807D01*
X104202851Y-96216807D02*
X104202851Y-95835855D01*
X104202851Y-95835855D02*
X104155232Y-95740617D01*
X104155232Y-95740617D02*
X104107613Y-95692998D01*
X104107613Y-95692998D02*
X104012375Y-95645379D01*
X104012375Y-95645379D02*
X103821899Y-95645379D01*
X103821899Y-95645379D02*
X103726661Y-95692998D01*
X103726661Y-95692998D02*
X103679042Y-95740617D01*
X103679042Y-95740617D02*
X103631423Y-95835855D01*
X103631423Y-95835855D02*
X103631423Y-96073950D01*
X103631423Y-96073950D02*
X103679042Y-96169188D01*
X103679042Y-96169188D02*
X103726661Y-96216807D01*
X103726661Y-96216807D02*
X103821899Y-96264426D01*
X103821899Y-96264426D02*
X104012375Y-96264426D01*
X104012375Y-96264426D02*
X104107613Y-96216807D01*
X104107613Y-96216807D02*
X104155232Y-96169188D01*
X104155232Y-96169188D02*
X104202851Y-96073950D01*
D12*
X72012398Y-103731342D02*
X72012398Y-102531342D01*
X72698112Y-103731342D02*
X72183826Y-103045628D01*
X72698112Y-102531342D02*
X72012398Y-103217057D01*
D10*
X110299042Y-96645379D02*
X110299042Y-95645379D01*
X110299042Y-95645379D02*
X110537137Y-95645379D01*
X110537137Y-95645379D02*
X110679994Y-95692998D01*
X110679994Y-95692998D02*
X110775232Y-95788236D01*
X110775232Y-95788236D02*
X110822851Y-95883474D01*
X110822851Y-95883474D02*
X110870470Y-96073950D01*
X110870470Y-96073950D02*
X110870470Y-96216807D01*
X110870470Y-96216807D02*
X110822851Y-96407283D01*
X110822851Y-96407283D02*
X110775232Y-96502521D01*
X110775232Y-96502521D02*
X110679994Y-96597760D01*
X110679994Y-96597760D02*
X110537137Y-96645379D01*
X110537137Y-96645379D02*
X110299042Y-96645379D01*
X111727613Y-95645379D02*
X111537137Y-95645379D01*
X111537137Y-95645379D02*
X111441899Y-95692998D01*
X111441899Y-95692998D02*
X111394280Y-95740617D01*
X111394280Y-95740617D02*
X111299042Y-95883474D01*
X111299042Y-95883474D02*
X111251423Y-96073950D01*
X111251423Y-96073950D02*
X111251423Y-96454902D01*
X111251423Y-96454902D02*
X111299042Y-96550140D01*
X111299042Y-96550140D02*
X111346661Y-96597760D01*
X111346661Y-96597760D02*
X111441899Y-96645379D01*
X111441899Y-96645379D02*
X111632375Y-96645379D01*
X111632375Y-96645379D02*
X111727613Y-96597760D01*
X111727613Y-96597760D02*
X111775232Y-96550140D01*
X111775232Y-96550140D02*
X111822851Y-96454902D01*
X111822851Y-96454902D02*
X111822851Y-96216807D01*
X111822851Y-96216807D02*
X111775232Y-96121569D01*
X111775232Y-96121569D02*
X111727613Y-96073950D01*
X111727613Y-96073950D02*
X111632375Y-96026331D01*
X111632375Y-96026331D02*
X111441899Y-96026331D01*
X111441899Y-96026331D02*
X111346661Y-96073950D01*
X111346661Y-96073950D02*
X111299042Y-96121569D01*
X111299042Y-96121569D02*
X111251423Y-96216807D01*
X115633042Y-96645379D02*
X115633042Y-95645379D01*
X115633042Y-95645379D02*
X115871137Y-95645379D01*
X115871137Y-95645379D02*
X116013994Y-95692998D01*
X116013994Y-95692998D02*
X116109232Y-95788236D01*
X116109232Y-95788236D02*
X116156851Y-95883474D01*
X116156851Y-95883474D02*
X116204470Y-96073950D01*
X116204470Y-96073950D02*
X116204470Y-96216807D01*
X116204470Y-96216807D02*
X116156851Y-96407283D01*
X116156851Y-96407283D02*
X116109232Y-96502521D01*
X116109232Y-96502521D02*
X116013994Y-96597760D01*
X116013994Y-96597760D02*
X115871137Y-96645379D01*
X115871137Y-96645379D02*
X115633042Y-96645379D01*
X117061613Y-95978712D02*
X117061613Y-96645379D01*
X116823518Y-95597760D02*
X116585423Y-96312045D01*
X116585423Y-96312045D02*
X117204470Y-96312045D01*
X76888518Y-74719760D02*
X77059947Y-74776902D01*
X77059947Y-74776902D02*
X77345661Y-74776902D01*
X77345661Y-74776902D02*
X77459947Y-74719760D01*
X77459947Y-74719760D02*
X77517089Y-74662617D01*
X77517089Y-74662617D02*
X77574232Y-74548331D01*
X77574232Y-74548331D02*
X77574232Y-74434045D01*
X77574232Y-74434045D02*
X77517089Y-74319760D01*
X77517089Y-74319760D02*
X77459947Y-74262617D01*
X77459947Y-74262617D02*
X77345661Y-74205474D01*
X77345661Y-74205474D02*
X77117089Y-74148331D01*
X77117089Y-74148331D02*
X77002804Y-74091188D01*
X77002804Y-74091188D02*
X76945661Y-74034045D01*
X76945661Y-74034045D02*
X76888518Y-73919760D01*
X76888518Y-73919760D02*
X76888518Y-73805474D01*
X76888518Y-73805474D02*
X76945661Y-73691188D01*
X76945661Y-73691188D02*
X77002804Y-73634045D01*
X77002804Y-73634045D02*
X77117089Y-73576902D01*
X77117089Y-73576902D02*
X77402804Y-73576902D01*
X77402804Y-73576902D02*
X77574232Y-73634045D01*
X78774232Y-74662617D02*
X78717089Y-74719760D01*
X78717089Y-74719760D02*
X78545661Y-74776902D01*
X78545661Y-74776902D02*
X78431375Y-74776902D01*
X78431375Y-74776902D02*
X78259946Y-74719760D01*
X78259946Y-74719760D02*
X78145661Y-74605474D01*
X78145661Y-74605474D02*
X78088518Y-74491188D01*
X78088518Y-74491188D02*
X78031375Y-74262617D01*
X78031375Y-74262617D02*
X78031375Y-74091188D01*
X78031375Y-74091188D02*
X78088518Y-73862617D01*
X78088518Y-73862617D02*
X78145661Y-73748331D01*
X78145661Y-73748331D02*
X78259946Y-73634045D01*
X78259946Y-73634045D02*
X78431375Y-73576902D01*
X78431375Y-73576902D02*
X78545661Y-73576902D01*
X78545661Y-73576902D02*
X78717089Y-73634045D01*
X78717089Y-73634045D02*
X78774232Y-73691188D01*
X79859946Y-74776902D02*
X79288518Y-74776902D01*
X79288518Y-74776902D02*
X79288518Y-73576902D01*
D13*
X152954510Y-71960828D02*
X152954510Y-73175114D01*
X152954510Y-73175114D02*
X153025939Y-73317971D01*
X153025939Y-73317971D02*
X153097368Y-73389400D01*
X153097368Y-73389400D02*
X153240225Y-73460828D01*
X153240225Y-73460828D02*
X153525939Y-73460828D01*
X153525939Y-73460828D02*
X153668796Y-73389400D01*
X153668796Y-73389400D02*
X153740225Y-73317971D01*
X153740225Y-73317971D02*
X153811653Y-73175114D01*
X153811653Y-73175114D02*
X153811653Y-71960828D01*
X154525939Y-72675114D02*
X155025939Y-72675114D01*
X155240225Y-73460828D02*
X154525939Y-73460828D01*
X154525939Y-73460828D02*
X154525939Y-71960828D01*
X154525939Y-71960828D02*
X155240225Y-71960828D01*
X156740225Y-73317971D02*
X156668797Y-73389400D01*
X156668797Y-73389400D02*
X156454511Y-73460828D01*
X156454511Y-73460828D02*
X156311654Y-73460828D01*
X156311654Y-73460828D02*
X156097368Y-73389400D01*
X156097368Y-73389400D02*
X155954511Y-73246542D01*
X155954511Y-73246542D02*
X155883082Y-73103685D01*
X155883082Y-73103685D02*
X155811654Y-72817971D01*
X155811654Y-72817971D02*
X155811654Y-72603685D01*
X155811654Y-72603685D02*
X155883082Y-72317971D01*
X155883082Y-72317971D02*
X155954511Y-72175114D01*
X155954511Y-72175114D02*
X156097368Y-72032257D01*
X156097368Y-72032257D02*
X156311654Y-71960828D01*
X156311654Y-71960828D02*
X156454511Y-71960828D01*
X156454511Y-71960828D02*
X156668797Y-72032257D01*
X156668797Y-72032257D02*
X156740225Y-72103685D01*
X157311654Y-73389400D02*
X157525940Y-73460828D01*
X157525940Y-73460828D02*
X157883082Y-73460828D01*
X157883082Y-73460828D02*
X158025940Y-73389400D01*
X158025940Y-73389400D02*
X158097368Y-73317971D01*
X158097368Y-73317971D02*
X158168797Y-73175114D01*
X158168797Y-73175114D02*
X158168797Y-73032257D01*
X158168797Y-73032257D02*
X158097368Y-72889400D01*
X158097368Y-72889400D02*
X158025940Y-72817971D01*
X158025940Y-72817971D02*
X157883082Y-72746542D01*
X157883082Y-72746542D02*
X157597368Y-72675114D01*
X157597368Y-72675114D02*
X157454511Y-72603685D01*
X157454511Y-72603685D02*
X157383082Y-72532257D01*
X157383082Y-72532257D02*
X157311654Y-72389400D01*
X157311654Y-72389400D02*
X157311654Y-72246542D01*
X157311654Y-72246542D02*
X157383082Y-72103685D01*
X157383082Y-72103685D02*
X157454511Y-72032257D01*
X157454511Y-72032257D02*
X157597368Y-71960828D01*
X157597368Y-71960828D02*
X157954511Y-71960828D01*
X157954511Y-71960828D02*
X158168797Y-72032257D01*
X158740225Y-72032257D02*
X159454511Y-72032257D01*
X159668796Y-72175114D02*
X160383082Y-72175114D01*
X158597368Y-72246542D02*
X159525939Y-72246542D01*
X159668796Y-72532257D02*
X160383082Y-72532257D01*
X158740225Y-72603685D02*
X159454511Y-72603685D01*
X158811653Y-72817971D02*
X159454511Y-72817971D01*
X159668796Y-72889400D02*
X160383082Y-72889400D01*
X158811653Y-73032257D02*
X159454511Y-73032257D01*
X158811653Y-73317971D02*
X159525939Y-73317971D01*
X160097368Y-73460828D02*
X160454511Y-73460828D01*
X158811653Y-72460828D02*
X158811653Y-73389400D01*
X159168796Y-72460828D02*
X159168796Y-73317971D01*
X159668796Y-71817971D02*
X159668796Y-72817971D01*
X160168796Y-72889400D02*
X160168796Y-73460828D01*
X159668796Y-71817971D02*
X160383082Y-71817971D01*
X160383082Y-71817971D02*
X160383082Y-72817971D01*
X160454511Y-73175114D02*
X160454511Y-73460828D01*
X158811653Y-71746542D02*
X158668796Y-72175114D01*
X159025939Y-72032257D02*
X158668796Y-72603685D01*
X159811653Y-72889400D02*
X159740225Y-73175114D01*
X159740225Y-73175114D02*
X159525939Y-73460828D01*
X161383082Y-72246542D02*
X161954511Y-72246542D01*
X161383082Y-72603685D02*
X161954511Y-72603685D01*
X161383082Y-72960828D02*
X161954511Y-72960828D01*
X162311654Y-73460828D02*
X162668797Y-73460828D01*
X161383082Y-71889400D02*
X161383082Y-72960828D01*
X161383082Y-71889400D02*
X161954511Y-71889400D01*
X161954511Y-71889400D02*
X161954511Y-72960828D01*
X162240225Y-71960828D02*
X162240225Y-73032257D01*
X162668797Y-71746542D02*
X162668797Y-73460828D01*
X161811654Y-73103685D02*
X162097368Y-73389400D01*
X161525939Y-73103685D02*
X161240225Y-73460828D01*
X160954511Y-71817971D02*
X161240225Y-71960828D01*
X160811654Y-72317971D02*
X161168797Y-72460828D01*
X161168797Y-72817971D02*
X160883082Y-73389400D01*
X163954511Y-71960828D02*
X163883083Y-72389400D01*
X163883083Y-72389400D02*
X163811654Y-72746542D01*
X163811654Y-72746542D02*
X163597368Y-73032257D01*
X163597368Y-73032257D02*
X163311654Y-73317971D01*
X164668797Y-72675114D02*
X165811654Y-72675114D01*
X167097369Y-72317971D02*
X167240226Y-72460828D01*
X167311655Y-72246542D02*
X167454512Y-72389400D01*
X166811655Y-71817971D02*
X166811655Y-73389400D01*
X166811655Y-72460828D02*
X167240226Y-72817971D01*
X152954510Y-66090996D02*
X152954510Y-64590996D01*
X152954510Y-64590996D02*
X153454510Y-65662425D01*
X153454510Y-65662425D02*
X153954510Y-64590996D01*
X153954510Y-64590996D02*
X153954510Y-66090996D01*
X154525939Y-64590996D02*
X155454511Y-64590996D01*
X155454511Y-64590996D02*
X154954511Y-65162425D01*
X154954511Y-65162425D02*
X155168796Y-65162425D01*
X155168796Y-65162425D02*
X155311654Y-65233853D01*
X155311654Y-65233853D02*
X155383082Y-65305282D01*
X155383082Y-65305282D02*
X155454511Y-65448139D01*
X155454511Y-65448139D02*
X155454511Y-65805282D01*
X155454511Y-65805282D02*
X155383082Y-65948139D01*
X155383082Y-65948139D02*
X155311654Y-66019568D01*
X155311654Y-66019568D02*
X155168796Y-66090996D01*
X155168796Y-66090996D02*
X154740225Y-66090996D01*
X154740225Y-66090996D02*
X154597368Y-66019568D01*
X154597368Y-66019568D02*
X154525939Y-65948139D01*
X156383082Y-64590996D02*
X156525939Y-64590996D01*
X156525939Y-64590996D02*
X156668796Y-64662425D01*
X156668796Y-64662425D02*
X156740225Y-64733853D01*
X156740225Y-64733853D02*
X156811653Y-64876710D01*
X156811653Y-64876710D02*
X156883082Y-65162425D01*
X156883082Y-65162425D02*
X156883082Y-65519568D01*
X156883082Y-65519568D02*
X156811653Y-65805282D01*
X156811653Y-65805282D02*
X156740225Y-65948139D01*
X156740225Y-65948139D02*
X156668796Y-66019568D01*
X156668796Y-66019568D02*
X156525939Y-66090996D01*
X156525939Y-66090996D02*
X156383082Y-66090996D01*
X156383082Y-66090996D02*
X156240225Y-66019568D01*
X156240225Y-66019568D02*
X156168796Y-65948139D01*
X156168796Y-65948139D02*
X156097367Y-65805282D01*
X156097367Y-65805282D02*
X156025939Y-65519568D01*
X156025939Y-65519568D02*
X156025939Y-65162425D01*
X156025939Y-65162425D02*
X156097367Y-64876710D01*
X156097367Y-64876710D02*
X156168796Y-64733853D01*
X156168796Y-64733853D02*
X156240225Y-64662425D01*
X156240225Y-64662425D02*
X156383082Y-64590996D01*
X157454510Y-64733853D02*
X157525938Y-64662425D01*
X157525938Y-64662425D02*
X157668796Y-64590996D01*
X157668796Y-64590996D02*
X158025938Y-64590996D01*
X158025938Y-64590996D02*
X158168796Y-64662425D01*
X158168796Y-64662425D02*
X158240224Y-64733853D01*
X158240224Y-64733853D02*
X158311653Y-64876710D01*
X158311653Y-64876710D02*
X158311653Y-65019568D01*
X158311653Y-65019568D02*
X158240224Y-65233853D01*
X158240224Y-65233853D02*
X157383081Y-66090996D01*
X157383081Y-66090996D02*
X158311653Y-66090996D01*
X158954509Y-66090996D02*
X158954509Y-64590996D01*
X158954509Y-64590996D02*
X159811652Y-66090996D01*
X159811652Y-66090996D02*
X159811652Y-64590996D01*
X152740225Y-67005912D02*
X153240225Y-68505912D01*
X153240225Y-68505912D02*
X153740225Y-67005912D01*
X154811653Y-68434484D02*
X154668796Y-68505912D01*
X154668796Y-68505912D02*
X154383082Y-68505912D01*
X154383082Y-68505912D02*
X154240224Y-68434484D01*
X154240224Y-68434484D02*
X154168796Y-68291626D01*
X154168796Y-68291626D02*
X154168796Y-67720198D01*
X154168796Y-67720198D02*
X154240224Y-67577341D01*
X154240224Y-67577341D02*
X154383082Y-67505912D01*
X154383082Y-67505912D02*
X154668796Y-67505912D01*
X154668796Y-67505912D02*
X154811653Y-67577341D01*
X154811653Y-67577341D02*
X154883082Y-67720198D01*
X154883082Y-67720198D02*
X154883082Y-67863055D01*
X154883082Y-67863055D02*
X154168796Y-68005912D01*
X155525938Y-68505912D02*
X155525938Y-67505912D01*
X155525938Y-67791626D02*
X155597367Y-67648769D01*
X155597367Y-67648769D02*
X155668796Y-67577341D01*
X155668796Y-67577341D02*
X155811653Y-67505912D01*
X155811653Y-67505912D02*
X155954510Y-67505912D01*
X156454509Y-68363055D02*
X156525938Y-68434484D01*
X156525938Y-68434484D02*
X156454509Y-68505912D01*
X156454509Y-68505912D02*
X156383081Y-68434484D01*
X156383081Y-68434484D02*
X156454509Y-68363055D01*
X156454509Y-68363055D02*
X156454509Y-68505912D01*
X158240224Y-67148769D02*
X158311652Y-67077341D01*
X158311652Y-67077341D02*
X158454510Y-67005912D01*
X158454510Y-67005912D02*
X158811652Y-67005912D01*
X158811652Y-67005912D02*
X158954510Y-67077341D01*
X158954510Y-67077341D02*
X159025938Y-67148769D01*
X159025938Y-67148769D02*
X159097367Y-67291626D01*
X159097367Y-67291626D02*
X159097367Y-67434484D01*
X159097367Y-67434484D02*
X159025938Y-67648769D01*
X159025938Y-67648769D02*
X158168795Y-68505912D01*
X158168795Y-68505912D02*
X159097367Y-68505912D01*
X159740223Y-68363055D02*
X159811652Y-68434484D01*
X159811652Y-68434484D02*
X159740223Y-68505912D01*
X159740223Y-68505912D02*
X159668795Y-68434484D01*
X159668795Y-68434484D02*
X159740223Y-68363055D01*
X159740223Y-68363055D02*
X159740223Y-68505912D01*
X160740224Y-67005912D02*
X160883081Y-67005912D01*
X160883081Y-67005912D02*
X161025938Y-67077341D01*
X161025938Y-67077341D02*
X161097367Y-67148769D01*
X161097367Y-67148769D02*
X161168795Y-67291626D01*
X161168795Y-67291626D02*
X161240224Y-67577341D01*
X161240224Y-67577341D02*
X161240224Y-67934484D01*
X161240224Y-67934484D02*
X161168795Y-68220198D01*
X161168795Y-68220198D02*
X161097367Y-68363055D01*
X161097367Y-68363055D02*
X161025938Y-68434484D01*
X161025938Y-68434484D02*
X160883081Y-68505912D01*
X160883081Y-68505912D02*
X160740224Y-68505912D01*
X160740224Y-68505912D02*
X160597367Y-68434484D01*
X160597367Y-68434484D02*
X160525938Y-68363055D01*
X160525938Y-68363055D02*
X160454509Y-68220198D01*
X160454509Y-68220198D02*
X160383081Y-67934484D01*
X160383081Y-67934484D02*
X160383081Y-67577341D01*
X160383081Y-67577341D02*
X160454509Y-67291626D01*
X160454509Y-67291626D02*
X160525938Y-67148769D01*
X160525938Y-67148769D02*
X160597367Y-67077341D01*
X160597367Y-67077341D02*
X160740224Y-67005912D01*
X162168795Y-67005912D02*
X162311652Y-67005912D01*
X162311652Y-67005912D02*
X162454509Y-67077341D01*
X162454509Y-67077341D02*
X162525938Y-67148769D01*
X162525938Y-67148769D02*
X162597366Y-67291626D01*
X162597366Y-67291626D02*
X162668795Y-67577341D01*
X162668795Y-67577341D02*
X162668795Y-67934484D01*
X162668795Y-67934484D02*
X162597366Y-68220198D01*
X162597366Y-68220198D02*
X162525938Y-68363055D01*
X162525938Y-68363055D02*
X162454509Y-68434484D01*
X162454509Y-68434484D02*
X162311652Y-68505912D01*
X162311652Y-68505912D02*
X162168795Y-68505912D01*
X162168795Y-68505912D02*
X162025938Y-68434484D01*
X162025938Y-68434484D02*
X161954509Y-68363055D01*
X161954509Y-68363055D02*
X161883080Y-68220198D01*
X161883080Y-68220198D02*
X161811652Y-67934484D01*
X161811652Y-67934484D02*
X161811652Y-67577341D01*
X161811652Y-67577341D02*
X161883080Y-67291626D01*
X161883080Y-67291626D02*
X161954509Y-67148769D01*
X161954509Y-67148769D02*
X162025938Y-67077341D01*
X162025938Y-67077341D02*
X162168795Y-67005912D01*
X152883082Y-69563685D02*
X152954510Y-69492257D01*
X152954510Y-69492257D02*
X153097368Y-69420828D01*
X153097368Y-69420828D02*
X153454510Y-69420828D01*
X153454510Y-69420828D02*
X153597368Y-69492257D01*
X153597368Y-69492257D02*
X153668796Y-69563685D01*
X153668796Y-69563685D02*
X153740225Y-69706542D01*
X153740225Y-69706542D02*
X153740225Y-69849400D01*
X153740225Y-69849400D02*
X153668796Y-70063685D01*
X153668796Y-70063685D02*
X152811653Y-70920828D01*
X152811653Y-70920828D02*
X153740225Y-70920828D01*
X154668796Y-69420828D02*
X154811653Y-69420828D01*
X154811653Y-69420828D02*
X154954510Y-69492257D01*
X154954510Y-69492257D02*
X155025939Y-69563685D01*
X155025939Y-69563685D02*
X155097367Y-69706542D01*
X155097367Y-69706542D02*
X155168796Y-69992257D01*
X155168796Y-69992257D02*
X155168796Y-70349400D01*
X155168796Y-70349400D02*
X155097367Y-70635114D01*
X155097367Y-70635114D02*
X155025939Y-70777971D01*
X155025939Y-70777971D02*
X154954510Y-70849400D01*
X154954510Y-70849400D02*
X154811653Y-70920828D01*
X154811653Y-70920828D02*
X154668796Y-70920828D01*
X154668796Y-70920828D02*
X154525939Y-70849400D01*
X154525939Y-70849400D02*
X154454510Y-70777971D01*
X154454510Y-70777971D02*
X154383081Y-70635114D01*
X154383081Y-70635114D02*
X154311653Y-70349400D01*
X154311653Y-70349400D02*
X154311653Y-69992257D01*
X154311653Y-69992257D02*
X154383081Y-69706542D01*
X154383081Y-69706542D02*
X154454510Y-69563685D01*
X154454510Y-69563685D02*
X154525939Y-69492257D01*
X154525939Y-69492257D02*
X154668796Y-69420828D01*
X155740224Y-69563685D02*
X155811652Y-69492257D01*
X155811652Y-69492257D02*
X155954510Y-69420828D01*
X155954510Y-69420828D02*
X156311652Y-69420828D01*
X156311652Y-69420828D02*
X156454510Y-69492257D01*
X156454510Y-69492257D02*
X156525938Y-69563685D01*
X156525938Y-69563685D02*
X156597367Y-69706542D01*
X156597367Y-69706542D02*
X156597367Y-69849400D01*
X156597367Y-69849400D02*
X156525938Y-70063685D01*
X156525938Y-70063685D02*
X155668795Y-70920828D01*
X155668795Y-70920828D02*
X156597367Y-70920828D01*
X157954509Y-69420828D02*
X157240223Y-69420828D01*
X157240223Y-69420828D02*
X157168795Y-70135114D01*
X157168795Y-70135114D02*
X157240223Y-70063685D01*
X157240223Y-70063685D02*
X157383081Y-69992257D01*
X157383081Y-69992257D02*
X157740223Y-69992257D01*
X157740223Y-69992257D02*
X157883081Y-70063685D01*
X157883081Y-70063685D02*
X157954509Y-70135114D01*
X157954509Y-70135114D02*
X158025938Y-70277971D01*
X158025938Y-70277971D02*
X158025938Y-70635114D01*
X158025938Y-70635114D02*
X157954509Y-70777971D01*
X157954509Y-70777971D02*
X157883081Y-70849400D01*
X157883081Y-70849400D02*
X157740223Y-70920828D01*
X157740223Y-70920828D02*
X157383081Y-70920828D01*
X157383081Y-70920828D02*
X157240223Y-70849400D01*
X157240223Y-70849400D02*
X157168795Y-70777971D01*
X160240223Y-69420828D02*
X160240223Y-70492257D01*
X160240223Y-70492257D02*
X160168794Y-70706542D01*
X160168794Y-70706542D02*
X160025937Y-70849400D01*
X160025937Y-70849400D02*
X159811651Y-70920828D01*
X159811651Y-70920828D02*
X159668794Y-70920828D01*
X161597366Y-69920828D02*
X161597366Y-70920828D01*
X160954508Y-69920828D02*
X160954508Y-70706542D01*
X160954508Y-70706542D02*
X161025937Y-70849400D01*
X161025937Y-70849400D02*
X161168794Y-70920828D01*
X161168794Y-70920828D02*
X161383080Y-70920828D01*
X161383080Y-70920828D02*
X161525937Y-70849400D01*
X161525937Y-70849400D02*
X161597366Y-70777971D01*
X162311651Y-69920828D02*
X162311651Y-70920828D01*
X162311651Y-70063685D02*
X162383080Y-69992257D01*
X162383080Y-69992257D02*
X162525937Y-69920828D01*
X162525937Y-69920828D02*
X162740223Y-69920828D01*
X162740223Y-69920828D02*
X162883080Y-69992257D01*
X162883080Y-69992257D02*
X162954509Y-70135114D01*
X162954509Y-70135114D02*
X162954509Y-70920828D01*
X164240223Y-70849400D02*
X164097366Y-70920828D01*
X164097366Y-70920828D02*
X163811652Y-70920828D01*
X163811652Y-70920828D02*
X163668794Y-70849400D01*
X163668794Y-70849400D02*
X163597366Y-70706542D01*
X163597366Y-70706542D02*
X163597366Y-70135114D01*
X163597366Y-70135114D02*
X163668794Y-69992257D01*
X163668794Y-69992257D02*
X163811652Y-69920828D01*
X163811652Y-69920828D02*
X164097366Y-69920828D01*
X164097366Y-69920828D02*
X164240223Y-69992257D01*
X164240223Y-69992257D02*
X164311652Y-70135114D01*
X164311652Y-70135114D02*
X164311652Y-70277971D01*
X164311652Y-70277971D02*
X163597366Y-70420828D01*
D12*
X76790779Y-85975866D02*
X77552684Y-85975866D01*
X77171731Y-86356819D02*
X77171731Y-85594914D01*
X78505064Y-85356819D02*
X78028874Y-85356819D01*
X78028874Y-85356819D02*
X77981255Y-85833009D01*
X77981255Y-85833009D02*
X78028874Y-85785390D01*
X78028874Y-85785390D02*
X78124112Y-85737771D01*
X78124112Y-85737771D02*
X78362207Y-85737771D01*
X78362207Y-85737771D02*
X78457445Y-85785390D01*
X78457445Y-85785390D02*
X78505064Y-85833009D01*
X78505064Y-85833009D02*
X78552683Y-85928247D01*
X78552683Y-85928247D02*
X78552683Y-86166342D01*
X78552683Y-86166342D02*
X78505064Y-86261580D01*
X78505064Y-86261580D02*
X78457445Y-86309200D01*
X78457445Y-86309200D02*
X78362207Y-86356819D01*
X78362207Y-86356819D02*
X78124112Y-86356819D01*
X78124112Y-86356819D02*
X78028874Y-86309200D01*
X78028874Y-86309200D02*
X77981255Y-86261580D01*
X78838398Y-85356819D02*
X79171731Y-86356819D01*
X79171731Y-86356819D02*
X79505064Y-85356819D01*
D10*
X107759042Y-96645379D02*
X107759042Y-95645379D01*
X107759042Y-95645379D02*
X107997137Y-95645379D01*
X107997137Y-95645379D02*
X108139994Y-95692998D01*
X108139994Y-95692998D02*
X108235232Y-95788236D01*
X108235232Y-95788236D02*
X108282851Y-95883474D01*
X108282851Y-95883474D02*
X108330470Y-96073950D01*
X108330470Y-96073950D02*
X108330470Y-96216807D01*
X108330470Y-96216807D02*
X108282851Y-96407283D01*
X108282851Y-96407283D02*
X108235232Y-96502521D01*
X108235232Y-96502521D02*
X108139994Y-96597760D01*
X108139994Y-96597760D02*
X107997137Y-96645379D01*
X107997137Y-96645379D02*
X107759042Y-96645379D01*
X108663804Y-95645379D02*
X109330470Y-95645379D01*
X109330470Y-95645379D02*
X108901899Y-96645379D01*
D14*
X104620497Y-66545250D02*
X105763355Y-66545250D01*
X105191926Y-67116678D02*
X105191926Y-65973821D01*
D15*
X153795166Y-79054668D02*
X153795166Y-78292764D01*
X154176119Y-78673716D02*
X153414214Y-78673716D01*
X154176119Y-77292764D02*
X154176119Y-77864192D01*
X154176119Y-77578478D02*
X153176119Y-77578478D01*
X153176119Y-77578478D02*
X153318976Y-77673716D01*
X153318976Y-77673716D02*
X153414214Y-77768954D01*
X153414214Y-77768954D02*
X153461833Y-77864192D01*
X153271357Y-76911811D02*
X153223738Y-76864192D01*
X153223738Y-76864192D02*
X153176119Y-76768954D01*
X153176119Y-76768954D02*
X153176119Y-76530859D01*
X153176119Y-76530859D02*
X153223738Y-76435621D01*
X153223738Y-76435621D02*
X153271357Y-76388002D01*
X153271357Y-76388002D02*
X153366595Y-76340383D01*
X153366595Y-76340383D02*
X153461833Y-76340383D01*
X153461833Y-76340383D02*
X153604690Y-76388002D01*
X153604690Y-76388002D02*
X154176119Y-76959430D01*
X154176119Y-76959430D02*
X154176119Y-76340383D01*
X153176119Y-76054668D02*
X154176119Y-75721335D01*
X154176119Y-75721335D02*
X153176119Y-75388002D01*
D12*
X76743160Y-83769200D02*
X76886017Y-83816819D01*
X76886017Y-83816819D02*
X77124112Y-83816819D01*
X77124112Y-83816819D02*
X77219350Y-83769200D01*
X77219350Y-83769200D02*
X77266969Y-83721580D01*
X77266969Y-83721580D02*
X77314588Y-83626342D01*
X77314588Y-83626342D02*
X77314588Y-83531104D01*
X77314588Y-83531104D02*
X77266969Y-83435866D01*
X77266969Y-83435866D02*
X77219350Y-83388247D01*
X77219350Y-83388247D02*
X77124112Y-83340628D01*
X77124112Y-83340628D02*
X76933636Y-83293009D01*
X76933636Y-83293009D02*
X76838398Y-83245390D01*
X76838398Y-83245390D02*
X76790779Y-83197771D01*
X76790779Y-83197771D02*
X76743160Y-83102533D01*
X76743160Y-83102533D02*
X76743160Y-83007295D01*
X76743160Y-83007295D02*
X76790779Y-82912057D01*
X76790779Y-82912057D02*
X76838398Y-82864438D01*
X76838398Y-82864438D02*
X76933636Y-82816819D01*
X76933636Y-82816819D02*
X77171731Y-82816819D01*
X77171731Y-82816819D02*
X77314588Y-82864438D01*
X77743160Y-83816819D02*
X77743160Y-82816819D01*
X78743159Y-82864438D02*
X78647921Y-82816819D01*
X78647921Y-82816819D02*
X78505064Y-82816819D01*
X78505064Y-82816819D02*
X78362207Y-82864438D01*
X78362207Y-82864438D02*
X78266969Y-82959676D01*
X78266969Y-82959676D02*
X78219350Y-83054914D01*
X78219350Y-83054914D02*
X78171731Y-83245390D01*
X78171731Y-83245390D02*
X78171731Y-83388247D01*
X78171731Y-83388247D02*
X78219350Y-83578723D01*
X78219350Y-83578723D02*
X78266969Y-83673961D01*
X78266969Y-83673961D02*
X78362207Y-83769200D01*
X78362207Y-83769200D02*
X78505064Y-83816819D01*
X78505064Y-83816819D02*
X78600302Y-83816819D01*
X78600302Y-83816819D02*
X78743159Y-83769200D01*
X78743159Y-83769200D02*
X78790778Y-83721580D01*
X78790778Y-83721580D02*
X78790778Y-83388247D01*
X78790778Y-83388247D02*
X78600302Y-83388247D01*
X72082255Y-100721485D02*
X72653684Y-100721485D01*
X71967969Y-101064342D02*
X72367969Y-99864342D01*
X72367969Y-99864342D02*
X72767969Y-101064342D01*
D10*
X112839042Y-96645379D02*
X112839042Y-95645379D01*
X112839042Y-95645379D02*
X113077137Y-95645379D01*
X113077137Y-95645379D02*
X113219994Y-95692998D01*
X113219994Y-95692998D02*
X113315232Y-95788236D01*
X113315232Y-95788236D02*
X113362851Y-95883474D01*
X113362851Y-95883474D02*
X113410470Y-96073950D01*
X113410470Y-96073950D02*
X113410470Y-96216807D01*
X113410470Y-96216807D02*
X113362851Y-96407283D01*
X113362851Y-96407283D02*
X113315232Y-96502521D01*
X113315232Y-96502521D02*
X113219994Y-96597760D01*
X113219994Y-96597760D02*
X113077137Y-96645379D01*
X113077137Y-96645379D02*
X112839042Y-96645379D01*
X114315232Y-95645379D02*
X113839042Y-95645379D01*
X113839042Y-95645379D02*
X113791423Y-96121569D01*
X113791423Y-96121569D02*
X113839042Y-96073950D01*
X113839042Y-96073950D02*
X113934280Y-96026331D01*
X113934280Y-96026331D02*
X114172375Y-96026331D01*
X114172375Y-96026331D02*
X114267613Y-96073950D01*
X114267613Y-96073950D02*
X114315232Y-96121569D01*
X114315232Y-96121569D02*
X114362851Y-96216807D01*
X114362851Y-96216807D02*
X114362851Y-96454902D01*
X114362851Y-96454902D02*
X114315232Y-96550140D01*
X114315232Y-96550140D02*
X114267613Y-96597760D01*
X114267613Y-96597760D02*
X114172375Y-96645379D01*
X114172375Y-96645379D02*
X113934280Y-96645379D01*
X113934280Y-96645379D02*
X113839042Y-96597760D01*
X113839042Y-96597760D02*
X113791423Y-96550140D01*
D13*
X152079510Y-62512257D02*
X152079510Y-63464638D01*
X151412844Y-61464638D02*
X152079510Y-62512257D01*
X152079510Y-62512257D02*
X152746177Y-61464638D01*
X153317606Y-63369400D02*
X153603320Y-63464638D01*
X153603320Y-63464638D02*
X154079511Y-63464638D01*
X154079511Y-63464638D02*
X154269987Y-63369400D01*
X154269987Y-63369400D02*
X154365225Y-63274161D01*
X154365225Y-63274161D02*
X154460463Y-63083685D01*
X154460463Y-63083685D02*
X154460463Y-62893209D01*
X154460463Y-62893209D02*
X154365225Y-62702733D01*
X154365225Y-62702733D02*
X154269987Y-62607495D01*
X154269987Y-62607495D02*
X154079511Y-62512257D01*
X154079511Y-62512257D02*
X153698558Y-62417019D01*
X153698558Y-62417019D02*
X153508082Y-62321780D01*
X153508082Y-62321780D02*
X153412844Y-62226542D01*
X153412844Y-62226542D02*
X153317606Y-62036066D01*
X153317606Y-62036066D02*
X153317606Y-61845590D01*
X153317606Y-61845590D02*
X153412844Y-61655114D01*
X153412844Y-61655114D02*
X153508082Y-61559876D01*
X153508082Y-61559876D02*
X153698558Y-61464638D01*
X153698558Y-61464638D02*
X154174749Y-61464638D01*
X154174749Y-61464638D02*
X154460463Y-61559876D01*
X157793797Y-63464638D02*
X156841416Y-63464638D01*
X156841416Y-63464638D02*
X156841416Y-61464638D01*
X159317607Y-63464638D02*
X159317607Y-62417019D01*
X159317607Y-62417019D02*
X159222369Y-62226542D01*
X159222369Y-62226542D02*
X159031893Y-62131304D01*
X159031893Y-62131304D02*
X158650940Y-62131304D01*
X158650940Y-62131304D02*
X158460464Y-62226542D01*
X159317607Y-63369400D02*
X159127131Y-63464638D01*
X159127131Y-63464638D02*
X158650940Y-63464638D01*
X158650940Y-63464638D02*
X158460464Y-63369400D01*
X158460464Y-63369400D02*
X158365226Y-63178923D01*
X158365226Y-63178923D02*
X158365226Y-62988447D01*
X158365226Y-62988447D02*
X158460464Y-62797971D01*
X158460464Y-62797971D02*
X158650940Y-62702733D01*
X158650940Y-62702733D02*
X159127131Y-62702733D01*
X159127131Y-62702733D02*
X159317607Y-62607495D01*
X160269988Y-63464638D02*
X160269988Y-61464638D01*
X160269988Y-62226542D02*
X160460464Y-62131304D01*
X160460464Y-62131304D02*
X160841417Y-62131304D01*
X160841417Y-62131304D02*
X161031893Y-62226542D01*
X161031893Y-62226542D02*
X161127131Y-62321780D01*
X161127131Y-62321780D02*
X161222369Y-62512257D01*
X161222369Y-62512257D02*
X161222369Y-63083685D01*
X161222369Y-63083685D02*
X161127131Y-63274161D01*
X161127131Y-63274161D02*
X161031893Y-63369400D01*
X161031893Y-63369400D02*
X160841417Y-63464638D01*
X160841417Y-63464638D02*
X160460464Y-63464638D01*
X160460464Y-63464638D02*
X160269988Y-63369400D01*
D10*
X78082232Y-66268045D02*
X77967947Y-66210902D01*
X77967947Y-66210902D02*
X77796518Y-66210902D01*
X77796518Y-66210902D02*
X77625089Y-66268045D01*
X77625089Y-66268045D02*
X77510804Y-66382331D01*
X77510804Y-66382331D02*
X77453661Y-66496617D01*
X77453661Y-66496617D02*
X77396518Y-66725188D01*
X77396518Y-66725188D02*
X77396518Y-66896617D01*
X77396518Y-66896617D02*
X77453661Y-67125188D01*
X77453661Y-67125188D02*
X77510804Y-67239474D01*
X77510804Y-67239474D02*
X77625089Y-67353760D01*
X77625089Y-67353760D02*
X77796518Y-67410902D01*
X77796518Y-67410902D02*
X77910804Y-67410902D01*
X77910804Y-67410902D02*
X78082232Y-67353760D01*
X78082232Y-67353760D02*
X78139375Y-67296617D01*
X78139375Y-67296617D02*
X78139375Y-66896617D01*
X78139375Y-66896617D02*
X77910804Y-66896617D01*
X78653661Y-67410902D02*
X78653661Y-66210902D01*
X78653661Y-66210902D02*
X79339375Y-67410902D01*
X79339375Y-67410902D02*
X79339375Y-66210902D01*
X79910804Y-67410902D02*
X79910804Y-66210902D01*
X79910804Y-66210902D02*
X80196518Y-66210902D01*
X80196518Y-66210902D02*
X80367947Y-66268045D01*
X80367947Y-66268045D02*
X80482232Y-66382331D01*
X80482232Y-66382331D02*
X80539375Y-66496617D01*
X80539375Y-66496617D02*
X80596518Y-66725188D01*
X80596518Y-66725188D02*
X80596518Y-66896617D01*
X80596518Y-66896617D02*
X80539375Y-67125188D01*
X80539375Y-67125188D02*
X80482232Y-67239474D01*
X80482232Y-67239474D02*
X80367947Y-67353760D01*
X80367947Y-67353760D02*
X80196518Y-67410902D01*
X80196518Y-67410902D02*
X79910804Y-67410902D01*
D12*
X77822588Y-80451438D02*
X77727350Y-80403819D01*
X77727350Y-80403819D02*
X77584493Y-80403819D01*
X77584493Y-80403819D02*
X77441636Y-80451438D01*
X77441636Y-80451438D02*
X77346398Y-80546676D01*
X77346398Y-80546676D02*
X77298779Y-80641914D01*
X77298779Y-80641914D02*
X77251160Y-80832390D01*
X77251160Y-80832390D02*
X77251160Y-80975247D01*
X77251160Y-80975247D02*
X77298779Y-81165723D01*
X77298779Y-81165723D02*
X77346398Y-81260961D01*
X77346398Y-81260961D02*
X77441636Y-81356200D01*
X77441636Y-81356200D02*
X77584493Y-81403819D01*
X77584493Y-81403819D02*
X77679731Y-81403819D01*
X77679731Y-81403819D02*
X77822588Y-81356200D01*
X77822588Y-81356200D02*
X77870207Y-81308580D01*
X77870207Y-81308580D02*
X77870207Y-80975247D01*
X77870207Y-80975247D02*
X77679731Y-80975247D01*
X78298779Y-81403819D02*
X78298779Y-80403819D01*
X78298779Y-80403819D02*
X78870207Y-81403819D01*
X78870207Y-81403819D02*
X78870207Y-80403819D01*
X79346398Y-81403819D02*
X79346398Y-80403819D01*
X79346398Y-80403819D02*
X79584493Y-80403819D01*
X79584493Y-80403819D02*
X79727350Y-80451438D01*
X79727350Y-80451438D02*
X79822588Y-80546676D01*
X79822588Y-80546676D02*
X79870207Y-80641914D01*
X79870207Y-80641914D02*
X79917826Y-80832390D01*
X79917826Y-80832390D02*
X79917826Y-80975247D01*
X79917826Y-80975247D02*
X79870207Y-81165723D01*
X79870207Y-81165723D02*
X79822588Y-81260961D01*
X79822588Y-81260961D02*
X79727350Y-81356200D01*
X79727350Y-81356200D02*
X79584493Y-81403819D01*
X79584493Y-81403819D02*
X79346398Y-81403819D01*
D14*
X108537640Y-110434178D02*
X108037640Y-109719892D01*
X107680497Y-110434178D02*
X107680497Y-108934178D01*
X107680497Y-108934178D02*
X108251926Y-108934178D01*
X108251926Y-108934178D02*
X108394783Y-109005607D01*
X108394783Y-109005607D02*
X108466212Y-109077035D01*
X108466212Y-109077035D02*
X108537640Y-109219892D01*
X108537640Y-109219892D02*
X108537640Y-109434178D01*
X108537640Y-109434178D02*
X108466212Y-109577035D01*
X108466212Y-109577035D02*
X108394783Y-109648464D01*
X108394783Y-109648464D02*
X108251926Y-109719892D01*
X108251926Y-109719892D02*
X107680497Y-109719892D01*
X109180497Y-109648464D02*
X109680497Y-109648464D01*
X109894783Y-110434178D02*
X109180497Y-110434178D01*
X109180497Y-110434178D02*
X109180497Y-108934178D01*
X109180497Y-108934178D02*
X109894783Y-108934178D01*
X110466212Y-110362750D02*
X110680498Y-110434178D01*
X110680498Y-110434178D02*
X111037640Y-110434178D01*
X111037640Y-110434178D02*
X111180498Y-110362750D01*
X111180498Y-110362750D02*
X111251926Y-110291321D01*
X111251926Y-110291321D02*
X111323355Y-110148464D01*
X111323355Y-110148464D02*
X111323355Y-110005607D01*
X111323355Y-110005607D02*
X111251926Y-109862750D01*
X111251926Y-109862750D02*
X111180498Y-109791321D01*
X111180498Y-109791321D02*
X111037640Y-109719892D01*
X111037640Y-109719892D02*
X110751926Y-109648464D01*
X110751926Y-109648464D02*
X110609069Y-109577035D01*
X110609069Y-109577035D02*
X110537640Y-109505607D01*
X110537640Y-109505607D02*
X110466212Y-109362750D01*
X110466212Y-109362750D02*
X110466212Y-109219892D01*
X110466212Y-109219892D02*
X110537640Y-109077035D01*
X110537640Y-109077035D02*
X110609069Y-109005607D01*
X110609069Y-109005607D02*
X110751926Y-108934178D01*
X110751926Y-108934178D02*
X111109069Y-108934178D01*
X111109069Y-108934178D02*
X111323355Y-109005607D01*
X111966211Y-109648464D02*
X112466211Y-109648464D01*
X112680497Y-110434178D02*
X111966211Y-110434178D01*
X111966211Y-110434178D02*
X111966211Y-108934178D01*
X111966211Y-108934178D02*
X112680497Y-108934178D01*
X113109069Y-108934178D02*
X113966212Y-108934178D01*
X113537640Y-110434178D02*
X113537640Y-108934178D01*
D12*
X76028779Y-94738866D02*
X76790684Y-94738866D01*
X76409731Y-95119819D02*
X76409731Y-94357914D01*
X77790683Y-95119819D02*
X77219255Y-95119819D01*
X77504969Y-95119819D02*
X77504969Y-94119819D01*
X77504969Y-94119819D02*
X77409731Y-94262676D01*
X77409731Y-94262676D02*
X77314493Y-94357914D01*
X77314493Y-94357914D02*
X77219255Y-94405533D01*
X78171636Y-94215057D02*
X78219255Y-94167438D01*
X78219255Y-94167438D02*
X78314493Y-94119819D01*
X78314493Y-94119819D02*
X78552588Y-94119819D01*
X78552588Y-94119819D02*
X78647826Y-94167438D01*
X78647826Y-94167438D02*
X78695445Y-94215057D01*
X78695445Y-94215057D02*
X78743064Y-94310295D01*
X78743064Y-94310295D02*
X78743064Y-94405533D01*
X78743064Y-94405533D02*
X78695445Y-94548390D01*
X78695445Y-94548390D02*
X78124017Y-95119819D01*
X78124017Y-95119819D02*
X78743064Y-95119819D01*
X79028779Y-94119819D02*
X79362112Y-95119819D01*
X79362112Y-95119819D02*
X79695445Y-94119819D01*
X134826476Y-83454019D02*
X134826476Y-84168304D01*
X134826476Y-84168304D02*
X134778857Y-84311161D01*
X134778857Y-84311161D02*
X134683619Y-84406400D01*
X134683619Y-84406400D02*
X134540762Y-84454019D01*
X134540762Y-84454019D02*
X134445524Y-84454019D01*
X135826476Y-84454019D02*
X135255048Y-84454019D01*
X135540762Y-84454019D02*
X135540762Y-83454019D01*
X135540762Y-83454019D02*
X135445524Y-83596876D01*
X135445524Y-83596876D02*
X135350286Y-83692114D01*
X135350286Y-83692114D02*
X135255048Y-83739733D01*
X136397905Y-83882590D02*
X136302667Y-83834971D01*
X136302667Y-83834971D02*
X136255048Y-83787352D01*
X136255048Y-83787352D02*
X136207429Y-83692114D01*
X136207429Y-83692114D02*
X136207429Y-83644495D01*
X136207429Y-83644495D02*
X136255048Y-83549257D01*
X136255048Y-83549257D02*
X136302667Y-83501638D01*
X136302667Y-83501638D02*
X136397905Y-83454019D01*
X136397905Y-83454019D02*
X136588381Y-83454019D01*
X136588381Y-83454019D02*
X136683619Y-83501638D01*
X136683619Y-83501638D02*
X136731238Y-83549257D01*
X136731238Y-83549257D02*
X136778857Y-83644495D01*
X136778857Y-83644495D02*
X136778857Y-83692114D01*
X136778857Y-83692114D02*
X136731238Y-83787352D01*
X136731238Y-83787352D02*
X136683619Y-83834971D01*
X136683619Y-83834971D02*
X136588381Y-83882590D01*
X136588381Y-83882590D02*
X136397905Y-83882590D01*
X136397905Y-83882590D02*
X136302667Y-83930209D01*
X136302667Y-83930209D02*
X136255048Y-83977828D01*
X136255048Y-83977828D02*
X136207429Y-84073066D01*
X136207429Y-84073066D02*
X136207429Y-84263542D01*
X136207429Y-84263542D02*
X136255048Y-84358780D01*
X136255048Y-84358780D02*
X136302667Y-84406400D01*
X136302667Y-84406400D02*
X136397905Y-84454019D01*
X136397905Y-84454019D02*
X136588381Y-84454019D01*
X136588381Y-84454019D02*
X136683619Y-84406400D01*
X136683619Y-84406400D02*
X136731238Y-84358780D01*
X136731238Y-84358780D02*
X136778857Y-84263542D01*
X136778857Y-84263542D02*
X136778857Y-84073066D01*
X136778857Y-84073066D02*
X136731238Y-83977828D01*
X136731238Y-83977828D02*
X136683619Y-83930209D01*
X136683619Y-83930209D02*
X136588381Y-83882590D01*
X100028476Y-76416819D02*
X100028476Y-77131104D01*
X100028476Y-77131104D02*
X99980857Y-77273961D01*
X99980857Y-77273961D02*
X99885619Y-77369200D01*
X99885619Y-77369200D02*
X99742762Y-77416819D01*
X99742762Y-77416819D02*
X99647524Y-77416819D01*
X101028476Y-77416819D02*
X100457048Y-77416819D01*
X100742762Y-77416819D02*
X100742762Y-76416819D01*
X100742762Y-76416819D02*
X100647524Y-76559676D01*
X100647524Y-76559676D02*
X100552286Y-76654914D01*
X100552286Y-76654914D02*
X100457048Y-76702533D01*
X101361810Y-76416819D02*
X101980857Y-76416819D01*
X101980857Y-76416819D02*
X101647524Y-76797771D01*
X101647524Y-76797771D02*
X101790381Y-76797771D01*
X101790381Y-76797771D02*
X101885619Y-76845390D01*
X101885619Y-76845390D02*
X101933238Y-76893009D01*
X101933238Y-76893009D02*
X101980857Y-76988247D01*
X101980857Y-76988247D02*
X101980857Y-77226342D01*
X101980857Y-77226342D02*
X101933238Y-77321580D01*
X101933238Y-77321580D02*
X101885619Y-77369200D01*
X101885619Y-77369200D02*
X101790381Y-77416819D01*
X101790381Y-77416819D02*
X101504667Y-77416819D01*
X101504667Y-77416819D02*
X101409429Y-77369200D01*
X101409429Y-77369200D02*
X101361810Y-77321580D01*
X110958819Y-86861523D02*
X111673104Y-86861523D01*
X111673104Y-86861523D02*
X111815961Y-86909142D01*
X111815961Y-86909142D02*
X111911200Y-87004380D01*
X111911200Y-87004380D02*
X111958819Y-87147237D01*
X111958819Y-87147237D02*
X111958819Y-87242475D01*
X111958819Y-85861523D02*
X111958819Y-86432951D01*
X111958819Y-86147237D02*
X110958819Y-86147237D01*
X110958819Y-86147237D02*
X111101676Y-86242475D01*
X111101676Y-86242475D02*
X111196914Y-86337713D01*
X111196914Y-86337713D02*
X111244533Y-86432951D01*
X111958819Y-84909142D02*
X111958819Y-85480570D01*
X111958819Y-85194856D02*
X110958819Y-85194856D01*
X110958819Y-85194856D02*
X111101676Y-85290094D01*
X111101676Y-85290094D02*
X111196914Y-85385332D01*
X111196914Y-85385332D02*
X111244533Y-85480570D01*
X95155733Y-62478780D02*
X95108114Y-62526400D01*
X95108114Y-62526400D02*
X94965257Y-62574019D01*
X94965257Y-62574019D02*
X94870019Y-62574019D01*
X94870019Y-62574019D02*
X94727162Y-62526400D01*
X94727162Y-62526400D02*
X94631924Y-62431161D01*
X94631924Y-62431161D02*
X94584305Y-62335923D01*
X94584305Y-62335923D02*
X94536686Y-62145447D01*
X94536686Y-62145447D02*
X94536686Y-62002590D01*
X94536686Y-62002590D02*
X94584305Y-61812114D01*
X94584305Y-61812114D02*
X94631924Y-61716876D01*
X94631924Y-61716876D02*
X94727162Y-61621638D01*
X94727162Y-61621638D02*
X94870019Y-61574019D01*
X94870019Y-61574019D02*
X94965257Y-61574019D01*
X94965257Y-61574019D02*
X95108114Y-61621638D01*
X95108114Y-61621638D02*
X95155733Y-61669257D01*
X95536686Y-61669257D02*
X95584305Y-61621638D01*
X95584305Y-61621638D02*
X95679543Y-61574019D01*
X95679543Y-61574019D02*
X95917638Y-61574019D01*
X95917638Y-61574019D02*
X96012876Y-61621638D01*
X96012876Y-61621638D02*
X96060495Y-61669257D01*
X96060495Y-61669257D02*
X96108114Y-61764495D01*
X96108114Y-61764495D02*
X96108114Y-61859733D01*
X96108114Y-61859733D02*
X96060495Y-62002590D01*
X96060495Y-62002590D02*
X95489067Y-62574019D01*
X95489067Y-62574019D02*
X96108114Y-62574019D01*
X97489543Y-61574019D02*
X97584781Y-61574019D01*
X97584781Y-61574019D02*
X97680019Y-61621638D01*
X97680019Y-61621638D02*
X97727638Y-61669257D01*
X97727638Y-61669257D02*
X97775257Y-61764495D01*
X97775257Y-61764495D02*
X97822876Y-61954971D01*
X97822876Y-61954971D02*
X97822876Y-62193066D01*
X97822876Y-62193066D02*
X97775257Y-62383542D01*
X97775257Y-62383542D02*
X97727638Y-62478780D01*
X97727638Y-62478780D02*
X97680019Y-62526400D01*
X97680019Y-62526400D02*
X97584781Y-62574019D01*
X97584781Y-62574019D02*
X97489543Y-62574019D01*
X97489543Y-62574019D02*
X97394305Y-62526400D01*
X97394305Y-62526400D02*
X97346686Y-62478780D01*
X97346686Y-62478780D02*
X97299067Y-62383542D01*
X97299067Y-62383542D02*
X97251448Y-62193066D01*
X97251448Y-62193066D02*
X97251448Y-61954971D01*
X97251448Y-61954971D02*
X97299067Y-61764495D01*
X97299067Y-61764495D02*
X97346686Y-61669257D01*
X97346686Y-61669257D02*
X97394305Y-61621638D01*
X97394305Y-61621638D02*
X97489543Y-61574019D01*
X98251448Y-62478780D02*
X98299067Y-62526400D01*
X98299067Y-62526400D02*
X98251448Y-62574019D01*
X98251448Y-62574019D02*
X98203829Y-62526400D01*
X98203829Y-62526400D02*
X98251448Y-62478780D01*
X98251448Y-62478780D02*
X98251448Y-62574019D01*
X99251447Y-62574019D02*
X98680019Y-62574019D01*
X98965733Y-62574019D02*
X98965733Y-61574019D01*
X98965733Y-61574019D02*
X98870495Y-61716876D01*
X98870495Y-61716876D02*
X98775257Y-61812114D01*
X98775257Y-61812114D02*
X98680019Y-61859733D01*
X100108590Y-61907352D02*
X100108590Y-62574019D01*
X99680019Y-61907352D02*
X99680019Y-62431161D01*
X99680019Y-62431161D02*
X99727638Y-62526400D01*
X99727638Y-62526400D02*
X99822876Y-62574019D01*
X99822876Y-62574019D02*
X99965733Y-62574019D01*
X99965733Y-62574019D02*
X100060971Y-62526400D01*
X100060971Y-62526400D02*
X100108590Y-62478780D01*
X100918114Y-62050209D02*
X100584781Y-62050209D01*
X100584781Y-62574019D02*
X100584781Y-61574019D01*
X100584781Y-61574019D02*
X101060971Y-61574019D01*
X88712009Y-84514333D02*
X88712009Y-84847666D01*
X89235819Y-84847666D02*
X88235819Y-84847666D01*
X88235819Y-84847666D02*
X88235819Y-84371476D01*
X89235819Y-83466714D02*
X89235819Y-84038142D01*
X89235819Y-83752428D02*
X88235819Y-83752428D01*
X88235819Y-83752428D02*
X88378676Y-83847666D01*
X88378676Y-83847666D02*
X88473914Y-83942904D01*
X88473914Y-83942904D02*
X88521533Y-84038142D01*
X91579819Y-92571619D02*
X91579819Y-93047809D01*
X91579819Y-93047809D02*
X90579819Y-93047809D01*
X90579819Y-92381142D02*
X91579819Y-92047809D01*
X91579819Y-92047809D02*
X90579819Y-91714476D01*
X91579819Y-90809714D02*
X91103628Y-91143047D01*
X91579819Y-91381142D02*
X90579819Y-91381142D01*
X90579819Y-91381142D02*
X90579819Y-91000190D01*
X90579819Y-91000190D02*
X90627438Y-90904952D01*
X90627438Y-90904952D02*
X90675057Y-90857333D01*
X90675057Y-90857333D02*
X90770295Y-90809714D01*
X90770295Y-90809714D02*
X90913152Y-90809714D01*
X90913152Y-90809714D02*
X91008390Y-90857333D01*
X91008390Y-90857333D02*
X91056009Y-90904952D01*
X91056009Y-90904952D02*
X91103628Y-91000190D01*
X91103628Y-91000190D02*
X91103628Y-91381142D01*
X90579819Y-90190666D02*
X90579819Y-90095428D01*
X90579819Y-90095428D02*
X90627438Y-90000190D01*
X90627438Y-90000190D02*
X90675057Y-89952571D01*
X90675057Y-89952571D02*
X90770295Y-89904952D01*
X90770295Y-89904952D02*
X90960771Y-89857333D01*
X90960771Y-89857333D02*
X91198866Y-89857333D01*
X91198866Y-89857333D02*
X91389342Y-89904952D01*
X91389342Y-89904952D02*
X91484580Y-89952571D01*
X91484580Y-89952571D02*
X91532200Y-90000190D01*
X91532200Y-90000190D02*
X91579819Y-90095428D01*
X91579819Y-90095428D02*
X91579819Y-90190666D01*
X91579819Y-90190666D02*
X91532200Y-90285904D01*
X91532200Y-90285904D02*
X91484580Y-90333523D01*
X91484580Y-90333523D02*
X91389342Y-90381142D01*
X91389342Y-90381142D02*
X91198866Y-90428761D01*
X91198866Y-90428761D02*
X90960771Y-90428761D01*
X90960771Y-90428761D02*
X90770295Y-90381142D01*
X90770295Y-90381142D02*
X90675057Y-90333523D01*
X90675057Y-90333523D02*
X90627438Y-90285904D01*
X90627438Y-90285904D02*
X90579819Y-90190666D01*
X90913152Y-89000190D02*
X91579819Y-89000190D01*
X90532200Y-89238285D02*
X91246485Y-89476380D01*
X91246485Y-89476380D02*
X91246485Y-88857333D01*
X90579819Y-88285904D02*
X90579819Y-88190666D01*
X90579819Y-88190666D02*
X90627438Y-88095428D01*
X90627438Y-88095428D02*
X90675057Y-88047809D01*
X90675057Y-88047809D02*
X90770295Y-88000190D01*
X90770295Y-88000190D02*
X90960771Y-87952571D01*
X90960771Y-87952571D02*
X91198866Y-87952571D01*
X91198866Y-87952571D02*
X91389342Y-88000190D01*
X91389342Y-88000190D02*
X91484580Y-88047809D01*
X91484580Y-88047809D02*
X91532200Y-88095428D01*
X91532200Y-88095428D02*
X91579819Y-88190666D01*
X91579819Y-88190666D02*
X91579819Y-88285904D01*
X91579819Y-88285904D02*
X91532200Y-88381142D01*
X91532200Y-88381142D02*
X91484580Y-88428761D01*
X91484580Y-88428761D02*
X91389342Y-88476380D01*
X91389342Y-88476380D02*
X91198866Y-88523999D01*
X91198866Y-88523999D02*
X90960771Y-88523999D01*
X90960771Y-88523999D02*
X90770295Y-88476380D01*
X90770295Y-88476380D02*
X90675057Y-88428761D01*
X90675057Y-88428761D02*
X90627438Y-88381142D01*
X90627438Y-88381142D02*
X90579819Y-88285904D01*
X78940819Y-98718666D02*
X78464628Y-99051999D01*
X78940819Y-99290094D02*
X77940819Y-99290094D01*
X77940819Y-99290094D02*
X77940819Y-98909142D01*
X77940819Y-98909142D02*
X77988438Y-98813904D01*
X77988438Y-98813904D02*
X78036057Y-98766285D01*
X78036057Y-98766285D02*
X78131295Y-98718666D01*
X78131295Y-98718666D02*
X78274152Y-98718666D01*
X78274152Y-98718666D02*
X78369390Y-98766285D01*
X78369390Y-98766285D02*
X78417009Y-98813904D01*
X78417009Y-98813904D02*
X78464628Y-98909142D01*
X78464628Y-98909142D02*
X78464628Y-99290094D01*
X78940819Y-97766285D02*
X78940819Y-98337713D01*
X78940819Y-98051999D02*
X77940819Y-98051999D01*
X77940819Y-98051999D02*
X78083676Y-98147237D01*
X78083676Y-98147237D02*
X78178914Y-98242475D01*
X78178914Y-98242475D02*
X78226533Y-98337713D01*
X80159819Y-99179285D02*
X80159819Y-99655475D01*
X80159819Y-99655475D02*
X80636009Y-99703094D01*
X80636009Y-99703094D02*
X80588390Y-99655475D01*
X80588390Y-99655475D02*
X80540771Y-99560237D01*
X80540771Y-99560237D02*
X80540771Y-99322142D01*
X80540771Y-99322142D02*
X80588390Y-99226904D01*
X80588390Y-99226904D02*
X80636009Y-99179285D01*
X80636009Y-99179285D02*
X80731247Y-99131666D01*
X80731247Y-99131666D02*
X80969342Y-99131666D01*
X80969342Y-99131666D02*
X81064580Y-99179285D01*
X81064580Y-99179285D02*
X81112200Y-99226904D01*
X81112200Y-99226904D02*
X81159819Y-99322142D01*
X81159819Y-99322142D02*
X81159819Y-99560237D01*
X81159819Y-99560237D02*
X81112200Y-99655475D01*
X81112200Y-99655475D02*
X81064580Y-99703094D01*
X81159819Y-98179285D02*
X81159819Y-98750713D01*
X81159819Y-98464999D02*
X80159819Y-98464999D01*
X80159819Y-98464999D02*
X80302676Y-98560237D01*
X80302676Y-98560237D02*
X80397914Y-98655475D01*
X80397914Y-98655475D02*
X80445533Y-98750713D01*
X80159819Y-97560237D02*
X80159819Y-97464999D01*
X80159819Y-97464999D02*
X80207438Y-97369761D01*
X80207438Y-97369761D02*
X80255057Y-97322142D01*
X80255057Y-97322142D02*
X80350295Y-97274523D01*
X80350295Y-97274523D02*
X80540771Y-97226904D01*
X80540771Y-97226904D02*
X80778866Y-97226904D01*
X80778866Y-97226904D02*
X80969342Y-97274523D01*
X80969342Y-97274523D02*
X81064580Y-97322142D01*
X81064580Y-97322142D02*
X81112200Y-97369761D01*
X81112200Y-97369761D02*
X81159819Y-97464999D01*
X81159819Y-97464999D02*
X81159819Y-97560237D01*
X81159819Y-97560237D02*
X81112200Y-97655475D01*
X81112200Y-97655475D02*
X81064580Y-97703094D01*
X81064580Y-97703094D02*
X80969342Y-97750713D01*
X80969342Y-97750713D02*
X80778866Y-97798332D01*
X80778866Y-97798332D02*
X80540771Y-97798332D01*
X80540771Y-97798332D02*
X80350295Y-97750713D01*
X80350295Y-97750713D02*
X80255057Y-97703094D01*
X80255057Y-97703094D02*
X80207438Y-97655475D01*
X80207438Y-97655475D02*
X80159819Y-97560237D01*
X140899000Y-82752128D02*
X141256143Y-84252128D01*
X141256143Y-84252128D02*
X141541857Y-83180700D01*
X141541857Y-83180700D02*
X141827572Y-84252128D01*
X141827572Y-84252128D02*
X142184715Y-82752128D01*
X143470429Y-82752128D02*
X142756143Y-82752128D01*
X142756143Y-82752128D02*
X142684715Y-83466414D01*
X142684715Y-83466414D02*
X142756143Y-83394985D01*
X142756143Y-83394985D02*
X142899001Y-83323557D01*
X142899001Y-83323557D02*
X143256143Y-83323557D01*
X143256143Y-83323557D02*
X143399001Y-83394985D01*
X143399001Y-83394985D02*
X143470429Y-83466414D01*
X143470429Y-83466414D02*
X143541858Y-83609271D01*
X143541858Y-83609271D02*
X143541858Y-83966414D01*
X143541858Y-83966414D02*
X143470429Y-84109271D01*
X143470429Y-84109271D02*
X143399001Y-84180700D01*
X143399001Y-84180700D02*
X143256143Y-84252128D01*
X143256143Y-84252128D02*
X142899001Y-84252128D01*
X142899001Y-84252128D02*
X142756143Y-84180700D01*
X142756143Y-84180700D02*
X142684715Y-84109271D01*
X144899000Y-82752128D02*
X144184714Y-82752128D01*
X144184714Y-82752128D02*
X144113286Y-83466414D01*
X144113286Y-83466414D02*
X144184714Y-83394985D01*
X144184714Y-83394985D02*
X144327572Y-83323557D01*
X144327572Y-83323557D02*
X144684714Y-83323557D01*
X144684714Y-83323557D02*
X144827572Y-83394985D01*
X144827572Y-83394985D02*
X144899000Y-83466414D01*
X144899000Y-83466414D02*
X144970429Y-83609271D01*
X144970429Y-83609271D02*
X144970429Y-83966414D01*
X144970429Y-83966414D02*
X144899000Y-84109271D01*
X144899000Y-84109271D02*
X144827572Y-84180700D01*
X144827572Y-84180700D02*
X144684714Y-84252128D01*
X144684714Y-84252128D02*
X144327572Y-84252128D01*
X144327572Y-84252128D02*
X144184714Y-84180700D01*
X144184714Y-84180700D02*
X144113286Y-84109271D01*
X145899000Y-82752128D02*
X146041857Y-82752128D01*
X146041857Y-82752128D02*
X146184714Y-82823557D01*
X146184714Y-82823557D02*
X146256143Y-82894985D01*
X146256143Y-82894985D02*
X146327571Y-83037842D01*
X146327571Y-83037842D02*
X146399000Y-83323557D01*
X146399000Y-83323557D02*
X146399000Y-83680700D01*
X146399000Y-83680700D02*
X146327571Y-83966414D01*
X146327571Y-83966414D02*
X146256143Y-84109271D01*
X146256143Y-84109271D02*
X146184714Y-84180700D01*
X146184714Y-84180700D02*
X146041857Y-84252128D01*
X146041857Y-84252128D02*
X145899000Y-84252128D01*
X145899000Y-84252128D02*
X145756143Y-84180700D01*
X145756143Y-84180700D02*
X145684714Y-84109271D01*
X145684714Y-84109271D02*
X145613285Y-83966414D01*
X145613285Y-83966414D02*
X145541857Y-83680700D01*
X145541857Y-83680700D02*
X145541857Y-83323557D01*
X145541857Y-83323557D02*
X145613285Y-83037842D01*
X145613285Y-83037842D02*
X145684714Y-82894985D01*
X145684714Y-82894985D02*
X145756143Y-82823557D01*
X145756143Y-82823557D02*
X145899000Y-82752128D01*
X147327571Y-82752128D02*
X147470428Y-82752128D01*
X147470428Y-82752128D02*
X147613285Y-82823557D01*
X147613285Y-82823557D02*
X147684714Y-82894985D01*
X147684714Y-82894985D02*
X147756142Y-83037842D01*
X147756142Y-83037842D02*
X147827571Y-83323557D01*
X147827571Y-83323557D02*
X147827571Y-83680700D01*
X147827571Y-83680700D02*
X147756142Y-83966414D01*
X147756142Y-83966414D02*
X147684714Y-84109271D01*
X147684714Y-84109271D02*
X147613285Y-84180700D01*
X147613285Y-84180700D02*
X147470428Y-84252128D01*
X147470428Y-84252128D02*
X147327571Y-84252128D01*
X147327571Y-84252128D02*
X147184714Y-84180700D01*
X147184714Y-84180700D02*
X147113285Y-84109271D01*
X147113285Y-84109271D02*
X147041856Y-83966414D01*
X147041856Y-83966414D02*
X146970428Y-83680700D01*
X146970428Y-83680700D02*
X146970428Y-83323557D01*
X146970428Y-83323557D02*
X147041856Y-83037842D01*
X147041856Y-83037842D02*
X147113285Y-82894985D01*
X147113285Y-82894985D02*
X147184714Y-82823557D01*
X147184714Y-82823557D02*
X147327571Y-82752128D01*
D16*
X98276455Y-83932333D02*
X98276455Y-83232333D01*
X98276455Y-83232333D02*
X98509789Y-83732333D01*
X98509789Y-83732333D02*
X98743122Y-83232333D01*
X98743122Y-83232333D02*
X98743122Y-83932333D01*
X99209789Y-83232333D02*
X99343122Y-83232333D01*
X99343122Y-83232333D02*
X99409789Y-83265666D01*
X99409789Y-83265666D02*
X99476455Y-83332333D01*
X99476455Y-83332333D02*
X99509789Y-83465666D01*
X99509789Y-83465666D02*
X99509789Y-83699000D01*
X99509789Y-83699000D02*
X99476455Y-83832333D01*
X99476455Y-83832333D02*
X99409789Y-83899000D01*
X99409789Y-83899000D02*
X99343122Y-83932333D01*
X99343122Y-83932333D02*
X99209789Y-83932333D01*
X99209789Y-83932333D02*
X99143122Y-83899000D01*
X99143122Y-83899000D02*
X99076455Y-83832333D01*
X99076455Y-83832333D02*
X99043122Y-83699000D01*
X99043122Y-83699000D02*
X99043122Y-83465666D01*
X99043122Y-83465666D02*
X99076455Y-83332333D01*
X99076455Y-83332333D02*
X99143122Y-83265666D01*
X99143122Y-83265666D02*
X99209789Y-83232333D01*
X99776455Y-83899000D02*
X99876455Y-83932333D01*
X99876455Y-83932333D02*
X100043122Y-83932333D01*
X100043122Y-83932333D02*
X100109788Y-83899000D01*
X100109788Y-83899000D02*
X100143122Y-83865666D01*
X100143122Y-83865666D02*
X100176455Y-83799000D01*
X100176455Y-83799000D02*
X100176455Y-83732333D01*
X100176455Y-83732333D02*
X100143122Y-83665666D01*
X100143122Y-83665666D02*
X100109788Y-83632333D01*
X100109788Y-83632333D02*
X100043122Y-83599000D01*
X100043122Y-83599000D02*
X99909788Y-83565666D01*
X99909788Y-83565666D02*
X99843122Y-83532333D01*
X99843122Y-83532333D02*
X99809788Y-83499000D01*
X99809788Y-83499000D02*
X99776455Y-83432333D01*
X99776455Y-83432333D02*
X99776455Y-83365666D01*
X99776455Y-83365666D02*
X99809788Y-83299000D01*
X99809788Y-83299000D02*
X99843122Y-83265666D01*
X99843122Y-83265666D02*
X99909788Y-83232333D01*
X99909788Y-83232333D02*
X100076455Y-83232333D01*
X100076455Y-83232333D02*
X100176455Y-83265666D01*
X100476455Y-83932333D02*
X100476455Y-83232333D01*
X98209789Y-88312333D02*
X98643122Y-88312333D01*
X98643122Y-88312333D02*
X98409789Y-88579000D01*
X98409789Y-88579000D02*
X98509789Y-88579000D01*
X98509789Y-88579000D02*
X98576455Y-88612333D01*
X98576455Y-88612333D02*
X98609789Y-88645666D01*
X98609789Y-88645666D02*
X98643122Y-88712333D01*
X98643122Y-88712333D02*
X98643122Y-88879000D01*
X98643122Y-88879000D02*
X98609789Y-88945666D01*
X98609789Y-88945666D02*
X98576455Y-88979000D01*
X98576455Y-88979000D02*
X98509789Y-89012333D01*
X98509789Y-89012333D02*
X98309789Y-89012333D01*
X98309789Y-89012333D02*
X98243122Y-88979000D01*
X98243122Y-88979000D02*
X98209789Y-88945666D01*
X98943122Y-88945666D02*
X98976456Y-88979000D01*
X98976456Y-88979000D02*
X98943122Y-89012333D01*
X98943122Y-89012333D02*
X98909789Y-88979000D01*
X98909789Y-88979000D02*
X98943122Y-88945666D01*
X98943122Y-88945666D02*
X98943122Y-89012333D01*
X99209789Y-88312333D02*
X99643122Y-88312333D01*
X99643122Y-88312333D02*
X99409789Y-88579000D01*
X99409789Y-88579000D02*
X99509789Y-88579000D01*
X99509789Y-88579000D02*
X99576455Y-88612333D01*
X99576455Y-88612333D02*
X99609789Y-88645666D01*
X99609789Y-88645666D02*
X99643122Y-88712333D01*
X99643122Y-88712333D02*
X99643122Y-88879000D01*
X99643122Y-88879000D02*
X99609789Y-88945666D01*
X99609789Y-88945666D02*
X99576455Y-88979000D01*
X99576455Y-88979000D02*
X99509789Y-89012333D01*
X99509789Y-89012333D02*
X99309789Y-89012333D01*
X99309789Y-89012333D02*
X99243122Y-88979000D01*
X99243122Y-88979000D02*
X99209789Y-88945666D01*
X99843122Y-88312333D02*
X100076456Y-89012333D01*
X100076456Y-89012333D02*
X100309789Y-88312333D01*
D12*
X94764388Y-78432019D02*
X94192960Y-78432019D01*
X94478674Y-78432019D02*
X94478674Y-77432019D01*
X94478674Y-77432019D02*
X94383436Y-77574876D01*
X94383436Y-77574876D02*
X94288198Y-77670114D01*
X94288198Y-77670114D02*
X94192960Y-77717733D01*
X95383436Y-77432019D02*
X95478674Y-77432019D01*
X95478674Y-77432019D02*
X95573912Y-77479638D01*
X95573912Y-77479638D02*
X95621531Y-77527257D01*
X95621531Y-77527257D02*
X95669150Y-77622495D01*
X95669150Y-77622495D02*
X95716769Y-77812971D01*
X95716769Y-77812971D02*
X95716769Y-78051066D01*
X95716769Y-78051066D02*
X95669150Y-78241542D01*
X95669150Y-78241542D02*
X95621531Y-78336780D01*
X95621531Y-78336780D02*
X95573912Y-78384400D01*
X95573912Y-78384400D02*
X95478674Y-78432019D01*
X95478674Y-78432019D02*
X95383436Y-78432019D01*
X95383436Y-78432019D02*
X95288198Y-78384400D01*
X95288198Y-78384400D02*
X95240579Y-78336780D01*
X95240579Y-78336780D02*
X95192960Y-78241542D01*
X95192960Y-78241542D02*
X95145341Y-78051066D01*
X95145341Y-78051066D02*
X95145341Y-77812971D01*
X95145341Y-77812971D02*
X95192960Y-77622495D01*
X95192960Y-77622495D02*
X95240579Y-77527257D01*
X95240579Y-77527257D02*
X95288198Y-77479638D01*
X95288198Y-77479638D02*
X95383436Y-77432019D01*
X100936588Y-90751019D02*
X100365160Y-90751019D01*
X100650874Y-90751019D02*
X100650874Y-89751019D01*
X100650874Y-89751019D02*
X100555636Y-89893876D01*
X100555636Y-89893876D02*
X100460398Y-89989114D01*
X100460398Y-89989114D02*
X100365160Y-90036733D01*
D16*
X95990455Y-81392333D02*
X95990455Y-80692333D01*
X96323788Y-81392333D02*
X96323788Y-80692333D01*
X96323788Y-80692333D02*
X96723788Y-81392333D01*
X96723788Y-81392333D02*
X96723788Y-80692333D01*
X96957121Y-80692333D02*
X97357121Y-80692333D01*
X97157121Y-81392333D02*
X97157121Y-80692333D01*
D12*
X94269160Y-89846257D02*
X94316779Y-89798638D01*
X94316779Y-89798638D02*
X94412017Y-89751019D01*
X94412017Y-89751019D02*
X94650112Y-89751019D01*
X94650112Y-89751019D02*
X94745350Y-89798638D01*
X94745350Y-89798638D02*
X94792969Y-89846257D01*
X94792969Y-89846257D02*
X94840588Y-89941495D01*
X94840588Y-89941495D02*
X94840588Y-90036733D01*
X94840588Y-90036733D02*
X94792969Y-90179590D01*
X94792969Y-90179590D02*
X94221541Y-90751019D01*
X94221541Y-90751019D02*
X94840588Y-90751019D01*
D16*
X98276455Y-86472333D02*
X98276455Y-85772333D01*
X98276455Y-85772333D02*
X98509789Y-86272333D01*
X98509789Y-86272333D02*
X98743122Y-85772333D01*
X98743122Y-85772333D02*
X98743122Y-86472333D01*
X99076455Y-86472333D02*
X99076455Y-85772333D01*
X99376455Y-86439000D02*
X99476455Y-86472333D01*
X99476455Y-86472333D02*
X99643122Y-86472333D01*
X99643122Y-86472333D02*
X99709788Y-86439000D01*
X99709788Y-86439000D02*
X99743122Y-86405666D01*
X99743122Y-86405666D02*
X99776455Y-86339000D01*
X99776455Y-86339000D02*
X99776455Y-86272333D01*
X99776455Y-86272333D02*
X99743122Y-86205666D01*
X99743122Y-86205666D02*
X99709788Y-86172333D01*
X99709788Y-86172333D02*
X99643122Y-86139000D01*
X99643122Y-86139000D02*
X99509788Y-86105666D01*
X99509788Y-86105666D02*
X99443122Y-86072333D01*
X99443122Y-86072333D02*
X99409788Y-86039000D01*
X99409788Y-86039000D02*
X99376455Y-85972333D01*
X99376455Y-85972333D02*
X99376455Y-85905666D01*
X99376455Y-85905666D02*
X99409788Y-85839000D01*
X99409788Y-85839000D02*
X99443122Y-85805666D01*
X99443122Y-85805666D02*
X99509788Y-85772333D01*
X99509788Y-85772333D02*
X99676455Y-85772333D01*
X99676455Y-85772333D02*
X99776455Y-85805666D01*
X100209789Y-85772333D02*
X100343122Y-85772333D01*
X100343122Y-85772333D02*
X100409789Y-85805666D01*
X100409789Y-85805666D02*
X100476455Y-85872333D01*
X100476455Y-85872333D02*
X100509789Y-86005666D01*
X100509789Y-86005666D02*
X100509789Y-86239000D01*
X100509789Y-86239000D02*
X100476455Y-86372333D01*
X100476455Y-86372333D02*
X100409789Y-86439000D01*
X100409789Y-86439000D02*
X100343122Y-86472333D01*
X100343122Y-86472333D02*
X100209789Y-86472333D01*
X100209789Y-86472333D02*
X100143122Y-86439000D01*
X100143122Y-86439000D02*
X100076455Y-86372333D01*
X100076455Y-86372333D02*
X100043122Y-86239000D01*
X100043122Y-86239000D02*
X100043122Y-86005666D01*
X100043122Y-86005666D02*
X100076455Y-85872333D01*
X100076455Y-85872333D02*
X100143122Y-85805666D01*
X100143122Y-85805666D02*
X100209789Y-85772333D01*
X96390455Y-83932333D02*
X96157122Y-83599000D01*
X95990455Y-83932333D02*
X95990455Y-83232333D01*
X95990455Y-83232333D02*
X96257122Y-83232333D01*
X96257122Y-83232333D02*
X96323789Y-83265666D01*
X96323789Y-83265666D02*
X96357122Y-83299000D01*
X96357122Y-83299000D02*
X96390455Y-83365666D01*
X96390455Y-83365666D02*
X96390455Y-83465666D01*
X96390455Y-83465666D02*
X96357122Y-83532333D01*
X96357122Y-83532333D02*
X96323789Y-83565666D01*
X96323789Y-83565666D02*
X96257122Y-83599000D01*
X96257122Y-83599000D02*
X95990455Y-83599000D01*
X96657122Y-83899000D02*
X96757122Y-83932333D01*
X96757122Y-83932333D02*
X96923789Y-83932333D01*
X96923789Y-83932333D02*
X96990455Y-83899000D01*
X96990455Y-83899000D02*
X97023789Y-83865666D01*
X97023789Y-83865666D02*
X97057122Y-83799000D01*
X97057122Y-83799000D02*
X97057122Y-83732333D01*
X97057122Y-83732333D02*
X97023789Y-83665666D01*
X97023789Y-83665666D02*
X96990455Y-83632333D01*
X96990455Y-83632333D02*
X96923789Y-83599000D01*
X96923789Y-83599000D02*
X96790455Y-83565666D01*
X96790455Y-83565666D02*
X96723789Y-83532333D01*
X96723789Y-83532333D02*
X96690455Y-83499000D01*
X96690455Y-83499000D02*
X96657122Y-83432333D01*
X96657122Y-83432333D02*
X96657122Y-83365666D01*
X96657122Y-83365666D02*
X96690455Y-83299000D01*
X96690455Y-83299000D02*
X96723789Y-83265666D01*
X96723789Y-83265666D02*
X96790455Y-83232333D01*
X96790455Y-83232333D02*
X96957122Y-83232333D01*
X96957122Y-83232333D02*
X97057122Y-83265666D01*
X97257122Y-83232333D02*
X97657122Y-83232333D01*
X97457122Y-83932333D02*
X97457122Y-83232333D01*
D12*
X99444398Y-78432019D02*
X99634874Y-78432019D01*
X99634874Y-78432019D02*
X99730112Y-78384400D01*
X99730112Y-78384400D02*
X99777731Y-78336780D01*
X99777731Y-78336780D02*
X99872969Y-78193923D01*
X99872969Y-78193923D02*
X99920588Y-78003447D01*
X99920588Y-78003447D02*
X99920588Y-77622495D01*
X99920588Y-77622495D02*
X99872969Y-77527257D01*
X99872969Y-77527257D02*
X99825350Y-77479638D01*
X99825350Y-77479638D02*
X99730112Y-77432019D01*
X99730112Y-77432019D02*
X99539636Y-77432019D01*
X99539636Y-77432019D02*
X99444398Y-77479638D01*
X99444398Y-77479638D02*
X99396779Y-77527257D01*
X99396779Y-77527257D02*
X99349160Y-77622495D01*
X99349160Y-77622495D02*
X99349160Y-77860590D01*
X99349160Y-77860590D02*
X99396779Y-77955828D01*
X99396779Y-77955828D02*
X99444398Y-78003447D01*
X99444398Y-78003447D02*
X99539636Y-78051066D01*
X99539636Y-78051066D02*
X99730112Y-78051066D01*
X99730112Y-78051066D02*
X99825350Y-78003447D01*
X99825350Y-78003447D02*
X99872969Y-77955828D01*
X99872969Y-77955828D02*
X99920588Y-77860590D01*
D16*
X98243122Y-78819000D02*
X98343122Y-78852333D01*
X98343122Y-78852333D02*
X98509789Y-78852333D01*
X98509789Y-78852333D02*
X98576455Y-78819000D01*
X98576455Y-78819000D02*
X98609789Y-78785666D01*
X98609789Y-78785666D02*
X98643122Y-78719000D01*
X98643122Y-78719000D02*
X98643122Y-78652333D01*
X98643122Y-78652333D02*
X98609789Y-78585666D01*
X98609789Y-78585666D02*
X98576455Y-78552333D01*
X98576455Y-78552333D02*
X98509789Y-78519000D01*
X98509789Y-78519000D02*
X98376455Y-78485666D01*
X98376455Y-78485666D02*
X98309789Y-78452333D01*
X98309789Y-78452333D02*
X98276455Y-78419000D01*
X98276455Y-78419000D02*
X98243122Y-78352333D01*
X98243122Y-78352333D02*
X98243122Y-78285666D01*
X98243122Y-78285666D02*
X98276455Y-78219000D01*
X98276455Y-78219000D02*
X98309789Y-78185666D01*
X98309789Y-78185666D02*
X98376455Y-78152333D01*
X98376455Y-78152333D02*
X98543122Y-78152333D01*
X98543122Y-78152333D02*
X98643122Y-78185666D01*
X99343122Y-78785666D02*
X99309789Y-78819000D01*
X99309789Y-78819000D02*
X99209789Y-78852333D01*
X99209789Y-78852333D02*
X99143122Y-78852333D01*
X99143122Y-78852333D02*
X99043122Y-78819000D01*
X99043122Y-78819000D02*
X98976456Y-78752333D01*
X98976456Y-78752333D02*
X98943122Y-78685666D01*
X98943122Y-78685666D02*
X98909789Y-78552333D01*
X98909789Y-78552333D02*
X98909789Y-78452333D01*
X98909789Y-78452333D02*
X98943122Y-78319000D01*
X98943122Y-78319000D02*
X98976456Y-78252333D01*
X98976456Y-78252333D02*
X99043122Y-78185666D01*
X99043122Y-78185666D02*
X99143122Y-78152333D01*
X99143122Y-78152333D02*
X99209789Y-78152333D01*
X99209789Y-78152333D02*
X99309789Y-78185666D01*
X99309789Y-78185666D02*
X99343122Y-78219000D01*
X99976456Y-78852333D02*
X99643122Y-78852333D01*
X99643122Y-78852333D02*
X99643122Y-78152333D01*
X100209789Y-78852333D02*
X100209789Y-78152333D01*
X100609789Y-78852333D02*
X100309789Y-78452333D01*
X100609789Y-78152333D02*
X100209789Y-78552333D01*
X98243122Y-81359000D02*
X98343122Y-81392333D01*
X98343122Y-81392333D02*
X98509789Y-81392333D01*
X98509789Y-81392333D02*
X98576455Y-81359000D01*
X98576455Y-81359000D02*
X98609789Y-81325666D01*
X98609789Y-81325666D02*
X98643122Y-81259000D01*
X98643122Y-81259000D02*
X98643122Y-81192333D01*
X98643122Y-81192333D02*
X98609789Y-81125666D01*
X98609789Y-81125666D02*
X98576455Y-81092333D01*
X98576455Y-81092333D02*
X98509789Y-81059000D01*
X98509789Y-81059000D02*
X98376455Y-81025666D01*
X98376455Y-81025666D02*
X98309789Y-80992333D01*
X98309789Y-80992333D02*
X98276455Y-80959000D01*
X98276455Y-80959000D02*
X98243122Y-80892333D01*
X98243122Y-80892333D02*
X98243122Y-80825666D01*
X98243122Y-80825666D02*
X98276455Y-80759000D01*
X98276455Y-80759000D02*
X98309789Y-80725666D01*
X98309789Y-80725666D02*
X98376455Y-80692333D01*
X98376455Y-80692333D02*
X98543122Y-80692333D01*
X98543122Y-80692333D02*
X98643122Y-80725666D01*
X99343122Y-81325666D02*
X99309789Y-81359000D01*
X99309789Y-81359000D02*
X99209789Y-81392333D01*
X99209789Y-81392333D02*
X99143122Y-81392333D01*
X99143122Y-81392333D02*
X99043122Y-81359000D01*
X99043122Y-81359000D02*
X98976456Y-81292333D01*
X98976456Y-81292333D02*
X98943122Y-81225666D01*
X98943122Y-81225666D02*
X98909789Y-81092333D01*
X98909789Y-81092333D02*
X98909789Y-80992333D01*
X98909789Y-80992333D02*
X98943122Y-80859000D01*
X98943122Y-80859000D02*
X98976456Y-80792333D01*
X98976456Y-80792333D02*
X99043122Y-80725666D01*
X99043122Y-80725666D02*
X99143122Y-80692333D01*
X99143122Y-80692333D02*
X99209789Y-80692333D01*
X99209789Y-80692333D02*
X99309789Y-80725666D01*
X99309789Y-80725666D02*
X99343122Y-80759000D01*
X99609789Y-81359000D02*
X99709789Y-81392333D01*
X99709789Y-81392333D02*
X99876456Y-81392333D01*
X99876456Y-81392333D02*
X99943122Y-81359000D01*
X99943122Y-81359000D02*
X99976456Y-81325666D01*
X99976456Y-81325666D02*
X100009789Y-81259000D01*
X100009789Y-81259000D02*
X100009789Y-81192333D01*
X100009789Y-81192333D02*
X99976456Y-81125666D01*
X99976456Y-81125666D02*
X99943122Y-81092333D01*
X99943122Y-81092333D02*
X99876456Y-81059000D01*
X99876456Y-81059000D02*
X99743122Y-81025666D01*
X99743122Y-81025666D02*
X99676456Y-80992333D01*
X99676456Y-80992333D02*
X99643122Y-80959000D01*
X99643122Y-80959000D02*
X99609789Y-80892333D01*
X99609789Y-80892333D02*
X99609789Y-80825666D01*
X99609789Y-80825666D02*
X99643122Y-80759000D01*
X99643122Y-80759000D02*
X99676456Y-80725666D01*
X99676456Y-80725666D02*
X99743122Y-80692333D01*
X99743122Y-80692333D02*
X99909789Y-80692333D01*
X99909789Y-80692333D02*
X100009789Y-80725666D01*
X96069789Y-88312333D02*
X95736455Y-88312333D01*
X95736455Y-88312333D02*
X95703122Y-88645666D01*
X95703122Y-88645666D02*
X95736455Y-88612333D01*
X95736455Y-88612333D02*
X95803122Y-88579000D01*
X95803122Y-88579000D02*
X95969789Y-88579000D01*
X95969789Y-88579000D02*
X96036455Y-88612333D01*
X96036455Y-88612333D02*
X96069789Y-88645666D01*
X96069789Y-88645666D02*
X96103122Y-88712333D01*
X96103122Y-88712333D02*
X96103122Y-88879000D01*
X96103122Y-88879000D02*
X96069789Y-88945666D01*
X96069789Y-88945666D02*
X96036455Y-88979000D01*
X96036455Y-88979000D02*
X95969789Y-89012333D01*
X95969789Y-89012333D02*
X95803122Y-89012333D01*
X95803122Y-89012333D02*
X95736455Y-88979000D01*
X95736455Y-88979000D02*
X95703122Y-88945666D01*
X96303122Y-88312333D02*
X96536456Y-89012333D01*
X96536456Y-89012333D02*
X96769789Y-88312333D01*
X96103122Y-78185666D02*
X96036455Y-78152333D01*
X96036455Y-78152333D02*
X95936455Y-78152333D01*
X95936455Y-78152333D02*
X95836455Y-78185666D01*
X95836455Y-78185666D02*
X95769789Y-78252333D01*
X95769789Y-78252333D02*
X95736455Y-78319000D01*
X95736455Y-78319000D02*
X95703122Y-78452333D01*
X95703122Y-78452333D02*
X95703122Y-78552333D01*
X95703122Y-78552333D02*
X95736455Y-78685666D01*
X95736455Y-78685666D02*
X95769789Y-78752333D01*
X95769789Y-78752333D02*
X95836455Y-78819000D01*
X95836455Y-78819000D02*
X95936455Y-78852333D01*
X95936455Y-78852333D02*
X96003122Y-78852333D01*
X96003122Y-78852333D02*
X96103122Y-78819000D01*
X96103122Y-78819000D02*
X96136455Y-78785666D01*
X96136455Y-78785666D02*
X96136455Y-78552333D01*
X96136455Y-78552333D02*
X96003122Y-78552333D01*
X96436455Y-78852333D02*
X96436455Y-78152333D01*
X96436455Y-78152333D02*
X96836455Y-78852333D01*
X96836455Y-78852333D02*
X96836455Y-78152333D01*
X97169788Y-78852333D02*
X97169788Y-78152333D01*
X97169788Y-78152333D02*
X97336455Y-78152333D01*
X97336455Y-78152333D02*
X97436455Y-78185666D01*
X97436455Y-78185666D02*
X97503122Y-78252333D01*
X97503122Y-78252333D02*
X97536455Y-78319000D01*
X97536455Y-78319000D02*
X97569788Y-78452333D01*
X97569788Y-78452333D02*
X97569788Y-78552333D01*
X97569788Y-78552333D02*
X97536455Y-78685666D01*
X97536455Y-78685666D02*
X97503122Y-78752333D01*
X97503122Y-78752333D02*
X97436455Y-78819000D01*
X97436455Y-78819000D02*
X97336455Y-78852333D01*
X97336455Y-78852333D02*
X97169788Y-78852333D01*
D12*
X132032476Y-82107819D02*
X132032476Y-82822104D01*
X132032476Y-82822104D02*
X131984857Y-82964961D01*
X131984857Y-82964961D02*
X131889619Y-83060200D01*
X131889619Y-83060200D02*
X131746762Y-83107819D01*
X131746762Y-83107819D02*
X131651524Y-83107819D01*
X133032476Y-83107819D02*
X132461048Y-83107819D01*
X132746762Y-83107819D02*
X132746762Y-82107819D01*
X132746762Y-82107819D02*
X132651524Y-82250676D01*
X132651524Y-82250676D02*
X132556286Y-82345914D01*
X132556286Y-82345914D02*
X132461048Y-82393533D01*
X133508667Y-83107819D02*
X133699143Y-83107819D01*
X133699143Y-83107819D02*
X133794381Y-83060200D01*
X133794381Y-83060200D02*
X133842000Y-83012580D01*
X133842000Y-83012580D02*
X133937238Y-82869723D01*
X133937238Y-82869723D02*
X133984857Y-82679247D01*
X133984857Y-82679247D02*
X133984857Y-82298295D01*
X133984857Y-82298295D02*
X133937238Y-82203057D01*
X133937238Y-82203057D02*
X133889619Y-82155438D01*
X133889619Y-82155438D02*
X133794381Y-82107819D01*
X133794381Y-82107819D02*
X133603905Y-82107819D01*
X133603905Y-82107819D02*
X133508667Y-82155438D01*
X133508667Y-82155438D02*
X133461048Y-82203057D01*
X133461048Y-82203057D02*
X133413429Y-82298295D01*
X133413429Y-82298295D02*
X133413429Y-82536390D01*
X133413429Y-82536390D02*
X133461048Y-82631628D01*
X133461048Y-82631628D02*
X133508667Y-82679247D01*
X133508667Y-82679247D02*
X133603905Y-82726866D01*
X133603905Y-82726866D02*
X133794381Y-82726866D01*
X133794381Y-82726866D02*
X133889619Y-82679247D01*
X133889619Y-82679247D02*
X133937238Y-82631628D01*
X133937238Y-82631628D02*
X133984857Y-82536390D01*
X76787476Y-92799819D02*
X76787476Y-93514104D01*
X76787476Y-93514104D02*
X76739857Y-93656961D01*
X76739857Y-93656961D02*
X76644619Y-93752200D01*
X76644619Y-93752200D02*
X76501762Y-93799819D01*
X76501762Y-93799819D02*
X76406524Y-93799819D01*
X77787476Y-93799819D02*
X77216048Y-93799819D01*
X77501762Y-93799819D02*
X77501762Y-92799819D01*
X77501762Y-92799819D02*
X77406524Y-92942676D01*
X77406524Y-92942676D02*
X77311286Y-93037914D01*
X77311286Y-93037914D02*
X77216048Y-93085533D01*
X78168429Y-92895057D02*
X78216048Y-92847438D01*
X78216048Y-92847438D02*
X78311286Y-92799819D01*
X78311286Y-92799819D02*
X78549381Y-92799819D01*
X78549381Y-92799819D02*
X78644619Y-92847438D01*
X78644619Y-92847438D02*
X78692238Y-92895057D01*
X78692238Y-92895057D02*
X78739857Y-92990295D01*
X78739857Y-92990295D02*
X78739857Y-93085533D01*
X78739857Y-93085533D02*
X78692238Y-93228390D01*
X78692238Y-93228390D02*
X78120810Y-93799819D01*
X78120810Y-93799819D02*
X78739857Y-93799819D01*
X137969714Y-96435104D02*
X138445904Y-96435104D01*
X137874476Y-96720819D02*
X138207809Y-95720819D01*
X138207809Y-95720819D02*
X138541142Y-96720819D01*
X139398285Y-96720819D02*
X138826857Y-96720819D01*
X139112571Y-96720819D02*
X139112571Y-95720819D01*
X139112571Y-95720819D02*
X139017333Y-95863676D01*
X139017333Y-95863676D02*
X138922095Y-95958914D01*
X138922095Y-95958914D02*
X138826857Y-96006533D01*
X135136904Y-97744104D02*
X135613094Y-97744104D01*
X135041666Y-98029819D02*
X135374999Y-97029819D01*
X135374999Y-97029819D02*
X135708332Y-98029819D01*
X136041666Y-98029819D02*
X136041666Y-97363152D01*
X136041666Y-97553628D02*
X136089285Y-97458390D01*
X136089285Y-97458390D02*
X136136904Y-97410771D01*
X136136904Y-97410771D02*
X136232142Y-97363152D01*
X136232142Y-97363152D02*
X136327380Y-97363152D01*
X137089285Y-98029819D02*
X137089285Y-97029819D01*
X137089285Y-97982200D02*
X136994047Y-98029819D01*
X136994047Y-98029819D02*
X136803571Y-98029819D01*
X136803571Y-98029819D02*
X136708333Y-97982200D01*
X136708333Y-97982200D02*
X136660714Y-97934580D01*
X136660714Y-97934580D02*
X136613095Y-97839342D01*
X136613095Y-97839342D02*
X136613095Y-97553628D01*
X136613095Y-97553628D02*
X136660714Y-97458390D01*
X136660714Y-97458390D02*
X136708333Y-97410771D01*
X136708333Y-97410771D02*
X136803571Y-97363152D01*
X136803571Y-97363152D02*
X136994047Y-97363152D01*
X136994047Y-97363152D02*
X137089285Y-97410771D01*
X137994047Y-97363152D02*
X137994047Y-98029819D01*
X137565476Y-97363152D02*
X137565476Y-97886961D01*
X137565476Y-97886961D02*
X137613095Y-97982200D01*
X137613095Y-97982200D02*
X137708333Y-98029819D01*
X137708333Y-98029819D02*
X137851190Y-98029819D01*
X137851190Y-98029819D02*
X137946428Y-97982200D01*
X137946428Y-97982200D02*
X137994047Y-97934580D01*
X138470238Y-98029819D02*
X138470238Y-97363152D01*
X138470238Y-97029819D02*
X138422619Y-97077438D01*
X138422619Y-97077438D02*
X138470238Y-97125057D01*
X138470238Y-97125057D02*
X138517857Y-97077438D01*
X138517857Y-97077438D02*
X138470238Y-97029819D01*
X138470238Y-97029819D02*
X138470238Y-97125057D01*
X138946428Y-97363152D02*
X138946428Y-98029819D01*
X138946428Y-97458390D02*
X138994047Y-97410771D01*
X138994047Y-97410771D02*
X139089285Y-97363152D01*
X139089285Y-97363152D02*
X139232142Y-97363152D01*
X139232142Y-97363152D02*
X139327380Y-97410771D01*
X139327380Y-97410771D02*
X139374999Y-97506009D01*
X139374999Y-97506009D02*
X139374999Y-98029819D01*
X139994047Y-98029819D02*
X139898809Y-97982200D01*
X139898809Y-97982200D02*
X139851190Y-97934580D01*
X139851190Y-97934580D02*
X139803571Y-97839342D01*
X139803571Y-97839342D02*
X139803571Y-97553628D01*
X139803571Y-97553628D02*
X139851190Y-97458390D01*
X139851190Y-97458390D02*
X139898809Y-97410771D01*
X139898809Y-97410771D02*
X139994047Y-97363152D01*
X139994047Y-97363152D02*
X140136904Y-97363152D01*
X140136904Y-97363152D02*
X140232142Y-97410771D01*
X140232142Y-97410771D02*
X140279761Y-97458390D01*
X140279761Y-97458390D02*
X140327380Y-97553628D01*
X140327380Y-97553628D02*
X140327380Y-97839342D01*
X140327380Y-97839342D02*
X140279761Y-97934580D01*
X140279761Y-97934580D02*
X140232142Y-97982200D01*
X140232142Y-97982200D02*
X140136904Y-98029819D01*
X140136904Y-98029819D02*
X139994047Y-98029819D01*
X140517857Y-98125057D02*
X141279761Y-98125057D01*
X141517857Y-98029819D02*
X141517857Y-97029819D01*
X141517857Y-97029819D02*
X142089285Y-98029819D01*
X142089285Y-98029819D02*
X142089285Y-97029819D01*
X142994047Y-98029819D02*
X142994047Y-97506009D01*
X142994047Y-97506009D02*
X142946428Y-97410771D01*
X142946428Y-97410771D02*
X142851190Y-97363152D01*
X142851190Y-97363152D02*
X142660714Y-97363152D01*
X142660714Y-97363152D02*
X142565476Y-97410771D01*
X142994047Y-97982200D02*
X142898809Y-98029819D01*
X142898809Y-98029819D02*
X142660714Y-98029819D01*
X142660714Y-98029819D02*
X142565476Y-97982200D01*
X142565476Y-97982200D02*
X142517857Y-97886961D01*
X142517857Y-97886961D02*
X142517857Y-97791723D01*
X142517857Y-97791723D02*
X142565476Y-97696485D01*
X142565476Y-97696485D02*
X142660714Y-97648866D01*
X142660714Y-97648866D02*
X142898809Y-97648866D01*
X142898809Y-97648866D02*
X142994047Y-97601247D01*
X143470238Y-97363152D02*
X143470238Y-98029819D01*
X143470238Y-97458390D02*
X143517857Y-97410771D01*
X143517857Y-97410771D02*
X143613095Y-97363152D01*
X143613095Y-97363152D02*
X143755952Y-97363152D01*
X143755952Y-97363152D02*
X143851190Y-97410771D01*
X143851190Y-97410771D02*
X143898809Y-97506009D01*
X143898809Y-97506009D02*
X143898809Y-98029819D01*
X144517857Y-98029819D02*
X144422619Y-97982200D01*
X144422619Y-97982200D02*
X144375000Y-97934580D01*
X144375000Y-97934580D02*
X144327381Y-97839342D01*
X144327381Y-97839342D02*
X144327381Y-97553628D01*
X144327381Y-97553628D02*
X144375000Y-97458390D01*
X144375000Y-97458390D02*
X144422619Y-97410771D01*
X144422619Y-97410771D02*
X144517857Y-97363152D01*
X144517857Y-97363152D02*
X144660714Y-97363152D01*
X144660714Y-97363152D02*
X144755952Y-97410771D01*
X144755952Y-97410771D02*
X144803571Y-97458390D01*
X144803571Y-97458390D02*
X144851190Y-97553628D01*
X144851190Y-97553628D02*
X144851190Y-97839342D01*
X144851190Y-97839342D02*
X144803571Y-97934580D01*
X144803571Y-97934580D02*
X144755952Y-97982200D01*
X144755952Y-97982200D02*
X144660714Y-98029819D01*
X144660714Y-98029819D02*
X144517857Y-98029819D01*
X145041667Y-98125057D02*
X145803571Y-98125057D01*
X145946429Y-97363152D02*
X146184524Y-98029819D01*
X146184524Y-98029819D02*
X146422619Y-97363152D01*
X146708334Y-97029819D02*
X147327381Y-97029819D01*
X147327381Y-97029819D02*
X146994048Y-97410771D01*
X146994048Y-97410771D02*
X147136905Y-97410771D01*
X147136905Y-97410771D02*
X147232143Y-97458390D01*
X147232143Y-97458390D02*
X147279762Y-97506009D01*
X147279762Y-97506009D02*
X147327381Y-97601247D01*
X147327381Y-97601247D02*
X147327381Y-97839342D01*
X147327381Y-97839342D02*
X147279762Y-97934580D01*
X147279762Y-97934580D02*
X147232143Y-97982200D01*
X147232143Y-97982200D02*
X147136905Y-98029819D01*
X147136905Y-98029819D02*
X146851191Y-98029819D01*
X146851191Y-98029819D02*
X146755953Y-97982200D01*
X146755953Y-97982200D02*
X146708334Y-97934580D01*
X147755953Y-97934580D02*
X147803572Y-97982200D01*
X147803572Y-97982200D02*
X147755953Y-98029819D01*
X147755953Y-98029819D02*
X147708334Y-97982200D01*
X147708334Y-97982200D02*
X147755953Y-97934580D01*
X147755953Y-97934580D02*
X147755953Y-98029819D01*
X148136905Y-98029819D02*
X148660714Y-97363152D01*
X148136905Y-97363152D02*
X148660714Y-98029819D01*
X160744819Y-100321904D02*
X161554342Y-100321904D01*
X161554342Y-100321904D02*
X161649580Y-100274285D01*
X161649580Y-100274285D02*
X161697200Y-100226666D01*
X161697200Y-100226666D02*
X161744819Y-100131428D01*
X161744819Y-100131428D02*
X161744819Y-99940952D01*
X161744819Y-99940952D02*
X161697200Y-99845714D01*
X161697200Y-99845714D02*
X161649580Y-99798095D01*
X161649580Y-99798095D02*
X161554342Y-99750476D01*
X161554342Y-99750476D02*
X160744819Y-99750476D01*
X161697200Y-99321904D02*
X161744819Y-99179047D01*
X161744819Y-99179047D02*
X161744819Y-98940952D01*
X161744819Y-98940952D02*
X161697200Y-98845714D01*
X161697200Y-98845714D02*
X161649580Y-98798095D01*
X161649580Y-98798095D02*
X161554342Y-98750476D01*
X161554342Y-98750476D02*
X161459104Y-98750476D01*
X161459104Y-98750476D02*
X161363866Y-98798095D01*
X161363866Y-98798095D02*
X161316247Y-98845714D01*
X161316247Y-98845714D02*
X161268628Y-98940952D01*
X161268628Y-98940952D02*
X161221009Y-99131428D01*
X161221009Y-99131428D02*
X161173390Y-99226666D01*
X161173390Y-99226666D02*
X161125771Y-99274285D01*
X161125771Y-99274285D02*
X161030533Y-99321904D01*
X161030533Y-99321904D02*
X160935295Y-99321904D01*
X160935295Y-99321904D02*
X160840057Y-99274285D01*
X160840057Y-99274285D02*
X160792438Y-99226666D01*
X160792438Y-99226666D02*
X160744819Y-99131428D01*
X160744819Y-99131428D02*
X160744819Y-98893333D01*
X160744819Y-98893333D02*
X160792438Y-98750476D01*
X161221009Y-97988571D02*
X161268628Y-97845714D01*
X161268628Y-97845714D02*
X161316247Y-97798095D01*
X161316247Y-97798095D02*
X161411485Y-97750476D01*
X161411485Y-97750476D02*
X161554342Y-97750476D01*
X161554342Y-97750476D02*
X161649580Y-97798095D01*
X161649580Y-97798095D02*
X161697200Y-97845714D01*
X161697200Y-97845714D02*
X161744819Y-97940952D01*
X161744819Y-97940952D02*
X161744819Y-98321904D01*
X161744819Y-98321904D02*
X160744819Y-98321904D01*
X160744819Y-98321904D02*
X160744819Y-97988571D01*
X160744819Y-97988571D02*
X160792438Y-97893333D01*
X160792438Y-97893333D02*
X160840057Y-97845714D01*
X160840057Y-97845714D02*
X160935295Y-97798095D01*
X160935295Y-97798095D02*
X161030533Y-97798095D01*
X161030533Y-97798095D02*
X161125771Y-97845714D01*
X161125771Y-97845714D02*
X161173390Y-97893333D01*
X161173390Y-97893333D02*
X161221009Y-97988571D01*
X161221009Y-97988571D02*
X161221009Y-98321904D01*
X82881333Y-81641580D02*
X82833714Y-81689200D01*
X82833714Y-81689200D02*
X82690857Y-81736819D01*
X82690857Y-81736819D02*
X82595619Y-81736819D01*
X82595619Y-81736819D02*
X82452762Y-81689200D01*
X82452762Y-81689200D02*
X82357524Y-81593961D01*
X82357524Y-81593961D02*
X82309905Y-81498723D01*
X82309905Y-81498723D02*
X82262286Y-81308247D01*
X82262286Y-81308247D02*
X82262286Y-81165390D01*
X82262286Y-81165390D02*
X82309905Y-80974914D01*
X82309905Y-80974914D02*
X82357524Y-80879676D01*
X82357524Y-80879676D02*
X82452762Y-80784438D01*
X82452762Y-80784438D02*
X82595619Y-80736819D01*
X82595619Y-80736819D02*
X82690857Y-80736819D01*
X82690857Y-80736819D02*
X82833714Y-80784438D01*
X82833714Y-80784438D02*
X82881333Y-80832057D01*
X83738476Y-81070152D02*
X83738476Y-81736819D01*
X83500381Y-80689200D02*
X83262286Y-81403485D01*
X83262286Y-81403485D02*
X83881333Y-81403485D01*
X85723143Y-80736819D02*
X85818381Y-80736819D01*
X85818381Y-80736819D02*
X85913619Y-80784438D01*
X85913619Y-80784438D02*
X85961238Y-80832057D01*
X85961238Y-80832057D02*
X86008857Y-80927295D01*
X86008857Y-80927295D02*
X86056476Y-81117771D01*
X86056476Y-81117771D02*
X86056476Y-81355866D01*
X86056476Y-81355866D02*
X86008857Y-81546342D01*
X86008857Y-81546342D02*
X85961238Y-81641580D01*
X85961238Y-81641580D02*
X85913619Y-81689200D01*
X85913619Y-81689200D02*
X85818381Y-81736819D01*
X85818381Y-81736819D02*
X85723143Y-81736819D01*
X85723143Y-81736819D02*
X85627905Y-81689200D01*
X85627905Y-81689200D02*
X85580286Y-81641580D01*
X85580286Y-81641580D02*
X85532667Y-81546342D01*
X85532667Y-81546342D02*
X85485048Y-81355866D01*
X85485048Y-81355866D02*
X85485048Y-81117771D01*
X85485048Y-81117771D02*
X85532667Y-80927295D01*
X85532667Y-80927295D02*
X85580286Y-80832057D01*
X85580286Y-80832057D02*
X85627905Y-80784438D01*
X85627905Y-80784438D02*
X85723143Y-80736819D01*
X86485048Y-81641580D02*
X86532667Y-81689200D01*
X86532667Y-81689200D02*
X86485048Y-81736819D01*
X86485048Y-81736819D02*
X86437429Y-81689200D01*
X86437429Y-81689200D02*
X86485048Y-81641580D01*
X86485048Y-81641580D02*
X86485048Y-81736819D01*
X87485047Y-81736819D02*
X86913619Y-81736819D01*
X87199333Y-81736819D02*
X87199333Y-80736819D01*
X87199333Y-80736819D02*
X87104095Y-80879676D01*
X87104095Y-80879676D02*
X87008857Y-80974914D01*
X87008857Y-80974914D02*
X86913619Y-81022533D01*
X88342190Y-81070152D02*
X88342190Y-81736819D01*
X87913619Y-81070152D02*
X87913619Y-81593961D01*
X87913619Y-81593961D02*
X87961238Y-81689200D01*
X87961238Y-81689200D02*
X88056476Y-81736819D01*
X88056476Y-81736819D02*
X88199333Y-81736819D01*
X88199333Y-81736819D02*
X88294571Y-81689200D01*
X88294571Y-81689200D02*
X88342190Y-81641580D01*
X89151714Y-81213009D02*
X88818381Y-81213009D01*
X88818381Y-81736819D02*
X88818381Y-80736819D01*
X88818381Y-80736819D02*
X89294571Y-80736819D01*
X102536666Y-88862819D02*
X102536666Y-89577104D01*
X102536666Y-89577104D02*
X102489047Y-89719961D01*
X102489047Y-89719961D02*
X102393809Y-89815200D01*
X102393809Y-89815200D02*
X102250952Y-89862819D01*
X102250952Y-89862819D02*
X102155714Y-89862819D01*
X102917619Y-88862819D02*
X103536666Y-88862819D01*
X103536666Y-88862819D02*
X103203333Y-89243771D01*
X103203333Y-89243771D02*
X103346190Y-89243771D01*
X103346190Y-89243771D02*
X103441428Y-89291390D01*
X103441428Y-89291390D02*
X103489047Y-89339009D01*
X103489047Y-89339009D02*
X103536666Y-89434247D01*
X103536666Y-89434247D02*
X103536666Y-89672342D01*
X103536666Y-89672342D02*
X103489047Y-89767580D01*
X103489047Y-89767580D02*
X103441428Y-89815200D01*
X103441428Y-89815200D02*
X103346190Y-89862819D01*
X103346190Y-89862819D02*
X103060476Y-89862819D01*
X103060476Y-89862819D02*
X102965238Y-89815200D01*
X102965238Y-89815200D02*
X102917619Y-89767580D01*
X104957999Y-89561200D02*
X104862761Y-89608819D01*
X104862761Y-89608819D02*
X104672285Y-89608819D01*
X104672285Y-89608819D02*
X104577047Y-89561200D01*
X104577047Y-89561200D02*
X104529428Y-89465961D01*
X104529428Y-89465961D02*
X104529428Y-89085009D01*
X104529428Y-89085009D02*
X104577047Y-88989771D01*
X104577047Y-88989771D02*
X104672285Y-88942152D01*
X104672285Y-88942152D02*
X104862761Y-88942152D01*
X104862761Y-88942152D02*
X104957999Y-88989771D01*
X104957999Y-88989771D02*
X105005618Y-89085009D01*
X105005618Y-89085009D02*
X105005618Y-89180247D01*
X105005618Y-89180247D02*
X104529428Y-89275485D01*
X105338952Y-89608819D02*
X105862761Y-88942152D01*
X105338952Y-88942152D02*
X105862761Y-89608819D01*
X106100857Y-88942152D02*
X106481809Y-88942152D01*
X106243714Y-88608819D02*
X106243714Y-89465961D01*
X106243714Y-89465961D02*
X106291333Y-89561200D01*
X106291333Y-89561200D02*
X106386571Y-89608819D01*
X106386571Y-89608819D02*
X106481809Y-89608819D01*
X107196095Y-89561200D02*
X107100857Y-89608819D01*
X107100857Y-89608819D02*
X106910381Y-89608819D01*
X106910381Y-89608819D02*
X106815143Y-89561200D01*
X106815143Y-89561200D02*
X106767524Y-89465961D01*
X106767524Y-89465961D02*
X106767524Y-89085009D01*
X106767524Y-89085009D02*
X106815143Y-88989771D01*
X106815143Y-88989771D02*
X106910381Y-88942152D01*
X106910381Y-88942152D02*
X107100857Y-88942152D01*
X107100857Y-88942152D02*
X107196095Y-88989771D01*
X107196095Y-88989771D02*
X107243714Y-89085009D01*
X107243714Y-89085009D02*
X107243714Y-89180247D01*
X107243714Y-89180247D02*
X106767524Y-89275485D01*
X107672286Y-88942152D02*
X107672286Y-89608819D01*
X107672286Y-89037390D02*
X107719905Y-88989771D01*
X107719905Y-88989771D02*
X107815143Y-88942152D01*
X107815143Y-88942152D02*
X107958000Y-88942152D01*
X107958000Y-88942152D02*
X108053238Y-88989771D01*
X108053238Y-88989771D02*
X108100857Y-89085009D01*
X108100857Y-89085009D02*
X108100857Y-89608819D01*
X109005619Y-89608819D02*
X109005619Y-88608819D01*
X109005619Y-89561200D02*
X108910381Y-89608819D01*
X108910381Y-89608819D02*
X108719905Y-89608819D01*
X108719905Y-89608819D02*
X108624667Y-89561200D01*
X108624667Y-89561200D02*
X108577048Y-89513580D01*
X108577048Y-89513580D02*
X108529429Y-89418342D01*
X108529429Y-89418342D02*
X108529429Y-89132628D01*
X108529429Y-89132628D02*
X108577048Y-89037390D01*
X108577048Y-89037390D02*
X108624667Y-88989771D01*
X108624667Y-88989771D02*
X108719905Y-88942152D01*
X108719905Y-88942152D02*
X108910381Y-88942152D01*
X108910381Y-88942152D02*
X109005619Y-88989771D01*
X110243715Y-89608819D02*
X110243715Y-88608819D01*
X111434190Y-88561200D02*
X110577048Y-89846914D01*
X111958000Y-88608819D02*
X112148476Y-88608819D01*
X112148476Y-88608819D02*
X112243714Y-88656438D01*
X112243714Y-88656438D02*
X112338952Y-88751676D01*
X112338952Y-88751676D02*
X112386571Y-88942152D01*
X112386571Y-88942152D02*
X112386571Y-89275485D01*
X112386571Y-89275485D02*
X112338952Y-89465961D01*
X112338952Y-89465961D02*
X112243714Y-89561200D01*
X112243714Y-89561200D02*
X112148476Y-89608819D01*
X112148476Y-89608819D02*
X111958000Y-89608819D01*
X111958000Y-89608819D02*
X111862762Y-89561200D01*
X111862762Y-89561200D02*
X111767524Y-89465961D01*
X111767524Y-89465961D02*
X111719905Y-89275485D01*
X111719905Y-89275485D02*
X111719905Y-88942152D01*
X111719905Y-88942152D02*
X111767524Y-88751676D01*
X111767524Y-88751676D02*
X111862762Y-88656438D01*
X111862762Y-88656438D02*
X111958000Y-88608819D01*
X74342666Y-62827819D02*
X74342666Y-63542104D01*
X74342666Y-63542104D02*
X74295047Y-63684961D01*
X74295047Y-63684961D02*
X74199809Y-63780200D01*
X74199809Y-63780200D02*
X74056952Y-63827819D01*
X74056952Y-63827819D02*
X73961714Y-63827819D01*
X75247428Y-63161152D02*
X75247428Y-63827819D01*
X75009333Y-62780200D02*
X74771238Y-63494485D01*
X74771238Y-63494485D02*
X75390285Y-63494485D01*
X115521905Y-64337319D02*
X115521905Y-63337319D01*
X115521905Y-63337319D02*
X115760000Y-63337319D01*
X115760000Y-63337319D02*
X115902857Y-63384938D01*
X115902857Y-63384938D02*
X115998095Y-63480176D01*
X115998095Y-63480176D02*
X116045714Y-63575414D01*
X116045714Y-63575414D02*
X116093333Y-63765890D01*
X116093333Y-63765890D02*
X116093333Y-63908747D01*
X116093333Y-63908747D02*
X116045714Y-64099223D01*
X116045714Y-64099223D02*
X115998095Y-64194461D01*
X115998095Y-64194461D02*
X115902857Y-64289700D01*
X115902857Y-64289700D02*
X115760000Y-64337319D01*
X115760000Y-64337319D02*
X115521905Y-64337319D01*
X116950476Y-63670652D02*
X116950476Y-64337319D01*
X116712381Y-63289700D02*
X116474286Y-64003985D01*
X116474286Y-64003985D02*
X117093333Y-64003985D01*
X115568333Y-65637319D02*
X114996905Y-65637319D01*
X115282619Y-65637319D02*
X115282619Y-64637319D01*
X115282619Y-64637319D02*
X115187381Y-64780176D01*
X115187381Y-64780176D02*
X115092143Y-64875414D01*
X115092143Y-64875414D02*
X114996905Y-64923033D01*
X115949286Y-65589700D02*
X116092143Y-65637319D01*
X116092143Y-65637319D02*
X116330238Y-65637319D01*
X116330238Y-65637319D02*
X116425476Y-65589700D01*
X116425476Y-65589700D02*
X116473095Y-65542080D01*
X116473095Y-65542080D02*
X116520714Y-65446842D01*
X116520714Y-65446842D02*
X116520714Y-65351604D01*
X116520714Y-65351604D02*
X116473095Y-65256366D01*
X116473095Y-65256366D02*
X116425476Y-65208747D01*
X116425476Y-65208747D02*
X116330238Y-65161128D01*
X116330238Y-65161128D02*
X116139762Y-65113509D01*
X116139762Y-65113509D02*
X116044524Y-65065890D01*
X116044524Y-65065890D02*
X115996905Y-65018271D01*
X115996905Y-65018271D02*
X115949286Y-64923033D01*
X115949286Y-64923033D02*
X115949286Y-64827795D01*
X115949286Y-64827795D02*
X115996905Y-64732557D01*
X115996905Y-64732557D02*
X116044524Y-64684938D01*
X116044524Y-64684938D02*
X116139762Y-64637319D01*
X116139762Y-64637319D02*
X116377857Y-64637319D01*
X116377857Y-64637319D02*
X116520714Y-64684938D01*
X117377857Y-64970652D02*
X117377857Y-65637319D01*
X117139762Y-64589700D02*
X116901667Y-65303985D01*
X116901667Y-65303985D02*
X117520714Y-65303985D01*
X110591666Y-100679819D02*
X110591666Y-101394104D01*
X110591666Y-101394104D02*
X110544047Y-101536961D01*
X110544047Y-101536961D02*
X110448809Y-101632200D01*
X110448809Y-101632200D02*
X110305952Y-101679819D01*
X110305952Y-101679819D02*
X110210714Y-101679819D01*
X110972619Y-100679819D02*
X111639285Y-100679819D01*
X111639285Y-100679819D02*
X111210714Y-101679819D01*
X101901095Y-69204819D02*
X101901095Y-70014342D01*
X101901095Y-70014342D02*
X101948714Y-70109580D01*
X101948714Y-70109580D02*
X101996333Y-70157200D01*
X101996333Y-70157200D02*
X102091571Y-70204819D01*
X102091571Y-70204819D02*
X102282047Y-70204819D01*
X102282047Y-70204819D02*
X102377285Y-70157200D01*
X102377285Y-70157200D02*
X102424904Y-70109580D01*
X102424904Y-70109580D02*
X102472523Y-70014342D01*
X102472523Y-70014342D02*
X102472523Y-69204819D01*
X102901095Y-69300057D02*
X102948714Y-69252438D01*
X102948714Y-69252438D02*
X103043952Y-69204819D01*
X103043952Y-69204819D02*
X103282047Y-69204819D01*
X103282047Y-69204819D02*
X103377285Y-69252438D01*
X103377285Y-69252438D02*
X103424904Y-69300057D01*
X103424904Y-69300057D02*
X103472523Y-69395295D01*
X103472523Y-69395295D02*
X103472523Y-69490533D01*
X103472523Y-69490533D02*
X103424904Y-69633390D01*
X103424904Y-69633390D02*
X102853476Y-70204819D01*
X102853476Y-70204819D02*
X103472523Y-70204819D01*
X93150700Y-71204819D02*
X93150700Y-71442914D01*
X92912605Y-71347676D02*
X93150700Y-71442914D01*
X93150700Y-71442914D02*
X93388795Y-71347676D01*
X93007843Y-71633390D02*
X93150700Y-71442914D01*
X93150700Y-71442914D02*
X93293557Y-71633390D01*
X93150700Y-71204819D02*
X93150700Y-71442914D01*
X92912605Y-71347676D02*
X93150700Y-71442914D01*
X93150700Y-71442914D02*
X93388795Y-71347676D01*
X93007843Y-71633390D02*
X93150700Y-71442914D01*
X93150700Y-71442914D02*
X93293557Y-71633390D01*
X97716666Y-94844819D02*
X97716666Y-95559104D01*
X97716666Y-95559104D02*
X97669047Y-95701961D01*
X97669047Y-95701961D02*
X97573809Y-95797200D01*
X97573809Y-95797200D02*
X97430952Y-95844819D01*
X97430952Y-95844819D02*
X97335714Y-95844819D01*
X98621428Y-94844819D02*
X98430952Y-94844819D01*
X98430952Y-94844819D02*
X98335714Y-94892438D01*
X98335714Y-94892438D02*
X98288095Y-94940057D01*
X98288095Y-94940057D02*
X98192857Y-95082914D01*
X98192857Y-95082914D02*
X98145238Y-95273390D01*
X98145238Y-95273390D02*
X98145238Y-95654342D01*
X98145238Y-95654342D02*
X98192857Y-95749580D01*
X98192857Y-95749580D02*
X98240476Y-95797200D01*
X98240476Y-95797200D02*
X98335714Y-95844819D01*
X98335714Y-95844819D02*
X98526190Y-95844819D01*
X98526190Y-95844819D02*
X98621428Y-95797200D01*
X98621428Y-95797200D02*
X98669047Y-95749580D01*
X98669047Y-95749580D02*
X98716666Y-95654342D01*
X98716666Y-95654342D02*
X98716666Y-95416247D01*
X98716666Y-95416247D02*
X98669047Y-95321009D01*
X98669047Y-95321009D02*
X98621428Y-95273390D01*
X98621428Y-95273390D02*
X98526190Y-95225771D01*
X98526190Y-95225771D02*
X98335714Y-95225771D01*
X98335714Y-95225771D02*
X98240476Y-95273390D01*
X98240476Y-95273390D02*
X98192857Y-95321009D01*
X98192857Y-95321009D02*
X98145238Y-95416247D01*
X94469048Y-108969104D02*
X94945238Y-108969104D01*
X94373810Y-109254819D02*
X94707143Y-108254819D01*
X94707143Y-108254819D02*
X95040476Y-109254819D01*
X95373810Y-109254819D02*
X95373810Y-108254819D01*
X95373810Y-108254819D02*
X95611905Y-108254819D01*
X95611905Y-108254819D02*
X95754762Y-108302438D01*
X95754762Y-108302438D02*
X95850000Y-108397676D01*
X95850000Y-108397676D02*
X95897619Y-108492914D01*
X95897619Y-108492914D02*
X95945238Y-108683390D01*
X95945238Y-108683390D02*
X95945238Y-108826247D01*
X95945238Y-108826247D02*
X95897619Y-109016723D01*
X95897619Y-109016723D02*
X95850000Y-109111961D01*
X95850000Y-109111961D02*
X95754762Y-109207200D01*
X95754762Y-109207200D02*
X95611905Y-109254819D01*
X95611905Y-109254819D02*
X95373810Y-109254819D01*
X96945238Y-109159580D02*
X96897619Y-109207200D01*
X96897619Y-109207200D02*
X96754762Y-109254819D01*
X96754762Y-109254819D02*
X96659524Y-109254819D01*
X96659524Y-109254819D02*
X96516667Y-109207200D01*
X96516667Y-109207200D02*
X96421429Y-109111961D01*
X96421429Y-109111961D02*
X96373810Y-109016723D01*
X96373810Y-109016723D02*
X96326191Y-108826247D01*
X96326191Y-108826247D02*
X96326191Y-108683390D01*
X96326191Y-108683390D02*
X96373810Y-108492914D01*
X96373810Y-108492914D02*
X96421429Y-108397676D01*
X96421429Y-108397676D02*
X96516667Y-108302438D01*
X96516667Y-108302438D02*
X96659524Y-108254819D01*
X96659524Y-108254819D02*
X96754762Y-108254819D01*
X96754762Y-108254819D02*
X96897619Y-108302438D01*
X96897619Y-108302438D02*
X96945238Y-108350057D01*
X97135715Y-109350057D02*
X97897619Y-109350057D01*
X98135715Y-109254819D02*
X98135715Y-108254819D01*
X98611905Y-109254819D02*
X98611905Y-108254819D01*
X98611905Y-108254819D02*
X99183333Y-109254819D01*
X99183333Y-109254819D02*
X99183333Y-108254819D01*
X102703333Y-62335580D02*
X102655714Y-62383200D01*
X102655714Y-62383200D02*
X102512857Y-62430819D01*
X102512857Y-62430819D02*
X102417619Y-62430819D01*
X102417619Y-62430819D02*
X102274762Y-62383200D01*
X102274762Y-62383200D02*
X102179524Y-62287961D01*
X102179524Y-62287961D02*
X102131905Y-62192723D01*
X102131905Y-62192723D02*
X102084286Y-62002247D01*
X102084286Y-62002247D02*
X102084286Y-61859390D01*
X102084286Y-61859390D02*
X102131905Y-61668914D01*
X102131905Y-61668914D02*
X102179524Y-61573676D01*
X102179524Y-61573676D02*
X102274762Y-61478438D01*
X102274762Y-61478438D02*
X102417619Y-61430819D01*
X102417619Y-61430819D02*
X102512857Y-61430819D01*
X102512857Y-61430819D02*
X102655714Y-61478438D01*
X102655714Y-61478438D02*
X102703333Y-61526057D01*
X103608095Y-61430819D02*
X103131905Y-61430819D01*
X103131905Y-61430819D02*
X103084286Y-61907009D01*
X103084286Y-61907009D02*
X103131905Y-61859390D01*
X103131905Y-61859390D02*
X103227143Y-61811771D01*
X103227143Y-61811771D02*
X103465238Y-61811771D01*
X103465238Y-61811771D02*
X103560476Y-61859390D01*
X103560476Y-61859390D02*
X103608095Y-61907009D01*
X103608095Y-61907009D02*
X103655714Y-62002247D01*
X103655714Y-62002247D02*
X103655714Y-62240342D01*
X103655714Y-62240342D02*
X103608095Y-62335580D01*
X103608095Y-62335580D02*
X103560476Y-62383200D01*
X103560476Y-62383200D02*
X103465238Y-62430819D01*
X103465238Y-62430819D02*
X103227143Y-62430819D01*
X103227143Y-62430819D02*
X103131905Y-62383200D01*
X103131905Y-62383200D02*
X103084286Y-62335580D01*
X105672143Y-61430819D02*
X105767381Y-61430819D01*
X105767381Y-61430819D02*
X105862619Y-61478438D01*
X105862619Y-61478438D02*
X105910238Y-61526057D01*
X105910238Y-61526057D02*
X105957857Y-61621295D01*
X105957857Y-61621295D02*
X106005476Y-61811771D01*
X106005476Y-61811771D02*
X106005476Y-62049866D01*
X106005476Y-62049866D02*
X105957857Y-62240342D01*
X105957857Y-62240342D02*
X105910238Y-62335580D01*
X105910238Y-62335580D02*
X105862619Y-62383200D01*
X105862619Y-62383200D02*
X105767381Y-62430819D01*
X105767381Y-62430819D02*
X105672143Y-62430819D01*
X105672143Y-62430819D02*
X105576905Y-62383200D01*
X105576905Y-62383200D02*
X105529286Y-62335580D01*
X105529286Y-62335580D02*
X105481667Y-62240342D01*
X105481667Y-62240342D02*
X105434048Y-62049866D01*
X105434048Y-62049866D02*
X105434048Y-61811771D01*
X105434048Y-61811771D02*
X105481667Y-61621295D01*
X105481667Y-61621295D02*
X105529286Y-61526057D01*
X105529286Y-61526057D02*
X105576905Y-61478438D01*
X105576905Y-61478438D02*
X105672143Y-61430819D01*
X106434048Y-62335580D02*
X106481667Y-62383200D01*
X106481667Y-62383200D02*
X106434048Y-62430819D01*
X106434048Y-62430819D02*
X106386429Y-62383200D01*
X106386429Y-62383200D02*
X106434048Y-62335580D01*
X106434048Y-62335580D02*
X106434048Y-62430819D01*
X107434047Y-62430819D02*
X106862619Y-62430819D01*
X107148333Y-62430819D02*
X107148333Y-61430819D01*
X107148333Y-61430819D02*
X107053095Y-61573676D01*
X107053095Y-61573676D02*
X106957857Y-61668914D01*
X106957857Y-61668914D02*
X106862619Y-61716533D01*
X108291190Y-61764152D02*
X108291190Y-62430819D01*
X107862619Y-61764152D02*
X107862619Y-62287961D01*
X107862619Y-62287961D02*
X107910238Y-62383200D01*
X107910238Y-62383200D02*
X108005476Y-62430819D01*
X108005476Y-62430819D02*
X108148333Y-62430819D01*
X108148333Y-62430819D02*
X108243571Y-62383200D01*
X108243571Y-62383200D02*
X108291190Y-62335580D01*
X109100714Y-61907009D02*
X108767381Y-61907009D01*
X108767381Y-62430819D02*
X108767381Y-61430819D01*
X108767381Y-61430819D02*
X109243571Y-61430819D01*
X106449019Y-105637666D02*
X105972828Y-105970999D01*
X106449019Y-106209094D02*
X105449019Y-106209094D01*
X105449019Y-106209094D02*
X105449019Y-105828142D01*
X105449019Y-105828142D02*
X105496638Y-105732904D01*
X105496638Y-105732904D02*
X105544257Y-105685285D01*
X105544257Y-105685285D02*
X105639495Y-105637666D01*
X105639495Y-105637666D02*
X105782352Y-105637666D01*
X105782352Y-105637666D02*
X105877590Y-105685285D01*
X105877590Y-105685285D02*
X105925209Y-105732904D01*
X105925209Y-105732904D02*
X105972828Y-105828142D01*
X105972828Y-105828142D02*
X105972828Y-106209094D01*
X105544257Y-105256713D02*
X105496638Y-105209094D01*
X105496638Y-105209094D02*
X105449019Y-105113856D01*
X105449019Y-105113856D02*
X105449019Y-104875761D01*
X105449019Y-104875761D02*
X105496638Y-104780523D01*
X105496638Y-104780523D02*
X105544257Y-104732904D01*
X105544257Y-104732904D02*
X105639495Y-104685285D01*
X105639495Y-104685285D02*
X105734733Y-104685285D01*
X105734733Y-104685285D02*
X105877590Y-104732904D01*
X105877590Y-104732904D02*
X106449019Y-105304332D01*
X106449019Y-105304332D02*
X106449019Y-104685285D01*
X106449019Y-103145238D02*
X106449019Y-103716666D01*
X106449019Y-103430952D02*
X105449019Y-103430952D01*
X105449019Y-103430952D02*
X105591876Y-103526190D01*
X105591876Y-103526190D02*
X105687114Y-103621428D01*
X105687114Y-103621428D02*
X105734733Y-103716666D01*
X105449019Y-102526190D02*
X105449019Y-102430952D01*
X105449019Y-102430952D02*
X105496638Y-102335714D01*
X105496638Y-102335714D02*
X105544257Y-102288095D01*
X105544257Y-102288095D02*
X105639495Y-102240476D01*
X105639495Y-102240476D02*
X105829971Y-102192857D01*
X105829971Y-102192857D02*
X106068066Y-102192857D01*
X106068066Y-102192857D02*
X106258542Y-102240476D01*
X106258542Y-102240476D02*
X106353780Y-102288095D01*
X106353780Y-102288095D02*
X106401400Y-102335714D01*
X106401400Y-102335714D02*
X106449019Y-102430952D01*
X106449019Y-102430952D02*
X106449019Y-102526190D01*
X106449019Y-102526190D02*
X106401400Y-102621428D01*
X106401400Y-102621428D02*
X106353780Y-102669047D01*
X106353780Y-102669047D02*
X106258542Y-102716666D01*
X106258542Y-102716666D02*
X106068066Y-102764285D01*
X106068066Y-102764285D02*
X105829971Y-102764285D01*
X105829971Y-102764285D02*
X105639495Y-102716666D01*
X105639495Y-102716666D02*
X105544257Y-102669047D01*
X105544257Y-102669047D02*
X105496638Y-102621428D01*
X105496638Y-102621428D02*
X105449019Y-102526190D01*
X106449019Y-101764285D02*
X105449019Y-101764285D01*
X106068066Y-101669047D02*
X106449019Y-101383333D01*
X105782352Y-101383333D02*
X106163304Y-101764285D01*
X88719819Y-93448094D02*
X87719819Y-93448094D01*
X87719819Y-93448094D02*
X87719819Y-93209999D01*
X87719819Y-93209999D02*
X87767438Y-93067142D01*
X87767438Y-93067142D02*
X87862676Y-92971904D01*
X87862676Y-92971904D02*
X87957914Y-92924285D01*
X87957914Y-92924285D02*
X88148390Y-92876666D01*
X88148390Y-92876666D02*
X88291247Y-92876666D01*
X88291247Y-92876666D02*
X88481723Y-92924285D01*
X88481723Y-92924285D02*
X88576961Y-92971904D01*
X88576961Y-92971904D02*
X88672200Y-93067142D01*
X88672200Y-93067142D02*
X88719819Y-93209999D01*
X88719819Y-93209999D02*
X88719819Y-93448094D01*
X87719819Y-92543332D02*
X87719819Y-91924285D01*
X87719819Y-91924285D02*
X88100771Y-92257618D01*
X88100771Y-92257618D02*
X88100771Y-92114761D01*
X88100771Y-92114761D02*
X88148390Y-92019523D01*
X88148390Y-92019523D02*
X88196009Y-91971904D01*
X88196009Y-91971904D02*
X88291247Y-91924285D01*
X88291247Y-91924285D02*
X88529342Y-91924285D01*
X88529342Y-91924285D02*
X88624580Y-91971904D01*
X88624580Y-91971904D02*
X88672200Y-92019523D01*
X88672200Y-92019523D02*
X88719819Y-92114761D01*
X88719819Y-92114761D02*
X88719819Y-92400475D01*
X88719819Y-92400475D02*
X88672200Y-92495713D01*
X88672200Y-92495713D02*
X88624580Y-92543332D01*
X88719819Y-90153857D02*
X88719819Y-90725285D01*
X88719819Y-90439571D02*
X87719819Y-90439571D01*
X87719819Y-90439571D02*
X87862676Y-90534809D01*
X87862676Y-90534809D02*
X87957914Y-90630047D01*
X87957914Y-90630047D02*
X88005533Y-90725285D01*
X88719819Y-89725285D02*
X87719819Y-89725285D01*
X87719819Y-89725285D02*
X88719819Y-89153857D01*
X88719819Y-89153857D02*
X87719819Y-89153857D01*
X88053152Y-88249095D02*
X88719819Y-88249095D01*
X87672200Y-88487190D02*
X88386485Y-88725285D01*
X88386485Y-88725285D02*
X88386485Y-88106238D01*
X87719819Y-87534809D02*
X87719819Y-87439571D01*
X87719819Y-87439571D02*
X87767438Y-87344333D01*
X87767438Y-87344333D02*
X87815057Y-87296714D01*
X87815057Y-87296714D02*
X87910295Y-87249095D01*
X87910295Y-87249095D02*
X88100771Y-87201476D01*
X88100771Y-87201476D02*
X88338866Y-87201476D01*
X88338866Y-87201476D02*
X88529342Y-87249095D01*
X88529342Y-87249095D02*
X88624580Y-87296714D01*
X88624580Y-87296714D02*
X88672200Y-87344333D01*
X88672200Y-87344333D02*
X88719819Y-87439571D01*
X88719819Y-87439571D02*
X88719819Y-87534809D01*
X88719819Y-87534809D02*
X88672200Y-87630047D01*
X88672200Y-87630047D02*
X88624580Y-87677666D01*
X88624580Y-87677666D02*
X88529342Y-87725285D01*
X88529342Y-87725285D02*
X88338866Y-87772904D01*
X88338866Y-87772904D02*
X88100771Y-87772904D01*
X88100771Y-87772904D02*
X87910295Y-87725285D01*
X87910295Y-87725285D02*
X87815057Y-87677666D01*
X87815057Y-87677666D02*
X87767438Y-87630047D01*
X87767438Y-87630047D02*
X87719819Y-87534809D01*
X87719819Y-86582428D02*
X87719819Y-86487190D01*
X87719819Y-86487190D02*
X87767438Y-86391952D01*
X87767438Y-86391952D02*
X87815057Y-86344333D01*
X87815057Y-86344333D02*
X87910295Y-86296714D01*
X87910295Y-86296714D02*
X88100771Y-86249095D01*
X88100771Y-86249095D02*
X88338866Y-86249095D01*
X88338866Y-86249095D02*
X88529342Y-86296714D01*
X88529342Y-86296714D02*
X88624580Y-86344333D01*
X88624580Y-86344333D02*
X88672200Y-86391952D01*
X88672200Y-86391952D02*
X88719819Y-86487190D01*
X88719819Y-86487190D02*
X88719819Y-86582428D01*
X88719819Y-86582428D02*
X88672200Y-86677666D01*
X88672200Y-86677666D02*
X88624580Y-86725285D01*
X88624580Y-86725285D02*
X88529342Y-86772904D01*
X88529342Y-86772904D02*
X88338866Y-86820523D01*
X88338866Y-86820523D02*
X88100771Y-86820523D01*
X88100771Y-86820523D02*
X87910295Y-86772904D01*
X87910295Y-86772904D02*
X87815057Y-86725285D01*
X87815057Y-86725285D02*
X87767438Y-86677666D01*
X87767438Y-86677666D02*
X87719819Y-86582428D01*
X88719819Y-85296714D02*
X88719819Y-85868142D01*
X88719819Y-85582428D02*
X87719819Y-85582428D01*
X87719819Y-85582428D02*
X87862676Y-85677666D01*
X87862676Y-85677666D02*
X87957914Y-85772904D01*
X87957914Y-85772904D02*
X88005533Y-85868142D01*
X87749095Y-84528819D02*
X87749095Y-83528819D01*
X88320523Y-84528819D02*
X87891952Y-83957390D01*
X88320523Y-83528819D02*
X87749095Y-84100247D01*
X109082333Y-82242819D02*
X108749000Y-81766628D01*
X108510905Y-82242819D02*
X108510905Y-81242819D01*
X108510905Y-81242819D02*
X108891857Y-81242819D01*
X108891857Y-81242819D02*
X108987095Y-81290438D01*
X108987095Y-81290438D02*
X109034714Y-81338057D01*
X109034714Y-81338057D02*
X109082333Y-81433295D01*
X109082333Y-81433295D02*
X109082333Y-81576152D01*
X109082333Y-81576152D02*
X109034714Y-81671390D01*
X109034714Y-81671390D02*
X108987095Y-81719009D01*
X108987095Y-81719009D02*
X108891857Y-81766628D01*
X108891857Y-81766628D02*
X108510905Y-81766628D01*
X109415667Y-81242819D02*
X110034714Y-81242819D01*
X110034714Y-81242819D02*
X109701381Y-81623771D01*
X109701381Y-81623771D02*
X109844238Y-81623771D01*
X109844238Y-81623771D02*
X109939476Y-81671390D01*
X109939476Y-81671390D02*
X109987095Y-81719009D01*
X109987095Y-81719009D02*
X110034714Y-81814247D01*
X110034714Y-81814247D02*
X110034714Y-82052342D01*
X110034714Y-82052342D02*
X109987095Y-82147580D01*
X109987095Y-82147580D02*
X109939476Y-82195200D01*
X109939476Y-82195200D02*
X109844238Y-82242819D01*
X109844238Y-82242819D02*
X109558524Y-82242819D01*
X109558524Y-82242819D02*
X109463286Y-82195200D01*
X109463286Y-82195200D02*
X109415667Y-82147580D01*
X102803819Y-86407047D02*
X102803819Y-85835619D01*
X103803819Y-86121333D02*
X102803819Y-86121333D01*
X103803819Y-85502285D02*
X102803819Y-85502285D01*
X102803819Y-85502285D02*
X103803819Y-84930857D01*
X103803819Y-84930857D02*
X102803819Y-84930857D01*
X103803819Y-83883238D02*
X103327628Y-84216571D01*
X103803819Y-84454666D02*
X102803819Y-84454666D01*
X102803819Y-84454666D02*
X102803819Y-84073714D01*
X102803819Y-84073714D02*
X102851438Y-83978476D01*
X102851438Y-83978476D02*
X102899057Y-83930857D01*
X102899057Y-83930857D02*
X102994295Y-83883238D01*
X102994295Y-83883238D02*
X103137152Y-83883238D01*
X103137152Y-83883238D02*
X103232390Y-83930857D01*
X103232390Y-83930857D02*
X103280009Y-83978476D01*
X103280009Y-83978476D02*
X103327628Y-84073714D01*
X103327628Y-84073714D02*
X103327628Y-84454666D01*
X103803819Y-82930857D02*
X103803819Y-83502285D01*
X103803819Y-83216571D02*
X102803819Y-83216571D01*
X102803819Y-83216571D02*
X102946676Y-83311809D01*
X102946676Y-83311809D02*
X103041914Y-83407047D01*
X103041914Y-83407047D02*
X103089533Y-83502285D01*
X102803819Y-82311809D02*
X102803819Y-82216571D01*
X102803819Y-82216571D02*
X102851438Y-82121333D01*
X102851438Y-82121333D02*
X102899057Y-82073714D01*
X102899057Y-82073714D02*
X102994295Y-82026095D01*
X102994295Y-82026095D02*
X103184771Y-81978476D01*
X103184771Y-81978476D02*
X103422866Y-81978476D01*
X103422866Y-81978476D02*
X103613342Y-82026095D01*
X103613342Y-82026095D02*
X103708580Y-82073714D01*
X103708580Y-82073714D02*
X103756200Y-82121333D01*
X103756200Y-82121333D02*
X103803819Y-82216571D01*
X103803819Y-82216571D02*
X103803819Y-82311809D01*
X103803819Y-82311809D02*
X103756200Y-82407047D01*
X103756200Y-82407047D02*
X103708580Y-82454666D01*
X103708580Y-82454666D02*
X103613342Y-82502285D01*
X103613342Y-82502285D02*
X103422866Y-82549904D01*
X103422866Y-82549904D02*
X103184771Y-82549904D01*
X103184771Y-82549904D02*
X102994295Y-82502285D01*
X102994295Y-82502285D02*
X102899057Y-82454666D01*
X102899057Y-82454666D02*
X102851438Y-82407047D01*
X102851438Y-82407047D02*
X102803819Y-82311809D01*
X102803819Y-81692761D02*
X103803819Y-81359428D01*
X103803819Y-81359428D02*
X102803819Y-81026095D01*
X103137152Y-80264190D02*
X103803819Y-80264190D01*
X102756200Y-80502285D02*
X103470485Y-80740380D01*
X103470485Y-80740380D02*
X103470485Y-80121333D01*
X102803819Y-79835618D02*
X102803819Y-79168952D01*
X102803819Y-79168952D02*
X103803819Y-79597523D01*
X103803819Y-78264190D02*
X103803819Y-78835618D01*
X103803819Y-78549904D02*
X102803819Y-78549904D01*
X102803819Y-78549904D02*
X102946676Y-78645142D01*
X102946676Y-78645142D02*
X103041914Y-78740380D01*
X103041914Y-78740380D02*
X103089533Y-78835618D01*
X103803819Y-77835618D02*
X102803819Y-77835618D01*
X103803819Y-77264190D02*
X103232390Y-77692761D01*
X102803819Y-77264190D02*
X103375247Y-77835618D01*
X90120009Y-75044095D02*
X90120009Y-75377428D01*
X90643819Y-75377428D02*
X89643819Y-75377428D01*
X89643819Y-75377428D02*
X89643819Y-74901238D01*
X90643819Y-74044095D02*
X90643819Y-74520285D01*
X90643819Y-74520285D02*
X89643819Y-74520285D01*
X90643819Y-73186952D02*
X90643819Y-73758380D01*
X90643819Y-73472666D02*
X89643819Y-73472666D01*
X89643819Y-73472666D02*
X89786676Y-73567904D01*
X89786676Y-73567904D02*
X89881914Y-73663142D01*
X89881914Y-73663142D02*
X89929533Y-73758380D01*
X81063809Y-71064819D02*
X81159047Y-71064819D01*
X81159047Y-71064819D02*
X81254285Y-71112438D01*
X81254285Y-71112438D02*
X81301904Y-71160057D01*
X81301904Y-71160057D02*
X81349523Y-71255295D01*
X81349523Y-71255295D02*
X81397142Y-71445771D01*
X81397142Y-71445771D02*
X81397142Y-71683866D01*
X81397142Y-71683866D02*
X81349523Y-71874342D01*
X81349523Y-71874342D02*
X81301904Y-71969580D01*
X81301904Y-71969580D02*
X81254285Y-72017200D01*
X81254285Y-72017200D02*
X81159047Y-72064819D01*
X81159047Y-72064819D02*
X81063809Y-72064819D01*
X81063809Y-72064819D02*
X80968571Y-72017200D01*
X80968571Y-72017200D02*
X80920952Y-71969580D01*
X80920952Y-71969580D02*
X80873333Y-71874342D01*
X80873333Y-71874342D02*
X80825714Y-71683866D01*
X80825714Y-71683866D02*
X80825714Y-71445771D01*
X80825714Y-71445771D02*
X80873333Y-71255295D01*
X80873333Y-71255295D02*
X80920952Y-71160057D01*
X80920952Y-71160057D02*
X80968571Y-71112438D01*
X80968571Y-71112438D02*
X81063809Y-71064819D01*
X81825714Y-71969580D02*
X81873333Y-72017200D01*
X81873333Y-72017200D02*
X81825714Y-72064819D01*
X81825714Y-72064819D02*
X81778095Y-72017200D01*
X81778095Y-72017200D02*
X81825714Y-71969580D01*
X81825714Y-71969580D02*
X81825714Y-72064819D01*
X82825713Y-72064819D02*
X82254285Y-72064819D01*
X82539999Y-72064819D02*
X82539999Y-71064819D01*
X82539999Y-71064819D02*
X82444761Y-71207676D01*
X82444761Y-71207676D02*
X82349523Y-71302914D01*
X82349523Y-71302914D02*
X82254285Y-71350533D01*
X83682856Y-71398152D02*
X83682856Y-72064819D01*
X83254285Y-71398152D02*
X83254285Y-71921961D01*
X83254285Y-71921961D02*
X83301904Y-72017200D01*
X83301904Y-72017200D02*
X83397142Y-72064819D01*
X83397142Y-72064819D02*
X83539999Y-72064819D01*
X83539999Y-72064819D02*
X83635237Y-72017200D01*
X83635237Y-72017200D02*
X83682856Y-71969580D01*
X84492380Y-71541009D02*
X84159047Y-71541009D01*
X84159047Y-72064819D02*
X84159047Y-71064819D01*
X84159047Y-71064819D02*
X84635237Y-71064819D01*
X85778095Y-72064819D02*
X85778095Y-71064819D01*
X85778095Y-71064819D02*
X86016190Y-71064819D01*
X86016190Y-71064819D02*
X86159047Y-71112438D01*
X86159047Y-71112438D02*
X86254285Y-71207676D01*
X86254285Y-71207676D02*
X86301904Y-71302914D01*
X86301904Y-71302914D02*
X86349523Y-71493390D01*
X86349523Y-71493390D02*
X86349523Y-71636247D01*
X86349523Y-71636247D02*
X86301904Y-71826723D01*
X86301904Y-71826723D02*
X86254285Y-71921961D01*
X86254285Y-71921961D02*
X86159047Y-72017200D01*
X86159047Y-72017200D02*
X86016190Y-72064819D01*
X86016190Y-72064819D02*
X85778095Y-72064819D01*
X86778095Y-72064819D02*
X86778095Y-71064819D01*
X86778095Y-71064819D02*
X87016190Y-71064819D01*
X87016190Y-71064819D02*
X87159047Y-71112438D01*
X87159047Y-71112438D02*
X87254285Y-71207676D01*
X87254285Y-71207676D02*
X87301904Y-71302914D01*
X87301904Y-71302914D02*
X87349523Y-71493390D01*
X87349523Y-71493390D02*
X87349523Y-71636247D01*
X87349523Y-71636247D02*
X87301904Y-71826723D01*
X87301904Y-71826723D02*
X87254285Y-71921961D01*
X87254285Y-71921961D02*
X87159047Y-72017200D01*
X87159047Y-72017200D02*
X87016190Y-72064819D01*
X87016190Y-72064819D02*
X86778095Y-72064819D01*
X87730476Y-72017200D02*
X87873333Y-72064819D01*
X87873333Y-72064819D02*
X88111428Y-72064819D01*
X88111428Y-72064819D02*
X88206666Y-72017200D01*
X88206666Y-72017200D02*
X88254285Y-71969580D01*
X88254285Y-71969580D02*
X88301904Y-71874342D01*
X88301904Y-71874342D02*
X88301904Y-71779104D01*
X88301904Y-71779104D02*
X88254285Y-71683866D01*
X88254285Y-71683866D02*
X88206666Y-71636247D01*
X88206666Y-71636247D02*
X88111428Y-71588628D01*
X88111428Y-71588628D02*
X87920952Y-71541009D01*
X87920952Y-71541009D02*
X87825714Y-71493390D01*
X87825714Y-71493390D02*
X87778095Y-71445771D01*
X87778095Y-71445771D02*
X87730476Y-71350533D01*
X87730476Y-71350533D02*
X87730476Y-71255295D01*
X87730476Y-71255295D02*
X87778095Y-71160057D01*
X87778095Y-71160057D02*
X87825714Y-71112438D01*
X87825714Y-71112438D02*
X87920952Y-71064819D01*
X87920952Y-71064819D02*
X88159047Y-71064819D01*
X88159047Y-71064819D02*
X88301904Y-71112438D01*
X89254285Y-72064819D02*
X88682857Y-72064819D01*
X88968571Y-72064819D02*
X88968571Y-71064819D01*
X88968571Y-71064819D02*
X88873333Y-71207676D01*
X88873333Y-71207676D02*
X88778095Y-71302914D01*
X88778095Y-71302914D02*
X88682857Y-71350533D01*
X74191905Y-99006819D02*
X74191905Y-98006819D01*
X74191905Y-98006819D02*
X74430000Y-98006819D01*
X74430000Y-98006819D02*
X74572857Y-98054438D01*
X74572857Y-98054438D02*
X74668095Y-98149676D01*
X74668095Y-98149676D02*
X74715714Y-98244914D01*
X74715714Y-98244914D02*
X74763333Y-98435390D01*
X74763333Y-98435390D02*
X74763333Y-98578247D01*
X74763333Y-98578247D02*
X74715714Y-98768723D01*
X74715714Y-98768723D02*
X74668095Y-98863961D01*
X74668095Y-98863961D02*
X74572857Y-98959200D01*
X74572857Y-98959200D02*
X74430000Y-99006819D01*
X74430000Y-99006819D02*
X74191905Y-99006819D01*
X75144286Y-98102057D02*
X75191905Y-98054438D01*
X75191905Y-98054438D02*
X75287143Y-98006819D01*
X75287143Y-98006819D02*
X75525238Y-98006819D01*
X75525238Y-98006819D02*
X75620476Y-98054438D01*
X75620476Y-98054438D02*
X75668095Y-98102057D01*
X75668095Y-98102057D02*
X75715714Y-98197295D01*
X75715714Y-98197295D02*
X75715714Y-98292533D01*
X75715714Y-98292533D02*
X75668095Y-98435390D01*
X75668095Y-98435390D02*
X75096667Y-99006819D01*
X75096667Y-99006819D02*
X75715714Y-99006819D01*
X97576905Y-74299819D02*
X97576905Y-73299819D01*
X97576905Y-73299819D02*
X97815000Y-73299819D01*
X97815000Y-73299819D02*
X97957857Y-73347438D01*
X97957857Y-73347438D02*
X98053095Y-73442676D01*
X98053095Y-73442676D02*
X98100714Y-73537914D01*
X98100714Y-73537914D02*
X98148333Y-73728390D01*
X98148333Y-73728390D02*
X98148333Y-73871247D01*
X98148333Y-73871247D02*
X98100714Y-74061723D01*
X98100714Y-74061723D02*
X98053095Y-74156961D01*
X98053095Y-74156961D02*
X97957857Y-74252200D01*
X97957857Y-74252200D02*
X97815000Y-74299819D01*
X97815000Y-74299819D02*
X97576905Y-74299819D01*
X99100714Y-74299819D02*
X98529286Y-74299819D01*
X98815000Y-74299819D02*
X98815000Y-73299819D01*
X98815000Y-73299819D02*
X98719762Y-73442676D01*
X98719762Y-73442676D02*
X98624524Y-73537914D01*
X98624524Y-73537914D02*
X98529286Y-73585533D01*
X100696333Y-74299819D02*
X100124905Y-74299819D01*
X100410619Y-74299819D02*
X100410619Y-73299819D01*
X100410619Y-73299819D02*
X100315381Y-73442676D01*
X100315381Y-73442676D02*
X100220143Y-73537914D01*
X100220143Y-73537914D02*
X100124905Y-73585533D01*
X101077286Y-74252200D02*
X101220143Y-74299819D01*
X101220143Y-74299819D02*
X101458238Y-74299819D01*
X101458238Y-74299819D02*
X101553476Y-74252200D01*
X101553476Y-74252200D02*
X101601095Y-74204580D01*
X101601095Y-74204580D02*
X101648714Y-74109342D01*
X101648714Y-74109342D02*
X101648714Y-74014104D01*
X101648714Y-74014104D02*
X101601095Y-73918866D01*
X101601095Y-73918866D02*
X101553476Y-73871247D01*
X101553476Y-73871247D02*
X101458238Y-73823628D01*
X101458238Y-73823628D02*
X101267762Y-73776009D01*
X101267762Y-73776009D02*
X101172524Y-73728390D01*
X101172524Y-73728390D02*
X101124905Y-73680771D01*
X101124905Y-73680771D02*
X101077286Y-73585533D01*
X101077286Y-73585533D02*
X101077286Y-73490295D01*
X101077286Y-73490295D02*
X101124905Y-73395057D01*
X101124905Y-73395057D02*
X101172524Y-73347438D01*
X101172524Y-73347438D02*
X101267762Y-73299819D01*
X101267762Y-73299819D02*
X101505857Y-73299819D01*
X101505857Y-73299819D02*
X101648714Y-73347438D01*
X102505857Y-73633152D02*
X102505857Y-74299819D01*
X102267762Y-73252200D02*
X102029667Y-73966485D01*
X102029667Y-73966485D02*
X102648714Y-73966485D01*
X92916476Y-76416819D02*
X92916476Y-77131104D01*
X92916476Y-77131104D02*
X92868857Y-77273961D01*
X92868857Y-77273961D02*
X92773619Y-77369200D01*
X92773619Y-77369200D02*
X92630762Y-77416819D01*
X92630762Y-77416819D02*
X92535524Y-77416819D01*
X93916476Y-77416819D02*
X93345048Y-77416819D01*
X93630762Y-77416819D02*
X93630762Y-76416819D01*
X93630762Y-76416819D02*
X93535524Y-76559676D01*
X93535524Y-76559676D02*
X93440286Y-76654914D01*
X93440286Y-76654914D02*
X93345048Y-76702533D01*
X94773619Y-76750152D02*
X94773619Y-77416819D01*
X94535524Y-76369200D02*
X94297429Y-77083485D01*
X94297429Y-77083485D02*
X94916476Y-77083485D01*
X77863819Y-83712333D02*
X78578104Y-83712333D01*
X78578104Y-83712333D02*
X78720961Y-83759952D01*
X78720961Y-83759952D02*
X78816200Y-83855190D01*
X78816200Y-83855190D02*
X78863819Y-83998047D01*
X78863819Y-83998047D02*
X78863819Y-84093285D01*
X77863819Y-82759952D02*
X77863819Y-83236142D01*
X77863819Y-83236142D02*
X78340009Y-83283761D01*
X78340009Y-83283761D02*
X78292390Y-83236142D01*
X78292390Y-83236142D02*
X78244771Y-83140904D01*
X78244771Y-83140904D02*
X78244771Y-82902809D01*
X78244771Y-82902809D02*
X78292390Y-82807571D01*
X78292390Y-82807571D02*
X78340009Y-82759952D01*
X78340009Y-82759952D02*
X78435247Y-82712333D01*
X78435247Y-82712333D02*
X78673342Y-82712333D01*
X78673342Y-82712333D02*
X78768580Y-82759952D01*
X78768580Y-82759952D02*
X78816200Y-82807571D01*
X78816200Y-82807571D02*
X78863819Y-82902809D01*
X78863819Y-82902809D02*
X78863819Y-83140904D01*
X78863819Y-83140904D02*
X78816200Y-83236142D01*
X78816200Y-83236142D02*
X78768580Y-83283761D01*
X90065333Y-65661580D02*
X90017714Y-65709200D01*
X90017714Y-65709200D02*
X89874857Y-65756819D01*
X89874857Y-65756819D02*
X89779619Y-65756819D01*
X89779619Y-65756819D02*
X89636762Y-65709200D01*
X89636762Y-65709200D02*
X89541524Y-65613961D01*
X89541524Y-65613961D02*
X89493905Y-65518723D01*
X89493905Y-65518723D02*
X89446286Y-65328247D01*
X89446286Y-65328247D02*
X89446286Y-65185390D01*
X89446286Y-65185390D02*
X89493905Y-64994914D01*
X89493905Y-64994914D02*
X89541524Y-64899676D01*
X89541524Y-64899676D02*
X89636762Y-64804438D01*
X89636762Y-64804438D02*
X89779619Y-64756819D01*
X89779619Y-64756819D02*
X89874857Y-64756819D01*
X89874857Y-64756819D02*
X90017714Y-64804438D01*
X90017714Y-64804438D02*
X90065333Y-64852057D01*
X91017714Y-65756819D02*
X90446286Y-65756819D01*
X90732000Y-65756819D02*
X90732000Y-64756819D01*
X90732000Y-64756819D02*
X90636762Y-64899676D01*
X90636762Y-64899676D02*
X90541524Y-64994914D01*
X90541524Y-64994914D02*
X90446286Y-65042533D01*
X85372618Y-67354819D02*
X84801190Y-67354819D01*
X85086904Y-67354819D02*
X85086904Y-66354819D01*
X85086904Y-66354819D02*
X84991666Y-66497676D01*
X84991666Y-66497676D02*
X84896428Y-66592914D01*
X84896428Y-66592914D02*
X84801190Y-66640533D01*
X85991666Y-66354819D02*
X86086904Y-66354819D01*
X86086904Y-66354819D02*
X86182142Y-66402438D01*
X86182142Y-66402438D02*
X86229761Y-66450057D01*
X86229761Y-66450057D02*
X86277380Y-66545295D01*
X86277380Y-66545295D02*
X86324999Y-66735771D01*
X86324999Y-66735771D02*
X86324999Y-66973866D01*
X86324999Y-66973866D02*
X86277380Y-67164342D01*
X86277380Y-67164342D02*
X86229761Y-67259580D01*
X86229761Y-67259580D02*
X86182142Y-67307200D01*
X86182142Y-67307200D02*
X86086904Y-67354819D01*
X86086904Y-67354819D02*
X85991666Y-67354819D01*
X85991666Y-67354819D02*
X85896428Y-67307200D01*
X85896428Y-67307200D02*
X85848809Y-67259580D01*
X85848809Y-67259580D02*
X85801190Y-67164342D01*
X85801190Y-67164342D02*
X85753571Y-66973866D01*
X85753571Y-66973866D02*
X85753571Y-66735771D01*
X85753571Y-66735771D02*
X85801190Y-66545295D01*
X85801190Y-66545295D02*
X85848809Y-66450057D01*
X85848809Y-66450057D02*
X85896428Y-66402438D01*
X85896428Y-66402438D02*
X85991666Y-66354819D01*
X86944047Y-66354819D02*
X87039285Y-66354819D01*
X87039285Y-66354819D02*
X87134523Y-66402438D01*
X87134523Y-66402438D02*
X87182142Y-66450057D01*
X87182142Y-66450057D02*
X87229761Y-66545295D01*
X87229761Y-66545295D02*
X87277380Y-66735771D01*
X87277380Y-66735771D02*
X87277380Y-66973866D01*
X87277380Y-66973866D02*
X87229761Y-67164342D01*
X87229761Y-67164342D02*
X87182142Y-67259580D01*
X87182142Y-67259580D02*
X87134523Y-67307200D01*
X87134523Y-67307200D02*
X87039285Y-67354819D01*
X87039285Y-67354819D02*
X86944047Y-67354819D01*
X86944047Y-67354819D02*
X86848809Y-67307200D01*
X86848809Y-67307200D02*
X86801190Y-67259580D01*
X86801190Y-67259580D02*
X86753571Y-67164342D01*
X86753571Y-67164342D02*
X86705952Y-66973866D01*
X86705952Y-66973866D02*
X86705952Y-66735771D01*
X86705952Y-66735771D02*
X86753571Y-66545295D01*
X86753571Y-66545295D02*
X86801190Y-66450057D01*
X86801190Y-66450057D02*
X86848809Y-66402438D01*
X86848809Y-66402438D02*
X86944047Y-66354819D01*
X88134523Y-66688152D02*
X88134523Y-67354819D01*
X87705952Y-66688152D02*
X87705952Y-67211961D01*
X87705952Y-67211961D02*
X87753571Y-67307200D01*
X87753571Y-67307200D02*
X87848809Y-67354819D01*
X87848809Y-67354819D02*
X87991666Y-67354819D01*
X87991666Y-67354819D02*
X88086904Y-67307200D01*
X88086904Y-67307200D02*
X88134523Y-67259580D01*
X88944047Y-66831009D02*
X88610714Y-66831009D01*
X88610714Y-67354819D02*
X88610714Y-66354819D01*
X88610714Y-66354819D02*
X89086904Y-66354819D01*
X90182142Y-66307200D02*
X89325000Y-67592914D01*
X90467857Y-66450057D02*
X90515476Y-66402438D01*
X90515476Y-66402438D02*
X90610714Y-66354819D01*
X90610714Y-66354819D02*
X90848809Y-66354819D01*
X90848809Y-66354819D02*
X90944047Y-66402438D01*
X90944047Y-66402438D02*
X90991666Y-66450057D01*
X90991666Y-66450057D02*
X91039285Y-66545295D01*
X91039285Y-66545295D02*
X91039285Y-66640533D01*
X91039285Y-66640533D02*
X90991666Y-66783390D01*
X90991666Y-66783390D02*
X90420238Y-67354819D01*
X90420238Y-67354819D02*
X91039285Y-67354819D01*
X91944047Y-66354819D02*
X91467857Y-66354819D01*
X91467857Y-66354819D02*
X91420238Y-66831009D01*
X91420238Y-66831009D02*
X91467857Y-66783390D01*
X91467857Y-66783390D02*
X91563095Y-66735771D01*
X91563095Y-66735771D02*
X91801190Y-66735771D01*
X91801190Y-66735771D02*
X91896428Y-66783390D01*
X91896428Y-66783390D02*
X91944047Y-66831009D01*
X91944047Y-66831009D02*
X91991666Y-66926247D01*
X91991666Y-66926247D02*
X91991666Y-67164342D01*
X91991666Y-67164342D02*
X91944047Y-67259580D01*
X91944047Y-67259580D02*
X91896428Y-67307200D01*
X91896428Y-67307200D02*
X91801190Y-67354819D01*
X91801190Y-67354819D02*
X91563095Y-67354819D01*
X91563095Y-67354819D02*
X91467857Y-67307200D01*
X91467857Y-67307200D02*
X91420238Y-67259580D01*
X92277381Y-66354819D02*
X92610714Y-67354819D01*
X92610714Y-67354819D02*
X92944047Y-66354819D01*
D10*
%TO.C,J18*%
X134306000Y-79959200D02*
X134306000Y-72279200D01*
X134306000Y-82559200D02*
X134306000Y-81229200D01*
X135636000Y-82559200D02*
X134306000Y-82559200D01*
X136966000Y-72279200D02*
X134306000Y-72279200D01*
X136966000Y-79959200D02*
X134306000Y-79959200D01*
X136966000Y-79959200D02*
X136966000Y-72279200D01*
%TO.C,J13*%
X97730000Y-88392000D02*
X97730000Y-78172000D01*
X97730000Y-90992000D02*
X97730000Y-89662000D01*
X99060000Y-90992000D02*
X97730000Y-90992000D01*
X100390000Y-78172000D02*
X97730000Y-78172000D01*
X100390000Y-88392000D02*
X97730000Y-88392000D01*
X100390000Y-88392000D02*
X100390000Y-78172000D01*
%TO.C,J11*%
X112804000Y-70102000D02*
X127404000Y-70102000D01*
X112804000Y-86802000D02*
X112804000Y-70102000D01*
D13*
X120904000Y-74852000D02*
X127104000Y-74852000D01*
X120904000Y-75772000D02*
X127104000Y-75772000D01*
X120904000Y-76792000D02*
X127104000Y-76792000D01*
X120904000Y-77812000D02*
X127104000Y-77812000D01*
X120904000Y-78832000D02*
X127104000Y-78832000D01*
X120904000Y-79852000D02*
X127104000Y-79852000D01*
X120904000Y-80872000D02*
X127104000Y-80872000D01*
X120904000Y-81892000D02*
X127104000Y-81892000D01*
D10*
X125304000Y-86802000D02*
X125304000Y-70102000D01*
X127404000Y-70102000D02*
X127404000Y-86802000D01*
X127404000Y-86802000D02*
X112804000Y-86802000D01*
%TO.C,C2*%
X95353000Y-63020000D02*
X95353000Y-63005000D01*
X95353000Y-65145000D02*
X95353000Y-65130000D01*
X99893000Y-63005000D02*
X95353000Y-63005000D01*
X99893000Y-63020000D02*
X99893000Y-63005000D01*
X99893000Y-65145000D02*
X95353000Y-65145000D01*
X99893000Y-65145000D02*
X99893000Y-65130000D01*
%TO.C,F1*%
X89525000Y-75674000D02*
X93625000Y-75674000D01*
X89525000Y-87374000D02*
X89525000Y-75674000D01*
X89525000Y-87374000D02*
X93625000Y-87374000D01*
X93625000Y-87374000D02*
X93625000Y-75674000D01*
%TO.C,R1*%
X79330000Y-96045000D02*
X79660000Y-96045000D01*
X79330000Y-102585000D02*
X79330000Y-96045000D01*
X79660000Y-102585000D02*
X79330000Y-102585000D01*
X81740000Y-102585000D02*
X82070000Y-102585000D01*
X82070000Y-96045000D02*
X81740000Y-96045000D01*
X82070000Y-102585000D02*
X82070000Y-96045000D01*
%TO.C,U1*%
X93980000Y-63081200D02*
X149330000Y-63081200D01*
X149330000Y-90881200D01*
X93980000Y-90881200D01*
X93980000Y-63081200D01*
X97282000Y-79451200D02*
G75*
G02*
X95758000Y-79451200I-762000J0D01*
G01*
X95758000Y-79451200D02*
G75*
G02*
X97282000Y-79451200I762000J0D01*
G01*
X97282000Y-81991200D02*
G75*
G02*
X95758000Y-81991200I-762000J0D01*
G01*
X95758000Y-81991200D02*
G75*
G02*
X97282000Y-81991200I762000J0D01*
G01*
X97282000Y-84531200D02*
G75*
G02*
X95758000Y-84531200I-762000J0D01*
G01*
X95758000Y-84531200D02*
G75*
G02*
X97282000Y-84531200I762000J0D01*
G01*
X97282000Y-87071200D02*
G75*
G02*
X95758000Y-87071200I-762000J0D01*
G01*
X95758000Y-87071200D02*
G75*
G02*
X97282000Y-87071200I762000J0D01*
G01*
X97282000Y-89611200D02*
G75*
G02*
X95758000Y-89611200I-762000J0D01*
G01*
X95758000Y-89611200D02*
G75*
G02*
X97282000Y-89611200I762000J0D01*
G01*
X99822000Y-79451200D02*
G75*
G02*
X98298000Y-79451200I-762000J0D01*
G01*
X98298000Y-79451200D02*
G75*
G02*
X99822000Y-79451200I762000J0D01*
G01*
X99822000Y-81991200D02*
G75*
G02*
X98298000Y-81991200I-762000J0D01*
G01*
X98298000Y-81991200D02*
G75*
G02*
X99822000Y-81991200I762000J0D01*
G01*
X99822000Y-84531200D02*
G75*
G02*
X98298000Y-84531200I-762000J0D01*
G01*
X98298000Y-84531200D02*
G75*
G02*
X99822000Y-84531200I762000J0D01*
G01*
X99822000Y-87071200D02*
G75*
G02*
X98298000Y-87071200I-762000J0D01*
G01*
X98298000Y-87071200D02*
G75*
G02*
X99822000Y-87071200I762000J0D01*
G01*
X99822000Y-89611200D02*
G75*
G02*
X98298000Y-89611200I-762000J0D01*
G01*
X98298000Y-89611200D02*
G75*
G02*
X99822000Y-89611200I762000J0D01*
G01*
X133902000Y-72311200D02*
G75*
G02*
X132378000Y-72311200I-762000J0D01*
G01*
X132378000Y-72311200D02*
G75*
G02*
X133902000Y-72311200I762000J0D01*
G01*
X133902000Y-74851200D02*
G75*
G02*
X132378000Y-74851200I-762000J0D01*
G01*
X132378000Y-74851200D02*
G75*
G02*
X133902000Y-74851200I762000J0D01*
G01*
X133902000Y-77391200D02*
G75*
G02*
X132378000Y-77391200I-762000J0D01*
G01*
X132378000Y-77391200D02*
G75*
G02*
X133902000Y-77391200I762000J0D01*
G01*
X133902000Y-79931200D02*
G75*
G02*
X132378000Y-79931200I-762000J0D01*
G01*
X132378000Y-79931200D02*
G75*
G02*
X133902000Y-79931200I762000J0D01*
G01*
X136442000Y-73581200D02*
G75*
G02*
X134918000Y-73581200I-762000J0D01*
G01*
X134918000Y-73581200D02*
G75*
G02*
X136442000Y-73581200I762000J0D01*
G01*
X136442000Y-76121200D02*
G75*
G02*
X134918000Y-76121200I-762000J0D01*
G01*
X134918000Y-76121200D02*
G75*
G02*
X136442000Y-76121200I762000J0D01*
G01*
X136442000Y-78661200D02*
G75*
G02*
X134918000Y-78661200I-762000J0D01*
G01*
X134918000Y-78661200D02*
G75*
G02*
X136442000Y-78661200I762000J0D01*
G01*
X136442000Y-81201200D02*
G75*
G02*
X134918000Y-81201200I-762000J0D01*
G01*
X134918000Y-81201200D02*
G75*
G02*
X136442000Y-81201200I762000J0D01*
G01*
%TO.C,J19*%
X131512000Y-78613000D02*
X131512000Y-70933000D01*
X131512000Y-81213000D02*
X131512000Y-79883000D01*
X132842000Y-81213000D02*
X131512000Y-81213000D01*
X134172000Y-70933000D02*
X131512000Y-70933000D01*
X134172000Y-78613000D02*
X131512000Y-78613000D01*
X134172000Y-78613000D02*
X134172000Y-70933000D01*
%TO.C,J12*%
X65472000Y-89709000D02*
X77192000Y-89709000D01*
X65472000Y-93519000D02*
X65472000Y-89709000D01*
X65472000Y-93519000D02*
X65472000Y-97329000D01*
X65472000Y-97329000D02*
X77192000Y-97329000D01*
X66082000Y-92019000D02*
X66082000Y-92519000D01*
X66082000Y-92519000D02*
X71582000Y-92519000D01*
X66082000Y-94519000D02*
X66082000Y-95019000D01*
X66082000Y-95019000D02*
X71582000Y-95019000D01*
X71582000Y-92019000D02*
X66082000Y-92019000D01*
X71582000Y-92519000D02*
X71582000Y-92019000D01*
X71582000Y-94519000D02*
X66082000Y-94519000D01*
X71582000Y-95019000D02*
X71582000Y-94519000D01*
X72692000Y-91129000D02*
X72692000Y-93519000D01*
X72692000Y-95909000D02*
X72692000Y-93519000D01*
X76282000Y-92269000D02*
X76882000Y-91969000D01*
X76882000Y-91969000D02*
X76882000Y-92569000D01*
X76882000Y-92569000D02*
X76282000Y-92269000D01*
X77192000Y-89709000D02*
X77192000Y-91129000D01*
X77192000Y-91129000D02*
X72692000Y-91129000D01*
X77192000Y-95909000D02*
X72692000Y-95909000D01*
X77192000Y-97329000D02*
X77192000Y-95909000D01*
%TO.C,A1*%
X121790000Y-90040000D02*
X121790000Y-108080000D01*
X121790000Y-108080000D02*
X124460000Y-108080000D01*
X124460000Y-92710000D02*
X124460000Y-90040000D01*
X124460000Y-92710000D02*
X162560000Y-92710000D01*
X124460000Y-105410000D02*
X124460000Y-108080000D01*
X127000000Y-105410000D02*
X124460000Y-105410000D01*
X127000000Y-105410000D02*
X127000000Y-108080000D01*
X127000000Y-105410000D02*
X162560000Y-105410000D01*
X127000000Y-108080000D02*
X165230000Y-108080000D01*
X157350000Y-95120000D02*
X167770000Y-95120000D01*
X157350000Y-103000000D02*
X157350000Y-95120000D01*
X162560000Y-92710000D02*
X162560000Y-90040000D01*
X162560000Y-105410000D02*
X162560000Y-108080000D01*
X165230000Y-90040000D02*
X121790000Y-90040000D01*
X165230000Y-90040000D02*
X165230000Y-95120000D01*
X165230000Y-108080000D02*
X165230000Y-103000000D01*
X167770000Y-95120000D02*
X167770000Y-103000000D01*
X167770000Y-103000000D02*
X157350000Y-103000000D01*
%TO.C,C4*%
X82730000Y-78180000D02*
X82730000Y-78195000D01*
X82730000Y-78180000D02*
X87270000Y-78180000D01*
X82730000Y-80305000D02*
X82730000Y-80320000D01*
X82730000Y-80320000D02*
X87270000Y-80320000D01*
X87270000Y-78180000D02*
X87270000Y-78195000D01*
X87270000Y-80305000D02*
X87270000Y-80320000D01*
%TO.C,J3*%
X102149600Y-90160800D02*
X117509600Y-90160800D01*
X102149600Y-92760800D02*
X102149600Y-90160800D01*
X102149600Y-95360800D02*
X102149600Y-94030800D01*
X103479600Y-95360800D02*
X102149600Y-95360800D01*
X104749600Y-92760800D02*
X102149600Y-92760800D01*
X104749600Y-95360800D02*
X104749600Y-92760800D01*
X104749600Y-95360800D02*
X117509600Y-95360800D01*
X117509600Y-95360800D02*
X117509600Y-90160800D01*
%TO.C,J4*%
X65620000Y-64242000D02*
X77340000Y-64242000D01*
X65620000Y-70552000D02*
X65620000Y-64242000D01*
X65620000Y-70552000D02*
X65620000Y-76862000D01*
X65620000Y-76862000D02*
X77340000Y-76862000D01*
X66230000Y-66552000D02*
X66230000Y-67052000D01*
X66230000Y-67052000D02*
X71730000Y-67052000D01*
X66230000Y-69052000D02*
X66230000Y-69552000D01*
X66230000Y-69552000D02*
X71730000Y-69552000D01*
X66230000Y-71552000D02*
X66230000Y-72052000D01*
X66230000Y-72052000D02*
X71730000Y-72052000D01*
X66230000Y-74052000D02*
X66230000Y-74552000D01*
X66230000Y-74552000D02*
X71730000Y-74552000D01*
X71730000Y-66552000D02*
X66230000Y-66552000D01*
X71730000Y-67052000D02*
X71730000Y-66552000D01*
X71730000Y-69052000D02*
X66230000Y-69052000D01*
X71730000Y-69552000D02*
X71730000Y-69052000D01*
X71730000Y-71552000D02*
X66230000Y-71552000D01*
X71730000Y-72052000D02*
X71730000Y-71552000D01*
X71730000Y-74052000D02*
X66230000Y-74052000D01*
X71730000Y-74552000D02*
X71730000Y-74052000D01*
X72840000Y-65662000D02*
X72840000Y-70552000D01*
X72840000Y-75442000D02*
X72840000Y-70552000D01*
X76430000Y-66802000D02*
X77030000Y-66502000D01*
X77030000Y-66502000D02*
X77030000Y-67102000D01*
X77030000Y-67102000D02*
X76430000Y-66802000D01*
X77340000Y-64242000D02*
X77340000Y-65662000D01*
X77340000Y-65662000D02*
X72840000Y-65662000D01*
X77340000Y-75442000D02*
X72840000Y-75442000D01*
X77340000Y-76862000D02*
X77340000Y-75442000D01*
%TO.C,D4*%
X114115000Y-66112500D02*
X117955000Y-66112500D01*
X114115000Y-67952500D02*
X117955000Y-67952500D01*
%TO.C,J7*%
X106825000Y-102025000D02*
X106825000Y-103275000D01*
X107115000Y-102315000D02*
X107115000Y-108285000D01*
X107115000Y-108285000D02*
X114735000Y-108285000D01*
X107125000Y-102325000D02*
X107125000Y-103075000D01*
X107125000Y-103075000D02*
X108925000Y-103075000D01*
X107125000Y-104575000D02*
X107875000Y-104575000D01*
X107875000Y-104575000D02*
X107875000Y-107525000D01*
X107875000Y-107525000D02*
X110925000Y-107525000D01*
X108075000Y-102025000D02*
X106825000Y-102025000D01*
X108925000Y-102325000D02*
X107125000Y-102325000D01*
X108925000Y-103075000D02*
X108925000Y-102325000D01*
X110425000Y-102325000D02*
X110425000Y-103075000D01*
X110425000Y-103075000D02*
X111425000Y-103075000D01*
X111425000Y-102325000D02*
X110425000Y-102325000D01*
X111425000Y-103075000D02*
X111425000Y-102325000D01*
X112925000Y-102325000D02*
X112925000Y-103075000D01*
X112925000Y-103075000D02*
X114725000Y-103075000D01*
X113975000Y-104575000D02*
X113975000Y-107525000D01*
X113975000Y-107525000D02*
X110925000Y-107525000D01*
X114725000Y-102325000D02*
X112925000Y-102325000D01*
X114725000Y-103075000D02*
X114725000Y-102325000D01*
X114725000Y-104575000D02*
X113975000Y-104575000D01*
X114735000Y-102315000D02*
X107115000Y-102315000D01*
X114735000Y-108285000D02*
X114735000Y-102315000D01*
D17*
%TO.C,U2*%
X94039700Y-66028900D02*
X94039700Y-73471100D01*
X94039700Y-73471100D02*
X111286300Y-73471100D01*
X111286300Y-66028900D02*
X94039700Y-66028900D01*
X111286300Y-73471100D02*
X111286300Y-66028900D01*
D10*
%TO.C,J6*%
X93800000Y-105975000D02*
X93800000Y-107225000D01*
X93800000Y-107225000D02*
X95050000Y-107225000D01*
X94090000Y-96815000D02*
X94090000Y-106935000D01*
X94090000Y-106935000D02*
X100060000Y-106935000D01*
X94100000Y-96825000D02*
X94100000Y-98625000D01*
X94100000Y-98625000D02*
X94850000Y-98625000D01*
X94100000Y-100125000D02*
X94100000Y-103625000D01*
X94100000Y-103625000D02*
X94850000Y-103625000D01*
X94100000Y-105125000D02*
X94100000Y-106925000D01*
X94100000Y-106925000D02*
X94850000Y-106925000D01*
X94850000Y-96825000D02*
X94100000Y-96825000D01*
X94850000Y-98625000D02*
X94850000Y-96825000D01*
X94850000Y-100125000D02*
X94100000Y-100125000D01*
X94850000Y-103625000D02*
X94850000Y-100125000D01*
X94850000Y-105125000D02*
X94100000Y-105125000D01*
X94850000Y-106925000D02*
X94850000Y-105125000D01*
X96350000Y-96825000D02*
X96350000Y-97575000D01*
X96350000Y-97575000D02*
X99300000Y-97575000D01*
X96350000Y-106175000D02*
X99300000Y-106175000D01*
X96350000Y-106925000D02*
X96350000Y-106175000D01*
X99300000Y-97575000D02*
X99300000Y-101875000D01*
X99300000Y-106175000D02*
X99300000Y-101875000D01*
X100060000Y-96815000D02*
X94090000Y-96815000D01*
X100060000Y-106935000D02*
X100060000Y-96815000D01*
%TO.C,C5*%
X102846000Y-63005000D02*
X102846000Y-63020000D01*
X102846000Y-63005000D02*
X107386000Y-63005000D01*
X102846000Y-65130000D02*
X102846000Y-65145000D01*
X102846000Y-65145000D02*
X107386000Y-65145000D01*
X107386000Y-63005000D02*
X107386000Y-63020000D01*
X107386000Y-65130000D02*
X107386000Y-65145000D01*
%TO.C,R2*%
X102109600Y-99915000D02*
X102109600Y-106455000D01*
X102109600Y-106455000D02*
X102439600Y-106455000D01*
X102439600Y-99915000D02*
X102109600Y-99915000D01*
X104519600Y-99915000D02*
X104849600Y-99915000D01*
X104849600Y-99915000D02*
X104849600Y-106455000D01*
X104849600Y-106455000D02*
X104519600Y-106455000D01*
%TO.C,D3*%
X84382000Y-86434000D02*
X84382000Y-91874000D01*
X84382000Y-91874000D02*
X87322000Y-91874000D01*
X85852000Y-85414000D02*
X85852000Y-86434000D01*
X85852000Y-92894000D02*
X85852000Y-91874000D01*
X87322000Y-86434000D02*
X84382000Y-86434000D01*
X87322000Y-87214000D02*
X84382000Y-87214000D01*
X87322000Y-87334000D02*
X84382000Y-87334000D01*
X87322000Y-87454000D02*
X84382000Y-87454000D01*
X87322000Y-91874000D02*
X87322000Y-86434000D01*
D12*
%TO.C,R3*%
X104349000Y-75788000D02*
X108249000Y-75788000D01*
X104349000Y-87788000D02*
X104349000Y-75788000D01*
X104349000Y-87788000D02*
X108249000Y-87788000D01*
X108249000Y-87788000D02*
X108249000Y-75788000D01*
D10*
%TO.C,FL1*%
X80976000Y-72626000D02*
X80976000Y-75674000D01*
X80976000Y-75674000D02*
X89358000Y-75674000D01*
X89358000Y-72626000D02*
X80976000Y-72626000D01*
X89358000Y-75674000D02*
X89358000Y-72626000D01*
%TO.C,D2*%
X73694000Y-103414000D02*
X73850000Y-103414000D01*
X76010000Y-103414000D02*
X76166000Y-103414000D01*
X73694484Y-103414000D02*
G75*
G02*
X73849939Y-100182603I1235516J1560000D01*
G01*
X73850000Y-102894961D02*
G75*
G02*
X73849951Y-100813090I1080000J1040961D01*
G01*
X76010049Y-100813090D02*
G75*
G02*
X76010000Y-102894961I-1080049J-1040910D01*
G01*
X76010061Y-100182603D02*
G75*
G02*
X76165516Y-103414000I-1080061J-1671397D01*
G01*
%TO.C,D1*%
X97030000Y-74830000D02*
X100870000Y-74830000D01*
X97030000Y-76670000D02*
X100870000Y-76670000D01*
%TO.C,J14*%
X95190000Y-88392000D02*
X95190000Y-78172000D01*
X95190000Y-90992000D02*
X95190000Y-89662000D01*
X96520000Y-90992000D02*
X95190000Y-90992000D01*
X97850000Y-78172000D02*
X95190000Y-78172000D01*
X97850000Y-88392000D02*
X95190000Y-88392000D01*
X97850000Y-88392000D02*
X97850000Y-78172000D01*
%TO.C,J5*%
X65599000Y-78319000D02*
X77319000Y-78319000D01*
X65599000Y-83379000D02*
X65599000Y-78319000D01*
X65599000Y-83379000D02*
X65599000Y-88439000D01*
X65599000Y-88439000D02*
X77319000Y-88439000D01*
X66209000Y-80629000D02*
X66209000Y-81129000D01*
X66209000Y-81129000D02*
X71709000Y-81129000D01*
X66209000Y-83129000D02*
X66209000Y-83629000D01*
X66209000Y-83629000D02*
X71709000Y-83629000D01*
X66209000Y-85629000D02*
X66209000Y-86129000D01*
X66209000Y-86129000D02*
X71709000Y-86129000D01*
X71709000Y-80629000D02*
X66209000Y-80629000D01*
X71709000Y-81129000D02*
X71709000Y-80629000D01*
X71709000Y-83129000D02*
X66209000Y-83129000D01*
X71709000Y-83629000D02*
X71709000Y-83129000D01*
X71709000Y-85629000D02*
X66209000Y-85629000D01*
X71709000Y-86129000D02*
X71709000Y-85629000D01*
X72819000Y-79739000D02*
X72819000Y-83379000D01*
X72819000Y-87019000D02*
X72819000Y-83379000D01*
X76409000Y-80879000D02*
X77009000Y-80579000D01*
X77009000Y-80579000D02*
X77009000Y-81179000D01*
X77009000Y-81179000D02*
X76409000Y-80879000D01*
X77319000Y-78319000D02*
X77319000Y-79739000D01*
X77319000Y-79739000D02*
X72819000Y-79739000D01*
X77319000Y-87019000D02*
X72819000Y-87019000D01*
X77319000Y-88439000D02*
X77319000Y-87019000D01*
%TO.C,C1*%
X93552000Y-70302000D02*
G75*
G02*
X88312000Y-70302000I-2620000J0D01*
G01*
X88312000Y-70302000D02*
G75*
G02*
X93552000Y-70302000I2620000J0D01*
G01*
%TD*%
M02*
